<?xml version="1.0" encoding="utf-8"?>
<!-- Generator: Adobe Illustrator 24.3.0, SVG Export Plug-In . SVG Version: 6.00 Build 0)  -->
<svg version="1.1" id="Layer_1" xmlns="http://www.w3.org/2000/svg" xmlns:xlink="http://www.w3.org/1999/xlink" x="0px" y="0px"
	 viewBox="0 0 115 76.6" style="enable-background:new 0 0 115 76.6;" xml:space="preserve">
<style type="text/css">
	.st0{enable-background:new    ;}
	.st1{fill:#3C3C3C;}
</style>
<g>
	<g class="st0">
		<path class="st1" d="M13.7,20.9l-5.1,4.5l-3.1-3.5l8.3-7h5v25.5h-5.2V20.9z"/>
	</g>
	<g class="st0">
		<path class="st1" d="M56.1,32.5l-6.9-10.6h5l3.9,6.9l4.1-6.9H67l-6.9,10.6v7.9h-4.1V32.5z"/>
	</g>
	<g class="st0">
		<path class="st1" d="M91.3,34.6l9.9-8.9c0.5-0.5,1-1,1.5-1.5c0.5-0.6,0.8-1.2,0.8-2c0-0.9-0.3-1.5-0.9-2s-1.4-0.7-2.2-0.7
			c-1,0-1.8,0.3-2.4,0.9c-0.6,0.6-0.9,1.4-1,2.3l-5.4-0.4c0.1-1.3,0.3-2.5,0.8-3.4s1.1-1.8,1.9-2.4c0.8-0.6,1.7-1.1,2.8-1.5
			c1.1-0.3,2.2-0.5,3.5-0.5c1.2,0,2.2,0.2,3.2,0.5c1,0.3,1.9,0.8,2.6,1.4c0.7,0.6,1.3,1.4,1.7,2.4s0.6,2.1,0.6,3.3
			c0,0.8-0.1,1.6-0.3,2.2s-0.4,1.3-0.7,1.8s-0.7,1-1.1,1.5c-0.4,0.5-0.9,0.9-1.3,1.3l-7.7,6.7h11.3v4.8H91.3V34.6z"/>
	</g>
	<g class="st0">
		<path class="st1" d="M7.4,52h3.8c0.3,0,0.7,0,1,0.1c0.4,0.1,0.7,0.2,1.1,0.4c0.4,0.2,0.7,0.4,1,0.6c0.3,0.3,0.6,0.6,0.9,0.9
			c0.3,0.4,0.5,0.8,0.6,1.3c0.1,0.5,0.2,1,0.2,1.6s-0.1,1.2-0.2,1.6c-0.1,0.5-0.4,0.9-0.6,1.3c-0.3,0.4-0.5,0.7-0.9,0.9
			c-0.3,0.3-0.7,0.5-1,0.6s-0.7,0.3-1.1,0.4c-0.4,0.1-0.7,0.1-1,0.1H7.4V52z M8.5,60.8h2.2c0.6,0,1.1-0.1,1.6-0.2
			c0.5-0.1,0.9-0.4,1.3-0.7c0.4-0.3,0.6-0.7,0.8-1.2c0.2-0.5,0.3-1.1,0.3-1.8c0-0.7-0.1-1.3-0.3-1.8c-0.2-0.5-0.5-0.9-0.8-1.2
			c-0.4-0.3-0.8-0.5-1.3-0.7s-1-0.2-1.6-0.2H8.5V60.8z"/>
		<path class="st1" d="M23.1,62.2c-0.8,0-1.4-0.1-2.1-0.4c-0.6-0.3-1.2-0.6-1.6-1.1s-0.8-1-1.1-1.7s-0.4-1.3-0.4-2.1
			c0-0.7,0.1-1.4,0.4-2.1c0.3-0.6,0.6-1.2,1.1-1.7c0.5-0.5,1-0.8,1.6-1.1c0.6-0.3,1.3-0.4,2.1-0.4c0.8,0,1.4,0.1,2.1,0.4
			c0.6,0.3,1.2,0.6,1.6,1.1c0.5,0.5,0.8,1,1.1,1.7c0.3,0.6,0.4,1.3,0.4,2.1c0,0.7-0.1,1.4-0.4,2.1s-0.6,1.2-1.1,1.7
			c-0.5,0.5-1,0.8-1.6,1.1C24.5,62.1,23.8,62.2,23.1,62.2z M23.1,61.1c0.6,0,1.1-0.1,1.6-0.3c0.5-0.2,0.9-0.5,1.2-0.9
			s0.6-0.8,0.8-1.3c0.2-0.5,0.3-1,0.3-1.6s-0.1-1.1-0.3-1.6c-0.2-0.5-0.5-0.9-0.8-1.3c-0.3-0.4-0.8-0.7-1.2-0.9
			c-0.5-0.2-1-0.3-1.6-0.3S22,53,21.5,53.2c-0.5,0.2-0.9,0.5-1.2,0.9c-0.3,0.4-0.6,0.8-0.8,1.3c-0.2,0.5-0.3,1-0.3,1.6
			s0.1,1.1,0.3,1.6c0.2,0.5,0.5,0.9,0.8,1.3s0.8,0.7,1.2,0.9C22,61,22.5,61.1,23.1,61.1z"/>
		<path class="st1" d="M30.7,52h2.5c0.5,0,0.9,0,1.4,0.1s0.9,0.2,1.3,0.4c0.4,0.2,0.7,0.5,0.9,0.8s0.4,0.8,0.4,1.5
			c0,0.7-0.2,1.3-0.7,1.8c-0.4,0.4-1,0.7-1.8,0.9l2.8,4.6h-1.4l-2.7-4.5h-1.5v4.5h-1.2V52z M31.9,56.4h1c0.3,0,0.7,0,1,0
			c0.4,0,0.7-0.1,1-0.2s0.5-0.3,0.7-0.5c0.2-0.2,0.3-0.5,0.3-0.9c0-0.4-0.1-0.6-0.2-0.9c-0.1-0.2-0.3-0.4-0.6-0.5
			c-0.2-0.1-0.5-0.2-0.8-0.2s-0.6-0.1-0.9-0.1h-1.7V56.4z"/>
		<path class="st1" d="M39.8,52h1.8l3.4,7.8h0l3.4-7.8h1.7v9.9h-1.2v-8.3h0l-3.6,8.3h-0.7L41,53.6h0v8.3h-1.2V52z"/>
		<path class="st1" d="M53.1,52h1.2v9.9h-1.2V52z"/>
		<path class="st1" d="M63.9,53.1h-3.3v8.8h-1.2v-8.8h-3.3V52h7.7V53.1z"/>
		<path class="st1" d="M70.5,62.2c-0.8,0-1.4-0.1-2.1-0.4c-0.6-0.3-1.2-0.6-1.6-1.1c-0.5-0.5-0.8-1-1.1-1.7
			c-0.3-0.6-0.4-1.3-0.4-2.1c0-0.7,0.1-1.4,0.4-2.1c0.3-0.6,0.6-1.2,1.1-1.7c0.5-0.5,1-0.8,1.6-1.1c0.6-0.3,1.3-0.4,2.1-0.4
			s1.4,0.1,2.1,0.4c0.6,0.3,1.2,0.6,1.6,1.1c0.5,0.5,0.8,1,1.1,1.7c0.3,0.6,0.4,1.3,0.4,2.1c0,0.7-0.1,1.4-0.4,2.1
			c-0.3,0.6-0.6,1.2-1.1,1.7c-0.5,0.5-1,0.8-1.6,1.1C71.9,62.1,71.2,62.2,70.5,62.2z M70.5,61.1c0.6,0,1.1-0.1,1.6-0.3
			c0.5-0.2,0.9-0.5,1.2-0.9c0.3-0.4,0.6-0.8,0.8-1.3c0.2-0.5,0.3-1,0.3-1.6s-0.1-1.1-0.3-1.6c-0.2-0.5-0.5-0.9-0.8-1.3
			c-0.3-0.4-0.8-0.7-1.2-0.9c-0.5-0.2-1-0.3-1.6-0.3c-0.6,0-1.1,0.1-1.6,0.3s-0.9,0.5-1.2,0.9c-0.3,0.4-0.6,0.8-0.8,1.3
			c-0.2,0.5-0.3,1-0.3,1.6s0.1,1.1,0.3,1.6c0.2,0.5,0.5,0.9,0.8,1.3c0.3,0.4,0.8,0.7,1.2,0.9S69.9,61.1,70.5,61.1z"/>
		<path class="st1" d="M78.1,52h2.5c0.5,0,0.9,0,1.4,0.1s0.9,0.2,1.3,0.4s0.7,0.5,0.9,0.8s0.3,0.8,0.3,1.5c0,0.7-0.2,1.3-0.7,1.8
			s-1,0.7-1.8,0.9l2.8,4.6h-1.4l-2.7-4.5h-1.5v4.5h-1.2V52z M79.3,56.4h1c0.3,0,0.7,0,1,0c0.3,0,0.7-0.1,1-0.2s0.5-0.3,0.7-0.5
			c0.2-0.2,0.3-0.5,0.3-0.9c0-0.4-0.1-0.6-0.2-0.9c-0.1-0.2-0.3-0.4-0.6-0.5c-0.2-0.1-0.5-0.2-0.8-0.2c-0.3,0-0.6-0.1-0.9-0.1h-1.7
			V56.4z"/>
		<path class="st1" d="M87.2,52h1.2v9.9h-1.2V52z"/>
		<path class="st1" d="M96,62.2c-0.8,0-1.4-0.1-2.1-0.4c-0.6-0.3-1.2-0.6-1.6-1.1c-0.5-0.5-0.8-1-1.1-1.7c-0.3-0.6-0.4-1.3-0.4-2.1
			c0-0.7,0.1-1.4,0.4-2.1c0.3-0.6,0.6-1.2,1.1-1.7c0.5-0.5,1-0.8,1.6-1.1c0.6-0.3,1.3-0.4,2.1-0.4c0.8,0,1.4,0.1,2.1,0.4
			c0.6,0.3,1.2,0.6,1.6,1.1c0.5,0.5,0.8,1,1.1,1.7c0.3,0.6,0.4,1.3,0.4,2.1c0,0.7-0.1,1.4-0.4,2.1c-0.3,0.6-0.6,1.2-1.1,1.7
			s-1,0.8-1.6,1.1C97.5,62.1,96.8,62.2,96,62.2z M96,61.1c0.6,0,1.1-0.1,1.6-0.3s0.9-0.5,1.2-0.9c0.3-0.4,0.6-0.8,0.8-1.3
			c0.2-0.5,0.3-1,0.3-1.6s-0.1-1.1-0.3-1.6c-0.2-0.5-0.5-0.9-0.8-1.3c-0.3-0.4-0.8-0.7-1.2-0.9s-1-0.3-1.6-0.3
			c-0.6,0-1.1,0.1-1.6,0.3c-0.5,0.2-0.9,0.5-1.2,0.9c-0.3,0.4-0.6,0.8-0.8,1.3c-0.2,0.5-0.3,1-0.3,1.6s0.1,1.1,0.3,1.6
			c0.2,0.5,0.5,0.9,0.8,1.3c0.3,0.4,0.8,0.7,1.2,0.9C94.9,61,95.5,61.1,96,61.1z"/>
		<path class="st1" d="M108.4,53.8c-0.2-0.3-0.5-0.5-0.8-0.7c-0.3-0.1-0.7-0.2-1-0.2c-0.3,0-0.5,0-0.8,0.1s-0.5,0.2-0.7,0.3
			s-0.4,0.3-0.5,0.5c-0.1,0.2-0.2,0.5-0.2,0.8c0,0.2,0,0.4,0.1,0.6c0.1,0.2,0.2,0.3,0.3,0.5c0.2,0.1,0.4,0.3,0.6,0.4
			c0.3,0.1,0.6,0.2,1,0.4c0.4,0.1,0.8,0.3,1.1,0.4c0.4,0.1,0.7,0.3,1,0.5s0.5,0.5,0.7,0.8c0.2,0.3,0.2,0.7,0.2,1.2
			c0,0.5-0.1,0.9-0.3,1.3c-0.2,0.4-0.5,0.7-0.8,0.9c-0.3,0.2-0.7,0.4-1.1,0.5c-0.4,0.1-0.9,0.2-1.3,0.2c-0.3,0-0.6,0-0.9-0.1
			c-0.3-0.1-0.6-0.1-0.8-0.2c-0.3-0.1-0.5-0.2-0.7-0.4c-0.2-0.2-0.4-0.4-0.6-0.6l1-0.8c0.2,0.4,0.5,0.6,0.9,0.8
			c0.4,0.2,0.8,0.3,1.2,0.3c0.3,0,0.5,0,0.8-0.1c0.3-0.1,0.5-0.2,0.7-0.3c0.2-0.1,0.4-0.3,0.5-0.5c0.1-0.2,0.2-0.5,0.2-0.7
			c0-0.3-0.1-0.6-0.2-0.7c-0.1-0.2-0.3-0.4-0.5-0.5c-0.2-0.1-0.5-0.3-0.8-0.4c-0.3-0.1-0.7-0.2-1.1-0.4c-0.4-0.1-0.7-0.2-1-0.4
			s-0.6-0.3-0.8-0.5c-0.2-0.2-0.4-0.5-0.5-0.8s-0.2-0.6-0.2-1.1c0-0.5,0.1-0.9,0.3-1.2c0.2-0.4,0.4-0.7,0.8-0.9
			c0.3-0.2,0.7-0.4,1.1-0.5c0.4-0.1,0.8-0.2,1.3-0.2c0.6,0,1.1,0.1,1.5,0.3c0.5,0.2,0.9,0.5,1.2,0.9L108.4,53.8z"/>
	</g>
</g>
</svg>
