<?xml version="1.0" encoding="utf-8"?>
<!-- Generator: Adobe Illustrator 24.3.0, SVG Export Plug-In . SVG Version: 6.00 Build 0)  -->
<svg version="1.1" id="Layer_1" xmlns="http://www.w3.org/2000/svg" xmlns:xlink="http://www.w3.org/1999/xlink" x="0px" y="0px"
	 viewBox="0 0 115 76.6" style="enable-background:new 0 0 115 76.6;" xml:space="preserve">
<style type="text/css">
	.st0{enable-background:new    ;}
	.st1{fill:#3C3C3C;}
</style>
<g class="st0">
	<path class="st1" d="M4.4-19.8h6.2v1.1H5.6v3.1h4.7v1.1H5.6v3.5h5.3v1.1H4.4V-19.8z"/>
	<path class="st1" d="M24.5-18c-0.2-0.3-0.5-0.5-0.8-0.7c-0.3-0.1-0.7-0.2-1-0.2c-0.3,0-0.5,0-0.8,0.1s-0.5,0.2-0.7,0.3
		c-0.2,0.1-0.4,0.3-0.5,0.5c-0.1,0.2-0.2,0.5-0.2,0.8c0,0.2,0,0.4,0.1,0.6c0.1,0.2,0.2,0.3,0.3,0.5c0.2,0.1,0.4,0.3,0.6,0.4
		c0.3,0.1,0.6,0.2,1,0.4c0.4,0.1,0.8,0.3,1.1,0.4c0.4,0.1,0.7,0.3,1,0.5s0.5,0.5,0.7,0.8c0.2,0.3,0.2,0.7,0.2,1.2
		c0,0.5-0.1,0.9-0.3,1.3c-0.2,0.4-0.5,0.7-0.8,0.9c-0.3,0.2-0.7,0.4-1.1,0.5c-0.4,0.1-0.9,0.2-1.3,0.2c-0.3,0-0.6,0-0.9-0.1
		c-0.3-0.1-0.6-0.1-0.8-0.2c-0.3-0.1-0.5-0.2-0.7-0.4c-0.2-0.2-0.4-0.4-0.6-0.6l1-0.8c0.2,0.4,0.5,0.6,0.9,0.8
		c0.4,0.2,0.8,0.3,1.2,0.3c0.3,0,0.5,0,0.8-0.1c0.3-0.1,0.5-0.2,0.7-0.3c0.2-0.1,0.4-0.3,0.5-0.5c0.1-0.2,0.2-0.5,0.2-0.7
		c0-0.3-0.1-0.6-0.2-0.7c-0.1-0.2-0.3-0.4-0.5-0.5c-0.2-0.1-0.5-0.3-0.8-0.4c-0.3-0.1-0.7-0.2-1.1-0.4c-0.4-0.1-0.7-0.2-1-0.4
		c-0.3-0.1-0.6-0.3-0.8-0.5s-0.4-0.5-0.5-0.8s-0.2-0.6-0.2-1.1c0-0.5,0.1-0.9,0.3-1.2c0.2-0.4,0.4-0.7,0.8-0.9
		c0.3-0.2,0.7-0.4,1.1-0.5c0.4-0.1,0.8-0.2,1.3-0.2c0.6,0,1.1,0.1,1.5,0.3c0.5,0.2,0.9,0.5,1.2,0.9L24.5-18z"/>
	<path class="st1" d="M41.2-18.7h-3.3v8.8h-1.2v-8.8h-3.3v-1.1h7.7V-18.7z"/>
	<path class="st1" d="M57-13.6c0,0.5-0.1,1.1-0.2,1.5s-0.4,0.9-0.6,1.3c-0.3,0.4-0.7,0.7-1.2,0.9c-0.5,0.2-1.1,0.3-1.7,0.3
		c-0.7,0-1.3-0.1-1.7-0.3c-0.5-0.2-0.9-0.5-1.2-0.9c-0.3-0.4-0.5-0.8-0.6-1.3s-0.2-1-0.2-1.5v-6.1h1.2v6c0,0.4,0,0.8,0.1,1.2
		c0.1,0.4,0.2,0.7,0.4,1c0.2,0.3,0.5,0.5,0.8,0.7s0.7,0.3,1.2,0.3c0.5,0,0.9-0.1,1.2-0.3c0.3-0.2,0.6-0.4,0.8-0.7
		c0.2-0.3,0.3-0.6,0.4-1c0.1-0.4,0.1-0.8,0.1-1.2v-6H57V-13.6z"/>
	<path class="st1" d="M66.2-19.8h3.8c0.3,0,0.7,0,1,0.1c0.4,0.1,0.7,0.2,1.1,0.4c0.4,0.2,0.7,0.4,1,0.6c0.3,0.3,0.6,0.6,0.9,0.9
		c0.3,0.4,0.5,0.8,0.6,1.3s0.2,1,0.2,1.6s-0.1,1.2-0.2,1.6c-0.1,0.5-0.4,0.9-0.6,1.3c-0.3,0.4-0.5,0.7-0.9,0.9
		c-0.3,0.3-0.7,0.5-1,0.6S71.5-10,71.1-10c-0.4,0.1-0.7,0.1-1,0.1h-3.8V-19.8z M67.4-10.9h2.2c0.6,0,1.1-0.1,1.6-0.2
		c0.5-0.1,0.9-0.4,1.3-0.7c0.4-0.3,0.6-0.7,0.8-1.2s0.3-1.1,0.3-1.8c0-0.7-0.1-1.3-0.3-1.8s-0.5-0.9-0.8-1.2
		c-0.4-0.3-0.8-0.5-1.3-0.7s-1-0.2-1.6-0.2h-2.2V-10.9z"/>
	<path class="st1" d="M83.8-19.8H85v9.9h-1.2V-19.8z"/>
	<path class="st1" d="M99-9.6c-0.8,0-1.4-0.1-2.1-0.4c-0.6-0.3-1.2-0.6-1.6-1.1c-0.5-0.5-0.8-1-1.1-1.7c-0.3-0.6-0.4-1.3-0.4-2.1
		c0-0.7,0.1-1.4,0.4-2.1c0.3-0.6,0.6-1.2,1.1-1.7c0.5-0.5,1-0.8,1.6-1.1c0.6-0.3,1.3-0.4,2.1-0.4s1.4,0.1,2.1,0.4
		c0.6,0.3,1.2,0.6,1.6,1.1c0.5,0.5,0.8,1,1.1,1.7c0.3,0.6,0.4,1.3,0.4,2.1c0,0.7-0.1,1.4-0.4,2.1c-0.3,0.6-0.6,1.2-1.1,1.7
		c-0.5,0.5-1,0.8-1.6,1.1C100.5-9.7,99.8-9.6,99-9.6z M99-10.7c0.6,0,1.1-0.1,1.6-0.3c0.5-0.2,0.9-0.5,1.2-0.9
		c0.3-0.4,0.6-0.8,0.8-1.3c0.2-0.5,0.3-1,0.3-1.6s-0.1-1.1-0.3-1.6c-0.2-0.5-0.5-0.9-0.8-1.3c-0.3-0.4-0.8-0.7-1.2-0.9
		c-0.5-0.2-1-0.3-1.6-0.3c-0.6,0-1.1,0.1-1.6,0.3s-0.9,0.5-1.2,0.9c-0.3,0.4-0.6,0.8-0.8,1.3c-0.2,0.5-0.3,1-0.3,1.6
		s0.1,1.1,0.3,1.6c0.2,0.5,0.5,0.9,0.8,1.3c0.3,0.4,0.8,0.7,1.2,0.9S98.5-10.7,99-10.7z"/>
</g>
<g class="st0">
	<path class="st1" d="M13.8,18.7l-5.1,4.5l-3.1-3.5l8.3-7h5v25.5h-5.2V18.7z"/>
	<path class="st1" d="M33.2,32.3h5.2l-3.2,10.2h-4.6L33.2,32.3z"/>
	<path class="st1" d="M47.5,32.5l9.9-8.9c0.5-0.5,1-1,1.5-1.5c0.5-0.6,0.8-1.2,0.8-2c0-0.9-0.3-1.5-0.9-2c-0.6-0.5-1.4-0.7-2.2-0.7
		c-1,0-1.8,0.3-2.4,0.9s-0.9,1.4-1,2.3l-5.4-0.4c0.1-1.3,0.3-2.5,0.8-3.4c0.5-1,1.1-1.8,1.9-2.4c0.8-0.6,1.7-1.1,2.8-1.5
		c1.1-0.3,2.2-0.5,3.5-0.5c1.2,0,2.2,0.2,3.2,0.5c1,0.3,1.9,0.8,2.6,1.4c0.7,0.6,1.3,1.4,1.7,2.4s0.6,2.1,0.6,3.3
		c0,0.8-0.1,1.6-0.3,2.2c-0.2,0.7-0.4,1.3-0.7,1.8c-0.3,0.5-0.7,1-1.1,1.5c-0.4,0.5-0.9,0.9-1.3,1.3L54,33.4h11.3v4.8H47.5V32.5z"/>
	<path class="st1" d="M75.5,32.3h5.2l-3.2,10.2h-4.6L75.5,32.3z"/>
	<path class="st1" d="M95.8,22.7h1.8c0.5,0,1,0,1.5-0.1c0.5-0.1,0.9-0.2,1.3-0.4s0.7-0.5,1-0.9c0.2-0.4,0.4-0.9,0.4-1.5
		c0-0.8-0.3-1.4-0.9-1.9c-0.6-0.5-1.4-0.8-2.2-0.8c-0.8,0-1.5,0.2-2.1,0.7s-0.9,1-1.1,1.7l-5.9-1.2c0.3-1.1,0.7-2,1.3-2.8
		c0.6-0.8,1.3-1.4,2.1-1.9s1.7-0.8,2.6-1.1c1-0.2,2-0.3,3.1-0.3c1.1,0,2.2,0.1,3.3,0.4c1,0.3,2,0.7,2.8,1.3s1.4,1.3,1.9,2.2
		c0.5,0.9,0.7,1.9,0.7,3.2c0,1.4-0.4,2.6-1.1,3.6c-0.7,1-1.8,1.7-3.2,1.9V25c0.8,0.1,1.4,0.3,2,0.7s1.1,0.8,1.5,1.3
		c0.4,0.5,0.7,1.1,0.9,1.8c0.2,0.7,0.3,1.4,0.3,2.1c0,1.3-0.2,2.4-0.7,3.3s-1.2,1.8-2,2.4c-0.8,0.6-1.8,1.1-2.9,1.4
		s-2.3,0.5-3.5,0.5c-2.3,0-4.2-0.5-5.9-1.6c-1.6-1.1-2.7-2.7-3.3-5l5.7-1.3c0.2,0.9,0.6,1.6,1.2,2.2c0.6,0.5,1.5,0.8,2.6,0.8
		c1.2,0,2-0.3,2.6-0.9c0.6-0.6,0.8-1.4,0.8-2.4c0-0.7-0.2-1.3-0.5-1.7c-0.3-0.4-0.7-0.7-1.2-0.9c-0.5-0.2-1-0.3-1.6-0.3
		c-0.6,0-1.2-0.1-1.8-0.1h-1.3V22.7z"/>
</g>
<g class="st0">
	<path class="st1" d="M5.5,49.9h3.8c0.3,0,0.7,0,1,0.1c0.4,0.1,0.7,0.2,1.1,0.4c0.4,0.2,0.7,0.4,1,0.6c0.3,0.3,0.6,0.6,0.9,0.9
		c0.3,0.4,0.5,0.8,0.6,1.3c0.1,0.5,0.2,1,0.2,1.6s-0.1,1.2-0.2,1.6c-0.1,0.5-0.4,0.9-0.6,1.3c-0.3,0.4-0.5,0.7-0.9,0.9
		c-0.3,0.3-0.7,0.5-1,0.6s-0.7,0.3-1.1,0.4c-0.4,0.1-0.7,0.1-1,0.1H5.5V49.9z M6.7,58.7h2.2c0.6,0,1.1-0.1,1.6-0.2
		c0.5-0.1,0.9-0.4,1.3-0.7c0.4-0.3,0.6-0.7,0.8-1.2c0.2-0.5,0.3-1.1,0.3-1.8c0-0.7-0.1-1.3-0.3-1.8c-0.2-0.5-0.5-0.9-0.8-1.2
		c-0.4-0.3-0.8-0.5-1.3-0.7S9.5,51,8.9,51H6.7V58.7z"/>
	<path class="st1" d="M21.2,60c-0.8,0-1.4-0.1-2.1-0.4c-0.6-0.3-1.2-0.6-1.6-1.1s-0.8-1-1.1-1.7S16,55.6,16,54.8
		c0-0.7,0.1-1.4,0.4-2.1c0.3-0.6,0.6-1.2,1.1-1.7c0.5-0.5,1-0.8,1.6-1.1c0.6-0.3,1.3-0.4,2.1-0.4c0.8,0,1.4,0.1,2.1,0.4
		c0.6,0.3,1.2,0.6,1.6,1.1c0.5,0.5,0.8,1,1.1,1.7c0.3,0.6,0.4,1.3,0.4,2.1c0,0.7-0.1,1.4-0.4,2.1s-0.6,1.2-1.1,1.7
		c-0.5,0.5-1,0.8-1.6,1.1C22.7,59.9,22,60,21.2,60z M21.2,58.9c0.6,0,1.1-0.1,1.6-0.3c0.5-0.2,0.9-0.5,1.2-0.9s0.6-0.8,0.8-1.3
		c0.2-0.5,0.3-1,0.3-1.6s-0.1-1.1-0.3-1.6c-0.2-0.5-0.5-0.9-0.8-1.3c-0.3-0.4-0.8-0.7-1.2-0.9c-0.5-0.2-1-0.3-1.6-0.3
		s-1.1,0.1-1.6,0.3c-0.5,0.2-0.9,0.5-1.2,0.9c-0.3,0.4-0.6,0.8-0.8,1.3c-0.2,0.5-0.3,1-0.3,1.6s0.1,1.1,0.3,1.6
		c0.2,0.5,0.5,0.9,0.8,1.3s0.8,0.7,1.2,0.9C20.1,58.8,20.6,58.9,21.2,58.9z"/>
	<path class="st1" d="M28.8,49.9h2.5c0.5,0,0.9,0,1.4,0.1s0.9,0.2,1.3,0.4c0.4,0.2,0.7,0.5,0.9,0.8s0.4,0.8,0.4,1.5
		c0,0.7-0.2,1.3-0.7,1.8c-0.4,0.4-1,0.7-1.8,0.9l2.8,4.6h-1.4l-2.7-4.5H30v4.5h-1.2V49.9z M30,54.2h1c0.3,0,0.7,0,1,0
		c0.4,0,0.7-0.1,1-0.2s0.5-0.3,0.7-0.5c0.2-0.2,0.3-0.5,0.3-0.9c0-0.4-0.1-0.6-0.2-0.9c-0.1-0.2-0.3-0.4-0.6-0.5
		c-0.2-0.1-0.5-0.2-0.8-0.2S32,51,31.7,51H30V54.2z"/>
	<path class="st1" d="M38,49.9h1.8l3.4,7.8h0l3.4-7.8h1.7v9.9H47v-8.3h0l-3.6,8.3h-0.7l-3.6-8.3h0v8.3H38V49.9z"/>
	<path class="st1" d="M51.2,49.9h1.2v9.9h-1.2V49.9z"/>
	<path class="st1" d="M62.1,51h-3.3v8.8h-1.2V51h-3.3v-1.1h7.7V51z"/>
	<path class="st1" d="M68.6,60c-0.8,0-1.4-0.1-2.1-0.4c-0.6-0.3-1.2-0.6-1.6-1.1c-0.5-0.5-0.8-1-1.1-1.7c-0.3-0.6-0.4-1.3-0.4-2.1
		c0-0.7,0.1-1.4,0.4-2.1c0.3-0.6,0.6-1.2,1.1-1.7c0.5-0.5,1-0.8,1.6-1.1c0.6-0.3,1.3-0.4,2.1-0.4s1.4,0.1,2.1,0.4
		c0.6,0.3,1.2,0.6,1.6,1.1c0.5,0.5,0.8,1,1.1,1.7c0.3,0.6,0.4,1.3,0.4,2.1c0,0.7-0.1,1.4-0.4,2.1c-0.3,0.6-0.6,1.2-1.1,1.7
		c-0.5,0.5-1,0.8-1.6,1.1C70.1,59.9,69.4,60,68.6,60z M68.6,58.9c0.6,0,1.1-0.1,1.6-0.3c0.5-0.2,0.9-0.5,1.2-0.9
		c0.3-0.4,0.6-0.8,0.8-1.3c0.2-0.5,0.3-1,0.3-1.6s-0.1-1.1-0.3-1.6c-0.2-0.5-0.5-0.9-0.8-1.3c-0.3-0.4-0.8-0.7-1.2-0.9
		c-0.5-0.2-1-0.3-1.6-0.3c-0.6,0-1.1,0.1-1.6,0.3s-0.9,0.5-1.2,0.9c-0.3,0.4-0.6,0.8-0.8,1.3c-0.2,0.5-0.3,1-0.3,1.6
		s0.1,1.1,0.3,1.6c0.2,0.5,0.5,0.9,0.8,1.3c0.3,0.4,0.8,0.7,1.2,0.9S68,58.9,68.6,58.9z"/>
	<path class="st1" d="M76.2,49.9h2.5c0.5,0,0.9,0,1.4,0.1s0.9,0.2,1.3,0.4s0.7,0.5,0.9,0.8s0.3,0.8,0.3,1.5c0,0.7-0.2,1.3-0.7,1.8
		s-1,0.7-1.8,0.9l2.8,4.6h-1.4l-2.7-4.5h-1.5v4.5h-1.2V49.9z M77.4,54.2h1c0.3,0,0.7,0,1,0c0.3,0,0.7-0.1,1-0.2s0.5-0.3,0.7-0.5
		c0.2-0.2,0.3-0.5,0.3-0.9c0-0.4-0.1-0.6-0.2-0.9c-0.1-0.2-0.3-0.4-0.6-0.5c-0.2-0.1-0.5-0.2-0.8-0.2c-0.3,0-0.6-0.1-0.9-0.1h-1.7
		V54.2z"/>
	<path class="st1" d="M85.4,49.9h1.2v9.9h-1.2V49.9z"/>
	<path class="st1" d="M94.2,60c-0.8,0-1.4-0.1-2.1-0.4c-0.6-0.3-1.2-0.6-1.6-1.1c-0.5-0.5-0.8-1-1.1-1.7c-0.3-0.6-0.4-1.3-0.4-2.1
		c0-0.7,0.1-1.4,0.4-2.1c0.3-0.6,0.6-1.2,1.1-1.7c0.5-0.5,1-0.8,1.6-1.1c0.6-0.3,1.3-0.4,2.1-0.4c0.8,0,1.4,0.1,2.1,0.4
		c0.6,0.3,1.2,0.6,1.6,1.1c0.5,0.5,0.8,1,1.1,1.7c0.3,0.6,0.4,1.3,0.4,2.1c0,0.7-0.1,1.4-0.4,2.1c-0.3,0.6-0.6,1.2-1.1,1.7
		s-1,0.8-1.6,1.1C95.6,59.9,94.9,60,94.2,60z M94.2,58.9c0.6,0,1.1-0.1,1.6-0.3s0.9-0.5,1.2-0.9c0.3-0.4,0.6-0.8,0.8-1.3
		c0.2-0.5,0.3-1,0.3-1.6s-0.1-1.1-0.3-1.6c-0.2-0.5-0.5-0.9-0.8-1.3c-0.3-0.4-0.8-0.7-1.2-0.9s-1-0.3-1.6-0.3
		c-0.6,0-1.1,0.1-1.6,0.3c-0.5,0.2-0.9,0.5-1.2,0.9c-0.3,0.4-0.6,0.8-0.8,1.3c-0.2,0.5-0.3,1-0.3,1.6s0.1,1.1,0.3,1.6
		c0.2,0.5,0.5,0.9,0.8,1.3c0.3,0.4,0.8,0.7,1.2,0.9C93.1,58.8,93.6,58.9,94.2,58.9z"/>
	<path class="st1" d="M106.5,51.6c-0.2-0.3-0.5-0.5-0.8-0.7c-0.3-0.1-0.7-0.2-1-0.2c-0.3,0-0.5,0-0.8,0.1s-0.5,0.2-0.7,0.3
		s-0.4,0.3-0.5,0.5c-0.1,0.2-0.2,0.5-0.2,0.8c0,0.2,0,0.4,0.1,0.6c0.1,0.2,0.2,0.3,0.3,0.5c0.2,0.1,0.4,0.3,0.6,0.4
		c0.3,0.1,0.6,0.2,1,0.4c0.4,0.1,0.8,0.3,1.1,0.4c0.4,0.1,0.7,0.3,1,0.5s0.5,0.5,0.7,0.8c0.2,0.3,0.2,0.7,0.2,1.2
		c0,0.5-0.1,0.9-0.3,1.3c-0.2,0.4-0.5,0.7-0.8,0.9c-0.3,0.2-0.7,0.4-1.1,0.5c-0.4,0.1-0.9,0.2-1.3,0.2c-0.3,0-0.6,0-0.9-0.1
		c-0.3-0.1-0.6-0.1-0.8-0.2c-0.3-0.1-0.5-0.2-0.7-0.4c-0.2-0.2-0.4-0.4-0.6-0.6l1-0.8c0.2,0.4,0.5,0.6,0.9,0.8
		c0.4,0.2,0.8,0.3,1.2,0.3c0.3,0,0.5,0,0.8-0.1c0.3-0.1,0.5-0.2,0.7-0.3c0.2-0.1,0.4-0.3,0.5-0.5c0.1-0.2,0.2-0.5,0.2-0.7
		c0-0.3-0.1-0.6-0.2-0.7c-0.1-0.2-0.3-0.4-0.5-0.5c-0.2-0.1-0.5-0.3-0.8-0.4c-0.3-0.1-0.7-0.2-1.1-0.4c-0.4-0.1-0.7-0.2-1-0.4
		s-0.6-0.3-0.8-0.5c-0.2-0.2-0.4-0.5-0.5-0.8s-0.2-0.6-0.2-1.1c0-0.5,0.1-0.9,0.3-1.2c0.2-0.4,0.4-0.7,0.8-0.9
		c0.3-0.2,0.7-0.4,1.1-0.5c0.4-0.1,0.8-0.2,1.3-0.2c0.6,0,1.1,0.1,1.5,0.3c0.5,0.2,0.9,0.5,1.2,0.9L106.5,51.6z"/>
</g>
</svg>
