<svg xmlns="http://www.w3.org/2000/svg" xmlns:xlink="http://www.w3.org/1999/xlink" width="96" height="77" viewBox="0 0 96 77"><defs><style>.a{fill:none;}.b{clip-path:url(#a);}.c{fill:#494949;}</style><clipPath id="a"><rect class="a" width="96" height="77" transform="translate(17982 3684)"/></clipPath></defs><g class="b" transform="translate(-17982 -3684)"><g transform="translate(17998.01 3695.184)"><g transform="translate(4.53 9.18)"><path class="c" d="M46.061,85.179a3.4,3.4,0,0,0-3.4,3.4v9.06h2.265v-9.06a1.133,1.133,0,0,1,1.132-1.132H73.241V85.179Z" transform="translate(-42.664 -85.179)"/></g><g transform="translate(4.53 30.697)"><path class="c" d="M46.061,300.3a1.133,1.133,0,0,1-1.132-1.133V287.845H42.664V299.17a3.4,3.4,0,0,0,3.4,3.4H57.386V300.3Z" transform="translate(-42.664 -287.845)"/></g><g transform="translate(0 18.24)"><g transform="translate(0)"><path class="c" d="M35.907,198.349l-27.5-27.5a1.133,1.133,0,0,0-1.6,0L.332,177.317a1.133,1.133,0,0,0,0,1.6l27.5,27.5a1.132,1.132,0,0,0,1.6,0l6.471-6.471A1.132,1.132,0,0,0,35.907,198.349Zm-7.272,5.67-25.9-25.9,4.87-4.87,25.9,25.9Z" transform="translate(0 -170.514)"/></g></g><g transform="translate(32.841 43.154)"><path class="c" d="M326.318,405.179H309.331v2.265h12.457v5.662a1.133,1.133,0,0,0,1.132,1.133h3.4a4.53,4.53,0,1,0,0-9.06Zm0,6.795h-2.265v-4.53h2.265a2.265,2.265,0,1,1,0,4.53Z" transform="translate(-309.331 -405.179)"/></g><g transform="translate(44.166 9.18)"><path class="c" d="M421.66,85.179H416v2.265h5.662a2.265,2.265,0,0,1,2.265,2.265v33.974h2.265V89.709A4.53,4.53,0,0,0,421.66,85.179Z" transform="translate(-415.998 -85.179)"/></g><g transform="translate(17.319 32.161)"><g transform="translate(0 0)"><rect class="c" width="4.805" height="2.265" transform="translate(0 3.398) rotate(-45)"/></g></g><g transform="translate(12.789 27.631)"><g transform="translate(0 0)"><rect class="c" width="4.805" height="2.265" transform="translate(0 3.398) rotate(-45)"/></g></g><g transform="translate(21.846 36.691)"><g transform="translate(0 0)"><rect class="c" width="4.805" height="2.265" transform="translate(0 3.398) rotate(-45)"/></g></g><g transform="translate(26.378 41.223)"><g transform="translate(0 0)"><rect class="c" width="4.805" height="2.265" transform="translate(0 3.398) rotate(-45)"/></g></g><g transform="translate(8.256 23.101)"><g transform="translate(0 0)"><rect class="c" width="4.805" height="2.265" transform="translate(0 3.398) rotate(-45)"/></g></g><g transform="translate(24.998 0.153)"><path class="c" d="M259.306,2.666,257.74,1.1a3.427,3.427,0,0,0-4.733,0l-17.22,17.22a1.133,1.133,0,0,0,0,1.6l4.7,4.7a1.132,1.132,0,0,0,1.6,0L259.306,7.4l0,0A3.345,3.345,0,0,0,259.306,2.666Zm-1.6,3.13L241.285,22.217l-3.1-3.1L254.61,2.7a1.107,1.107,0,0,1,1.529,0l1.566,1.564h0A1.082,1.082,0,0,1,257.705,5.8Z" transform="translate(-235.456 -0.153)"/></g><g transform="translate(22.649 18.764)"><path class="c" d="M221.142,179.432l-4.888,1.632,1.632-4.9-2.152-.717-2.349,7.045a1.132,1.132,0,0,0,1.075,1.49,1.151,1.151,0,0,0,.353-.054l7.045-2.349Z" transform="translate(-213.328 -175.451)"/></g><g transform="translate(39.418 4.231)"><g transform="translate(0 0)"><rect class="c" width="2.265" height="6.642" transform="translate(0 1.602) rotate(-45)"/></g></g><g transform="translate(23.782 25.034)"><rect class="c" width="16.987" height="2.265"/></g><g transform="translate(43.034 25.034)"><rect class="c" width="2.265" height="2.265"/></g><g transform="translate(47.564 25.034)"><rect class="c" width="2.265" height="2.265"/></g></g></g></svg>