<svg xmlns="http://www.w3.org/2000/svg" width="96" height="77" viewBox="0 0 96 77"><defs><style>.a{fill:#fff;}.b{fill:none;}</style></defs><g transform="translate(-1017 -2150)"><path class="a" d="M45.187,78.582a9.191,9.191,0,0,0-2.087.242L38.3,65.882c.067-3.6-.869-6.418-2.783-8.391a9.43,9.43,0,0,0-6.272-2.741,1.157,1.157,0,1,0,0,2.314A7.065,7.065,0,0,1,33.857,59.1,7.372,7.372,0,0,1,35.7,62.689a8.658,8.658,0,0,0-7.777-.962,1.157,1.157,0,1,0,.809,2.169c.2-.074,4.847-1.742,7.361,2.675L37.6,70.645l-2.43,3.533h-13.4l-1.545-4.668H23.63a1.157,1.157,0,1,0,0-2.314H13.61a1.157,1.157,0,0,0,0,2.314h4.173l1.545,4.668H12.066C1.832,74.179.1,80.55.035,80.821a1.179,1.179,0,0,0,.829,1.4A1.145,1.145,0,0,0,2.276,81.4c.056-.19,1.315-4.463,8.633-4.874v2.132a9.2,9.2,0,1,0,2.314,0V76.493h6.871l4.562,13.781a1.206,1.206,0,0,0,.936.782,1.175,1.175,0,0,0,1.117-.49L38.584,73.3l2.346,6.329a9.2,9.2,0,1,0,4.257-1.047Zm-26.235,9.2A6.887,6.887,0,1,1,10.909,81v6.24a1.157,1.157,0,1,0,2.314,0V81A6.9,6.9,0,0,1,18.952,87.781Zm7.168-.446L22.532,76.493H33.577Zm19.066,7.336a6.885,6.885,0,0,1-3.444-12.85L44.1,88.184a1.137,1.137,0,0,0,1.487.683,1.153,1.153,0,0,0,.683-1.487l-2.359-6.363a6.887,6.887,0,1,1,1.274,13.655Z" transform="translate(1037.202 2114.396)"/><rect class="b" width="96" height="77" transform="translate(1017 2150)"/></g></svg>