<?xml version="1.0" encoding="utf-8"?>
<!-- Generator: Adobe Illustrator 24.3.0, SVG Export Plug-In . SVG Version: 6.00 Build 0)  -->
<svg version="1.1" id="Layer_1" xmlns="http://www.w3.org/2000/svg" xmlns:xlink="http://www.w3.org/1999/xlink" x="0px" y="0px"
	 viewBox="0 0 174.3 171.1" style="enable-background:new 0 0 174.3 171.1;" xml:space="preserve">
<style type="text/css">
	.st0{fill:#2876A2;}
</style>
<g id="Group_486" transform="translate(-11063 -4138.856)">
	<path id="Subtraction_1" class="st0" d="M11147,4310c-5.7,0-11.4-0.6-16.9-1.7c-10.7-2.2-21-6.5-30-12.6c-13.5-9.1-24.1-22-30.4-37
		c-2.1-5.1-3.8-10.4-4.9-15.8c-2.3-11.2-2.3-22.7,0-33.9c2.2-10.7,6.5-21,12.6-30c9.1-13.5,22-24.1,37-30.4
		c5.1-2.2,10.4-3.8,15.8-4.9c11.2-2.3,22.7-2.3,33.9,0c10.5,2.2,20.6,6.3,29.5,12.3l-8.3,12.5c-31.7-21-74.5-12.4-95.5,19.3
		c-21,31.7-12.4,74.5,19.3,95.5s74.5,12.4,95.5-19.3c12.8-19.2,15.1-43.6,6.1-64.9c-0.7-1.7-1.5-3.4-2.4-5l11.3-10.6
		c23.5,40,10.1,91.4-29.9,114.9C11176.7,4306,11162,4310,11147,4310z"/>
	<path id="Path_534" class="st0" d="M11102.4,4209.3l17.1-14.8l27.3,29.2l74.1-84.9h16.3l-88.4,127.9L11102.4,4209.3z"/>
</g>
</svg>
