<svg xmlns="http://www.w3.org/2000/svg" width="96" height="77" viewBox="0 0 96 77"><defs><style>.a{fill:#fff;}.b{fill:none;}</style></defs><g transform="translate(-358 -2150)"><g transform="translate(374.309 2125)"><path class="a" d="M225.9,220.952a4.952,4.952,0,1,0-4.952,4.952A4.957,4.957,0,0,0,225.9,220.952Zm-4.952,2.476a2.476,2.476,0,1,1,2.476-2.476A2.479,2.479,0,0,1,220.952,223.428Z" transform="translate(-189.261 -157.717)"/><path class="a" d="M8.665,90.469H26.12a1.238,1.238,0,1,0,0-2.476H8.665A6.2,6.2,0,0,1,2.6,83.04H60.782a6.2,6.2,0,0,1-6.065,4.953H37.262a1.238,1.238,0,1,0,0,2.476H54.716A8.675,8.675,0,0,0,63.382,81.8a1.238,1.238,0,0,0-1.238-1.238H57.811V48.379a1.238,1.238,0,0,0-1.238-1.238H47.784v-9.9a1.238,1.238,0,0,0-1.925-1.03l-9.217,6.144V37.238A1.238,1.238,0,0,0,35.4,36H16.836A1.238,1.238,0,0,0,15.6,37.238v9.9H6.809a1.238,1.238,0,0,0-1.238,1.238V80.565H1.238A1.238,1.238,0,0,0,0,81.8,8.675,8.675,0,0,0,8.665,90.469Zm29.215-9.9H25.5V76.852a6.19,6.19,0,1,1,12.379,0Zm7.428-41.014V49.78l-7.672-5.114ZM18.074,38.476H34.167V50.855H18.074ZM8.047,49.617H15.6v2.476a1.238,1.238,0,0,0,1.238,1.238H35.4a1.238,1.238,0,0,0,1.238-1.238V46.979l9.217,6.144a1.238,1.238,0,0,0,1.925-1.03V49.617h7.551V80.565H40.356V76.852a8.665,8.665,0,1,0-17.331,0v3.714H8.047Z"/><ellipse class="a" cx="1.546" cy="1.159" rx="1.546" ry="1.159" transform="translate(30.145 88.15)"/></g><rect class="b" width="96" height="77" transform="translate(358 2150)"/></g></svg>