<?xml version="1.0" encoding="utf-8"?>
<!-- Generator: Adobe Illustrator 25.4.1, SVG Export Plug-In . SVG Version: 6.00 Build 0)  -->
<svg version="1.1" id="TEXTOS" xmlns="http://www.w3.org/2000/svg" xmlns:xlink="http://www.w3.org/1999/xlink" x="0px" y="0px"
	 viewBox="0 0 888.8 479.8" style="enable-background:new 0 0 888.8 479.8;" xml:space="preserve">
<style type="text/css">
	.st0{fill:#299C6E;}
	.st1{fill:#FFFFFF;}
	.st2{fill:#2B729E;}
	.st3{fill:#299C6E;stroke:#299C6E;stroke-width:1.7093;stroke-linecap:round;stroke-miterlimit:10;}
	.st4{font-family:'Avenir-Heavy';}
	.st5{font-size:33.0551px;}
	.st6{fill:none;}
	.st7{font-family:'Avenir-Medium';}
	.st8{font-size:17.7508px;}
	.st9{fill:#333333;}
</style>
<g>
	<g>
		<circle class="st0" cx="650.7" cy="170.3" r="39.8"/>
		<g>
			<g>
				<path class="st1" d="M641.5,168.7c0.8-0.9,1.5-1.8,2.2-2.7c0.1-0.1,0.1-0.2,0.1-0.3c-0.2-0.9-0.5-1.7-0.7-2.5
					c-1.6,0.7-3.1,0.9-4.6,0c-1.6-1-2.2-2.9-1.4-4.8c0.7-1.8,2.5-2.7,4.4-2.4c1.4,0.2,2.7,0.4,4.1,0.5c1.2,0.1,2.3,0.5,3.1,1.4
					c0.7,0.7,1,1.6,0.6,2.6c-0.4,1-1.1,1.5-2.2,1.5c-0.7,0-1.4,0-2.2,0c1.4,5.1,2.8,10,4.2,15.1c3.6-4,7.1-7.9,10.7-11.8
					c0,0,0-0.1,0-0.1c-0.5,0.1-0.9,0.1-1.4,0.2c-1.5,0.2-2.9,0.4-4.4,0.6c-0.5,0.1-0.9,0-1.1-0.4c-0.4-0.6,0-1.4,0.8-1.5
					c2.1-0.3,4.1-0.6,6.2-0.9c0.5-0.1,0.9-0.1,1.4-0.2c-0.2-0.7-0.4-1.3-0.6-2c-0.3-1.1-0.1-1.5,1-1.8c0.8-0.2,1.4-0.7,1.5-1.6
					c0.1-0.8-0.1-1.5-0.8-2c0,0,0,0,0,0c-0.9-0.8-1.9-1.1-3.2-0.7c-0.6,0.2-1.3,0.2-2,0.3c-0.7,0.1-1.2-0.2-1.3-0.8
					c-0.1-0.6,0.3-1,1-1.2c1.2-0.2,2.5-0.4,3.7-0.6c0.4,0,0.8,0.1,1.1,0.2c0.6,0.3,1.1,0.7,1.6,1c2.6,1.7,2.6,5.3-0.1,6.9
					c-0.1,0.1-0.3,0.2-0.4,0.3c0.9,3.1,1.9,6.2,2.8,9.3c1.1,0,2.1-0.1,3.2,0c3.9,0.6,7,3.9,7.4,8c0.4,3.8-1.9,7.7-5.5,9.1
					c-3.5,1.4-7.4,0.6-9.9-2c-2.6-2.8-3.3-6.6-1.7-10.1c0.9-1.9,2.2-3.3,4.1-4.2c0.4-0.2,0.5-0.4,0.3-0.8c-0.4-1.3-0.8-2.7-1.3-4.1
					c0-0.1-0.1-0.3-0.2-0.5c-0.9,1-1.8,2-2.7,3c-3.3,3.6-6.5,7.2-9.8,10.8c-0.4,0.4-0.8,0.6-1.3,0.6c-1.5,0-2.9,0-4.4,0
					c-0.2,0-0.4,0-0.6,0c-0.1,0.6-0.2,1.1-0.4,1.6c-1.3,4.1-5.3,6.7-9.5,6.3c-4.3-0.4-7.6-3.8-8.1-8.1c-0.4-3.4,1.5-7,4.6-8.7
					c0.4-0.2,0.6-0.4,0.4-0.9c-0.2-0.6-0.4-1.2-0.6-1.8c-0.1-0.3-0.2-0.5-0.6-0.4c-0.9,0-1.7,0-2.6,0c-0.7,0-1.2-0.4-1.2-1
					c0-0.6,0.5-1,1.1-1c3.9,0,7.8,0,11.7,0c0.3,0,0.7,0.2,1,0.4C639.9,167.2,640.7,168,641.5,168.7z M666.1,172.3
					c0.1,0.2,0.1,0.4,0.2,0.6c0.6,1.9,1.2,3.8,1.7,5.7c0.2,0.7,0,1.2-0.6,1.4c-0.6,0.2-1.1-0.1-1.3-0.9c-0.6-1.9-1.2-3.8-1.7-5.7
					c-0.1-0.2-0.1-0.4-0.2-0.6c-2.9,1.2-4.9,4.9-3.6,8.6c1.3,3.5,5.1,5.4,8.7,4.3c3.5-1.1,5.6-4.9,4.6-8.5
					C672.9,173.9,669.3,171.6,666.1,172.3z M641.1,180.2c-0.3,0-0.5,0-0.7,0c-2,0-3.9,0-5.9,0c-0.8,0-1.1-0.2-1.3-0.9
					c-0.5-1.6-1.1-3.2-1.6-4.8c-0.2-0.5-0.3-0.9-0.5-1.4c-2.4,0.8-4.2,4.3-3.8,7.2c0.5,3.4,3.6,5.9,7,5.9
					C637.7,186.1,640.7,183.5,641.1,180.2z M643.2,178.1c1.4,0,2.7,0,4,0c-0.9-3.3-1.8-6.5-2.7-9.9c-1.3,1.6-2.6,3.1-3.8,4.6
					C642.1,174.4,642.9,176.1,643.2,178.1z M645.6,160L645.6,160c0.4,0,0.8,0,1.2,0c0.2,0,0.4-0.1,0.4-0.2c0-0.2,0-0.5-0.1-0.5
					c-0.5-0.3-0.9-0.6-1.5-0.7c-1.6-0.2-3.2-0.4-4.8-0.6c-0.9-0.1-1.7,0.4-2.1,1.3c-0.3,0.9,0,1.9,0.7,2.3c0.8,0.4,2,0.3,2.5-0.3
					c0.7-0.8,1.6-1.2,2.6-1.2C645,160,645.3,160,645.6,160z M640.2,170.3c-0.7-0.6-1.3-1.2-1.9-1.8c-0.2-0.2-0.6-0.3-0.8-0.3
					c-1.8,0-3.5,0-5.3,0c-0.2,0-0.4,0-0.6,0c0.1,0.4,0.3,0.8,0.4,1.1c0.3,1,0.3,1,1.3,0.9c0.1,0,0.2,0,0.2,0
					c1.8-0.1,3.6,0.3,5.2,1.2c0.2,0.1,0.4,0.3,0.6,0C639.6,171,639.9,170.7,640.2,170.3z M637.8,173.2c-1.5-0.9-3.1-1.2-4.9-0.9
					c0.6,1.6,1.1,3.2,1.6,4.8C635.7,175.8,636.7,174.5,637.8,173.2z M636.4,178.1c1.7,0,3.2,0,4.7,0c-0.2-1.4-0.8-2.6-1.8-3.6
					C638.4,175.7,637.4,176.9,636.4,178.1z"/>
				<path class="st1" d="M649.2,166.7c-0.5,0-1-0.5-1-1c0-0.5,0.5-1,1-1c0.5,0,1,0.4,1,1C650.2,166.2,649.8,166.7,649.2,166.7z"/>
			</g>
		</g>
	</g>
	<g>
		<circle class="st0" cx="816.9" cy="170.3" r="39.8"/>
		<g>
			<path class="st1" d="M797.9,189.2c0-0.7,0-1.4,0-2c0-0.1,0-0.1,0-0.3c-0.8,0-1.6,0-2.4,0c-0.8,0-1.1-0.3-1.1-1.1c0-1,0-2,0-3.1
				c0-0.7,0.3-1.1,1.1-1.1c0.8,0,1.6,0,2.4,0c0-1,0-2.1,0-3.1c-0.8,0-1.5,0-2.3,0c-0.9,0-1.2-0.3-1.2-1.1c0-1.7,0-3.4,0-5.1
				c0-0.8,0.3-1.1,1.1-1.1c1.1,0,2.1,0,3.2,0c0.5,0,0.9,0.3,1,0.8c0.1,0.4-0.2,0.8-0.5,0.9c-0.2,0.1-0.4,0.1-0.6,0.1
				c-0.8,0-1.6,0-2.4,0c0,1.3,0,2.5,0,3.8c6.6,0,13.2,0,19.9,0c0-1.3,0-2.5,0-3.8c-0.2,0-0.4,0-0.5,0c-3.2,0-6.3,0-9.5,0
				c-0.5,0-0.9-0.2-1-0.6c-0.1-0.4,0-0.7,0.4-0.9c0.2-0.1,0.5-0.2,0.7-0.2c1.2,0,2.5,0,3.7,0c0.1,0,0.3,0,0.4,0
				c-0.2-0.7-0.4-1.4-0.6-2.1c-0.7-3.7,1.5-7.4,5.1-8.6c0.3-0.1,0.4-0.3,0.4-0.6c-0.3-4.7,3-8.9,7.7-9.9c3.8-0.8,7.1,0.4,9.6,3.3
				c1.7,2,2.4,4.5,2.1,7.1c0,0.1-0.1,0.3-0.1,0.4c0,0.1,0,0.3,0,0.5c2,0.4,3.6,1.5,4.5,3.3c0.7,1.5,0.8,3,0.3,4.5
				c-1,3-4.5,5.2-8.4,3.6c-0.5,1-1.2,1.8-2.1,2.4c-0.9,0.6-1.9,1-3,1.2c0,2.8,0,5.7,0,8.5c4-2.6,8.3,0.6,8.1,4.3
				c0.7,0.2,1,0.5,0.9,1c-0.1,0.5-0.5,0.8-1.2,0.8c-12.6,0-25.3,0-37.9,0c0,0-0.1,0-0.1,0c-0.7,0-1.1-0.3-1.1-0.9
				c0-0.5,0.4-0.9,1.1-0.9C796.3,189.2,797,189.2,797.9,189.2z M825.6,174.6c0.2,0,0.3,0,0.4-0.1c1.6-0.5,2.7-1.5,3.3-3.1
				c0.3-0.9,0.8-1.1,1.6-0.6c1.5,0.9,3.1,1,4.6,0.1c2.5-1.4,2.7-5.1,0.5-6.8c-0.8-0.7-1.8-1-2.9-1c-0.8,0-1.2-0.5-1-1.3
				c0-0.1,0.1-0.2,0.1-0.3c0.4-1.5,0.4-3-0.1-4.4c-1.7-5.2-8-7.2-12.4-3.9c-2.4,1.8-3.4,4.3-3.1,7.2c0.1,1,0,1.3-1,1.5
				c-4,1-5.9,5.4-3.7,8.9c0.1,0.2,0.3,0.3,0.6,0.3c1.3,0,2.7,0,4,0c0.7,0,1.1,0.3,1.1,1.1c0,0.4,0,0.9,0,1.5
				c0.6-0.2,1.2-0.2,1.7-0.5c0.9-0.5,1.5-0.4,2.2,0.4c0.5,0.6,1.3,0.9,2.1,1c0-0.8,0-1.5,0-2.2c0-0.2-0.1-0.5-0.3-0.6
				c-1.4-1.4-2.8-2.8-4.2-4.2c-0.5-0.5-0.5-1-0.1-1.4c0.4-0.4,0.9-0.3,1.4,0.1c0.9,0.9,1.8,1.8,2.7,2.7c0.2,0.2,0.3,0.4,0.5,0.5
				c0,0,0.1,0,0.1-0.1c0-0.1,0-0.3,0-0.4c0-1.4,0-2.9,0-4.3c0-0.6,0-1.1,0-1.7c0-0.6,0.4-0.9,0.9-0.9c0.5,0,0.9,0.4,0.9,0.9
				c0,0.8,0,1.7,0,2.5c0,0.3,0,0.5,0,0.9c0.2-0.2,0.3-0.3,0.4-0.4c0.9-0.9,1.7-1.7,2.6-2.6c0.3-0.3,0.6-0.5,0.9-0.4
				c0.3,0.1,0.5,0.3,0.7,0.6c0.2,0.4,0,0.7-0.3,1c-1,1-2,2.1-3,3c-1,0.8-1.4,1.8-1.3,3C825.7,171.9,825.6,173.2,825.6,174.6z
				 M814.3,181.7c0.8,0,1.6,0,2.5,0c0.7,0,1,0.3,1.1,1c0,1,0,1.9,0,2.9c0,1-0.3,1.3-1.3,1.3c-0.7,0-1.5,0-2.2,0c0,0.8,0,1.5,0,2.3
				c1.9,0,3.7,0,5.6,0c0-0.1,0.1-0.3,0.1-0.4c0.6-1.7,1.7-2.8,3.5-3.2c0.3-0.1,0.4-0.2,0.4-0.5c0-1.9,0-3.8,0-5.7c0-1,0-2,0-3.1
				c-0.1,0-0.1-0.1-0.2-0.1c-1.1-0.2-2.2-0.7-3.1-1.4c-0.1-0.1-0.2-0.1-0.3-0.1c-0.8,0.2-1.6,0.5-2.5,0.7c0,0.6,0,1.2,0,1.9
				c0,0.8-0.3,1.1-1.1,1.1c-0.8,0-1.6,0-2.4,0C814.3,179.6,814.3,180.6,814.3,181.7z M812.5,178.6c-4.3,0-8.6,0-12.8,0
				c0,1,0,2.1,0,3.1c4.3,0,8.5,0,12.8,0C812.5,180.6,812.5,179.6,812.5,178.6z M816,183.4c-6.6,0-13.3,0-19.9,0c0,0.6,0,1.1,0,1.7
				c6.6,0,13.2,0,19.9,0C816,184.6,816,184,816,183.4z M799.7,189.1c4.3,0,8.6,0,12.8,0c0-0.8,0-1.5,0-2.2c-4.3,0-8.5,0-12.8,0
				C799.7,187.7,799.7,188.4,799.7,189.1z M831.9,189.2c0.2-1.3-0.6-2.7-1.9-3.2c-1.3-0.6-2.9-0.3-3.7,0.8c-0.5,0.6-0.9,0.7-1.6,0.6
				c-1.3-0.2-2.7,0.9-2.9,1.9C825.2,189.2,828.5,189.2,831.9,189.2z"/>
			<path class="st1" d="M802.3,171.2c0.5,0,0.9,0.4,0.9,0.9c0,0.5-0.4,0.9-0.9,0.8c-0.5,0-0.9-0.4-0.9-0.9
				C801.4,171.6,801.8,171.2,802.3,171.2z"/>
			<path class="st1" d="M824.8,160.2c-0.5,0-0.9-0.4-0.9-0.8c0-0.5,0.4-0.9,0.9-0.9c0.5,0,0.9,0.4,0.9,0.8
				C825.6,159.9,825.3,160.2,824.8,160.2z"/>
		</g>
	</g>
	<g>
		<circle class="st0" cx="481.9" cy="170.3" r="39.8"/>
		<g>
			<path class="st1" d="M495.1,144.5c-6.7,0-13.2,0-19.9,0c0,0.3,0,0.5,0,0.7c0,13.7,0,27.4,0,41c0,0.2,0,0.5-0.1,0.7
				c-0.1,0.4-0.4,0.6-0.8,0.6c-0.4,0-0.7-0.2-0.8-0.6c0-0.2,0-0.4,0-0.6c0-14.1,0-28.2,0-42.3c0-1,0.2-1.2,1.2-1.2
				c6.9,0,13.8,0,20.7,0c1,0,1.2,0.2,1.2,1.2c0,14.1,0,28.2,0,42.3c0,0.8-0.3,1.2-0.8,1.2c-0.6,0-0.8-0.4-0.8-1.2
				c0-13.7,0-27.4,0-41.1C495.1,145,495.1,144.7,495.1,144.5z"/>
			<path class="st1" d="M465.2,187.5c0,1.3,0,2.5,0,3.7c0,0.2,0,0.4,0,0.5c0,0.4-0.4,0.7-0.8,0.7c-0.4,0-0.7-0.2-0.8-0.6
				c0-0.2-0.1-0.4-0.1-0.5c0-1.1,0-2.3,0-3.4c0-0.3-0.1-0.5-0.4-0.6c-1.7-0.5-2.9-2-2.9-3.7c0-2.8,0.3-5.6,1.3-8.3
				c0.3-0.7,0.6-1.3,1.1-1.8c1.2-1.3,2.7-1.1,3.8,0.3c0.8,1.1,1.2,2.3,1.5,3.6c0.4,2,0.7,4,0.7,6c0,1.9-1.1,3.4-3,4
				C465.4,187.4,465.3,187.5,465.2,187.5z M461.9,182.3c0,0.3,0,0.6,0,0.9c0,1.5,1.1,2.7,2.5,2.7c1.4,0,2.5-1.2,2.5-2.7
				c0-1.8-0.2-3.7-0.6-5.5c-0.2-0.9-0.5-1.7-0.9-2.5c-0.2-0.4-0.4-0.9-1-0.9c-0.5,0-0.8,0.5-1,0.9c-0.2,0.4-0.4,0.9-0.5,1.3
				C462.3,178.4,462.1,180.4,461.9,182.3z"/>
			<path class="st1" d="M488.4,179.3c-2.2,0-4.4,0-6.6,0c0,0.2,0,0.4,0,0.5c0,2.2,0,4.3,0,6.5c0,0.1,0,0.3,0,0.4
				c0,0.5-0.4,0.9-0.9,0.9c-0.5,0-0.8-0.4-0.8-0.9c0-2.2,0-4.5,0-6.7c0-0.2,0-0.4,0-0.7c-0.6,0-1.1,0-1.7,0c-0.3,0-0.6,0-1,0
				c-0.4-0.1-0.7-0.3-0.7-0.8c0-0.4,0.2-0.7,0.7-0.8c0.2,0,0.4,0,0.5,0c4.7,0,9.5,0,14.2,0c0.2,0,0.4,0,0.5,0
				c0.4,0.1,0.7,0.4,0.6,0.8c0,0.4-0.3,0.7-0.7,0.7c-0.6,0-1.3,0-1.9,0c-0.2,0-0.4,0-0.7,0c0,0.2,0,0.4,0,0.6c0,2.2,0,4.5,0,6.7
				c0,0.6-0.3,1-0.8,1c-0.5,0-0.8-0.4-0.8-0.9c0-0.1,0-0.3,0-0.4c0-2.1,0-4.2,0-6.4C488.4,179.7,488.4,179.5,488.4,179.3z"/>
			<path class="st1" d="M473.5,190.9c0,0.3,0,0.6,0,0.9c-0.1,0.5-0.4,0.8-0.8,0.8c-0.4,0-0.8-0.3-0.8-0.8c0-0.6,0-1.2,0-1.8
				c0-0.5,0.3-0.7,0.8-0.7c0.1,0,0.3,0,0.4,0c7.4,0,14.9,0,22.3,0c0.1,0,0.3,0,0.4,0c0.5,0,0.8,0.3,0.9,0.8c0,0.5-0.3,0.8-0.8,0.8
				c-0.2,0-0.3,0-0.5,0c-7.1,0-14.2,0-21.3,0C474,190.9,473.8,190.9,473.5,190.9z"/>
			<path class="st1" d="M491.7,171c0,0.8,0,1.6,0,2.3c0,0.6-0.3,0.9-1,0.9c-1,0-2,0-3.1,0c-0.6,0-0.9-0.3-1-1c0-1.6,0-3.1,0-4.7
				c0-0.6,0.3-0.9,1-1c1,0,2,0,3,0c0.7,0,1,0.3,1,1C491.8,169.4,491.8,170.2,491.7,171z M490.1,172.6c0-1.1,0-2.2,0-3.3
				c-0.5,0-1.1,0-1.6,0c0,1.1,0,2.2,0,3.3C489,172.6,489.5,172.6,490.1,172.6z"/>
			<path class="st1" d="M478.5,171c0-0.8,0-1.6,0-2.3c0-0.7,0.3-1,1-1c1,0,2,0,3,0c0.7,0,1,0.3,1,1c0,1.6,0,3.1,0,4.7
				c0,0.7-0.3,1-1,1c-1,0-2,0-3,0c-0.7,0-1-0.3-1-1C478.5,172.5,478.5,171.8,478.5,171z M481.8,172.6c0-1.1,0-2.2,0-3.3
				c-0.5,0-1.1,0-1.6,0c0,1.1,0,2.2,0,3.3C480.7,172.6,481.2,172.6,481.8,172.6z"/>
			<path class="st1" d="M491.7,161.1c0,0.8,0,1.6,0,2.3c0,0.7-0.3,1-1,1c-1,0-2,0-3,0c-0.7,0-1-0.3-1-1c0-1.6,0-3.1,0-4.7
				c0-0.6,0.3-1,0.9-1c1,0,2.1,0,3.1,0c0.6,0,0.9,0.3,0.9,0.9C491.8,159.5,491.7,160.3,491.7,161.1z M490.1,162.7c0-1.1,0-2.2,0-3.3
				c-0.6,0-1.1,0-1.6,0c0,1.1,0,2.2,0,3.3C489,162.7,489.5,162.7,490.1,162.7z"/>
			<path class="st1" d="M478.5,161c0-0.8,0-1.6,0-2.3c0-0.7,0.3-1,0.9-1c1,0,2.1,0,3.1,0c0.6,0,0.9,0.3,0.9,0.9c0,1.6,0,3.1,0,4.7
				c0,0.6-0.3,1-1,1c-1,0-2,0-3.1,0c-0.6,0-1-0.3-1-1C478.5,162.6,478.5,161.8,478.5,161z M480.2,159.4c0,1.1,0,2.2,0,3.3
				c0.6,0,1.1,0,1.6,0c0-1.1,0-2.2,0-3.3C481.2,159.4,480.7,159.4,480.2,159.4z"/>
			<path class="st1" d="M491.8,151.1c0,0.8,0,1.6,0,2.3c0,0.7-0.3,1-0.9,1c-1,0-2,0-3.1,0c-0.7,0-1-0.3-1-1c0-1.5,0-3.1,0-4.6
				c0-0.7,0.3-1,1-1c1,0,2,0,3,0c0.7,0,1,0.3,1,1C491.8,149.6,491.8,150.3,491.8,151.1z M488.5,149.5c0,1.1,0,2.2,0,3.2
				c0.6,0,1.1,0,1.6,0c0-1.1,0-2.2,0-3.2C489.5,149.5,489,149.5,488.5,149.5z"/>
			<path class="st1" d="M478.5,151.1c0-0.8,0-1.5,0-2.3c0-0.7,0.3-1,1-1c1,0,1.9,0,2.9,0c0.7,0,1,0.3,1,1c0,1.5,0,3.1,0,4.6
				c0,0.7-0.3,1-1,1c-1,0-2,0-3,0c-0.7,0-1-0.3-1-1C478.5,152.6,478.5,151.8,478.5,151.1z M480.2,149.5c0,1.1,0,2.2,0,3.2
				c0.5,0,1.1,0,1.6,0c0-1.1,0-2.2,0-3.2C481.2,149.5,480.7,149.5,480.2,149.5z"/>
			<path class="st1" d="M485.1,182.6c0.5,0,0.8,0.3,0.8,0.8c0,0.4-0.4,0.8-0.8,0.8c-0.5,0-0.8-0.4-0.8-0.8
				C484.3,183,484.6,182.6,485.1,182.6z"/>
		</g>
	</g>
	<g>
		<circle class="st0" cx="816.9" cy="374.5" r="39.8"/>
		<g>
			<path class="st1" d="M820.1,396c-6.2,0-12.4,0-18.6,0c-1.4,0-2.5-0.5-3.3-1.6c-0.8-1.2-0.9-2.4-0.3-3.7c0.6-1.3,1.6-2,3-2.2
				c0.3,0,0.6,0,0.9,0c9.5,0,18.9,0,28.4,0c0.2,0,0.4,0,0.7,0c0.6-0.1,0.9-0.4,0.9-1c0-0.6-0.3-0.9-0.9-1c-0.2,0-0.4,0-0.7,0
				c-9.5,0-19.1,0-28.6,0c-1.1,0-2.1-0.2-2.9-1c-1.1-1-1.5-2.7-1-4.1c0.5-1.4,1.8-2.4,3.3-2.4c0.1,0,0.3,0,0.4,0c12.5,0,25,0,37.4,0
				c0.8,0,1.3,0.3,1.5,1c0.2,0.7-0.2,1.5-0.9,1.7c-0.3,0.1-0.5,0.1-0.8,0.1c-12.3,0-24.6,0-36.9,0c-0.2,0-0.4,0-0.5,0
				c-0.6,0-1,0.3-1,0.9c0,0.6,0.3,1,0.9,1.1c0.2,0,0.4,0,0.6,0c9.6,0,19.1,0,28.7,0c1.1,0,2.1,0.3,2.9,1.1c1,1,1.4,2.7,0.9,4
				c-0.6,1.4-1.6,2.2-3.2,2.4c-0.3,0-0.6,0-0.8,0c-9.5,0-19,0-28.5,0c-0.2,0-0.4,0-0.6,0c-0.6,0.1-0.9,0.4-0.9,1
				c0,0.6,0.4,0.9,1,0.9c0.2,0,0.4,0,0.6,0c12.3,0,24.6,0,36.8,0c0.2,0,0.5,0,0.7,0c0.7,0.1,1.1,0.7,1.1,1.4c0,0.7-0.6,1.2-1.2,1.3
				c-0.2,0-0.3,0-0.5,0C832.6,396,826.3,396,820.1,396z"/>
			<path class="st1" d="M816.1,377.6c-0.7,0-1.3-0.4-1.5-0.9c-0.2-0.6,0-1.1,0.4-1.5c0.6-0.5,1.2-1,1.6-1.6c1.1-1.5,1-3.1,0.2-4.7
				c-0.6-1.2-1.5-2.2-2.4-3.2c-1.1-1.2-2-2.6-2.4-4.3c-0.5-2.1-0.1-4,1-5.8c0.5-0.8,1.2-1.5,1.8-2.2c0.6-0.6,1.5-0.6,2,0
				c0.5,0.6,0.5,1.4-0.2,2c-1,0.9-1.7,1.9-2,3.2c-0.3,1.4,0,2.7,0.8,3.9c0.6,0.8,1.3,1.6,1.9,2.4c1,1.2,1.8,2.4,2.3,3.9
				c0.8,2.3,0.4,4.5-1,6.5c-0.6,0.7-1.3,1.3-2,2C816.6,377.5,816.2,377.5,816.1,377.6z"/>
			<path class="st1" d="M806.7,354.4c0,0.5-0.2,0.8-0.6,1.1c-0.8,0.7-1.3,1.5-1.7,2.4c-0.6,1.6-0.3,3.1,0.6,4.6c0.5,0.7,1,1.4,1.6,2
				c1.1,1.3,2.1,2.6,2.6,4.2c0.9,2.8,0.3,5.2-1.6,7.3c-0.4,0.5-0.9,0.8-1.4,1.2c-0.7,0.5-1.5,0.4-2-0.3c-0.5-0.6-0.3-1.4,0.4-1.9
				c0.8-0.6,1.4-1.2,1.8-2.1c0.7-1.4,0.6-2.8-0.2-4.1c-0.4-0.8-0.9-1.5-1.5-2.2c-0.9-1.1-2-2.2-2.6-3.5c-1.4-3-1.1-5.8,0.9-8.4
				c0.4-0.5,0.9-1,1.4-1.5c0.4-0.4,1-0.4,1.5-0.2C806.5,353.5,806.7,353.9,806.7,354.4z"/>
			<path class="st1" d="M825.1,376.2c0-0.5,0.2-0.9,0.6-1.2c0.8-0.6,1.4-1.3,1.9-2.2c0.6-1.4,0.5-2.7-0.2-4
				c-0.5-0.9-1.2-1.8-1.9-2.6c-1.1-1.2-2.1-2.5-2.6-4.1c-0.8-2.3-0.5-4.5,0.7-6.5c0.5-0.8,1.2-1.5,1.8-2.2c0.6-0.6,1.4-0.6,2,0
				c0.5,0.6,0.5,1.4-0.1,2c-1.1,1-1.9,2.2-2.1,3.7c-0.2,1.2,0.2,2.4,0.9,3.4c0.5,0.7,1.1,1.4,1.7,2.1c1.1,1.2,2,2.5,2.5,4.1
				c1,2.8,0.3,5.2-1.6,7.4c-0.4,0.5-0.9,0.9-1.5,1.3c-0.4,0.3-1,0.4-1.5,0.1C825.3,377.2,825.1,376.8,825.1,376.2z"/>
		</g>
	</g>
	<g>
		<circle class="st0" cx="650.7" cy="374.5" r="39.8"/>
		<g>
			<path class="st1" d="M649.8,396.9c-5.7-0.3-10.6-3.2-13.6-9.1c-1.3-2.6-1.9-5.4-1.5-8.3c0.2-2,1-3.9,1.8-5.7
				c1.7-3.9,3.9-7.5,6.3-11.1c2.1-3.3,4.4-6.6,6.6-9.8c0.7-1.1,2-1.1,2.8,0c3.5,5.4,7.3,10.6,10.5,16.2c1.6,2.8,3,5.7,3.9,8.8
				c0.5,1.9,0.5,3.7,0.2,5.6c-1.1,5.7-4.4,9.7-9.6,12.1C654.9,396.6,652.8,396.9,649.8,396.9z M650.7,356.5
				c-0.1,0.1-0.1,0.2-0.2,0.2c-2.3,3.5-4.7,7-6.9,10.6c-1.8,2.8-3.4,5.6-4.6,8.7c-0.9,2.2-1.5,4.5-1,6.9c0.5,2.8,1.7,5.3,3.8,7.2
				c2.3,2.2,5.1,3.4,8.3,3.6c2.5,0.1,4.9-0.4,7.1-1.6c2.9-1.7,4.9-4.1,5.9-7.3c0.7-2.2,0.9-4.4,0.2-6.7c-0.9-2.8-2.2-5.4-3.7-7.9
				c-2.7-4.6-5.7-9-8.6-13.4C650.8,356.7,650.7,356.7,650.7,356.5z"/>
			<path class="st1" d="M661.6,381.6c-0.3,3.7-2.1,6.6-5.2,8.6c-0.9,0.6-1.9,0.4-2.4-0.5c-0.5-0.8-0.2-1.7,0.7-2.3
				c2-1.2,3.2-3,3.7-5.2c0.1-0.3,0.1-0.6,0.1-1c0.1-1,0.8-1.7,1.6-1.6C660.9,379.8,661.7,380.4,661.6,381.6z"/>
		</g>
	</g>
	<g>
		<circle class="st0" cx="481.9" cy="374.5" r="39.8"/>
		<g>
			<path class="st1" d="M487.9,396.1c0,0.7,0,1.3,0,2c0,0.2,0,0.4,0,0.6c0,0.4-0.2,0.7-0.6,0.8c-0.4,0.1-0.7,0-1-0.3
				c-0.7-0.9-1.4-1.8-2-2.6c-2.1-2.8-4.3-5.5-6.4-8.3c-0.5-0.6-0.5-1,0.1-1.5c2.7-3,5.5-6,8.2-9c0.1-0.1,0.1-0.1,0.2-0.2
				c0.3-0.3,0.6-0.5,1-0.3c0.4,0.2,0.6,0.5,0.6,0.9c0,0.9,0,1.7,0,2.6c0,0.2,0,0.4,0,0.7c2.7,0,5.3,0,8,0c-0.1-0.2-0.2-0.3-0.3-0.5
				c-1-1.9-2.1-3.8-3.1-5.7c-0.4-0.8-0.3-1.2,0.4-1.6c3.3-1.9,6.5-3.8,9.8-5.7c0.8-0.5,1.2-0.3,1.6,0.5c0.9,1.8,1.8,3.6,2.7,5.5
				c1,2.1,0.9,4.1-0.3,6c-2.6,4.5-5.3,8.9-7.9,13.4c-1.1,1.9-2.7,2.8-4.9,2.9c-1.8,0-3.7,0-5.5,0
				C488.3,396.1,488.1,396.1,487.9,396.1z M479.5,387.5c2.2,2.9,4.4,5.7,6.6,8.6c0-0.2,0-0.3,0-0.4c0-1.2,0.2-1.4,1.4-1.4
				c2.1,0,4.2,0,6.4,0c1.6,0,2.7-0.7,3.5-2c1.7-2.9,3.4-5.8,5.1-8.7c0.1-0.1,0.2-0.3,0.3-0.5c-0.3,0-0.4,0-0.6,0
				c-4.9,0-9.9,0-14.8,0c-0.9,0-1.2-0.3-1.2-1.1c0-0.5,0-1.1,0-1.6c0,0-0.1,0-0.1,0C483.9,382.7,481.7,385.1,479.5,387.5z
				 M494.2,374.8c1.2,2.2,2.4,4.3,3.5,6.3c0.1,0.1,0.3,0.2,0.5,0.2c1.7,0,3.5,0,5.2,0c0.2,0,0.4-0.1,0.5-0.3
				c0.5-0.7,0.9-1.4,1.4-2.2c0.6-1,0.8-2,0.6-3.2c0-0.2-0.1-0.4-0.2-0.6c-0.9-1.8-1.8-3.6-2.7-5.5
				C500.1,371.4,497.2,373.1,494.2,374.8z"/>
			<path class="st1" d="M498.5,357.5c1.2-0.6,2.3-1.2,3.4-1.7c0.2-0.1,0.5-0.2,0.7-0.2c0.6,0,1,0.6,0.7,1.3
				c-0.3,0.6-0.6,1.2-0.9,1.9c-1.7,3.5-3.4,7-5.1,10.5c-0.4,0.8-0.5,0.8-1.4,0.8c-4-0.5-8-0.9-12-1.4c-0.1,0-0.3,0-0.4-0.1
				c-0.4,0-0.7-0.3-0.8-0.7c-0.1-0.4,0.1-0.7,0.5-1c1.2-0.7,2.3-1.4,3.5-2.1c-1.3-2.5-2.6-4.9-4-7.5c-0.1,0.2-0.2,0.3-0.3,0.5
				c-1.1,1.9-2.1,3.8-3.2,5.7c-0.5,0.8-0.9,0.9-1.7,0.4c-3-1.9-5.9-3.8-8.9-5.7c-0.8-0.5-0.9-0.9-0.4-1.7c0.8-1.3,1.6-2.6,2.4-3.9
				c1.2-2,3-3.1,5.3-3.1c5,0,9.9,0,14.9,0c1.9,0,3.4,1,4.4,2.6c1,1.6,1.9,3.3,2.9,4.9C498.3,357.2,498.4,357.3,498.5,357.5z
				 M500.6,358.4c-0.7,0.3-1.2,0.6-1.8,0.9c-0.8,0.4-1.2,0.3-1.6-0.5c-1-1.8-2.1-3.5-3.1-5.3c-0.9-1.6-2.2-2.3-4-2.3
				c-2.7,0-5.3,0-8,0c-0.2,0-0.3,0-0.6,0c0.1,0.3,0.2,0.4,0.3,0.6c2.2,4.1,4.3,8.2,6.5,12.3c0.5,1,0.5,1.3-0.5,1.9
				c-0.5,0.3-1,0.6-1.6,1c0.3,0,0.5,0.1,0.7,0.1c2.8,0.3,5.7,0.6,8.5,1c0.4,0,0.5,0,0.7-0.4c1.4-2.9,2.8-5.9,4.3-8.8
				C500.5,358.8,500.5,358.6,500.6,358.4z M470.1,357c2.7,1.7,5.3,3.4,8,5.1c1.2-2.2,2.4-4.3,3.5-6.4c0.1-0.1,0.1-0.3,0-0.5
				c-0.6-1.3-1.2-2.5-1.9-3.7c-0.1-0.1-0.3-0.3-0.4-0.3c-1.1,0-2.3,0-3.4,0c-1.4,0.1-2.6,0.7-3.4,1.9
				C471.7,354.4,470.9,355.7,470.1,357z"/>
			<path class="st1" d="M460.6,368.4c-1.3-0.8-2.6-1.6-3.9-2.4c-0.2-0.1-0.4-0.2-0.4-0.3c-0.1-0.3-0.3-0.6-0.3-0.8
				c0.1-0.3,0.4-0.6,0.7-0.6c0.7-0.1,1.3-0.1,2-0.2c3.9-0.2,7.8-0.5,11.7-0.7c0.5,0,0.9,0.2,1.1,0.7c1.7,3.6,3.3,7.2,5,10.9
				c0.2,0.4,0.2,0.8-0.1,1.1c-0.3,0.3-0.7,0.3-1.1,0.2c-1.1-0.4-2.2-0.9-3.4-1.3c-1.4,2.5-2.8,4.9-4.3,7.5c0.3,0,0.5,0,0.6,0
				c1.9,0,3.7,0,5.6,0c0.7,0,1.1,0.3,1.1,1c0,3.9,0,7.8,0,11.7c0,0.7-0.3,1-1,1c-1.4,0-2.9,0.1-4.3-0.1c-2-0.2-3.5-1.4-4.5-3.1
				c-2.4-4.2-4.9-8.4-7.3-12.6c-1.1-1.9-1.2-3.9-0.2-6c0.9-1.8,1.8-3.6,2.7-5.4C460.4,368.8,460.5,368.6,460.6,368.4z M459.8,365.7
				c0,0,0,0.1,0,0.1c0.7,0.4,1.5,0.9,2.2,1.3c0.8,0.5,0.9,0.8,0.5,1.6c-1,2-2,4.1-3.1,6.1c-0.8,1.6-0.7,3.1,0.2,4.6
				c1.2,2.1,2.4,4.1,3.6,6.2c0.1,0.1,0.2,0.3,0.3,0.5c0.1-0.2,0.2-0.4,0.3-0.5c2.3-4,4.6-8.1,7-12.1c0.5-0.8,0.7-0.9,1.6-0.6
				c0.6,0.2,1.2,0.4,1.8,0.7c0-0.1,0-0.2,0-0.2c-1.3-2.7-2.5-5.5-3.8-8.2c-0.1-0.1-0.3-0.3-0.5-0.3c-1.3,0.1-2.5,0.1-3.8,0.2
				C463.9,365.5,461.8,365.6,459.8,365.7z M473.2,394.3c0-3.4,0-6.8,0-10.3c-2.1,0-4.1,0-6.2,0c-0.1,0-0.3,0.1-0.4,0.3
				c-0.7,1.1-1.4,2.3-2.1,3.4c-0.1,0.1-0.1,0.4,0,0.5c0.7,1.3,1.4,2.5,2.2,3.8c0.7,1.2,1.8,2,3.2,2.2
				C471,394.4,472.1,394.3,473.2,394.3z"/>
		</g>
	</g>
	<g>
		<g>
			<path class="st0" d="M176.3,349.3c0.2,0,0.4,0.1,0.5,0.2c0.2,0.1,0.3,0.3,0.4,0.4v0c0.7,1.7,1.3,3.4,2,5.1c0.7,1.7,1.3,3.3,2,5
				s1.3,3.3,2,5c0.7,1.7,1.3,3.4,2,5.1c1.3-3.4,2.6-6.7,3.8-10.1c1.3-3.3,2.5-6.7,3.8-10.1c0.1-0.1,0.2-0.3,0.4-0.4
				c0.2-0.1,0.4-0.2,0.5-0.2h0.7c0.2,0,0.3,0,0.5,0.1c0.1,0.1,0.2,0.2,0.3,0.3c0.1,0.1,0.1,0.3,0.2,0.4c0,0.2,0,0.3-0.1,0.5
				l-8.8,23.2l0,0c-0.1,0.2-0.2,0.3-0.4,0.4c-0.2,0.1-0.4,0.2-0.5,0.2h-0.7c-0.2,0-0.4-0.1-0.5-0.2c-0.2-0.1-0.3-0.3-0.4-0.4
				l-9.1-23.2c-0.1-0.3-0.1-0.6,0.1-0.9c0.2-0.3,0.4-0.4,0.8-0.4H176.3z"/>
			<path class="st0" d="M199.7,354.2c0,0.3-0.1,0.5-0.3,0.7c-0.2,0.2-0.4,0.3-0.7,0.3h-0.6c-0.3,0-0.5-0.1-0.7-0.3
				c-0.2-0.2-0.3-0.4-0.3-0.7V351c0-0.3,0.1-0.5,0.3-0.7c0.2-0.2,0.4-0.3,0.7-0.3h0.6c0.3,0,0.5,0.1,0.7,0.3
				c0.2,0.2,0.3,0.4,0.3,0.7V354.2z M199.7,373.5c0,0.3-0.1,0.5-0.3,0.7s-0.4,0.3-0.7,0.3h-0.6c-0.3,0-0.5-0.1-0.7-0.3
				c-0.2-0.2-0.3-0.4-0.3-0.7v-16.2c0-0.3,0.1-0.5,0.3-0.7c0.2-0.2,0.4-0.3,0.7-0.3h0.6c0.3,0,0.5,0.1,0.7,0.3s0.3,0.4,0.3,0.7
				V373.5z"/>
			<path class="st0" d="M203,356.4c0.2,0,0.3,0.1,0.5,0.2c0.2,0.1,0.3,0.2,0.4,0.4l5.4,13.4c0.8-2.2,1.7-4.5,2.5-6.7
				c0.8-2.2,1.7-4.5,2.5-6.7c0.1-0.1,0.2-0.3,0.4-0.4c0.2-0.1,0.4-0.2,0.5-0.2h0.7c0.2,0,0.3,0,0.5,0.1c0.1,0.1,0.2,0.2,0.3,0.3
				c0.1,0.1,0.1,0.3,0.2,0.4c0,0.2,0,0.3-0.1,0.5l-6.1,16.2v0c-0.1,0.2-0.2,0.3-0.4,0.4c-0.2,0.1-0.4,0.2-0.5,0.2h-0.8
				c-0.1,0-0.3-0.1-0.5-0.2c-0.2-0.1-0.3-0.2-0.4-0.4l-6.7-16.2c-0.1-0.3-0.1-0.6,0.1-0.9c0.2-0.3,0.4-0.4,0.8-0.4H203z"/>
			<path class="st0" d="M220.8,366.5c0.1,0.8,0.2,1.5,0.4,2.2c0.2,0.7,0.5,1.3,0.9,1.8c0.4,0.6,0.9,1.1,1.6,1.4
				c0.7,0.3,1.5,0.4,2.5,0.5c1.5,0,2.7-0.4,3.6-1.2c0.9-0.8,1.5-1.9,1.8-3.4c0-0.2,0.1-0.4,0.3-0.5c0.2-0.1,0.4-0.2,0.6-0.2h0.6
				c0.3,0,0.5,0.1,0.7,0.3c0.2,0.2,0.3,0.5,0.2,0.7c-0.3,2.1-1.1,3.8-2.5,5c-0.7,0.6-1.5,1-2.4,1.4c-0.9,0.3-1.8,0.5-2.9,0.5
				c-2.8,0-4.8-1-6.1-2.8c-1.3-1.7-1.9-3.9-1.9-6.6c0.1-3,0.9-5.3,2.5-6.9c1.6-1.7,3.4-2.5,5.5-2.5c1.4,0,2.7,0.3,3.7,0.8
				c1,0.5,1.9,1.3,2.6,2.2c0.6,0.9,1,1.8,1.3,2.8c0.3,1,0.5,2,0.5,3.2c0,0.1,0,0.2,0,0.3c0,0.1,0,0.2,0,0.3c0,0.2-0.1,0.4-0.3,0.6
				c-0.2,0.2-0.4,0.3-0.6,0.3H220.8z M231.7,364c-0.1-0.7-0.2-1.4-0.4-2c-0.2-0.6-0.5-1.2-0.9-1.7c-0.5-0.6-1-1.1-1.7-1.3
				c-0.7-0.3-1.5-0.4-2.4-0.4c-0.7,0-1.4,0.2-2.1,0.4c-0.6,0.3-1.2,0.7-1.7,1.2c-0.4,0.5-0.8,1-1.1,1.7c-0.3,0.6-0.5,1.3-0.6,2.2
				H231.7z"/>
			<path class="st2" d="M251.5,360.6c-0.2,0-0.4-0.1-0.5-0.2c-0.2-0.1-0.2-0.3-0.2-0.5c0-0.8-0.2-1.5-0.4-2.1
				c-0.3-0.6-0.6-1.1-1.1-1.4c-0.5-0.3-1.1-0.6-1.7-0.8c-0.7-0.2-1.4-0.3-2.2-0.2c-0.7,0-1.3,0.1-1.9,0.2c-0.6,0.1-1.2,0.4-1.7,0.6
				c-0.5,0.2-0.8,0.6-1.1,1.1c-0.2,0.2-0.3,0.5-0.3,0.8c-0.1,0.3-0.1,0.6-0.1,1c0,0.3,0,0.6,0.1,0.9s0.2,0.5,0.3,0.7
				c0.3,0.4,0.7,0.8,1.2,1h0c0.3,0.1,0.6,0.3,0.9,0.4c0.3,0.1,0.7,0.2,1.1,0.3c0.3,0.1,0.6,0.1,0.9,0.2c0.3,0.1,0.6,0.1,0.9,0.2h0
				c0.1,0,0.2,0.1,0.3,0.1c0.1,0,0.2,0.1,0.3,0.1v0c0.5,0.1,0.9,0.2,1.4,0.3s0.9,0.2,1.3,0.3c0.4,0.1,0.8,0.3,1.2,0.4
				c0.4,0.2,0.8,0.4,1.1,0.5c0.3,0.2,0.7,0.4,0.9,0.7c0.3,0.3,0.5,0.6,0.8,1c0.2,0.4,0.4,0.8,0.4,1.3c0.1,0.5,0.1,1,0.1,1.6
				c0,1-0.2,2-0.7,2.7c-0.4,0.8-1.1,1.4-1.9,1.9c-0.7,0.4-1.5,0.8-2.4,1c-0.8,0.2-1.7,0.3-2.7,0.3c-1.2,0-2.3-0.2-3.3-0.5
				c-1-0.3-1.9-0.8-2.6-1.3c-0.7-0.6-1.3-1.4-1.7-2.4c-0.4-1-0.7-2.1-0.7-3.4c0-0.2,0.1-0.4,0.2-0.6c0.2-0.2,0.3-0.2,0.6-0.2h0.5
				c0.2,0,0.4,0.1,0.6,0.2c0.2,0.2,0.2,0.3,0.2,0.6c0,2,0.6,3.4,1.6,4.2c0.6,0.4,1.2,0.8,2,1c0.8,0.2,1.6,0.3,2.6,0.3
				c0.7,0,1.4-0.1,2-0.3c0.7-0.2,1.3-0.4,1.8-0.7c0.5-0.3,0.9-0.7,1.1-1.2c0.3-0.5,0.4-1,0.4-1.7c0-0.8-0.2-1.4-0.5-1.9
				c-0.2-0.2-0.3-0.4-0.6-0.6c-0.2-0.2-0.5-0.3-0.8-0.5c-0.3-0.2-0.6-0.3-1-0.4c-0.3-0.1-0.7-0.2-1-0.3c-0.4-0.1-0.8-0.2-1.2-0.3
				c-0.4-0.1-0.8-0.2-1.2-0.2c-0.1,0-0.2,0-0.3-0.1c-0.1,0-0.2,0-0.3-0.1c-0.2,0-0.4-0.1-0.6-0.1s-0.4-0.1-0.6-0.2
				c-0.1,0-0.2-0.1-0.3-0.1c-0.1,0-0.2-0.1-0.3-0.1c-0.8-0.2-1.6-0.5-2.3-0.9c-0.4-0.2-0.7-0.5-1-0.7c-0.3-0.3-0.5-0.6-0.7-0.9l0,0
				c-0.5-0.7-0.7-1.6-0.7-2.7c0-0.6,0.1-1.1,0.2-1.6c0.1-0.5,0.3-0.9,0.5-1.2l0,0c0.4-0.7,1.1-1.3,1.8-1.8c0.7-0.4,1.5-0.7,2.4-0.9
				c0.4-0.1,0.8-0.1,1.2-0.2c0.4,0,0.8-0.1,1.2-0.1c2.1,0,3.9,0.5,5.2,1.5c0.7,0.5,1.3,1.2,1.7,2.1c0.4,0.9,0.6,1.9,0.7,3
				c0,0.2-0.1,0.4-0.2,0.6c-0.2,0.2-0.3,0.3-0.6,0.3H251.5z"/>
			<path class="st2" d="M267.9,359.4c0.2,0,0.4,0.1,0.5,0.2c0.1,0.2,0.2,0.3,0.2,0.6v9c0,0.2,0,0.4,0,0.5c0,0.2,0,0.3,0,0.5v1.5
				c0,0.2,0,0.3,0,0.4c0,0.1,0,0.1-0.1,0.1h0.1c0,0,0,0,0.1,0c0,0,0,0,0.1,0c0.2,0,0.4,0.1,0.5,0.2c0.1,0.1,0.2,0.3,0.2,0.6v0.6
				c0,0.2-0.1,0.4-0.2,0.6c-0.1,0.2-0.3,0.2-0.5,0.2c0,0-0.1,0-0.1,0c0,0-0.1,0-0.1,0h-0.2c-0.3,0-0.6,0-0.8-0.1
				c-0.2,0-0.4-0.1-0.5-0.2c-0.1-0.1-0.2-0.2-0.3-0.4c-0.1-0.2-0.1-0.4-0.1-0.6c-0.1,0-0.1,0.1-0.2,0.1c-0.1,0-0.1,0.1-0.2,0.1
				c-0.5,0.4-1,0.7-1.7,0.9c-0.6,0.2-1.3,0.3-2.1,0.3c-0.8,0-1.5-0.1-2.2-0.4c-0.7-0.3-1.3-0.6-1.8-1.1c-0.5-0.5-0.9-1.1-1.2-1.8
				c-0.3-0.7-0.4-1.5-0.4-2.4v-8.9c0-0.2,0.1-0.4,0.2-0.6c0.1-0.2,0.3-0.2,0.5-0.2h0.5c0.2,0,0.4,0.1,0.6,0.2
				c0.2,0.2,0.2,0.3,0.2,0.6v8.8c0,1.3,0.3,2.2,1,2.7c0.7,0.6,1.5,0.9,2.5,0.9c0.7,0,1.3-0.1,1.8-0.4c0.5-0.2,0.9-0.6,1.3-1.1
				c0.7-0.9,1.1-2.1,1.1-3.4v-7.6c0-0.2,0.1-0.4,0.2-0.6c0.1-0.2,0.3-0.2,0.5-0.2H267.9z"/>
			<path class="st2" d="M282.2,365c-0.2,0-0.4-0.1-0.5-0.2c-0.2-0.2-0.2-0.3-0.2-0.5c0-1.1-0.3-1.9-0.9-2.3
				c-0.6-0.5-1.5-0.7-2.7-0.7c-0.4,0-0.8,0-1.1,0.1c-0.3,0-0.6,0.1-0.8,0.2c-0.4,0.2-0.7,0.4-0.9,0.7c-0.2,0.3-0.3,0.5-0.4,0.7
				c-0.1,0.3-0.1,0.4-0.1,0.5c0,0.5,0.1,0.8,0.3,1.1c0.2,0.3,0.4,0.5,0.7,0.6c0.4,0.1,0.9,0.3,1.4,0.4c0.6,0.2,1.2,0.3,1.9,0.5
				c0.3,0.1,0.5,0.1,0.8,0.2c0.3,0.1,0.5,0.2,0.8,0.2c0.3,0.1,0.6,0.2,0.8,0.3c0.3,0.1,0.5,0.3,0.8,0.4v0c0.6,0.3,1,0.8,1.3,1.3
				c0.3,0.6,0.5,1.2,0.5,2c0,0.8-0.2,1.5-0.5,2.1c-0.3,0.6-0.8,1.1-1.4,1.4c-0.6,0.3-1.1,0.6-1.7,0.7c-0.6,0.2-1.3,0.2-2,0.2
				c-4.1,0-6.2-1.9-6.2-5.7c0-0.2,0.1-0.4,0.2-0.6c0.1-0.2,0.3-0.2,0.6-0.2h0.5c0.2,0,0.4,0.1,0.5,0.2c0.2,0.1,0.2,0.3,0.2,0.5
				c0,1.2,0.4,2.1,1,2.7c0.7,0.6,1.7,0.9,3.1,0.9c0.5,0,0.9-0.1,1.3-0.2c0.4-0.1,0.8-0.3,1.2-0.5c0.6-0.3,1-0.9,1-1.8
				c0-0.2,0-0.4-0.1-0.6c0-0.2-0.1-0.3-0.2-0.4c-0.2-0.3-0.4-0.5-0.8-0.6c-0.2-0.1-0.4-0.2-0.6-0.3c-0.2-0.1-0.5-0.2-0.7-0.3
				c-0.1,0-0.3-0.1-0.4-0.1c-0.1,0-0.2-0.1-0.4-0.1c-0.1,0-0.2,0-0.2,0s-0.1,0-0.2,0c-0.1,0-0.1,0-0.2,0c-0.1,0-0.1,0-0.2,0
				c-0.6-0.1-1.1-0.3-1.7-0.5c-0.6-0.2-1-0.3-1.5-0.5c-0.7-0.3-1.2-0.7-1.6-1.3c-0.4-0.6-0.5-1.3-0.5-2.2c0-1,0.4-2,1.3-2.8
				c0.5-0.4,1-0.8,1.7-1c0.3-0.1,0.7-0.2,1.1-0.3c0.4-0.1,0.8-0.1,1.3-0.1c1.8,0,3.2,0.4,4.1,1.3s1.5,2.1,1.5,3.8
				c0,0.2-0.1,0.4-0.2,0.5c-0.1,0.2-0.3,0.2-0.5,0.2H282.2z"/>
			<path class="st2" d="M290.1,361.5v9.5c0,0.7,0.1,1,0.2,1.1c0.1,0.1,0.2,0.1,0.4,0.2c0.1,0,0.3,0,0.4,0c0.5,0,0.8,0,0.9,0h0
				c0.3-0.1,0.5,0,0.7,0.1s0.3,0.4,0.3,0.6v0.5c0,0.2-0.1,0.4-0.2,0.6c-0.2,0.2-0.3,0.2-0.6,0.2c0,0-0.1,0-0.1,0s-0.1,0-0.2,0h0
				c-0.1,0-0.2,0-0.4,0c-0.2,0-0.4,0-0.6,0c-0.8,0-1.5-0.2-2-0.7c-0.2-0.2-0.3-0.4-0.5-0.6c-0.1-0.2-0.2-0.4-0.3-0.6
				c-0.2-0.4-0.2-0.9-0.2-1.4v-9.6h-1.7c-0.2,0-0.4-0.1-0.6-0.2c-0.2-0.1-0.2-0.3-0.2-0.6v-0.5c0-0.2,0.1-0.4,0.2-0.6
				c0.2-0.2,0.3-0.2,0.6-0.2h1.7v-3.2c0-0.1,0-0.2,0.1-0.4c0.1-0.1,0.2-0.2,0.3-0.3l0.5-0.3c0.1-0.1,0.3-0.1,0.4-0.1
				c0.1,0,0.3,0,0.4,0.1c0.1,0.1,0.2,0.2,0.3,0.3c0.1,0.1,0.1,0.3,0.1,0.4v3.4h2.3c0.2,0,0.4,0.1,0.5,0.2c0.1,0.2,0.2,0.3,0.2,0.6
				v0.5c0,0.2-0.1,0.4-0.2,0.6c-0.1,0.1-0.3,0.2-0.5,0.2H290.1z"/>
			<path class="st2" d="M296.9,367.8c0.1,0.7,0.2,1.3,0.3,1.8c0.2,0.6,0.4,1.1,0.7,1.5c0.3,0.5,0.8,0.9,1.4,1.1
				c0.6,0.2,1.3,0.4,2.1,0.4c1.2,0,2.2-0.3,3-1c0.7-0.6,1.2-1.6,1.5-2.8c0-0.2,0.1-0.3,0.3-0.4c0.1-0.1,0.3-0.2,0.5-0.2h0.5
				c0.2,0,0.4,0.1,0.6,0.3c0.2,0.2,0.2,0.4,0.2,0.6c-0.2,1.8-0.9,3.1-2.1,4.1c-0.6,0.5-1.3,0.9-2,1.1c-0.7,0.3-1.5,0.4-2.4,0.4
				c-2.3,0-4-0.8-5.1-2.4c-1.1-1.5-1.6-3.3-1.6-5.5c0-2.5,0.7-4.4,2.1-5.7c1.3-1.4,2.8-2.1,4.6-2.1c1.2,0,2.2,0.2,3.1,0.7
				c0.9,0.4,1.6,1,2.1,1.8c0.5,0.7,0.9,1.5,1.1,2.3c0.3,0.8,0.4,1.7,0.4,2.6c0,0.1,0,0.2,0,0.3c0,0.1,0,0.2,0,0.3
				c0,0.2-0.1,0.4-0.3,0.5c-0.2,0.1-0.3,0.2-0.5,0.2H296.9z M306,365.8c-0.1-0.6-0.2-1.2-0.4-1.7c-0.2-0.5-0.4-1-0.8-1.4
				c-0.4-0.5-0.9-0.9-1.4-1.1c-0.6-0.2-1.2-0.4-2-0.4c-0.6,0-1.2,0.1-1.7,0.4c-0.5,0.2-1,0.6-1.4,1c-0.4,0.4-0.7,0.9-0.9,1.4
				c-0.2,0.5-0.4,1.1-0.5,1.8H306z"/>
			<path class="st2" d="M311.3,360.2c0-0.2,0.1-0.4,0.2-0.6c0.1-0.2,0.3-0.2,0.5-0.2h0.5c0.2,0,0.4,0.1,0.5,0.2
				c0.2,0.2,0.2,0.3,0.2,0.6v0.5c0,0,0.1-0.1,0.1-0.1c0,0,0.1-0.1,0.1-0.1c0,0,0,0,0.1-0.1l0.1-0.1c1-0.8,2.2-1.2,3.7-1.2
				c1.6,0,3,0.5,4,1.5c0.5,0.5,0.9,1.1,1.2,1.8c0.3,0.7,0.4,1.5,0.4,2.4v8.9c0,0.2-0.1,0.4-0.2,0.6c-0.2,0.2-0.3,0.2-0.6,0.2h-0.5
				c-0.2,0-0.4-0.1-0.6-0.2c-0.2-0.2-0.2-0.3-0.2-0.6v-8.8c0-0.7-0.1-1.2-0.2-1.7c-0.2-0.5-0.4-0.8-0.7-1.1
				c-0.7-0.6-1.5-0.8-2.5-0.8c-0.7,0-1.2,0.2-1.8,0.4c-0.5,0.2-0.9,0.6-1.3,1c-0.3,0.5-0.6,1-0.8,1.6c-0.2,0.6-0.3,1.2-0.3,1.9v7.6
				c0,0.2-0.1,0.4-0.2,0.6c-0.2,0.2-0.3,0.2-0.5,0.2h-0.5c-0.2,0-0.4-0.1-0.5-0.2c-0.1-0.2-0.2-0.3-0.2-0.6V360.2z"/>
			<path class="st2" d="M329.9,361.5v9.5c0,0.7,0.1,1,0.2,1.1c0.1,0.1,0.2,0.1,0.4,0.2c0.1,0,0.3,0,0.4,0c0.5,0,0.8,0,0.9,0h0
				c0.3-0.1,0.5,0,0.7,0.1c0.2,0.1,0.3,0.4,0.3,0.6v0.5c0,0.2-0.1,0.4-0.2,0.6c-0.2,0.2-0.3,0.2-0.6,0.2c0,0-0.1,0-0.1,0
				s-0.1,0-0.2,0h0c-0.1,0-0.2,0-0.4,0c-0.2,0-0.4,0-0.6,0c-0.8,0-1.5-0.2-2-0.7c-0.2-0.2-0.3-0.4-0.5-0.6c-0.1-0.2-0.2-0.4-0.3-0.6
				c-0.2-0.4-0.2-0.9-0.2-1.4v-9.6h-1.7c-0.2,0-0.4-0.1-0.6-0.2c-0.2-0.1-0.2-0.3-0.2-0.6v-0.5c0-0.2,0.1-0.4,0.2-0.6
				c0.2-0.2,0.3-0.2,0.6-0.2h1.7v-3.2c0-0.1,0-0.2,0.1-0.4c0.1-0.1,0.2-0.2,0.3-0.3l0.5-0.3c0.1-0.1,0.3-0.1,0.4-0.1
				c0.1,0,0.3,0,0.4,0.1c0.1,0.1,0.2,0.2,0.3,0.3c0.1,0.1,0.1,0.3,0.1,0.4v3.4h2.3c0.2,0,0.4,0.1,0.5,0.2c0.1,0.2,0.2,0.3,0.2,0.6
				v0.5c0,0.2-0.1,0.4-0.2,0.6c-0.1,0.1-0.3,0.2-0.5,0.2H329.9z"/>
			<path class="st2" d="M336,365.2c-0.2,0-0.4-0.1-0.6-0.2c-0.2-0.2-0.2-0.3-0.2-0.6c0-0.8,0.2-1.5,0.5-2.1c0.3-0.6,0.7-1.2,1.2-1.7
				c1-1,2.4-1.5,4.3-1.5c0.7,0,1.3,0.1,1.9,0.2c0.6,0.2,1.1,0.4,1.6,0.7c1,0.7,1.6,1.9,1.7,3.7v8.5c0,0,0,0,0,0c0.1,0,0.2,0,0.2,0
				c0.1,0,0.2,0,0.3,0c0.3,0,0.5,0.2,0.6,0.4c0.1,0.2,0.1,0.5,0,0.7c-0.2,0.3-0.4,0.6-0.7,0.8c-0.3,0.2-0.6,0.3-1,0.3
				c-0.4,0-0.7-0.1-1-0.3c-0.3-0.2-0.5-0.6-0.6-1.1c-0.1,0.1-0.2,0.2-0.3,0.3c-0.1,0.1-0.2,0.2-0.3,0.3c-1.1,0.8-2.4,1.2-4,1.2
				c-0.8,0-1.4-0.1-2.1-0.3c-0.6-0.2-1.2-0.5-1.6-0.8c-0.5-0.4-0.9-0.9-1.1-1.4c-0.3-0.6-0.4-1.2-0.4-1.9c0-0.5,0-0.9,0.1-1.3
				c0.1-0.4,0.2-0.8,0.4-1.1c0.2-0.3,0.4-0.6,0.6-0.8c0.2-0.2,0.5-0.5,0.8-0.6c0.3-0.2,0.5-0.3,0.8-0.4c0.3-0.1,0.6-0.2,0.9-0.3
				c0.3-0.1,0.5-0.1,0.9-0.1c0.3,0,0.6-0.1,0.9-0.1c0.1,0,0.2,0,0.4,0c0.1,0,0.3,0,0.4,0c0,0,0.1,0,0.1,0c0,0,0.1,0,0.1,0h0l0.5,0
				c0.2,0,0.4,0,0.5,0c0.2,0,0.3,0,0.5,0c0.3,0,0.6-0.1,0.8-0.1c0.2,0,0.5-0.1,0.6-0.1c0.3-0.1,0.4-0.2,0.5-0.3
				c0.1-0.1,0.1-0.4,0.1-0.7c0-0.2,0-0.3,0-0.5c0-0.2,0-0.4,0-0.6c0,0,0,0,0,0c-0.1-0.3-0.2-0.6-0.4-0.9c-0.1-0.1-0.2-0.2-0.3-0.3
				s-0.3-0.2-0.4-0.3c-0.5-0.2-1.1-0.3-1.9-0.3c-2.3,0-3.6,1.1-3.8,3.2c0,0.2-0.1,0.4-0.3,0.5c-0.2,0.1-0.3,0.2-0.5,0.2H336z
				 M344.3,367.2c-0.2,0.1-0.4,0.1-0.6,0.2c-0.2,0-0.4,0.1-0.6,0.1c-0.5,0-1,0.1-1.5,0.1c-0.5,0-1.1,0.1-1.7,0.1
				c-0.2,0-0.4,0-0.7,0.1s-0.5,0.1-0.7,0.1c-0.2,0-0.4,0.1-0.6,0.2s-0.4,0.2-0.5,0.3c-0.2,0.1-0.5,0.4-0.6,0.7
				c-0.1,0.2-0.2,0.4-0.2,0.6c0,0.2-0.1,0.5-0.1,0.8c0,0.3,0,0.6,0.1,0.8c0.1,0.3,0.3,0.5,0.5,0.8c0.4,0.5,1.2,0.8,2.5,0.8
				c0.7,0,1.4-0.1,2-0.4c0.6-0.2,1.1-0.6,1.5-1h0c0.8-0.9,1.2-1.9,1.2-3.1V367.2z M344.6,367.1c0,0-0.1,0-0.1,0
				c-0.1,0-0.1,0-0.1-0.1v-1.2c0-0.1,0-0.1,0.1-0.1c0.1,0,0.1,0,0.2,0l0.5,0.5c0.1,0,0.1-0.1,0.2-0.1c0.1,0,0.1-0.1,0.2-0.1
				c0.1,0,0.1,0,0.2,0c0.1,0.1,0.1,0.1,0,0.2C345.4,366.6,345.1,366.8,344.6,367.1z"/>
			<path class="st2" d="M352.6,360.9c0.5-0.6,1.2-1,2-1.3s1.7-0.5,2.7-0.5c1.1,0,2,0.2,2.8,0.6c0.8,0.4,1.5,1,2,1.8
				c0.6,0.7,1,1.6,1.2,2.5s0.4,1.9,0.4,3c0,2.2-0.6,4-1.7,5.5c-0.6,0.7-1.3,1.3-2.1,1.7c-0.8,0.4-1.7,0.6-2.7,0.6
				c-0.8,0-1.5-0.1-2.1-0.4c-0.7-0.2-1.3-0.6-1.8-1c-0.5-0.4-1-0.9-1.3-1.4s-0.7-1.2-0.9-1.8c-0.1-0.3-0.2-0.8-0.3-1.2
				c-0.1-0.5-0.1-1-0.2-1.6c0-0.6-0.1-1.1-0.1-1.7c0-0.6,0-1.1,0-1.6c0-0.5,0-0.9,0-1.3c0-0.4,0-0.7,0-1V355c0-0.2,0.1-0.4,0.2-0.6
				c0.1-0.2,0.3-0.2,0.6-0.2h0.5c0.2,0,0.4,0.1,0.6,0.2c0.2,0.2,0.2,0.3,0.2,0.6V360.9z M352.6,367c0,1.6,0.4,2.9,1.3,4
				c0.8,1.1,1.9,1.6,3.4,1.6c1.5,0,2.5-0.6,3.3-1.6c0.4-0.6,0.7-1.2,0.9-1.9c0.2-0.7,0.3-1.4,0.3-2.2c0-0.7-0.1-1.4-0.3-2.1
				c-0.2-0.7-0.5-1.3-0.8-1.9h0c-0.3-0.5-0.8-0.9-1.3-1.2c-0.6-0.3-1.2-0.4-2-0.5c-0.7,0-1.3,0.2-1.9,0.5c-0.6,0.3-1.1,0.6-1.5,1.1
				c-0.4,0.5-0.7,1.1-1,1.8C352.8,365.3,352.6,366.1,352.6,367z"/>
			<path class="st2" d="M367.1,355c0-0.2,0.1-0.4,0.2-0.6c0.2-0.2,0.3-0.2,0.6-0.2h0.5c0.2,0,0.4,0.1,0.6,0.2
				c0.1,0.2,0.2,0.3,0.2,0.6v18.7c0,0.2-0.1,0.4-0.2,0.6c-0.1,0.2-0.3,0.2-0.6,0.2h-0.5c-0.2,0-0.4-0.1-0.6-0.2
				c-0.2-0.2-0.2-0.3-0.2-0.6V355z"/>
			<path class="st2" d="M373.6,367.8c0.1,0.7,0.2,1.3,0.3,1.8c0.2,0.6,0.4,1.1,0.7,1.5c0.3,0.5,0.8,0.9,1.4,1.1
				c0.6,0.2,1.3,0.4,2.1,0.4c1.2,0,2.2-0.3,3-1c0.7-0.6,1.2-1.6,1.5-2.8c0-0.2,0.1-0.3,0.3-0.4c0.1-0.1,0.3-0.2,0.5-0.2h0.5
				c0.2,0,0.4,0.1,0.6,0.3c0.2,0.2,0.2,0.4,0.2,0.6c-0.2,1.8-0.9,3.1-2.1,4.1c-0.6,0.5-1.3,0.9-2,1.1c-0.7,0.3-1.5,0.4-2.4,0.4
				c-2.3,0-4-0.8-5.1-2.4c-1.1-1.5-1.6-3.3-1.6-5.5c0-2.5,0.7-4.4,2.1-5.7c1.3-1.4,2.8-2.1,4.6-2.1c1.2,0,2.2,0.2,3.1,0.7
				c0.9,0.4,1.6,1,2.1,1.8c0.5,0.7,0.9,1.5,1.1,2.3c0.3,0.8,0.4,1.7,0.4,2.6c0,0.1,0,0.2,0,0.3c0,0.1,0,0.2,0,0.3
				c0,0.2-0.1,0.4-0.3,0.5c-0.2,0.1-0.3,0.2-0.5,0.2H373.6z M382.7,365.8c-0.1-0.6-0.2-1.2-0.4-1.7c-0.2-0.5-0.4-1-0.8-1.4
				c-0.4-0.5-0.9-0.9-1.4-1.1c-0.6-0.2-1.2-0.4-2-0.4c-0.6,0-1.2,0.1-1.7,0.4c-0.5,0.2-1,0.6-1.4,1c-0.4,0.4-0.7,0.9-0.9,1.4
				c-0.2,0.5-0.4,1.1-0.5,1.8H382.7z"/>
		</g>
		<g>
			<g>
				<path class="st3" d="M66.7,221c0.5-0.9,1.2-1.4,2.2-1.4c0.8,0,1.5,0.3,2,0.9c0.6,0.6,0.8,1.3,0.7,2.1
					c11.3-1.6,19.8-2.4,25.5-2.4c0.9,0,1.8,0,2.8,0.1c0.7,0.1,1.3,0.4,1.7,0.9c0.4,0.5,0.6,1.2,0.6,1.9c0,0.7-0.2,1.3-0.5,1.8
					c-0.4,0.5-0.8,0.8-1.4,0.8c-0.3,0-0.6-0.1-0.9-0.2c-1.2-0.5-3.5-0.7-7.1-0.7c-5.8,0-13.4,0.6-22.8,1.8c-0.7,1.2-2.1,3.6-4.1,7.1
					c-2.1,3.5-3.6,6-4.5,7.7c-0.9,1.7-2.2,3.8-3.7,6.5c-1.5,2.7-2.8,5.1-3.9,7.3c-1.1,2.2-2.1,4.2-3,6.2c8.1-1,15.5-3.1,22.5-6.3
					c0.1,0,0.3-0.1,0.5-0.1c0.7,0,1.4,0.3,1.8,0.8c0.5,0.6,0.7,1.2,0.7,1.9c0,1.4-0.7,2.3-2.1,2.5l-24.9,4.6
					c-5.5,12.6-8.2,22.7-8.2,30.2c0,3.8,0.7,6.7,2.2,8.8c1.5,2.1,3.6,3.1,6.5,3.1c4.9,0,11.8-3.1,20.5-9.4
					c8.7-6.3,19.1-15.9,31.3-29.1c0.6-0.6,1.2-0.9,2-0.9c0.6,0,1,0.2,1.4,0.6c0.4,0.4,0.6,0.9,0.6,1.4c0,0.6-0.3,1.2-0.8,1.8
					c-9.9,10.7-19,19.3-27.1,25.5c-8.2,6.3-15.2,10.3-21,12c-2.3,0.6-4.3,0.9-6,0.9c-3.2,0-5.8-0.9-7.9-2.7
					c-3.4-2.8-5.1-7.5-5.1-14.2c0-6.6,2.5-15.8,7.5-27.6l-7.9,1.4h-0.5c-0.8,0-1.4-0.3-1.8-0.8c-0.5-0.5-0.7-1.2-0.7-1.9
					c0-1.5,0.7-2.3,2.1-2.5h2.4c3,0,5.8-0.1,8.2-0.2c4.3-9.5,10-20.8,17.1-33.9c-10,1.5-19.2,3.3-27.6,5.5
					c-8.4,2.2-14.5,4.5-18.1,6.9c-2.3,1.5-3.4,3-3.4,4.4c0,0.6,0.2,1.3,0.7,2c0.5,0.5,0.8,1.1,0.8,1.8c0,0.7-0.3,1.3-0.8,1.9
					c-0.6,0.6-1.2,0.8-1.9,0.8c-0.6,0-1.2-0.3-1.8-0.9c-1.5-1.6-2.3-3.3-2.3-4.9c0-3,2.1-5.7,6.2-8c4.3-2.5,11.2-5,20.4-7.3
					c9.3-2.3,19.3-4.4,30-6.1c0.2-0.3,0.4-0.7,0.7-1.3C66.3,221.7,66.5,221.3,66.7,221z"/>
				<path class="st3" d="M115.5,261c-0.3-0.3-0.7-0.5-1.2-0.5c-1.3,0-2.9,0.9-4.9,2.8c-2,1.9-3.7,4.1-5.3,6.8c-1.5,2.7-2.3,5-2.3,7
					c0,2.4,1.2,3.9,3.7,4.4c0.9,0.2,1.9,0.3,3,0.3c7.5,0,15.3-4.6,23.3-13.9c0.6-0.5,1.2-0.7,1.7-0.7c0.4,0,0.8,0.1,1.1,0.4
					c0.3,0.3,0.4,0.7,0.4,1.1c0,0.9-0.5,1.6-1.4,2.3c-11.1,9.7-20.1,14.5-27,14.5c-2.9,0-5-0.9-6.3-2.7c-0.9-1.1-1.3-2.7-1.3-4.6
					c0-3.6,1.3-7.6,3.9-12.2c2.6-4.6,5-7.6,7.4-9c1.7-1,3.3-1.5,4.7-1.5c1.3,0,2.5,0.5,3.6,1.4c0.4-0.4,0.7-0.9,1.1-1.4
					c0.4-0.5,0.7-0.8,0.9-1.1c0.3-0.3,0.4-0.5,0.4-0.5c0.4-0.6,0.9-0.9,1.5-0.9c0.6,0,1.2,0.3,1.7,0.9c0.5,0.6,0.7,1.3,0.7,2.1
					c0,0.8-0.2,1.4-0.7,2c0,0.1-0.8,0.9-2.3,2.5c-1.5,1.6-2.7,3-3.6,4.2c-0.8,1.2-1.3,2.2-1.3,2.9c0,0.8-0.1,1.2-0.4,1.2
					c-0.1,0-0.2,0.1-0.4,0.1c-0.7,0-1.5-0.4-2.3-1.2c-0.8-0.8-1.3-1.7-1.3-2.7c0-0.4,0.1-0.8,0.2-1.1L115.5,261z"/>
				<path class="st3" d="M146.4,269.5c1.6,0.9,3.3,1.3,4.9,1.3c2.4,0,5.5-1,9.1-3.1c0.6-0.4,1.1-0.5,1.7-0.5c0.8,0,1.2,0.4,1.2,1.1
					c0,0.8-0.6,1.5-1.8,2c-4,1.9-7.5,2.8-10.3,2.8c-1.9,0-3.7-0.4-5.6-1.1c-1.1,3.8-3,7.3-5.5,10.8c-2.5,3.4-4.8,5.1-7.1,5.1
					c-0.6,0-1.2-0.1-1.7-0.4c-2.4-1.3-3.6-3.7-3.6-7.4c0-3.4,0.9-6.9,2.7-10.5c1.8-3.7,3.6-5.9,5.4-6.6c-0.1-0.4-0.1-0.7-0.1-0.8
					c0-1.4,0.6-2.6,1.9-3.6c1.2-1,2.6-1.6,4.1-1.6c1.5,0,2.7,0.6,3.6,1.7c1,1.2,1.5,3,1.5,5.4C147,265.7,146.8,267.6,146.4,269.5z
					 M138.5,267.3c-1.6,1.5-3.3,3.7-5.2,6.5c-1.9,2.8-2.8,5.3-2.8,7.4c0,2,1,3.3,3,4c0.1,0,0.3,0.1,0.6,0.1c1.6,0,3.2-1.7,4.8-5.2
					c1.6-3.4,2.6-6.8,2.9-10.1C140.6,269.2,139.5,268.3,138.5,267.3z M142.1,265.6c0-1.2-0.1-2.4-0.4-3.4
					C140.9,262.8,141.1,263.9,142.1,265.6z"/>
			</g>
			<g>
				<path class="st2" d="M172.8,239.3h22.9c5.6,0,9.6,1.4,12.2,4c1.8,1.8,2.9,4.1,2.9,7.2v0.1c0,5.2-2.9,8.2-6.9,9.9
					c5.4,1.8,8.9,4.8,8.9,10.9v0.1c0,7.6-6.2,12.3-16.9,12.3h-23V239.3z M192.6,257.1c3.8,0,5.9-1.3,5.9-3.9v-0.1
					c0-2.4-1.9-3.8-5.6-3.8h-8v7.8H192.6z M194.4,274c3.8,0,5.9-1.5,5.9-4.1v-0.1c0-2.4-1.9-4-6-4h-9.4v8.2H194.4z"/>
				<path class="st2" d="M218.3,239.3h21.1c6.8,0,11.5,1.8,14.5,4.8c2.6,2.5,3.9,6,3.9,10.4v0.1c0,6.8-3.6,11.3-9.2,13.7l10.6,15.5
					h-14.3l-9-13.5h-5.4v13.5h-12.4V239.3z M238.8,260.7c4.2,0,6.6-2,6.6-5.3v-0.1c0-3.5-2.5-5.3-6.7-5.3h-8.1v10.7H238.8z"/>
				<path class="st0" d="M264.4,239.3h12.4v44.6h-12.4V239.3z"/>
				<path class="st2" d="M283.4,261.8v-0.1c0-13,10-23.2,23.5-23.2c9.1,0,15,3.8,18.9,9.3l-9.3,7.2c-2.5-3.2-5.5-5.2-9.7-5.2
					c-6.2,0-10.6,5.3-10.6,11.8v0.1c0,6.7,4.4,11.9,10.6,11.9c4.6,0,7.4-2.2,10.1-5.4l9.3,6.6c-4.2,5.8-9.9,10.1-19.7,10.1
					C293.7,284.8,283.4,275.1,283.4,261.8z"/>
				<path class="st2" d="M331.4,239.3h12.4v18.1l15.3-18.1h14.6l-16.9,19.2l17.4,25.4h-14.8l-11.2-16.6l-4.5,5v11.5h-12.4V239.3z"/>
			</g>
			<polygon class="st0" points="266,298.6 266,309.7 183.1,309.7 183.1,298.6 172.4,298.6 172.4,320.5 276.8,320.5 276.8,298.9 
				276.8,298.6 			"/>
			<polygon class="st0" points="172.4,203.4 172.4,225 172.4,225.2 183.1,225.2 183.1,214.1 266,214.1 266,225.2 276.8,225.2 
				276.8,203.4 			"/>
		</g>
	</g>
	<text transform="matrix(1 0 0 1 495.4512 33.2209)"><tspan x="0" y="0" class="st2 st4 st5">Queremos dejar huellas</tspan><tspan x="-241.7" y="40.7" class="st2 st4 st5">comprometidos con el medio ambiente</tspan></text>
	<rect x="413.6" y="227.7" class="st6" width="136.5" height="54.1"/>
	<text transform="matrix(1 0 0 1 424.3521 241.1594)"><tspan x="0" y="0" class="st7 st8">EDIFICIOS DE </tspan><tspan x="-1.2" y="21.3" class="st7 st8">BAJA ALTURA</tspan></text>
	<rect x="581.1" y="227.7" class="st6" width="139.2" height="55.2"/>
	<text transform="matrix(1 0 0 1 589.3526 241.1594)" class="st7 st8">BICICLETEROS</text>
	<rect x="747.3" y="227.7" class="st6" width="139.2" height="93.3"/>
	<text transform="matrix(1 0 0 1 759.5357 241.1594)"><tspan x="0" y="0" class="st9 st7 st8">ESPACIOS DE </tspan><tspan x="-6.7" y="21.3" class="st9 st7 st8">ÁREAS VERDES </tspan><tspan x="12" y="42.6" class="st9 st7 st8">COMUNES</tspan></text>
	<rect x="413.6" y="434.1" class="st6" width="136.5" height="54.1"/>
	<text transform="matrix(1 0 0 1 438.9786 447.5041)"><tspan x="0" y="0" class="st7 st8">ESPACIOS </tspan><tspan x="19.7" y="21.3" class="st7 st8">PARA </tspan></text>
	<rect x="582.4" y="434.1" class="st6" width="136.5" height="54.1"/>
	<text transform="matrix(1 0 0 1 589.5123 447.5041)"><tspan x="0" y="0" class="st7 st8">USO DE AGUA </tspan><tspan x="11.4" y="21.3" class="st7 st8">EFIFICENTE</tspan></text>
	<rect x="748.7" y="434.1" class="st6" width="136.5" height="91.5"/>
	<text transform="matrix(1 0 0 1 773.8423 447.5041)"><tspan x="0" y="0" class="st9 st7 st8">EDIFICIOS </tspan><tspan x="-2" y="21.3" class="st9 st7 st8">TÉRMICOS</tspan></text>
</g>
</svg>
