<?xml version="1.0" encoding="utf-8"?>
<!-- Generator: Adobe Illustrator 25.4.1, SVG Export Plug-In . SVG Version: 6.00 Build 0)  -->
<svg version="1.1" id="TEXTOS" xmlns="http://www.w3.org/2000/svg" xmlns:xlink="http://www.w3.org/1999/xlink" x="0px" y="0px"
	 viewBox="0 0 557.7 801.7" style="enable-background:new 0 0 557.7 801.7;" xml:space="preserve">
<style type="text/css">
	.st0{fill:#299C6E;}
	.st1{fill:#2B729E;}
	.st2{fill:#299C6E;stroke:#299C6E;stroke-width:1.7093;stroke-linecap:round;stroke-miterlimit:10;}
	.st3{font-family:'Avenir-Heavy';}
	.st4{font-size:40px;}
	.st5{fill:#FFFFFF;}
	.st6{fill:none;}
	.st7{font-family:'Avenir-Medium';}
	.st8{font-size:20.5503px;}
	.st9{fill:#333333;}
</style>
<g>
	<g>
		<path class="st0" d="M268.1,327.2c0.2,0,0.4,0.1,0.5,0.2c0.2,0.1,0.3,0.3,0.4,0.4v0c0.7,1.7,1.3,3.4,2,5.1c0.7,1.7,1.3,3.3,2,5
			c0.7,1.7,1.3,3.3,2,5c0.7,1.7,1.3,3.4,2,5.1c1.3-3.4,2.6-6.7,3.8-10.1c1.3-3.3,2.5-6.7,3.8-10.1c0.1-0.1,0.2-0.3,0.4-0.4
			c0.2-0.1,0.4-0.2,0.5-0.2h0.7c0.2,0,0.3,0,0.5,0.1c0.1,0.1,0.2,0.2,0.3,0.3c0.1,0.1,0.1,0.3,0.2,0.4c0,0.2,0,0.3-0.1,0.5
			l-8.8,23.2l0,0c-0.1,0.2-0.2,0.3-0.4,0.4c-0.2,0.1-0.4,0.2-0.5,0.2h-0.7c-0.2,0-0.4-0.1-0.5-0.2c-0.2-0.1-0.3-0.3-0.4-0.4
			l-9.1-23.2c-0.1-0.3-0.1-0.6,0.1-0.9c0.2-0.3,0.4-0.4,0.8-0.4H268.1z"/>
		<path class="st0" d="M291.4,332.1c0,0.3-0.1,0.5-0.3,0.7c-0.2,0.2-0.4,0.3-0.7,0.3h-0.6c-0.3,0-0.5-0.1-0.7-0.3
			c-0.2-0.2-0.3-0.4-0.3-0.7v-3.2c0-0.3,0.1-0.5,0.3-0.7c0.2-0.2,0.4-0.3,0.7-0.3h0.6c0.3,0,0.5,0.1,0.7,0.3
			c0.2,0.2,0.3,0.4,0.3,0.7V332.1z M291.4,351.4c0,0.3-0.1,0.5-0.3,0.7c-0.2,0.2-0.4,0.3-0.7,0.3h-0.6c-0.3,0-0.5-0.1-0.7-0.3
			c-0.2-0.2-0.3-0.4-0.3-0.7v-16.2c0-0.3,0.1-0.5,0.3-0.7c0.2-0.2,0.4-0.3,0.7-0.3h0.6c0.3,0,0.5,0.1,0.7,0.3
			c0.2,0.2,0.3,0.4,0.3,0.7V351.4z"/>
		<path class="st0" d="M294.7,334.2c0.2,0,0.3,0.1,0.5,0.2c0.2,0.1,0.3,0.2,0.4,0.4l5.4,13.4c0.8-2.2,1.7-4.5,2.5-6.7
			s1.7-4.5,2.5-6.7c0.1-0.1,0.2-0.3,0.4-0.4c0.2-0.1,0.4-0.2,0.5-0.2h0.7c0.2,0,0.3,0,0.5,0.1c0.1,0.1,0.2,0.2,0.3,0.3
			c0.1,0.1,0.1,0.3,0.2,0.4c0,0.2,0,0.3-0.1,0.5l-6.1,16.2v0c-0.1,0.2-0.2,0.3-0.4,0.4c-0.2,0.1-0.4,0.2-0.5,0.2h-0.8
			c-0.1,0-0.3-0.1-0.5-0.2c-0.2-0.1-0.3-0.2-0.4-0.4l-6.7-16.2c-0.1-0.3-0.1-0.6,0.1-0.9c0.2-0.3,0.4-0.4,0.8-0.4H294.7z"/>
		<path class="st0" d="M312.5,344.3c0.1,0.8,0.2,1.5,0.4,2.2c0.2,0.7,0.5,1.3,0.9,1.8c0.4,0.6,0.9,1.1,1.6,1.4
			c0.7,0.3,1.5,0.4,2.5,0.5c1.5,0,2.7-0.4,3.6-1.2c0.9-0.8,1.5-1.9,1.8-3.4c0-0.2,0.1-0.4,0.3-0.5c0.2-0.1,0.4-0.2,0.6-0.2h0.6
			c0.3,0,0.5,0.1,0.7,0.3c0.2,0.2,0.3,0.5,0.2,0.7c-0.3,2.1-1.1,3.8-2.5,5c-0.7,0.6-1.5,1-2.4,1.4c-0.9,0.3-1.8,0.5-2.9,0.5
			c-2.8,0-4.8-1-6.1-2.8c-1.3-1.7-1.9-3.9-1.9-6.6c0.1-3,0.9-5.3,2.5-6.9c1.6-1.7,3.4-2.5,5.5-2.5c1.4,0,2.7,0.3,3.7,0.8
			c1,0.5,1.9,1.3,2.6,2.2c0.6,0.9,1,1.8,1.3,2.8c0.3,1,0.5,2,0.5,3.2c0,0.1,0,0.2,0,0.3c0,0.1,0,0.2,0,0.3c0,0.2-0.1,0.4-0.3,0.6
			c-0.2,0.2-0.4,0.3-0.6,0.3H312.5z M323.5,341.8c-0.1-0.7-0.2-1.4-0.4-2c-0.2-0.6-0.5-1.2-0.9-1.7c-0.5-0.6-1-1.1-1.7-1.3
			c-0.7-0.3-1.5-0.4-2.4-0.4c-0.7,0-1.4,0.2-2.1,0.4c-0.6,0.3-1.2,0.7-1.7,1.2c-0.4,0.5-0.8,1-1.1,1.7c-0.3,0.6-0.5,1.3-0.6,2.2
			H323.5z"/>
		<path class="st1" d="M343.3,338.4c-0.2,0-0.4-0.1-0.5-0.2c-0.2-0.1-0.2-0.3-0.2-0.5c0-0.8-0.2-1.5-0.4-2.1
			c-0.3-0.6-0.6-1.1-1.1-1.4c-0.5-0.3-1.1-0.6-1.7-0.8c-0.7-0.2-1.4-0.3-2.2-0.2c-0.7,0-1.3,0.1-1.9,0.2c-0.6,0.1-1.2,0.4-1.7,0.6
			c-0.5,0.2-0.8,0.6-1.1,1.1c-0.2,0.2-0.3,0.5-0.3,0.8c-0.1,0.3-0.1,0.6-0.1,1c0,0.3,0,0.6,0.1,0.9c0.1,0.3,0.2,0.5,0.3,0.7
			c0.3,0.4,0.7,0.8,1.2,1h0c0.3,0.1,0.6,0.3,0.9,0.4c0.3,0.1,0.7,0.2,1.1,0.3c0.3,0.1,0.6,0.1,0.9,0.2c0.3,0.1,0.6,0.1,0.9,0.2h0
			c0.1,0,0.2,0.1,0.3,0.1c0.1,0,0.2,0.1,0.3,0.1v0c0.5,0.1,0.9,0.2,1.4,0.3s0.9,0.2,1.3,0.3c0.4,0.1,0.8,0.3,1.2,0.4
			c0.4,0.2,0.8,0.4,1.1,0.5c0.3,0.2,0.7,0.4,0.9,0.7c0.3,0.3,0.5,0.6,0.8,1c0.2,0.4,0.4,0.8,0.4,1.3c0.1,0.5,0.1,1,0.1,1.6
			c0,1-0.2,2-0.7,2.7c-0.4,0.8-1.1,1.4-1.9,1.9c-0.7,0.4-1.5,0.8-2.4,1c-0.8,0.2-1.7,0.3-2.7,0.3c-1.2,0-2.3-0.2-3.3-0.5
			c-1-0.3-1.9-0.8-2.6-1.3c-0.7-0.6-1.3-1.4-1.7-2.4c-0.4-1-0.7-2.1-0.7-3.4c0-0.2,0.1-0.4,0.2-0.6c0.2-0.2,0.3-0.2,0.6-0.2h0.5
			c0.2,0,0.4,0.1,0.6,0.2c0.2,0.2,0.2,0.3,0.2,0.6c0,2,0.6,3.4,1.6,4.2c0.6,0.4,1.2,0.8,2,1c0.8,0.2,1.6,0.3,2.6,0.3
			c0.7,0,1.4-0.1,2-0.3c0.7-0.2,1.3-0.4,1.8-0.7c0.5-0.3,0.9-0.7,1.1-1.2c0.3-0.5,0.4-1,0.4-1.7c0-0.8-0.2-1.4-0.5-1.9
			c-0.2-0.2-0.3-0.4-0.6-0.6c-0.2-0.2-0.5-0.3-0.8-0.5c-0.3-0.2-0.6-0.3-1-0.4c-0.3-0.1-0.7-0.2-1-0.3c-0.4-0.1-0.8-0.2-1.2-0.3
			c-0.4-0.1-0.8-0.2-1.2-0.2c-0.1,0-0.2,0-0.3-0.1c-0.1,0-0.2,0-0.3-0.1c-0.2,0-0.4-0.1-0.6-0.1c-0.2-0.1-0.4-0.1-0.6-0.2
			c-0.1,0-0.2-0.1-0.3-0.1c-0.1,0-0.2-0.1-0.3-0.1c-0.8-0.2-1.6-0.5-2.3-0.9c-0.4-0.2-0.7-0.5-1-0.7c-0.3-0.3-0.5-0.6-0.7-0.9l0,0
			c-0.5-0.7-0.7-1.6-0.7-2.7c0-0.6,0.1-1.1,0.2-1.6c0.1-0.5,0.3-0.9,0.5-1.2l0,0c0.4-0.7,1.1-1.3,1.8-1.8c0.7-0.4,1.5-0.7,2.4-0.9
			c0.4-0.1,0.8-0.1,1.2-0.2c0.4,0,0.8-0.1,1.2-0.1c2.1,0,3.9,0.5,5.2,1.5c0.7,0.5,1.3,1.2,1.7,2.1s0.6,1.9,0.7,3
			c0,0.2-0.1,0.4-0.2,0.6c-0.2,0.2-0.3,0.3-0.6,0.3H343.3z"/>
		<path class="st1" d="M359.7,337.3c0.2,0,0.4,0.1,0.5,0.2c0.1,0.2,0.2,0.3,0.2,0.6v9c0,0.2,0,0.4,0,0.5c0,0.2,0,0.3,0,0.5v1.5
			c0,0.2,0,0.3,0,0.4c0,0.1,0,0.1-0.1,0.1h0.1c0,0,0,0,0.1,0c0,0,0,0,0.1,0c0.2,0,0.4,0.1,0.5,0.2c0.1,0.1,0.2,0.3,0.2,0.6v0.6
			c0,0.2-0.1,0.4-0.2,0.6c-0.1,0.2-0.3,0.2-0.5,0.2c0,0-0.1,0-0.1,0c0,0-0.1,0-0.1,0h-0.2c-0.3,0-0.6,0-0.8-0.1
			c-0.2,0-0.4-0.1-0.5-0.2c-0.1-0.1-0.2-0.2-0.3-0.4c-0.1-0.2-0.1-0.4-0.1-0.6c-0.1,0-0.1,0.1-0.2,0.1c-0.1,0-0.1,0.1-0.2,0.1
			c-0.5,0.4-1,0.7-1.7,0.9c-0.6,0.2-1.3,0.3-2.1,0.3c-0.8,0-1.5-0.1-2.2-0.4c-0.7-0.3-1.3-0.6-1.8-1.1c-0.5-0.5-0.9-1.1-1.2-1.8
			c-0.3-0.7-0.4-1.5-0.4-2.4v-8.9c0-0.2,0.1-0.4,0.2-0.6c0.1-0.2,0.3-0.2,0.5-0.2h0.5c0.2,0,0.4,0.1,0.6,0.2
			c0.2,0.2,0.2,0.3,0.2,0.6v8.8c0,1.3,0.3,2.2,1,2.7c0.7,0.6,1.5,0.9,2.5,0.9c0.7,0,1.3-0.1,1.8-0.4c0.5-0.2,0.9-0.6,1.3-1.1
			c0.7-0.9,1.1-2.1,1.1-3.4v-7.6c0-0.2,0.1-0.4,0.2-0.6c0.1-0.2,0.3-0.2,0.5-0.2H359.7z"/>
		<path class="st1" d="M373.9,342.8c-0.2,0-0.4-0.1-0.5-0.2c-0.2-0.2-0.2-0.3-0.2-0.5c0-1.1-0.3-1.9-0.9-2.3
			c-0.6-0.5-1.5-0.7-2.7-0.7c-0.4,0-0.8,0-1.1,0.1c-0.3,0-0.6,0.1-0.8,0.2c-0.4,0.2-0.7,0.4-0.9,0.7c-0.2,0.3-0.3,0.5-0.4,0.7
			c-0.1,0.3-0.1,0.4-0.1,0.5c0,0.5,0.1,0.8,0.3,1.1c0.2,0.3,0.4,0.5,0.7,0.6c0.4,0.1,0.9,0.3,1.4,0.4c0.6,0.2,1.2,0.3,1.9,0.5
			c0.3,0.1,0.5,0.1,0.8,0.2c0.3,0.1,0.5,0.2,0.8,0.2c0.3,0.1,0.6,0.2,0.8,0.3c0.3,0.1,0.5,0.3,0.8,0.4v0c0.6,0.3,1,0.8,1.3,1.3
			c0.3,0.6,0.5,1.2,0.5,2c0,0.8-0.2,1.5-0.5,2.1c-0.3,0.6-0.8,1.1-1.4,1.4c-0.6,0.3-1.1,0.6-1.7,0.7c-0.6,0.2-1.3,0.2-2,0.2
			c-4.1,0-6.2-1.9-6.2-5.7c0-0.2,0.1-0.4,0.2-0.6c0.1-0.2,0.3-0.2,0.6-0.2h0.5c0.2,0,0.4,0.1,0.5,0.2c0.2,0.1,0.2,0.3,0.2,0.5
			c0,1.2,0.4,2.1,1,2.7c0.7,0.6,1.7,0.9,3.1,0.9c0.5,0,0.9-0.1,1.3-0.2c0.4-0.1,0.8-0.3,1.2-0.5c0.6-0.3,1-0.9,1-1.8
			c0-0.2,0-0.4-0.1-0.6c0-0.2-0.1-0.3-0.2-0.4c-0.2-0.3-0.4-0.5-0.8-0.6c-0.2-0.1-0.4-0.2-0.6-0.3c-0.2-0.1-0.5-0.2-0.7-0.3
			c-0.1,0-0.3-0.1-0.4-0.1c-0.1,0-0.2-0.1-0.4-0.1c-0.1,0-0.2,0-0.2,0s-0.1,0-0.2,0c-0.1,0-0.1,0-0.2,0c-0.1,0-0.1,0-0.2,0
			c-0.6-0.1-1.1-0.3-1.7-0.5c-0.6-0.2-1-0.3-1.5-0.5c-0.7-0.3-1.2-0.7-1.6-1.3s-0.5-1.3-0.5-2.2c0-1,0.4-2,1.3-2.8
			c0.5-0.4,1-0.8,1.7-1c0.3-0.1,0.7-0.2,1.1-0.3c0.4-0.1,0.8-0.1,1.3-0.1c1.8,0,3.2,0.4,4.1,1.3c0.9,0.9,1.5,2.1,1.5,3.8
			c0,0.2-0.1,0.4-0.2,0.5c-0.1,0.2-0.3,0.2-0.5,0.2H373.9z"/>
		<path class="st1" d="M381.9,339.4v9.5c0,0.7,0.1,1,0.2,1.1c0.1,0.1,0.2,0.1,0.4,0.2c0.1,0,0.3,0,0.4,0c0.5,0,0.8,0,0.9,0h0
			c0.3-0.1,0.5,0,0.7,0.1c0.2,0.1,0.3,0.4,0.3,0.6v0.5c0,0.2-0.1,0.4-0.2,0.6c-0.2,0.2-0.3,0.2-0.6,0.2c0,0-0.1,0-0.1,0
			s-0.1,0-0.2,0h0c-0.1,0-0.2,0-0.4,0c-0.2,0-0.4,0-0.6,0c-0.8,0-1.5-0.2-2-0.7c-0.2-0.2-0.3-0.4-0.5-0.6c-0.1-0.2-0.2-0.4-0.3-0.6
			c-0.2-0.4-0.2-0.9-0.2-1.4v-9.6h-1.7c-0.2,0-0.4-0.1-0.6-0.2c-0.2-0.1-0.2-0.3-0.2-0.6v-0.5c0-0.2,0.1-0.4,0.2-0.6
			c0.2-0.2,0.3-0.2,0.6-0.2h1.7v-3.2c0-0.1,0-0.2,0.1-0.4c0.1-0.1,0.2-0.2,0.3-0.3l0.5-0.3c0.1-0.1,0.3-0.1,0.4-0.1
			c0.1,0,0.3,0,0.4,0.1c0.1,0.1,0.2,0.2,0.3,0.3c0.1,0.1,0.1,0.3,0.1,0.4v3.4h2.3c0.2,0,0.4,0.1,0.5,0.2c0.1,0.2,0.2,0.3,0.2,0.6
			v0.5c0,0.2-0.1,0.4-0.2,0.6c-0.1,0.1-0.3,0.2-0.5,0.2H381.9z"/>
		<path class="st1" d="M388.6,345.7c0.1,0.7,0.2,1.3,0.3,1.8c0.2,0.6,0.4,1.1,0.7,1.5c0.3,0.5,0.8,0.9,1.4,1.1
			c0.6,0.2,1.3,0.4,2.1,0.4c1.2,0,2.2-0.3,3-1s1.2-1.6,1.5-2.8c0-0.2,0.1-0.3,0.3-0.4c0.1-0.1,0.3-0.2,0.5-0.2h0.5
			c0.2,0,0.4,0.1,0.6,0.3c0.2,0.2,0.2,0.4,0.2,0.6c-0.2,1.8-0.9,3.1-2.1,4.1c-0.6,0.5-1.3,0.9-2,1.1s-1.5,0.4-2.4,0.4
			c-2.3,0-4-0.8-5.1-2.4c-1.1-1.5-1.6-3.3-1.6-5.5c0-2.5,0.7-4.4,2.1-5.7c1.3-1.4,2.8-2.1,4.6-2.1c1.2,0,2.2,0.2,3.1,0.7
			c0.9,0.4,1.6,1,2.1,1.8c0.5,0.7,0.9,1.5,1.1,2.3c0.3,0.8,0.4,1.7,0.4,2.6c0,0.1,0,0.2,0,0.3c0,0.1,0,0.2,0,0.3
			c0,0.2-0.1,0.4-0.3,0.5c-0.2,0.1-0.3,0.2-0.5,0.2H388.6z M397.7,343.6c-0.1-0.6-0.2-1.2-0.4-1.7c-0.2-0.5-0.4-1-0.8-1.4
			c-0.4-0.5-0.9-0.9-1.4-1.1c-0.6-0.2-1.2-0.4-2-0.4c-0.6,0-1.2,0.1-1.7,0.4c-0.5,0.2-1,0.6-1.4,1c-0.4,0.4-0.7,0.9-0.9,1.4
			c-0.2,0.5-0.4,1.1-0.5,1.8H397.7z"/>
		<path class="st1" d="M403.1,338.1c0-0.2,0.1-0.4,0.2-0.6c0.1-0.2,0.3-0.2,0.5-0.2h0.5c0.2,0,0.4,0.1,0.5,0.2
			c0.2,0.2,0.2,0.3,0.2,0.6v0.5c0,0,0.1-0.1,0.1-0.1c0,0,0.1-0.1,0.1-0.1c0,0,0,0,0.1-0.1l0.1-0.1c1-0.8,2.2-1.2,3.7-1.2
			c1.6,0,3,0.5,4,1.5c0.5,0.5,0.9,1.1,1.2,1.8c0.3,0.7,0.4,1.5,0.4,2.4v8.9c0,0.2-0.1,0.4-0.2,0.6c-0.2,0.2-0.3,0.2-0.6,0.2h-0.5
			c-0.2,0-0.4-0.1-0.6-0.2c-0.2-0.2-0.2-0.3-0.2-0.6v-8.8c0-0.7-0.1-1.2-0.2-1.7c-0.2-0.5-0.4-0.8-0.7-1.1c-0.7-0.6-1.5-0.8-2.5-0.8
			c-0.7,0-1.2,0.2-1.8,0.4c-0.5,0.2-0.9,0.6-1.3,1c-0.3,0.5-0.6,1-0.8,1.6c-0.2,0.6-0.3,1.2-0.3,1.9v7.6c0,0.2-0.1,0.4-0.2,0.6
			c-0.2,0.2-0.3,0.2-0.5,0.2h-0.5c-0.2,0-0.4-0.1-0.5-0.2c-0.1-0.2-0.2-0.3-0.2-0.6V338.1z"/>
		<path class="st1" d="M421.6,339.4v9.5c0,0.7,0.1,1,0.2,1.1c0.1,0.1,0.2,0.1,0.4,0.2c0.1,0,0.3,0,0.4,0c0.5,0,0.8,0,0.9,0h0
			c0.3-0.1,0.5,0,0.7,0.1s0.3,0.4,0.3,0.6v0.5c0,0.2-0.1,0.4-0.2,0.6c-0.2,0.2-0.3,0.2-0.6,0.2c0,0-0.1,0-0.1,0s-0.1,0-0.2,0h0
			c-0.1,0-0.2,0-0.4,0c-0.2,0-0.4,0-0.6,0c-0.8,0-1.5-0.2-2-0.7c-0.2-0.2-0.3-0.4-0.5-0.6c-0.1-0.2-0.2-0.4-0.3-0.6
			c-0.2-0.4-0.2-0.9-0.2-1.4v-9.6h-1.7c-0.2,0-0.4-0.1-0.6-0.2c-0.2-0.1-0.2-0.3-0.2-0.6v-0.5c0-0.2,0.1-0.4,0.2-0.6
			c0.2-0.2,0.3-0.2,0.6-0.2h1.7v-3.2c0-0.1,0-0.2,0.1-0.4c0.1-0.1,0.2-0.2,0.3-0.3l0.5-0.3c0.1-0.1,0.3-0.1,0.4-0.1
			c0.1,0,0.3,0,0.4,0.1c0.1,0.1,0.2,0.2,0.3,0.3c0.1,0.1,0.1,0.3,0.1,0.4v3.4h2.3c0.2,0,0.4,0.1,0.5,0.2c0.1,0.2,0.2,0.3,0.2,0.6
			v0.5c0,0.2-0.1,0.4-0.2,0.6c-0.1,0.1-0.3,0.2-0.5,0.2H421.6z"/>
		<path class="st1" d="M427.8,343c-0.2,0-0.4-0.1-0.6-0.2c-0.2-0.2-0.2-0.3-0.2-0.6c0-0.8,0.2-1.5,0.5-2.1c0.3-0.6,0.7-1.2,1.2-1.7
			c1-1,2.4-1.5,4.3-1.5c0.7,0,1.3,0.1,1.9,0.2c0.6,0.2,1.1,0.4,1.6,0.7c1,0.7,1.6,1.9,1.7,3.7v8.5c0,0,0,0,0,0c0.1,0,0.2,0,0.2,0
			c0.1,0,0.2,0,0.3,0c0.3,0,0.5,0.2,0.6,0.4c0.1,0.2,0.1,0.5,0,0.7c-0.2,0.3-0.4,0.6-0.7,0.8s-0.6,0.3-1,0.3c-0.4,0-0.7-0.1-1-0.3
			c-0.3-0.2-0.5-0.6-0.6-1.1c-0.1,0.1-0.2,0.2-0.3,0.3c-0.1,0.1-0.2,0.2-0.3,0.3c-1.1,0.8-2.4,1.2-4,1.2c-0.8,0-1.4-0.1-2.1-0.3
			c-0.6-0.2-1.2-0.5-1.6-0.8c-0.5-0.4-0.9-0.9-1.1-1.4c-0.3-0.6-0.4-1.2-0.4-1.9c0-0.5,0-0.9,0.1-1.3c0.1-0.4,0.2-0.8,0.4-1.1
			c0.2-0.3,0.4-0.6,0.6-0.8c0.2-0.2,0.5-0.5,0.8-0.6c0.3-0.2,0.5-0.3,0.8-0.4c0.3-0.1,0.6-0.2,0.9-0.3c0.3-0.1,0.5-0.1,0.9-0.1
			c0.3,0,0.6-0.1,0.9-0.1c0.1,0,0.2,0,0.4,0c0.1,0,0.3,0,0.4,0c0,0,0.1,0,0.1,0c0,0,0.1,0,0.1,0h0l0.5,0c0.2,0,0.4,0,0.5,0
			c0.2,0,0.3,0,0.5,0c0.3,0,0.6-0.1,0.8-0.1c0.2,0,0.5-0.1,0.6-0.1c0.3-0.1,0.4-0.2,0.5-0.3c0.1-0.1,0.1-0.4,0.1-0.7
			c0-0.2,0-0.3,0-0.5c0-0.2,0-0.4,0-0.6c0,0,0,0,0,0c-0.1-0.3-0.2-0.6-0.4-0.9c-0.1-0.1-0.2-0.2-0.3-0.3c-0.1-0.1-0.3-0.2-0.4-0.3
			c-0.5-0.2-1.1-0.3-1.9-0.3c-2.3,0-3.6,1.1-3.8,3.2c0,0.2-0.1,0.4-0.3,0.5c-0.2,0.1-0.3,0.2-0.5,0.2H427.8z M436,345
			c-0.2,0.1-0.4,0.1-0.6,0.2c-0.2,0-0.4,0.1-0.6,0.1c-0.5,0-1,0.1-1.5,0.1c-0.5,0-1.1,0.1-1.7,0.1c-0.2,0-0.4,0-0.7,0.1
			c-0.2,0-0.5,0.1-0.7,0.1c-0.2,0-0.4,0.1-0.6,0.2s-0.4,0.2-0.5,0.3c-0.2,0.1-0.5,0.4-0.6,0.7c-0.1,0.2-0.2,0.4-0.2,0.6
			c0,0.2-0.1,0.5-0.1,0.8c0,0.3,0,0.6,0.1,0.8c0.1,0.3,0.3,0.5,0.5,0.8c0.4,0.5,1.2,0.8,2.5,0.8c0.7,0,1.4-0.1,2-0.4
			c0.6-0.2,1.1-0.6,1.5-1h0c0.8-0.9,1.2-1.9,1.2-3.1V345z M436.3,344.9c0,0-0.1,0-0.1,0c-0.1,0-0.1,0-0.1-0.1v-1.2
			c0-0.1,0-0.1,0.1-0.1c0.1,0,0.1,0,0.2,0l0.5,0.5c0.1,0,0.1-0.1,0.2-0.1c0.1,0,0.1-0.1,0.2-0.1c0.1,0,0.1,0,0.2,0
			c0.1,0.1,0.1,0.1,0,0.2C437.2,344.4,436.8,344.7,436.3,344.9z"/>
		<path class="st1" d="M444.4,338.8c0.5-0.6,1.2-1,2-1.3s1.7-0.5,2.7-0.5c1.1,0,2,0.2,2.8,0.6c0.8,0.4,1.5,1,2,1.8
			c0.6,0.7,1,1.6,1.2,2.5s0.4,1.9,0.4,3c0,2.2-0.6,4-1.7,5.5c-0.6,0.7-1.3,1.3-2.1,1.7c-0.8,0.4-1.7,0.6-2.7,0.6
			c-0.8,0-1.5-0.1-2.1-0.4c-0.7-0.2-1.3-0.6-1.8-1c-0.5-0.4-1-0.9-1.3-1.4c-0.4-0.6-0.7-1.2-0.9-1.8c-0.1-0.3-0.2-0.8-0.3-1.2
			c-0.1-0.5-0.1-1-0.2-1.6c0-0.6-0.1-1.1-0.1-1.7c0-0.6,0-1.1,0-1.6c0-0.5,0-0.9,0-1.3c0-0.4,0-0.7,0-1v-6.8c0-0.2,0.1-0.4,0.2-0.6
			s0.3-0.2,0.6-0.2h0.5c0.2,0,0.4,0.1,0.6,0.2c0.2,0.2,0.2,0.3,0.2,0.6V338.8z M444.4,344.9c0,1.6,0.4,2.9,1.3,4
			c0.8,1.1,1.9,1.6,3.4,1.6c1.5,0,2.5-0.6,3.3-1.6c0.4-0.6,0.7-1.2,0.9-1.9c0.2-0.7,0.3-1.4,0.3-2.2c0-0.7-0.1-1.4-0.3-2.1
			c-0.2-0.7-0.5-1.3-0.8-1.9h0c-0.3-0.5-0.8-0.9-1.3-1.2c-0.6-0.3-1.2-0.4-2-0.5c-0.7,0-1.3,0.2-1.9,0.5c-0.6,0.3-1.1,0.6-1.5,1.1
			c-0.4,0.5-0.7,1.1-1,1.8C444.5,343.2,444.4,344,444.4,344.9z"/>
		<path class="st1" d="M458.8,332.9c0-0.2,0.1-0.4,0.2-0.6c0.2-0.2,0.3-0.2,0.6-0.2h0.5c0.2,0,0.4,0.1,0.6,0.2
			c0.1,0.2,0.2,0.3,0.2,0.6v18.7c0,0.2-0.1,0.4-0.2,0.6c-0.1,0.2-0.3,0.2-0.6,0.2h-0.5c-0.2,0-0.4-0.1-0.6-0.2
			c-0.2-0.2-0.2-0.3-0.2-0.6V332.9z"/>
		<path class="st1" d="M465.4,345.7c0.1,0.7,0.2,1.3,0.3,1.8c0.2,0.6,0.4,1.1,0.7,1.5c0.3,0.5,0.8,0.9,1.4,1.1
			c0.6,0.2,1.3,0.4,2.1,0.4c1.2,0,2.2-0.3,3-1s1.2-1.6,1.5-2.8c0-0.2,0.1-0.3,0.3-0.4c0.1-0.1,0.3-0.2,0.5-0.2h0.5
			c0.2,0,0.4,0.1,0.6,0.3c0.2,0.2,0.2,0.4,0.2,0.6c-0.2,1.8-0.9,3.1-2.1,4.1c-0.6,0.5-1.3,0.9-2,1.1s-1.5,0.4-2.4,0.4
			c-2.3,0-4-0.8-5.1-2.4c-1.1-1.5-1.6-3.3-1.6-5.5c0-2.5,0.7-4.4,2.1-5.7c1.3-1.4,2.8-2.1,4.6-2.1c1.2,0,2.2,0.2,3.1,0.7
			c0.9,0.4,1.6,1,2.1,1.8c0.5,0.7,0.9,1.5,1.1,2.3c0.3,0.8,0.4,1.7,0.4,2.6c0,0.1,0,0.2,0,0.3c0,0.1,0,0.2,0,0.3
			c0,0.2-0.1,0.4-0.3,0.5c-0.2,0.1-0.3,0.2-0.5,0.2H465.4z M474.5,343.6c-0.1-0.6-0.2-1.2-0.4-1.7c-0.2-0.5-0.4-1-0.8-1.4
			c-0.4-0.5-0.9-0.9-1.4-1.1c-0.6-0.2-1.2-0.4-2-0.4c-0.6,0-1.2,0.1-1.7,0.4c-0.5,0.2-1,0.6-1.4,1c-0.4,0.4-0.7,0.9-0.9,1.4
			c-0.2,0.5-0.4,1.1-0.5,1.8H474.5z"/>
	</g>
	<g>
		<g>
			<path class="st2" d="M158.4,198.9c0.5-0.9,1.2-1.4,2.2-1.4c0.8,0,1.5,0.3,2,0.9c0.6,0.6,0.8,1.3,0.7,2.1
				c11.3-1.6,19.8-2.4,25.5-2.4c0.9,0,1.8,0,2.8,0.1c0.7,0.1,1.3,0.4,1.7,0.9c0.4,0.5,0.6,1.2,0.6,1.9c0,0.7-0.2,1.3-0.5,1.8
				c-0.4,0.5-0.8,0.8-1.4,0.8c-0.3,0-0.6-0.1-0.9-0.2c-1.2-0.5-3.5-0.7-7.1-0.7c-5.8,0-13.4,0.6-22.8,1.8c-0.7,1.2-2.1,3.6-4.1,7.1
				c-2.1,3.5-3.6,6-4.5,7.7c-0.9,1.7-2.2,3.8-3.7,6.5c-1.5,2.7-2.8,5.1-3.9,7.3c-1.1,2.2-2.1,4.2-3,6.2c8.1-1,15.5-3.1,22.5-6.3
				c0.1,0,0.3-0.1,0.5-0.1c0.7,0,1.4,0.3,1.8,0.8c0.5,0.6,0.7,1.2,0.7,1.9c0,1.4-0.7,2.3-2.1,2.5l-24.9,4.6
				c-5.5,12.6-8.2,22.7-8.2,30.2c0,3.8,0.7,6.7,2.2,8.8c1.5,2.1,3.6,3.1,6.5,3.1c4.9,0,11.8-3.1,20.5-9.4
				c8.7-6.3,19.1-15.9,31.3-29.1c0.6-0.6,1.2-0.9,2-0.9c0.6,0,1,0.2,1.4,0.6c0.4,0.4,0.6,0.9,0.6,1.4c0,0.6-0.3,1.2-0.8,1.8
				c-9.9,10.7-19,19.3-27.1,25.5c-8.2,6.3-15.2,10.3-21,12c-2.3,0.6-4.3,0.9-6,0.9c-3.2,0-5.8-0.9-7.9-2.7
				c-3.4-2.8-5.1-7.5-5.1-14.2c0-6.6,2.5-15.8,7.5-27.6l-7.9,1.4h-0.5c-0.8,0-1.4-0.3-1.8-0.8c-0.5-0.5-0.7-1.2-0.7-1.9
				c0-1.5,0.7-2.3,2.1-2.5h2.4c3,0,5.8-0.1,8.2-0.2c4.3-9.5,10-20.8,17.1-33.9c-10,1.5-19.2,3.3-27.6,5.5
				c-8.4,2.2-14.5,4.5-18.1,6.9c-2.3,1.5-3.4,3-3.4,4.4c0,0.6,0.2,1.3,0.7,2c0.5,0.5,0.8,1.1,0.8,1.8c0,0.7-0.3,1.3-0.8,1.9
				c-0.6,0.6-1.2,0.8-1.9,0.8c-0.6,0-1.2-0.3-1.8-0.9c-1.5-1.6-2.3-3.3-2.3-4.9c0-3,2.1-5.7,6.2-8c4.3-2.5,11.2-5,20.4-7.3
				c9.3-2.3,19.3-4.4,30-6.1c0.2-0.3,0.4-0.7,0.7-1.3C158,199.6,158.3,199.1,158.4,198.9z"/>
			<path class="st2" d="M207.2,238.9c-0.3-0.3-0.7-0.5-1.2-0.5c-1.3,0-2.9,0.9-4.9,2.8c-2,1.9-3.7,4.1-5.3,6.8c-1.5,2.7-2.3,5-2.3,7
				c0,2.4,1.2,3.9,3.7,4.4c0.9,0.2,1.9,0.3,3,0.3c7.5,0,15.3-4.6,23.3-13.9c0.6-0.5,1.2-0.7,1.7-0.7c0.4,0,0.8,0.1,1.1,0.4
				c0.3,0.3,0.4,0.7,0.4,1.1c0,0.9-0.5,1.6-1.4,2.3c-11.1,9.7-20.1,14.5-27,14.5c-2.9,0-5-0.9-6.3-2.7c-0.9-1.1-1.3-2.7-1.3-4.6
				c0-3.6,1.3-7.6,3.9-12.2c2.6-4.6,5-7.6,7.4-9c1.7-1,3.3-1.5,4.7-1.5c1.3,0,2.5,0.5,3.6,1.4c0.4-0.4,0.7-0.9,1.1-1.4
				c0.4-0.5,0.7-0.8,0.9-1.1c0.3-0.3,0.4-0.5,0.4-0.5c0.4-0.6,0.9-0.9,1.5-0.9c0.6,0,1.2,0.3,1.7,0.9c0.5,0.6,0.7,1.3,0.7,2.1
				c0,0.8-0.2,1.4-0.7,2c0,0.1-0.8,0.9-2.3,2.5c-1.5,1.6-2.7,3-3.6,4.2c-0.8,1.2-1.3,2.2-1.3,2.9c0,0.8-0.1,1.2-0.4,1.2
				c-0.1,0-0.2,0.1-0.4,0.1c-0.7,0-1.5-0.4-2.3-1.2c-0.8-0.8-1.3-1.7-1.3-2.7c0-0.4,0.1-0.8,0.2-1.1L207.2,238.9z"/>
			<path class="st2" d="M238.1,247.4c1.6,0.9,3.3,1.3,4.9,1.3c2.4,0,5.5-1,9.1-3.1c0.6-0.4,1.1-0.5,1.7-0.5c0.8,0,1.2,0.4,1.2,1.1
				c0,0.8-0.6,1.5-1.8,2c-4,1.9-7.5,2.8-10.3,2.8c-1.9,0-3.7-0.4-5.6-1.1c-1.1,3.8-3,7.3-5.5,10.8c-2.5,3.4-4.8,5.1-7.1,5.1
				c-0.6,0-1.2-0.1-1.7-0.4c-2.4-1.3-3.6-3.7-3.6-7.4c0-3.4,0.9-6.9,2.7-10.5c1.8-3.7,3.6-5.9,5.4-6.6c-0.1-0.4-0.1-0.7-0.1-0.8
				c0-1.4,0.6-2.6,1.9-3.6c1.2-1,2.6-1.6,4.1-1.6c1.5,0,2.7,0.6,3.6,1.7c1,1.2,1.5,3,1.5,5.4C238.8,243.6,238.5,245.4,238.1,247.4z
				 M230.3,245.1c-1.6,1.5-3.3,3.7-5.2,6.5c-1.9,2.8-2.8,5.3-2.8,7.4c0,2,1,3.3,3,4c0.1,0,0.3,0.1,0.6,0.1c1.6,0,3.2-1.7,4.8-5.2
				c1.6-3.4,2.6-6.8,2.9-10.1C232.3,247.1,231.2,246.2,230.3,245.1z M233.8,243.5c0-1.2-0.1-2.4-0.4-3.4
				C232.7,240.7,232.8,241.8,233.8,243.5z"/>
		</g>
		<g>
			<path class="st1" d="M264.5,217.2h22.9c5.6,0,9.6,1.4,12.2,4c1.8,1.8,2.9,4.1,2.9,7.2v0.1c0,5.2-2.9,8.2-6.9,9.9
				c5.4,1.8,8.9,4.8,8.9,10.9v0.1c0,7.6-6.2,12.3-16.9,12.3h-23V217.2z M284.4,235c3.8,0,5.9-1.3,5.9-3.9V231c0-2.4-1.9-3.8-5.6-3.8
				h-8v7.8H284.4z M286.1,251.8c3.8,0,5.9-1.5,5.9-4.1v-0.1c0-2.4-1.9-4-6-4h-9.4v8.2H286.1z"/>
			<path class="st1" d="M310.1,217.2h21.1c6.8,0,11.5,1.8,14.5,4.8c2.6,2.5,3.9,6,3.9,10.4v0.1c0,6.8-3.6,11.3-9.2,13.7l10.6,15.5
				h-14.3l-9-13.5h-5.4v13.5h-12.4V217.2z M330.6,238.6c4.2,0,6.6-2,6.6-5.3v-0.1c0-3.5-2.5-5.3-6.7-5.3h-8.1v10.7H330.6z"/>
			<path class="st0" d="M356.1,217.2h12.4v44.6h-12.4V217.2z"/>
			<path class="st1" d="M375.2,239.6v-0.1c0-13,10-23.2,23.5-23.2c9.1,0,15,3.8,18.9,9.3l-9.3,7.2c-2.5-3.2-5.5-5.2-9.7-5.2
				c-6.2,0-10.6,5.3-10.6,11.8v0.1c0,6.7,4.4,11.9,10.6,11.9c4.6,0,7.4-2.2,10.1-5.4l9.3,6.6c-4.2,5.8-9.9,10.1-19.7,10.1
				C385.4,262.7,375.2,252.9,375.2,239.6z"/>
			<path class="st1" d="M423.2,217.2h12.4v18.1l15.3-18.1h14.6l-16.9,19.2l17.4,25.4h-14.8L440,245.2l-4.5,5v11.5h-12.4V217.2z"/>
		</g>
		<polygon class="st0" points="357.8,276.5 357.8,287.6 274.9,287.6 274.9,276.5 264.1,276.5 264.1,298.3 368.5,298.3 368.5,276.7 
			368.5,276.5 		"/>
		<polygon class="st0" points="264.1,181.2 264.1,202.8 264.1,203.1 274.9,203.1 274.9,192 357.8,192 357.8,203.1 368.5,203.1 
			368.5,181.2 		"/>
	</g>
</g>
<text transform="matrix(1 0 0 1 60.7463 48.0844)"><tspan x="0" y="0" class="st1 st3 st4">Queremos dejar huellas,</tspan><tspan x="18.6" y="48" class="st1 st3 st4">comprometidos con el</tspan><tspan x="74.8" y="96" class="st1 st3 st4">medio ambiente</tspan></text>
<g>
	<g>
		<circle class="st0" cx="288.2" cy="453.9" r="45.4"/>
		<g>
			<g>
				<path class="st5" d="M277.7,452c0.9-1.1,1.7-2,2.5-3.1c0.1-0.1,0.1-0.2,0.1-0.4c-0.3-1-0.5-1.9-0.8-2.9c-1.8,0.9-3.6,1-5.3,0
					c-1.9-1.1-2.5-3.4-1.7-5.5c0.8-2.1,2.8-3.1,5-2.8c1.5,0.3,3.1,0.4,4.7,0.5c1.4,0.1,2.6,0.6,3.6,1.6c0.8,0.8,1.1,1.9,0.7,3
					c-0.4,1.1-1.3,1.7-2.5,1.8c-0.8,0-1.6,0-2.5,0c1.6,5.8,3.2,11.5,4.8,17.3c4.1-4.5,8.1-9,12.2-13.5c0,0,0-0.1,0-0.1
					c-0.5,0.1-1.1,0.1-1.6,0.2c-1.7,0.2-3.3,0.5-5,0.7c-0.5,0.1-1,0-1.3-0.5c-0.4-0.7,0-1.6,0.9-1.7c2.3-0.4,4.7-0.7,7-1
					c0.5-0.1,1.1-0.2,1.7-0.3c-0.2-0.8-0.5-1.5-0.7-2.3c-0.4-1.2-0.1-1.7,1.1-2c0.9-0.3,1.5-0.9,1.7-1.8c0.2-1-0.1-1.7-0.9-2.3
					c0,0,0,0-0.1,0c-1.1-0.9-2.2-1.3-3.6-0.9c-0.7,0.2-1.5,0.3-2.2,0.4c-0.9,0.1-1.4-0.2-1.5-0.9c-0.1-0.7,0.3-1.2,1.2-1.3
					c1.4-0.2,2.8-0.5,4.2-0.7c0.4-0.1,0.9,0.1,1.3,0.3c0.7,0.3,1.3,0.8,1.9,1.2c3,1.9,2.9,6-0.1,7.9c-0.1,0.1-0.3,0.2-0.5,0.3
					c1.1,3.5,2.2,7.1,3.2,10.7c1.2,0,2.4-0.1,3.6,0c4.5,0.6,7.9,4.4,8.5,9.1c0.5,4.3-2.2,8.8-6.3,10.4c-4,1.6-8.4,0.7-11.3-2.3
					c-3-3.2-3.8-7.5-1.9-11.5c1-2.1,2.6-3.7,4.7-4.8c0.5-0.2,0.5-0.5,0.4-0.9c-0.5-1.5-1-3.1-1.4-4.6c0-0.2-0.1-0.3-0.2-0.5
					c-1.1,1.2-2.1,2.3-3.1,3.4c-3.7,4.1-7.4,8.2-11.1,12.4c-0.4,0.5-0.9,0.7-1.5,0.6c-1.7,0-3.3,0-5,0c-0.2,0-0.5,0-0.7,0
					c-0.2,0.7-0.3,1.3-0.4,1.9c-1.5,4.7-6,7.7-10.8,7.2c-4.9-0.5-8.7-4.3-9.2-9.3c-0.4-3.9,1.7-8,5.3-9.9c0.5-0.3,0.6-0.5,0.4-1
					c-0.3-0.7-0.5-1.4-0.7-2.1c-0.1-0.4-0.3-0.5-0.7-0.5c-1,0-2,0-3,0c-0.8,0-1.4-0.5-1.3-1.2c0-0.7,0.5-1.1,1.3-1.1
					c4.5,0,8.9,0,13.4,0c0.4,0,0.8,0.2,1.1,0.5C275.9,450.3,276.8,451.1,277.7,452z M305.8,456.1c0.1,0.3,0.1,0.5,0.2,0.7
					c0.7,2.2,1.3,4.4,2,6.6c0.2,0.8,0,1.4-0.7,1.6c-0.7,0.2-1.2-0.2-1.5-1c-0.7-2.2-1.3-4.4-2-6.6c-0.1-0.2-0.2-0.5-0.3-0.7
					c-3.3,1.4-5.6,5.6-4.1,9.8c1.4,4,5.8,6.2,10,4.9c4-1.2,6.3-5.6,5.2-9.7C313.6,457.9,309.5,455.2,305.8,456.1z M277.3,465.1
					c-0.3,0-0.5,0-0.8,0c-2.2,0-4.5,0-6.7,0c-0.9,0-1.2-0.2-1.5-1.1c-0.6-1.8-1.2-3.6-1.8-5.5c-0.2-0.5-0.4-1.1-0.6-1.6
					c-2.8,0.9-4.8,4.9-4.3,8.3c0.6,3.9,4.1,6.8,7.9,6.7C273.4,471.8,276.8,468.9,277.3,465.1z M279.6,462.7c1.6,0,3,0,4.6,0
					c-1-3.7-2.1-7.4-3.1-11.3c-1.5,1.8-2.9,3.6-4.4,5.3C278.4,458.5,279.3,460.4,279.6,462.7z M282.4,442L282.4,442c0.5,0,1,0,1.4,0
					c0.2,0,0.5-0.1,0.5-0.3c0-0.2,0-0.5-0.2-0.6c-0.5-0.3-1.1-0.7-1.7-0.8c-1.8-0.3-3.7-0.4-5.5-0.6c-1.1-0.1-2,0.4-2.4,1.5
					c-0.4,1.1,0,2.1,0.8,2.6c0.9,0.5,2.3,0.3,2.9-0.4c0.8-1,1.8-1.4,3-1.4C281.8,442,282.1,442,282.4,442z M276.3,453.8
					c-0.8-0.7-1.5-1.4-2.2-2c-0.3-0.2-0.6-0.4-1-0.4c-2,0-4,0-6,0c-0.2,0-0.4,0-0.7,0c0.2,0.5,0.3,0.9,0.4,1.3
					c0.4,1.1,0.4,1.1,1.5,1c0.1,0,0.2,0,0.3,0c2.1-0.1,4.1,0.3,5.9,1.3c0.2,0.1,0.5,0.4,0.7,0C275.6,454.6,275.9,454.2,276.3,453.8z
					 M273.5,457.1c-1.8-1.1-3.6-1.4-5.5-1c0.6,1.9,1.2,3.6,1.9,5.5C271.1,460,272.3,458.6,273.5,457.1z M271.9,462.7
					c1.9,0,3.6,0,5.4,0c-0.3-1.6-0.9-3-2-4.1C274.1,460,273,461.3,271.9,462.7z"/>
				<path class="st5" d="M286.6,449.7c-0.6,0-1.1-0.5-1.1-1.2c0-0.6,0.5-1.1,1.1-1.1c0.6,0,1.1,0.5,1.1,1.1
					C287.7,449.2,287.2,449.7,286.6,449.7z"/>
			</g>
		</g>
	</g>
	<g>
		<circle class="st0" cx="478" cy="453.9" r="45.4"/>
		<g>
			<path class="st5" d="M456.2,475.4c0-0.8,0-1.6,0-2.3c0-0.1,0-0.2,0-0.3c-0.9,0-1.8,0-2.7,0c-0.9,0-1.3-0.4-1.3-1.3
				c0-1.2,0-2.3,0-3.5c0-0.8,0.4-1.2,1.2-1.2c0.9,0,1.8,0,2.8,0c0-1.2,0-2.4,0-3.6c-0.9,0-1.8,0-2.6,0c-1,0-1.3-0.3-1.3-1.3
				c0-1.9,0-3.8,0-5.8c0-0.9,0.4-1.3,1.3-1.3c1.2,0,2.4,0,3.6,0c0.6,0,1,0.3,1.1,0.9c0.1,0.4-0.2,0.9-0.6,1
				c-0.2,0.1-0.4,0.1-0.6,0.1c-0.9,0-1.8,0-2.7,0c0,1.5,0,2.9,0,4.3c7.6,0,15.1,0,22.7,0c0-1.4,0-2.9,0-4.3c-0.2,0-0.4,0-0.6,0
				c-3.6,0-7.2,0-10.9,0c-0.6,0-1-0.2-1.1-0.7c-0.1-0.5,0-0.8,0.4-1.1c0.2-0.1,0.5-0.2,0.8-0.2c1.4,0,2.8,0,4.2,0c0.2,0,0.3,0,0.5,0
				c-0.2-0.8-0.5-1.6-0.7-2.4c-0.8-4.2,1.7-8.5,5.8-9.8c0.4-0.1,0.5-0.3,0.5-0.7c-0.3-5.4,3.4-10.2,8.8-11.3
				c4.4-0.9,8.1,0.5,10.9,3.8c2,2.3,2.7,5.1,2.4,8.1c0,0.2-0.1,0.3-0.1,0.5c0,0.2,0,0.3,0,0.5c2.3,0.5,4.1,1.7,5.1,3.8
				c0.8,1.7,1,3.4,0.4,5.2c-1.1,3.4-5.2,6-9.6,4.1c-0.6,1.1-1.3,2-2.4,2.8c-1,0.7-2.2,1.2-3.4,1.4c0,3.3,0,6.5,0,9.7
				c4.6-3,9.5,0.7,9.3,4.9c0.8,0.2,1.1,0.6,1.1,1.2c-0.1,0.6-0.5,0.9-1.4,0.9c-14.4,0-28.8,0-43.2,0c0,0-0.1,0-0.1,0
				c-0.8,0-1.3-0.4-1.3-1c0-0.6,0.5-1,1.3-1C454.4,475.4,455.3,475.4,456.2,475.4z M487.9,458.7c0.2,0,0.3,0,0.5-0.1
				c1.9-0.6,3.1-1.7,3.8-3.5c0.4-1,0.9-1.2,1.9-0.6c1.8,1.1,3.5,1.1,5.3,0.1c2.8-1.6,3.1-5.8,0.6-7.8c-1-0.8-2-1.2-3.3-1.2
				c-0.9,0-1.3-0.6-1.1-1.5c0-0.1,0.1-0.2,0.1-0.3c0.5-1.7,0.4-3.4-0.1-5c-2-6-9.1-8.2-14.2-4.4c-2.7,2.1-3.8,4.9-3.5,8.3
				c0.1,1.2,0,1.5-1.2,1.8c-4.6,1.1-6.7,6.2-4.3,10.2c0.2,0.3,0.3,0.4,0.7,0.4c1.5,0,3.1,0,4.6,0c0.8,0,1.2,0.4,1.2,1.2
				c0,0.5,0,1,0,1.7c0.7-0.2,1.4-0.3,2-0.6c1-0.6,1.8-0.4,2.6,0.4c0.6,0.6,1.5,1,2.4,1.1c0-0.9,0-1.7,0-2.5c0-0.2-0.1-0.5-0.3-0.7
				c-1.6-1.6-3.2-3.2-4.8-4.8c-0.5-0.5-0.6-1.1-0.1-1.6c0.4-0.4,1-0.4,1.6,0.2c1,1,2,2,3.1,3c0.2,0.2,0.4,0.4,0.6,0.6
				c0,0,0.1,0,0.1-0.1c0-0.2,0-0.3,0-0.5c0-1.6,0-3.3,0-4.9c0-0.6,0-1.3,0-1.9c0-0.7,0.4-1.1,1-1.1c0.6,0,1,0.4,1,1.1
				c0,0.9,0,1.9,0,2.8c0,0.3,0,0.6,0,1c0.2-0.2,0.3-0.3,0.4-0.4c1-1,2-1.9,3-2.9c0.3-0.3,0.6-0.6,1.1-0.4c0.3,0.1,0.6,0.4,0.8,0.6
				c0.2,0.4,0,0.8-0.3,1.1c-1.2,1.1-2.2,2.4-3.5,3.4c-1.1,1-1.6,2-1.5,3.5C488,455.6,487.9,457.1,487.9,458.7z M475,466.8
				c1,0,1.9,0,2.8,0c0.8,0,1.2,0.4,1.2,1.2c0,1.1,0,2.2,0,3.3c0,1.2-0.3,1.4-1.5,1.4c-0.8,0-1.7,0-2.5,0c0,0.9,0,1.7,0,2.6
				c2.1,0,4.3,0,6.4,0c0-0.1,0.1-0.3,0.1-0.4c0.6-1.9,2-3.2,4-3.6c0.4-0.1,0.5-0.2,0.5-0.5c0-2.2,0-4.3,0-6.5c0-1.2,0-2.3,0-3.5
				c-0.1,0-0.2-0.1-0.2-0.1c-1.3-0.2-2.5-0.8-3.5-1.6c-0.1-0.1-0.2-0.1-0.3-0.1c-0.9,0.3-1.9,0.5-2.9,0.8c0,0.7,0,1.4,0,2.2
				c0,0.9-0.4,1.3-1.3,1.3c-0.9,0-1.8,0-2.7,0C475,464.4,475,465.6,475,466.8z M472.9,463.2c-4.9,0-9.8,0-14.6,0c0,1.2,0,2.3,0,3.5
				c4.9,0,9.8,0,14.6,0C472.9,465.6,472.9,464.4,472.9,463.2z M476.9,468.8c-7.6,0-15.1,0-22.7,0c0,0.7,0,1.3,0,1.9
				c7.6,0,15.1,0,22.7,0C476.9,470.1,476.9,469.5,476.9,468.8z M458.3,475.3c4.9,0,9.8,0,14.6,0c0-0.9,0-1.7,0-2.5
				c-4.9,0-9.7,0-14.6,0C458.3,473.6,458.3,474.5,458.3,475.3z M495.1,475.3c0.2-1.5-0.7-3-2.2-3.7c-1.4-0.6-3.3-0.3-4.3,0.9
				c-0.5,0.6-1.1,0.8-1.8,0.6c-1.5-0.3-3.1,1-3.3,2.1C487.4,475.3,491.2,475.3,495.1,475.3z"/>
			<path class="st5" d="M461.3,454.9c0.5,0,1,0.5,1,1c0,0.5-0.5,1-1,1c-0.5,0-1-0.5-1-1C460.3,455.3,460.8,454.9,461.3,454.9z"/>
			<path class="st5" d="M487,442.3c-0.6,0-1-0.4-1-0.9c0-0.5,0.4-1,1-1c0.5,0,1,0.4,1,0.9C487.9,441.9,487.5,442.3,487,442.3z"/>
		</g>
	</g>
	<g>
		<circle class="st0" cx="95.5" cy="453.9" r="45.4"/>
		<g>
			<path class="st5" d="M110.5,424.3c-7.6,0-15.1,0-22.7,0c0,0.3,0,0.5,0,0.8c0,15.6,0,31.2,0,46.9c0,0.3,0,0.6-0.1,0.8
				c-0.1,0.5-0.4,0.7-0.9,0.7c-0.5,0-0.8-0.2-0.9-0.7c0-0.2,0-0.4,0-0.7c0-16.1,0-32.2,0-48.3c0-1.1,0.3-1.4,1.4-1.4
				c7.9,0,15.8,0,23.7,0c1.1,0,1.4,0.3,1.4,1.4c0,16.1,0,32.2,0,48.3c0,0.9-0.3,1.4-0.9,1.4c-0.6,0-1-0.5-1-1.4c0-15.7,0-31.3,0-47
				C110.5,424.9,110.5,424.6,110.5,424.3z"/>
			<path class="st5" d="M76.5,473.5c0,1.4,0,2.9,0,4.3c0,0.2,0,0.4,0,0.6c-0.1,0.5-0.4,0.8-0.9,0.8c-0.5,0-0.8-0.2-0.9-0.7
				c-0.1-0.2-0.1-0.4-0.1-0.6c0-1.3,0-2.6,0-3.9c0-0.4-0.1-0.5-0.5-0.7c-1.9-0.6-3.3-2.3-3.3-4.3c0-3.2,0.3-6.4,1.5-9.5
				c0.3-0.7,0.7-1.5,1.2-2.1c1.3-1.5,3.1-1.3,4.3,0.3c0.9,1.2,1.3,2.6,1.7,4.1c0.5,2.3,0.8,4.6,0.8,6.9c0,2.2-1.3,3.9-3.4,4.6
				C76.7,473.4,76.6,473.4,76.5,473.5z M72.7,467.6c0,0.3,0,0.7,0,1c0,1.8,1.2,3.1,2.9,3.1c1.6,0,2.8-1.3,2.8-3.1
				c0-2.1-0.2-4.2-0.7-6.3c-0.2-1-0.6-1.9-1-2.9c-0.2-0.5-0.5-1-1.1-1c-0.6,0-0.9,0.5-1.1,1c-0.2,0.5-0.4,1-0.6,1.5
				C73.1,463.1,72.8,465.3,72.7,467.6z"/>
			<path class="st5" d="M103,464.1c-2.5,0-5,0-7.6,0c0,0.2,0,0.4,0,0.6c0,2.5,0,4.9,0,7.4c0,0.1,0,0.3,0,0.4c0,0.6-0.4,1-1,1
				c-0.5,0-0.9-0.4-0.9-1.1c0-2.5,0-5.1,0-7.6c0-0.2,0-0.4,0-0.8c-0.6,0-1.3,0-1.9,0c-0.4,0-0.7,0-1.1,0c-0.5-0.1-0.7-0.4-0.8-0.9
				c0-0.5,0.3-0.8,0.8-0.9c0.2,0,0.4-0.1,0.6-0.1c5.4,0,10.8,0,16.2,0c0.2,0,0.4,0,0.6,0.1c0.5,0.1,0.8,0.5,0.7,1
				c0,0.5-0.3,0.8-0.8,0.8c-0.7,0-1.4,0-2.2,0c-0.3,0-0.5,0-0.8,0c0,0.3,0,0.5,0,0.7c0,2.6,0,5.1,0,7.7c0,0.7-0.4,1.1-0.9,1.1
				c-0.5,0-0.9-0.4-1-1.1c0-0.1,0-0.3,0-0.4c0-2.4,0-4.8,0-7.3C103,464.5,103,464.3,103,464.1z"/>
			<path class="st5" d="M86,477.3c0,0.4,0,0.7-0.1,1c-0.1,0.6-0.4,0.9-0.9,0.9c-0.5,0-0.9-0.3-0.9-0.9c0-0.7,0-1.4,0-2
				c0-0.5,0.4-0.8,0.9-0.8c0.2,0,0.3,0,0.5,0c8.5,0,17,0,25.5,0c0.1,0,0.3,0,0.4,0c0.6,0,1,0.4,1,0.9c0,0.5-0.4,0.9-0.9,1
				c-0.2,0-0.4,0-0.6,0c-8.1,0-16.2,0-24.3,0C86.4,477.3,86.2,477.3,86,477.3z"/>
			<path class="st5" d="M106.8,454.6c0,0.9,0,1.8,0,2.7c0,0.7-0.3,1.1-1.1,1.1c-1.2,0-2.3,0-3.5,0c-0.7,0-1.1-0.4-1.1-1.1
				c0-1.8,0-3.6,0-5.4c0-0.7,0.4-1.1,1.1-1.1c1.1,0,2.3,0,3.4,0c0.8,0,1.1,0.3,1.1,1.1C106.8,452.8,106.8,453.7,106.8,454.6z
				 M104.8,456.5c0-1.3,0-2.5,0-3.7c-0.6,0-1.2,0-1.8,0c0,1.3,0,2.5,0,3.7C103.6,456.5,104.2,456.5,104.8,456.5z"/>
			<path class="st5" d="M91.6,454.6c0-0.9,0-1.8,0-2.7c0-0.8,0.4-1.1,1.1-1.1c1.1,0,2.3,0,3.4,0c0.8,0,1.1,0.4,1.1,1.1
				c0,1.8,0,3.5,0,5.3c0,0.8-0.4,1.1-1.1,1.1c-1.1,0-2.3,0-3.4,0c-0.8,0-1.1-0.3-1.1-1.1C91.6,456.4,91.6,455.5,91.6,454.6z
				 M95.4,456.5c0-1.3,0-2.5,0-3.7c-0.6,0-1.2,0-1.8,0c0,1.3,0,2.5,0,3.7C94.2,456.5,94.8,456.5,95.4,456.5z"/>
			<path class="st5" d="M106.8,443.3c0,0.9,0,1.8,0,2.7c0,0.8-0.4,1.1-1.1,1.1c-1.1,0-2.3,0-3.4,0c-0.8,0-1.1-0.4-1.1-1.1
				c0-1.8,0-3.5,0-5.3c0-0.7,0.3-1.1,1.1-1.1c1.2,0,2.4,0,3.5,0c0.7,0,1,0.4,1.1,1.1C106.8,441.4,106.8,442.3,106.8,443.3z
				 M104.8,445.1c0-1.3,0-2.5,0-3.7c-0.6,0-1.2,0-1.8,0c0,1.3,0,2.5,0,3.7C103.6,445.1,104.2,445.1,104.8,445.1z"/>
			<path class="st5" d="M91.6,443.2c0-0.9,0-1.8,0-2.7c0-0.8,0.3-1.1,1.1-1.1c1.2,0,2.4,0,3.5,0c0.7,0,1,0.4,1.1,1.1
				c0,1.8,0,3.6,0,5.4c0,0.7-0.4,1.1-1.1,1.1c-1.2,0-2.3,0-3.5,0c-0.7,0-1.1-0.4-1.1-1.1C91.6,445,91.6,444.1,91.6,443.2z
				 M93.6,441.4c0,1.3,0,2.5,0,3.7c0.6,0,1.2,0,1.8,0c0-1.3,0-2.5,0-3.7C94.8,441.4,94.2,441.4,93.6,441.4z"/>
			<path class="st5" d="M106.8,431.9c0,0.9,0,1.8,0,2.7c0,0.7-0.3,1.1-1.1,1.1c-1.2,0-2.3,0-3.5,0c-0.8,0-1.1-0.4-1.1-1.1
				c0-1.8,0-3.5,0-5.3c0-0.8,0.4-1.2,1.1-1.2c1.1,0,2.3,0,3.4,0c0.8,0,1.1,0.4,1.1,1.2C106.8,430.1,106.8,431,106.8,431.9z M103,430
				c0,1.3,0,2.5,0,3.7c0.6,0,1.2,0,1.8,0c0-1.3,0-2.5,0-3.7C104.2,430,103.6,430,103,430z"/>
			<path class="st5" d="M91.6,431.9c0-0.9,0-1.7,0-2.6c0-0.8,0.4-1.2,1.2-1.2c1.1,0,2.2,0,3.3,0c0.8,0,1.2,0.4,1.2,1.2
				c0,1.8,0,3.5,0,5.3c0,0.8-0.3,1.2-1.1,1.2c-1.1,0-2.3,0-3.4,0c-0.8,0-1.1-0.3-1.2-1.2C91.6,433.6,91.6,432.7,91.6,431.9z
				 M93.6,430c0,1.3,0,2.5,0,3.7c0.6,0,1.2,0,1.8,0c0-1.3,0-2.5,0-3.7C94.8,430,94.2,430,93.6,430z"/>
			<path class="st5" d="M99.2,467.9c0.5,0,1,0.4,0.9,0.9c0,0.5-0.4,0.9-0.9,0.9c-0.5,0-0.9-0.4-0.9-0.9
				C98.3,468.3,98.6,467.9,99.2,467.9z"/>
		</g>
	</g>
	<g>
		<circle class="st0" cx="478" cy="672" r="45.4"/>
		<g>
			<path class="st5" d="M481.6,696.5c-7.1,0-14.2,0-21.2,0c-1.6,0-2.9-0.5-3.8-1.9c-0.9-1.3-1-2.7-0.4-4.2c0.7-1.5,1.8-2.3,3.5-2.5
				c0.3,0,0.7,0,1.1,0c10.8,0,21.6,0,32.4,0c0.3,0,0.5,0,0.8,0c0.6-0.1,1-0.5,1-1.1c0-0.6-0.4-1.1-1-1.1c-0.3,0-0.5,0-0.8,0
				c-10.9,0-21.8,0-32.6,0c-1.2,0-2.4-0.2-3.3-1.1c-1.3-1.2-1.7-3-1.1-4.7c0.6-1.6,2.1-2.7,3.8-2.8c0.1,0,0.3,0,0.4,0
				c14.2,0,28.5,0,42.7,0c0.9,0,1.5,0.4,1.7,1.1c0.3,0.8-0.2,1.7-1.1,1.9c-0.3,0.1-0.6,0.1-0.9,0.1c-14,0-28.1,0-42.1,0
				c-0.2,0-0.4,0-0.6,0c-0.7,0-1.1,0.4-1.1,1c0,0.7,0.3,1.1,1,1.2c0.2,0,0.4,0,0.7,0c10.9,0,21.8,0,32.8,0c1.3,0,2.4,0.3,3.4,1.2
				c1.1,1.1,1.6,3,1,4.6c-0.6,1.6-1.9,2.5-3.6,2.7c-0.3,0-0.6,0-1,0c-10.8,0-21.7,0-32.5,0c-0.2,0-0.4,0-0.7,0c-0.7,0.1-1,0.5-1,1.2
				c0,0.7,0.4,1,1.1,1.1c0.2,0,0.4,0,0.7,0c14,0,28,0,42.1,0c0.3,0,0.5,0,0.8,0.1c0.8,0.2,1.3,0.8,1.3,1.6c0,0.8-0.6,1.4-1.4,1.5
				c-0.2,0-0.4,0-0.6,0C495.9,696.5,488.7,696.5,481.6,696.5z"/>
			<path class="st5" d="M477,675.5c-0.8,0-1.5-0.4-1.7-1c-0.2-0.6,0-1.3,0.5-1.8c0.6-0.6,1.3-1.1,1.8-1.8c1.2-1.7,1.2-3.5,0.3-5.3
				c-0.7-1.4-1.7-2.5-2.7-3.6c-1.3-1.4-2.2-3-2.7-4.9c-0.6-2.4-0.2-4.6,1.1-6.6c0.6-0.9,1.3-1.7,2.1-2.5c0.7-0.7,1.7-0.7,2.3,0
				c0.6,0.7,0.5,1.6-0.2,2.3c-1.1,1-1.9,2.2-2.2,3.7c-0.4,1.6,0,3.1,0.9,4.4c0.7,1,1.5,1.9,2.2,2.8c1.1,1.3,2.1,2.7,2.6,4.4
				c0.9,2.7,0.5,5.2-1.2,7.4c-0.6,0.8-1.5,1.5-2.3,2.2C477.6,675.3,477.2,675.4,477,675.5z"/>
			<path class="st5" d="M466.4,649c0,0.5-0.3,0.9-0.6,1.3c-0.9,0.8-1.5,1.7-2,2.8c-0.7,1.8-0.4,3.6,0.6,5.2c0.5,0.8,1.2,1.6,1.8,2.3
				c1.3,1.4,2.4,2.9,3,4.8c1.1,3.2,0.4,5.9-1.8,8.4c-0.5,0.5-1,1-1.6,1.4c-0.8,0.6-1.7,0.5-2.3-0.3c-0.5-0.7-0.4-1.6,0.4-2.2
				c0.9-0.6,1.6-1.4,2.1-2.4c0.8-1.6,0.6-3.2-0.2-4.7c-0.5-0.9-1.1-1.7-1.7-2.5c-1.1-1.3-2.2-2.5-3-4c-1.6-3.4-1.2-6.6,1-9.6
				c0.5-0.6,1-1.2,1.6-1.7c0.5-0.4,1.1-0.5,1.7-0.2C466.1,647.9,466.4,648.4,466.4,649z"/>
			<path class="st5" d="M487.3,673.9c0-0.6,0.3-1,0.7-1.3c0.9-0.6,1.7-1.4,2.1-2.5c0.7-1.6,0.6-3.1-0.2-4.5c-0.6-1.1-1.4-2.1-2.2-3
				c-1.2-1.4-2.4-2.8-3-4.6c-0.9-2.6-0.6-5.1,0.9-7.5c0.6-0.9,1.3-1.7,2.1-2.5c0.7-0.7,1.6-0.6,2.3,0c0.6,0.7,0.6,1.6-0.2,2.3
				c-1.2,1.2-2.2,2.5-2.4,4.3c-0.2,1.4,0.2,2.7,1,3.9c0.6,0.8,1.2,1.6,1.9,2.4c1.2,1.4,2.3,2.9,2.9,4.6c1.1,3.2,0.4,6-1.8,8.4
				c-0.5,0.5-1.1,1-1.7,1.4c-0.5,0.4-1.1,0.4-1.7,0.1C487.6,675,487.3,674.5,487.3,673.9z"/>
		</g>
	</g>
	<g>
		<circle class="st0" cx="288.2" cy="672" r="45.4"/>
		<g>
			<path class="st5" d="M287.2,697.6c-6.5-0.4-12.1-3.6-15.5-10.4c-1.5-3-2.1-6.2-1.7-9.5c0.3-2.3,1.1-4.4,2.1-6.5
				c2-4.4,4.5-8.6,7.1-12.6c2.4-3.8,5-7.5,7.5-11.2c0.8-1.3,2.3-1.3,3.2,0c4.1,6.1,8.3,12.1,11.9,18.5c1.8,3.2,3.4,6.5,4.4,10
				c0.6,2.1,0.6,4.3,0.2,6.4c-1.3,6.5-5,11.1-11,13.8C293.1,697.1,290.7,697.5,287.2,697.6z M288.2,651.4c-0.1,0.1-0.1,0.2-0.2,0.3
				c-2.6,4-5.3,8-7.9,12.1c-2,3.2-3.9,6.4-5.3,9.9c-1.1,2.5-1.7,5.1-1.2,7.9c0.6,3.2,2,6,4.3,8.2c2.6,2.5,5.8,3.9,9.5,4.1
				c2.9,0.2,5.6-0.4,8.1-1.9c3.3-1.9,5.6-4.7,6.7-8.3c0.8-2.5,1-5,0.2-7.6c-1-3.2-2.6-6.2-4.2-9.1c-3-5.3-6.5-10.2-9.8-15.3
				C288.3,651.6,288.3,651.6,288.2,651.4z"/>
			<path class="st5" d="M300.6,680.1c-0.4,4.3-2.3,7.6-6,9.8c-1.1,0.7-2.1,0.4-2.7-0.5c-0.6-0.9-0.2-1.9,0.8-2.6
				c2.3-1.4,3.6-3.4,4.2-5.9c0.1-0.4,0.1-0.7,0.2-1.1c0.1-1.2,0.9-1.9,1.9-1.9C299.8,678,300.8,678.7,300.6,680.1z"/>
		</g>
	</g>
	<g>
		<circle class="st0" cx="95.5" cy="672" r="45.4"/>
		<g>
			<path class="st5" d="M102.4,696.6c0,0.8,0,1.5,0,2.2c0,0.2,0,0.5,0,0.7c0,0.5-0.2,0.8-0.7,1c-0.5,0.1-0.8,0-1.1-0.4
				c-0.8-1-1.6-2-2.3-3c-2.4-3.2-4.9-6.3-7.3-9.5c-0.5-0.7-0.5-1.1,0.1-1.7c3.1-3.4,6.2-6.9,9.4-10.3c0.1-0.1,0.1-0.1,0.2-0.2
				c0.3-0.4,0.7-0.5,1.2-0.4c0.5,0.2,0.6,0.6,0.6,1.1c0,1,0,2,0,2.9c0,0.2,0,0.5,0,0.8c3,0,6,0,9.1,0c-0.1-0.2-0.2-0.4-0.3-0.6
				c-1.2-2.2-2.4-4.3-3.6-6.5c-0.5-0.9-0.4-1.3,0.5-1.8c3.7-2.2,7.5-4.4,11.2-6.5c0.9-0.5,1.4-0.4,1.8,0.6c1,2.1,2.1,4.2,3.1,6.2
				c1.1,2.3,1,4.7-0.3,6.9c-3,5.1-6,10.2-9,15.2c-1.3,2.1-3.1,3.2-5.6,3.3c-2.1,0-4.2,0-6.3,0C102.8,696.6,102.6,696.6,102.4,696.6z
				 M92.8,686.8c2.5,3.3,5,6.5,7.6,9.8c0-0.3,0-0.4,0-0.5c0-1.3,0.2-1.6,1.6-1.6c2.4,0,4.9,0,7.3,0c1.8,0,3.1-0.8,4-2.3
				c1.9-3.3,3.9-6.6,5.8-9.9c0.1-0.2,0.2-0.3,0.3-0.6c-0.3,0-0.5,0-0.7,0c-5.6,0-11.3,0-16.9,0c-1,0-1.3-0.3-1.3-1.3
				c0-0.6,0-1.3,0-1.9c0,0-0.1,0-0.1,0C97.8,681.3,95.3,684,92.8,686.8z M109.6,672.3c1.4,2.5,2.7,4.9,4,7.2
				c0.1,0.1,0.4,0.3,0.6,0.3c2,0,4,0,5.9,0c0.2,0,0.5-0.1,0.6-0.3c0.5-0.8,1.1-1.7,1.6-2.5c0.7-1.1,0.9-2.3,0.7-3.6
				c0-0.2-0.1-0.5-0.2-0.7c-1-2.1-2-4.1-3-6.3C116.3,668.4,113,670.4,109.6,672.3z"/>
			<path class="st5" d="M114.4,652.5c1.3-0.7,2.6-1.3,3.9-2c0.3-0.1,0.5-0.2,0.8-0.2c0.7,0,1.1,0.7,0.8,1.4c-0.3,0.7-0.7,1.4-1,2.1
				c-1.9,4-3.9,8-5.8,11.9c-0.4,0.9-0.6,1-1.6,0.9c-4.6-0.5-9.1-1-13.7-1.5c-0.2,0-0.3-0.1-0.5-0.1c-0.5-0.1-0.8-0.3-0.9-0.8
				c-0.1-0.5,0.1-0.9,0.5-1.1c1.3-0.8,2.6-1.6,4-2.4c-1.5-2.8-3-5.6-4.5-8.5c-0.1,0.2-0.3,0.4-0.4,0.6c-1.2,2.2-2.4,4.3-3.6,6.5
				c-0.5,1-1,1.1-1.9,0.5c-3.4-2.2-6.8-4.3-10.2-6.5c-0.9-0.6-1-1-0.4-1.9c0.9-1.5,1.8-3,2.8-4.5c1.4-2.2,3.4-3.5,6-3.5
				c5.7,0,11.3,0,17,0c2.1,0,3.8,1.1,5,2.9c1.2,1.8,2.2,3.7,3.3,5.6C114.2,652.1,114.3,652.3,114.4,652.5z M116.9,653.5
				c-0.8,0.4-1.4,0.7-2.1,1c-0.9,0.5-1.3,0.3-1.8-0.5c-1.2-2-2.4-4-3.5-6c-1-1.8-2.5-2.6-4.5-2.6c-3,0-6.1,0-9.1,0
				c-0.2,0-0.4,0-0.7,0c0.1,0.3,0.2,0.5,0.3,0.7c2.5,4.7,5,9.4,7.4,14.1c0.6,1.2,0.5,1.5-0.6,2.2c-0.6,0.3-1.1,0.7-1.8,1.1
				c0.4,0.1,0.6,0.1,0.8,0.1c3.2,0.4,6.5,0.7,9.7,1.1c0.4,0,0.6,0,0.8-0.4c1.6-3.4,3.2-6.7,4.9-10.1
				C116.7,654,116.8,653.8,116.9,653.5z M82,651.9c3.1,2,6.1,3.9,9.1,5.8c1.4-2.5,2.7-4.9,4-7.3c0.1-0.1,0.1-0.4,0-0.5
				c-0.7-1.4-1.4-2.9-2.1-4.3c-0.1-0.2-0.3-0.3-0.5-0.3c-1.3,0-2.6,0-3.9,0c-1.6,0.1-2.9,0.8-3.8,2.1C83.8,648.9,83,650.4,82,651.9z
				"/>
			<path class="st5" d="M71.2,665c-1.5-0.9-3-1.8-4.4-2.7c-0.2-0.1-0.4-0.2-0.5-0.4c-0.2-0.3-0.4-0.7-0.3-1c0.1-0.3,0.5-0.6,0.8-0.7
				c0.7-0.1,1.5-0.2,2.3-0.2c4.4-0.3,8.9-0.6,13.3-0.8c0.6,0,1,0.2,1.3,0.8c1.9,4.1,3.8,8.3,5.7,12.4c0.2,0.5,0.3,0.9-0.1,1.3
				c-0.4,0.4-0.8,0.4-1.3,0.2c-1.3-0.5-2.5-1-3.8-1.5c-1.6,2.8-3.2,5.6-4.9,8.5c0.3,0,0.5,0,0.7,0c2.1,0,4.3,0,6.4,0
				c0.8,0,1.2,0.4,1.2,1.2c0,4.5,0,8.9,0,13.4c0,0.8-0.4,1.2-1.2,1.2c-1.6,0-3.3,0.1-4.9-0.1c-2.3-0.3-4-1.6-5.1-3.6
				c-2.8-4.8-5.5-9.5-8.3-14.3c-1.3-2.2-1.4-4.5-0.3-6.8c1-2.1,2.1-4.1,3.1-6.2C71,665.4,71.1,665.2,71.2,665z M70.2,661.9
				c0,0,0,0.1,0,0.1c0.8,0.5,1.7,1,2.5,1.5c0.9,0.6,1,0.9,0.5,1.9c-1.2,2.3-2.3,4.7-3.5,7c-0.9,1.8-0.8,3.5,0.2,5.3
				c1.4,2.4,2.7,4.7,4.1,7.1c0.1,0.2,0.2,0.3,0.3,0.5c0.1-0.2,0.3-0.4,0.4-0.6c2.7-4.6,5.3-9.2,8-13.8c0.5-0.9,0.8-1,1.8-0.6
				c0.7,0.3,1.3,0.5,2.1,0.8c0-0.1,0-0.2,0-0.2c-1.4-3.1-2.9-6.2-4.3-9.4c-0.1-0.2-0.4-0.3-0.6-0.3c-1.4,0.1-2.9,0.2-4.3,0.2
				C74.9,661.6,72.6,661.8,70.2,661.9z M85.6,694.6c0-3.9,0-7.8,0-11.7c-2.4,0-4.7,0-7.1,0c-0.1,0-0.3,0.2-0.4,0.3
				c-0.8,1.3-1.6,2.6-2.4,3.9c-0.1,0.2-0.1,0.4,0,0.6c0.8,1.5,1.6,2.9,2.5,4.3c0.8,1.4,2.1,2.3,3.7,2.5
				C83,694.7,84.3,694.6,85.6,694.6z"/>
		</g>
	</g>
	<rect x="17.6" y="519.4" class="st6" width="155.8" height="61.8"/>
	<text transform="matrix(1 0 0 1 28.8847 534.9213)"><tspan x="0" y="0" class="st7 st8">EDIFICIOS DE </tspan><tspan x="-1.4" y="24.7" class="st7 st8">BAJA ALTURA</tspan></text>
	<rect x="208.7" y="519.4" class="st6" width="158.9" height="63"/>
	<text transform="matrix(1 0 0 1 217.2026 534.9213)" class="st7 st8">BICICLETEROS</text>
	<rect x="398.5" y="519.4" class="st6" width="158.9" height="106.6"/>
	<text transform="matrix(1 0 0 1 411.5605 534.9213)"><tspan x="0" y="0" class="st9 st7 st8">ESPACIOS DE </tspan><tspan x="-7.8" y="24.7" class="st9 st7 st8">ÁREAS VERDES </tspan><tspan x="13.9" y="49.3" class="st9 st7 st8">COMUNES</tspan></text>
	<rect x="17.6" y="740" class="st6" width="155.8" height="61.8"/>
	<text transform="matrix(1 0 0 1 45.8183 755.5014)"><tspan x="0" y="0" class="st7 st8">ESPACIOS </tspan><tspan x="22.8" y="24.7" class="st7 st8">PARA </tspan></text>
	<rect x="210.3" y="740" class="st6" width="155.8" height="61.8"/>
	<text transform="matrix(1 0 0 1 217.3866 755.5014)"><tspan x="0" y="0" class="st7 st8">USO DE AGUA </tspan><tspan x="13.1" y="24.7" class="st7 st8">EFIFICENTE</tspan></text>
	<rect x="400.1" y="740" class="st6" width="155.8" height="104.5"/>
	<text transform="matrix(1 0 0 1 428.1245 755.5014)"><tspan x="0" y="0" class="st9 st7 st8">EDIFICIOS </tspan><tspan x="-2.3" y="24.7" class="st9 st7 st8">TÉRMICOS</tspan></text>
</g>
</svg>
