<?xml version="1.0" encoding="utf-8"?>
<!-- Generator: Adobe Illustrator 25.3.1, SVG Export Plug-In . SVG Version: 6.00 Build 0)  -->
<svg version="1.1" id="Layer_1" xmlns="http://www.w3.org/2000/svg" xmlns:xlink="http://www.w3.org/1999/xlink" x="0px" y="0px"
	 viewBox="0 0 96 77" style="enable-background:new 0 0 96 77;" xml:space="preserve">
<style type="text/css">
	.st0{fill:#FFFFFF;}
</style>
<g>
	<path class="st0" d="M80.3,16.9H61.2c0,0,0,0-0.1,0c-0.7-0.7-1.4-1.3-2.2-1.8c-0.5-0.3-1.1-0.2-1.5,0.3c-0.3,0.5-0.2,1.1,0.3,1.5
		c4.7,3.2,7.5,8.6,7.5,14.2c0,9.5-7.8,17.3-17.3,17.3c-9.5,0-17.3-7.8-17.3-17.3c0-9.5,7.8-17.3,17.3-17.3c1.9,0,3.8,0.3,5.5,0.9
		c0.6,0.2,1.2-0.1,1.3-0.7c0.2-0.6-0.1-1.2-0.7-1.3c-2-0.7-4.1-1-6.2-1c-10.7,0-19.4,8.7-19.4,19.4s8.7,19.4,19.4,19.4
		s19.4-8.7,19.4-19.4c0-4.4-1.5-8.7-4.2-12.1h17.2c1,0,1.8,0.8,1.8,1.8v33.4h-8.4c-0.6,0-1.1,0.5-1.1,1.1s0.5,1.1,1.1,1.1h8.4v5.6
		c0,1-0.8,1.8-1.8,1.8H15.7c-1,0-1.8-0.8-1.8-1.8v-5.6h54.4c0.6,0,1.1-0.5,1.1-1.1s-0.5-1.1-1.1-1.1H13.9V20.8c0-1,0.8-1.8,1.8-1.8
		h12.6c0.6,0,1.1-0.5,1.1-1.1c0-0.6-0.5-1.1-1.1-1.1H15.7c-2.1,0-3.9,1.7-3.9,3.9v41c0,2.1,1.7,3.9,3.9,3.9h23.2V74h-3.2
		c-0.6,0-1.1,0.5-1.1,1.1s0.5,1.1,1.1,1.1H60c0.6,0,1.1-0.5,1.1-1.1S60.6,74,60,74h-3.2v-8.3h23.5c2.1,0,3.9-1.7,3.9-3.9v-41
		C84.2,18.6,82.4,16.9,80.3,16.9z M54.7,74H41.1v-8.3h13.6V74z"/>
	<path class="st0" d="M40.3,22.6c-0.2-1.2-1.3-2.1-2.5-2.1h-1.1c-0.6,0-1.1,0.5-1.1,1.1c0,0.6,0.5,1.1,1.1,1.1h1.1
		c0.2,0,0.4,0.1,0.4,0.3l3.1,16.6c0.1,0.5,0.5,0.9,1,0.9h0.7c-0.3,0.3-0.5,0.8-0.5,1.3c0,1.1,0.9,2,2,2c1.1,0,2-0.9,2-2
		c0-0.5-0.2-1-0.5-1.3h4.4c-0.3,0.3-0.5,0.8-0.5,1.3c0,1.1,0.9,2,2,2c1.1,0,2-0.9,2-2c0-0.5-0.2-1-0.5-1.3h1c0.6,0,1.1-0.5,1.1-1.1
		c0-0.6-0.5-1.1-1.1-1.1h-11l-0.4-2.3h11.8c0.5,0,0.9-0.4,1-0.9l1.9-9.9c0,0,0,0,0,0c0.1-0.4,0-0.7-0.3-1s-0.6-0.5-1-0.5H40.5
		L40.3,22.6z M41.9,31h2.9l0.2,3h-2.5L41.9,31z M49.5,31l-0.2,3h-2.1l-0.2-3H49.5z M46.8,28.8l-0.2-3h3.3l-0.2,3H46.8z M51.4,33.9
		l0.2-3h2.8l-0.6,3H51.4z M54.8,28.8h-3l0.2-3h3.4L54.8,28.8z M44.4,25.9l0.2,3h-3.1l-0.6-3H44.4z"/>
	<path class="st0" d="M18.7,46.6H25c0.6,0,1.1-0.5,1.1-1.1c0-0.6-0.5-1.1-1.1-1.1h-6.3c-0.6,0-1.1,0.5-1.1,1.1
		C17.7,46.1,18.1,46.6,18.7,46.6z"/>
	<path class="st0" d="M18.7,51.3h11.7c0.6,0,1.1-0.5,1.1-1.1c0-0.6-0.5-1.1-1.1-1.1H18.7c-0.6,0-1.1,0.5-1.1,1.1
		C17.7,50.9,18.1,51.3,18.7,51.3z"/>
	<path class="st0" d="M74.7,23c-0.6,0-1.1,0.5-1.1,1.1v2.7H71c-0.6,0-1.1,0.5-1.1,1.1s0.5,1.1,1.1,1.1h2.7v2.7
		c0,0.6,0.5,1.1,1.1,1.1s1.1-0.5,1.1-1.1v-2.7h2.7c0.6,0,1.1-0.5,1.1-1.1s-0.5-1.1-1.1-1.1h-2.7v-2.7C75.8,23.5,75.3,23,74.7,23z"/>
</g>
</svg>
