<svg id="Capa_1" enable-background="new 0 0 512 512" height="512" viewBox="0 0 512 512" width="512" xmlns="http://www.w3.org/2000/svg"><path d="m496.885 98.615h-30v314.77h30c4.705-4.705 7.615-11.205 7.615-18.385v-278c0-7.18-2.91-13.68-7.615-18.385z" fill="#8ae7ff"/><path d="m474.5 117c0-7.18-2.91-13.68-7.615-18.385h-391.77c-4.705 4.705-7.615 11.205-7.615 18.385v278c0 7.18 2.91 13.68 7.615 18.385h391.77c4.705-4.705 7.615-11.205 7.615-18.385z" fill="#c4f3ff"/><path d="m474.5 391-26 30h30c7.18 0 13.68-2.91 18.385-7.615z" fill="#4fdbff"/><path d="m474.5 395v-4l-188.5-188.5-210.885 210.885c4.705 4.705 11.205 7.615 18.385 7.615h355c14.359 0 26-11.641 26-26z" fill="#8ae7ff"/><path d="m478.5 91h-30l26 30 22.385-22.385c-4.705-4.705-11.205-7.615-18.385-7.615z" fill="#c4f3ff"/><path d="m448.5 91h-355c-7.18 0-13.68 2.91-18.385 7.615l173.762 173.762c20.503 20.502 53.744 20.503 74.246 0l151.377-151.377v-4c0-14.359-11.641-26-26-26z" fill="#fff"/><path d="m478.5 83.5h-385c-18.472 0-33.5 15.028-33.5 33.5v71.5h-52.5c-4.142 0-7.5 3.357-7.5 7.5s3.358 7.5 7.5 7.5h90c4.142 0 7.5-3.357 7.5-7.5s-3.358-7.5-7.5-7.5h-22.5v-71.5c0-2.342.455-4.576 1.253-6.64l145.64 145.64-145.64 145.64c-.798-2.064-1.253-4.298-1.253-6.64v-49c0-4.143-3.358-7.5-7.5-7.5s-7.5 3.357-7.5 7.5v49c0 18.472 15.028 33.5 33.5 33.5h385c18.472 0 33.5-15.028 33.5-33.5v-278c0-18.472-15.028-33.5-33.5-33.5zm-128.393 172.5 145.64-145.64c.798 2.064 1.253 4.298 1.253 6.64v278c0 2.342-.455 4.576-1.253 6.64zm128.393-157.5c2.342 0 4.576.455 6.64 1.253l-167.32 167.32c-17.545 17.547-46.094 17.547-63.64 0l-167.32-167.32c2.064-.798 4.298-1.253 6.64-1.253zm-385 315c-2.342 0-4.576-.455-6.64-1.253l145.64-145.64 11.074 11.074c11.697 11.696 27.062 17.545 42.427 17.545s30.729-5.849 42.426-17.545l11.074-11.074 145.64 145.64c-2.064.798-4.298 1.253-6.64 1.253z"/><path d="m67.5 218.5c-4.142 0-7.5 3.357-7.5 7.5v22.5h-52.5c-4.142 0-7.5 3.357-7.5 7.5s3.358 7.5 7.5 7.5h120c4.142 0 7.5-3.357 7.5-7.5s-3.358-7.5-7.5-7.5h-52.5v-22.5c0-4.143-3.358-7.5-7.5-7.5z"/><path d="m97.5 323.5c4.142 0 7.5-3.357 7.5-7.5s-3.358-7.5-7.5-7.5h-22.5v-22.5c0-4.143-3.358-7.5-7.5-7.5s-7.5 3.357-7.5 7.5v22.5h-52.5c-4.142 0-7.5 3.357-7.5 7.5s3.358 7.5 7.5 7.5z"/></svg>