<svg xmlns="http://www.w3.org/2000/svg" xmlns:xlink="http://www.w3.org/1999/xlink" width="96" height="77" viewBox="0 0 96 77"><defs><style>.a{fill:none;}.b{clip-path:url(#a);}.c{fill:#494949;}</style><clipPath id="a"><rect class="a" width="96" height="77" transform="translate(18162 3685)"/></clipPath></defs><g class="b" transform="translate(-18162 -3685)"><g transform="translate(18173.604 3692.604)"><path class="c" d="M21,37h1.961v1.961H21Z" transform="translate(-0.351 -0.701)"/><path class="c" d="M17,37h1.961v1.961H17Z" transform="translate(-0.273 -0.701)"/><path class="c" d="M25,37h1.961v1.961H25Z" transform="translate(-0.428 -0.701)"/><path class="c" d="M25,41h1.961v1.961H25Z" transform="translate(-0.428 -0.779)"/><path class="c" d="M21,41h1.961v1.961H21Z" transform="translate(-0.351 -0.779)"/><path class="c" d="M17,41h1.961v1.961H17Z" transform="translate(-0.273 -0.779)"/><path class="c" d="M25,45h1.961v1.961H25Z" transform="translate(-0.428 -0.857)"/><path class="c" d="M21,45h1.961v1.961H21Z" transform="translate(-0.351 -0.857)"/><path class="c" d="M17,45h1.961v1.961H17Z" transform="translate(-0.273 -0.857)"/><path class="c" d="M9,41h1.961v1.961H9Z" transform="translate(-0.117 -0.779)"/><path class="c" d="M9,45h1.961v1.961H9Z" transform="translate(-0.117 -0.857)"/><path class="c" d="M42.649,17H25v5.883H42.649Zm-1.961,3.922H26.961V18.961H40.688Z" transform="translate(-0.428 -0.312)"/><path class="c" d="M53,21h1.961v1.961H53Z" transform="translate(-0.974 -0.39)"/><path class="c" d="M57,21h1.961v1.961H57Z" transform="translate(-1.052 -0.39)"/><path class="c" d="M57,25h1.961v1.961H57Z" transform="translate(-1.052 -0.467)"/><path class="c" d="M53,25h1.961v1.961H53Z" transform="translate(-0.974 -0.467)"/><path class="c" d="M53,29h1.961v1.961H53Z" transform="translate(-0.974 -0.545)"/><path class="c" d="M57,29h1.961v1.961H57Z" transform="translate(-1.052 -0.545)"/><path class="c" d="M57,33h1.961v1.961H57Z" transform="translate(-1.052 -0.623)"/><path class="c" d="M53,33h1.961v1.961H53Z" transform="translate(-0.974 -0.623)"/><path class="c" d="M61.792,12.766V9.825a6.864,6.864,0,0,0-13.727,0v2.942h1.961v3.922H48.065V37.046c-.7-1.444-1.347-2.911-1.961-4.393V12.766H44.143V4.922H41.2V1H25.513V4.922H22.572v7.844H20.61v19.61H12.766V36.3H4.922V54.62A6.866,6.866,0,0,0,1,60.812v.981H61.792V59.831H55.909V53.847c3.32-.615,5.883-4.287,5.883-8.724V16.688H59.831V12.766ZM50.026,9.825a4.9,4.9,0,1,1,9.805,0v.981H50.026Zm1.961,2.942h1.961v3.922H51.987ZM44.143,45.124v-3.4l2.505-1.67-1.087-1.632-1.418.945v-2.09H42.182v4.5l-1.268-1.268-1.386,1.386,2.654,2.654v.575H36.1A84.915,84.915,0,0,0,42.86,31.4h.607a84.833,84.833,0,0,0,6.758,13.727ZM27.474,2.961H39.24V4.922H27.474ZM24.533,6.883H42.182v5.883H40.221V8.844H38.26v3.922H36.3V8.844H34.338v3.922H32.377V8.844H30.416v3.922H28.455V8.844H26.494v3.922H24.533Zm-1.961,7.844H44.143V29.435H42.182v-4.9H24.533v5.883H41.125A82.83,82.83,0,0,1,33.97,44.844l-1.4,2.24h9.613v6.962a6.709,6.709,0,0,0-5.194-2.052,6.909,6.909,0,0,0-6.572-4.909V32.377H22.572ZM40.221,26.494v1.961H26.494V26.494ZM14.727,34.338H28.455V47.386A6.825,6.825,0,0,0,23.8,52.1a6.823,6.823,0,0,0-2.8.068,6.877,6.877,0,0,0-6.279-4.1ZM6.883,38.26h5.883V48.354a6.821,6.821,0,0,0-1.961.95V48.065H8.844v1.961H9.936a6.843,6.843,0,0,0-2,3.922h-.07a6.889,6.889,0,0,0-.981.078Zm.981,17.649a4.922,4.922,0,0,1,.821.075l1.14.107V54.929a4.9,4.9,0,0,1,9.629-1.285l.288,1.062,1.021-.408a4.863,4.863,0,0,1,3.472-.054l1.176.425.131-1.243a4.9,4.9,0,0,1,9.715-.212l.151,1,.994-.182a4.882,4.882,0,0,1,5.78,4.819v.981H3.06a4.91,4.91,0,0,1,4.8-3.922Zm36.279,3.922V47.085h4.094c.625,3.56,2.912,6.247,5.712,6.765v5.982Zm10.786-7.844c-2.188,0-4.083-2.045-4.694-4.9h3.52l-1.4-2.24c-.6-.965-1.174-1.95-1.737-2.941.855-2.221,2.506-3.644,4.31-3.644,2.7,0,4.9,3.08,4.9,6.864S57.632,51.987,54.929,51.987Zm0-15.688a6.217,6.217,0,0,0-4.9,2.665V18.649h9.805V38.96A6.214,6.214,0,0,0,54.929,36.3Zm2.942-19.61H55.909V12.766H57.87Z" transform="translate(2)"/></g></g></svg>