<?xml version="1.0" encoding="utf-8"?>
<!-- Generator: Adobe Illustrator 24.3.0, SVG Export Plug-In . SVG Version: 6.00 Build 0)  -->
<svg version="1.1" id="Layer_1" xmlns="http://www.w3.org/2000/svg" xmlns:xlink="http://www.w3.org/1999/xlink" x="0px" y="0px"
	 viewBox="0 0 115 76.6" style="enable-background:new 0 0 115 76.6;" xml:space="preserve">
<style type="text/css">
	.st0{enable-background:new    ;}
	.st1{fill:#3C3C3C;}
</style>
<g class="st0">
	<path class="st1" d="M4.2,4.1h6.2v1.1H5.4v3.1h4.7v1.1H5.4v3.5h5.3V14H4.2V4.1z"/>
	<path class="st1" d="M24.2,5.8c-0.2-0.3-0.5-0.5-0.8-0.7c-0.3-0.1-0.7-0.2-1-0.2c-0.3,0-0.5,0-0.8,0.1S21.2,5.2,21,5.3
		c-0.2,0.1-0.4,0.3-0.5,0.5c-0.1,0.2-0.2,0.5-0.2,0.8c0,0.2,0,0.4,0.1,0.6c0.1,0.2,0.2,0.3,0.3,0.5c0.2,0.1,0.4,0.3,0.6,0.4
		c0.3,0.1,0.6,0.2,1,0.4c0.4,0.1,0.8,0.3,1.1,0.4c0.4,0.1,0.7,0.3,1,0.5s0.5,0.5,0.7,0.8c0.2,0.3,0.2,0.7,0.2,1.2
		c0,0.5-0.1,0.9-0.3,1.3c-0.2,0.4-0.5,0.7-0.8,0.9c-0.3,0.2-0.7,0.4-1.1,0.5c-0.4,0.1-0.9,0.2-1.3,0.2c-0.3,0-0.6,0-0.9-0.1
		c-0.3-0.1-0.6-0.1-0.8-0.2c-0.3-0.1-0.5-0.2-0.7-0.4c-0.2-0.2-0.4-0.4-0.6-0.6l1-0.8c0.2,0.4,0.5,0.6,0.9,0.8
		c0.4,0.2,0.8,0.3,1.2,0.3c0.3,0,0.5,0,0.8-0.1c0.3-0.1,0.5-0.2,0.7-0.3c0.2-0.1,0.4-0.3,0.5-0.5c0.1-0.2,0.2-0.5,0.2-0.7
		c0-0.3-0.1-0.6-0.2-0.7c-0.1-0.2-0.3-0.4-0.5-0.5c-0.2-0.1-0.5-0.3-0.8-0.4c-0.3-0.1-0.7-0.2-1.1-0.4c-0.4-0.1-0.7-0.2-1-0.4
		c-0.3-0.1-0.6-0.3-0.8-0.5S19.4,8,19.2,7.7s-0.2-0.6-0.2-1.1c0-0.5,0.1-0.9,0.3-1.2c0.2-0.4,0.4-0.7,0.8-0.9
		c0.3-0.2,0.7-0.4,1.1-0.5c0.4-0.1,0.8-0.2,1.3-0.2c0.6,0,1.1,0.1,1.5,0.3c0.5,0.2,0.9,0.5,1.2,0.9L24.2,5.8z"/>
	<path class="st1" d="M41,5.2h-3.3V14h-1.2V5.2h-3.3V4.1H41V5.2z"/>
	<path class="st1" d="M56.8,10.2c0,0.5-0.1,1.1-0.2,1.5s-0.4,0.9-0.6,1.3c-0.3,0.4-0.7,0.7-1.2,0.9c-0.5,0.2-1.1,0.3-1.7,0.3
		c-0.7,0-1.3-0.1-1.7-0.3c-0.5-0.2-0.9-0.5-1.2-0.9c-0.3-0.4-0.5-0.8-0.6-1.3s-0.2-1-0.2-1.5V4.1h1.2v6c0,0.4,0,0.8,0.1,1.2
		c0.1,0.4,0.2,0.7,0.4,1c0.2,0.3,0.5,0.5,0.8,0.7s0.7,0.3,1.2,0.3c0.5,0,0.9-0.1,1.2-0.3c0.3-0.2,0.6-0.4,0.8-0.7
		c0.2-0.3,0.3-0.6,0.4-1c0.1-0.4,0.1-0.8,0.1-1.2v-6h1.2V10.2z"/>
	<path class="st1" d="M66,4.1h3.8c0.3,0,0.7,0,1,0.1c0.4,0.1,0.7,0.2,1.1,0.4c0.4,0.2,0.7,0.4,1,0.6c0.3,0.3,0.6,0.6,0.9,0.9
		c0.3,0.4,0.5,0.8,0.6,1.3s0.2,1,0.2,1.6s-0.1,1.2-0.2,1.6c-0.1,0.5-0.4,0.9-0.6,1.3c-0.3,0.4-0.5,0.7-0.9,0.9
		c-0.3,0.3-0.7,0.5-1,0.6s-0.7,0.3-1.1,0.4c-0.4,0.1-0.7,0.1-1,0.1H66V4.1z M67.2,12.9h2.2c0.6,0,1.1-0.1,1.6-0.2
		c0.5-0.1,0.9-0.4,1.3-0.7c0.4-0.3,0.6-0.7,0.8-1.2s0.3-1.1,0.3-1.8c0-0.7-0.1-1.3-0.3-1.8s-0.5-0.9-0.8-1.2
		c-0.4-0.3-0.8-0.5-1.3-0.7s-1-0.2-1.6-0.2h-2.2V12.9z"/>
	<path class="st1" d="M83.6,4.1h1.2V14h-1.2V4.1z"/>
	<path class="st1" d="M98.8,14.3c-0.8,0-1.4-0.1-2.1-0.4c-0.6-0.3-1.2-0.6-1.6-1.1c-0.5-0.5-0.8-1-1.1-1.7c-0.3-0.6-0.4-1.3-0.4-2.1
		c0-0.7,0.1-1.4,0.4-2.1c0.3-0.6,0.6-1.2,1.1-1.7c0.5-0.5,1-0.8,1.6-1.1c0.6-0.3,1.3-0.4,2.1-0.4s1.4,0.1,2.1,0.4
		c0.6,0.3,1.2,0.6,1.6,1.1c0.5,0.5,0.8,1,1.1,1.7c0.3,0.6,0.4,1.3,0.4,2.1c0,0.7-0.1,1.4-0.4,2.1c-0.3,0.6-0.6,1.2-1.1,1.7
		c-0.5,0.5-1,0.8-1.6,1.1C100.3,14.1,99.6,14.3,98.8,14.3z M98.8,13.2c0.6,0,1.1-0.1,1.6-0.3c0.5-0.2,0.9-0.5,1.2-0.9
		c0.3-0.4,0.6-0.8,0.8-1.3c0.2-0.5,0.3-1,0.3-1.6s-0.1-1.1-0.3-1.6c-0.2-0.5-0.5-0.9-0.8-1.3c-0.3-0.4-0.8-0.7-1.2-0.9
		c-0.5-0.2-1-0.3-1.6-0.3c-0.6,0-1.1,0.1-1.6,0.3S96.3,5.8,96,6.1c-0.3,0.4-0.6,0.8-0.8,1.3c-0.2,0.5-0.3,1-0.3,1.6s0.1,1.1,0.3,1.6
		c0.2,0.5,0.5,0.9,0.8,1.3c0.3,0.4,0.8,0.7,1.2,0.9S98.3,13.2,98.8,13.2z"/>
</g>
<g class="st0">
	<path class="st1" d="M10.4,30.6l-5.1,4.5l-3.1-3.5l8.3-7h5V50h-5.2V30.6z"/>
</g>
<g class="st0">
	<path class="st1" d="M52.8,42.1l-6.9-10.6h5l3.9,6.9l4.1-6.9h4.8l-6.9,10.6V50h-4.1V42.1z"/>
</g>
<g class="st0">
	<path class="st1" d="M88,44.3l9.9-8.9c0.5-0.5,1-1,1.5-1.5c0.5-0.6,0.8-1.2,0.8-2c0-0.9-0.3-1.5-0.9-2S97.9,29,97.1,29
		c-1,0-1.8,0.3-2.4,0.9c-0.6,0.6-0.9,1.4-1,2.3l-5.4-0.4c0.1-1.3,0.3-2.5,0.8-3.4s1.1-1.8,1.9-2.4c0.8-0.6,1.7-1.1,2.8-1.5
		c1.1-0.3,2.2-0.5,3.5-0.5c1.2,0,2.2,0.2,3.2,0.5c1,0.3,1.9,0.8,2.6,1.4c0.7,0.6,1.3,1.4,1.7,2.4s0.6,2.1,0.6,3.3
		c0,0.8-0.1,1.6-0.3,2.2s-0.4,1.3-0.7,1.8s-0.7,1-1.1,1.5c-0.4,0.5-0.9,0.9-1.3,1.3l-7.7,6.7h11.3V50H88V44.3z"/>
</g>
<g class="st0">
	<path class="st1" d="M4,61.7h3.8c0.3,0,0.7,0,1,0.1c0.4,0.1,0.7,0.2,1.1,0.4c0.4,0.2,0.7,0.4,1,0.6c0.3,0.3,0.6,0.6,0.9,0.9
		c0.3,0.4,0.5,0.8,0.6,1.3c0.1,0.5,0.2,1,0.2,1.6s-0.1,1.2-0.2,1.6c-0.1,0.5-0.4,0.9-0.6,1.3c-0.3,0.4-0.5,0.7-0.9,0.9
		c-0.3,0.3-0.7,0.5-1,0.6s-0.7,0.3-1.1,0.4c-0.4,0.1-0.7,0.1-1,0.1H4V61.7z M5.2,70.5h2.2c0.6,0,1.1-0.1,1.6-0.2
		c0.5-0.1,0.9-0.4,1.3-0.7c0.4-0.3,0.6-0.7,0.8-1.2c0.2-0.5,0.3-1.1,0.3-1.8c0-0.7-0.1-1.3-0.3-1.8c-0.2-0.5-0.5-0.9-0.8-1.2
		C10,63.4,9.5,63.2,9,63s-1-0.2-1.6-0.2H5.2V70.5z"/>
	<path class="st1" d="M19.8,71.8c-0.8,0-1.4-0.1-2.1-0.4c-0.6-0.3-1.2-0.6-1.6-1.1s-0.8-1-1.1-1.7s-0.4-1.3-0.4-2.1
		c0-0.7,0.1-1.4,0.4-2.1c0.3-0.6,0.6-1.2,1.1-1.7c0.5-0.5,1-0.8,1.6-1.1c0.6-0.3,1.3-0.4,2.1-0.4c0.8,0,1.4,0.1,2.1,0.4
		c0.6,0.3,1.2,0.6,1.6,1.1c0.5,0.5,0.8,1,1.1,1.7c0.3,0.6,0.4,1.3,0.4,2.1c0,0.7-0.1,1.4-0.4,2.1s-0.6,1.2-1.1,1.7
		c-0.5,0.5-1,0.8-1.6,1.1C21.2,71.7,20.5,71.8,19.8,71.8z M19.8,70.8c0.6,0,1.1-0.1,1.6-0.3c0.5-0.2,0.9-0.5,1.2-0.9
		s0.6-0.8,0.8-1.3c0.2-0.5,0.3-1,0.3-1.6s-0.1-1.1-0.3-1.6c-0.2-0.5-0.5-0.9-0.8-1.3c-0.3-0.4-0.8-0.7-1.2-0.9
		c-0.5-0.2-1-0.3-1.6-0.3s-1.1,0.1-1.6,0.3c-0.5,0.2-0.9,0.5-1.2,0.9c-0.3,0.4-0.6,0.8-0.8,1.3c-0.2,0.5-0.3,1-0.3,1.6
		s0.1,1.1,0.3,1.6c0.2,0.5,0.5,0.9,0.8,1.3s0.8,0.7,1.2,0.9C18.7,70.7,19.2,70.8,19.8,70.8z"/>
	<path class="st1" d="M27.4,61.7h2.5c0.5,0,0.9,0,1.4,0.1s0.9,0.2,1.3,0.4c0.4,0.2,0.7,0.5,0.9,0.8s0.4,0.8,0.4,1.5
		c0,0.7-0.2,1.3-0.7,1.8c-0.4,0.4-1,0.7-1.8,0.9l2.8,4.6h-1.4l-2.7-4.5h-1.5v4.5h-1.2V61.7z M28.6,66.1h1c0.3,0,0.7,0,1,0
		c0.4,0,0.7-0.1,1-0.2s0.5-0.3,0.7-0.5c0.2-0.2,0.3-0.5,0.3-0.9c0-0.4-0.1-0.6-0.2-0.9c-0.1-0.2-0.3-0.4-0.6-0.5
		c-0.2-0.1-0.5-0.2-0.8-0.2s-0.6-0.1-0.9-0.1h-1.7V66.1z"/>
	<path class="st1" d="M36.5,61.7h1.8l3.4,7.8h0l3.4-7.8h1.7v9.9h-1.2v-8.3h0L42,71.6h-0.7l-3.6-8.3h0v8.3h-1.2V61.7z"/>
	<path class="st1" d="M49.8,61.7H51v9.9h-1.2V61.7z"/>
	<path class="st1" d="M60.6,62.8h-3.3v8.8h-1.2v-8.8h-3.3v-1.1h7.7V62.8z"/>
	<path class="st1" d="M67.2,71.8c-0.8,0-1.4-0.1-2.1-0.4c-0.6-0.3-1.2-0.6-1.6-1.1c-0.5-0.5-0.8-1-1.1-1.7c-0.3-0.6-0.4-1.3-0.4-2.1
		c0-0.7,0.1-1.4,0.4-2.1c0.3-0.6,0.6-1.2,1.1-1.7c0.5-0.5,1-0.8,1.6-1.1c0.6-0.3,1.3-0.4,2.1-0.4s1.4,0.1,2.1,0.4
		c0.6,0.3,1.2,0.6,1.6,1.1c0.5,0.5,0.8,1,1.1,1.7c0.3,0.6,0.4,1.3,0.4,2.1c0,0.7-0.1,1.4-0.4,2.1c-0.3,0.6-0.6,1.2-1.1,1.7
		c-0.5,0.5-1,0.8-1.6,1.1C68.6,71.7,67.9,71.8,67.2,71.8z M67.2,70.8c0.6,0,1.1-0.1,1.6-0.3c0.5-0.2,0.9-0.5,1.2-0.9
		c0.3-0.4,0.6-0.8,0.8-1.3c0.2-0.5,0.3-1,0.3-1.6S71,65.5,70.8,65c-0.2-0.5-0.5-0.9-0.8-1.3c-0.3-0.4-0.8-0.7-1.2-0.9
		c-0.5-0.2-1-0.3-1.6-0.3c-0.6,0-1.1,0.1-1.6,0.3s-0.9,0.5-1.2,0.9c-0.3,0.4-0.6,0.8-0.8,1.3c-0.2,0.5-0.3,1-0.3,1.6
		s0.1,1.1,0.3,1.6c0.2,0.5,0.5,0.9,0.8,1.3c0.3,0.4,0.8,0.7,1.2,0.9S66.6,70.8,67.2,70.8z"/>
	<path class="st1" d="M74.8,61.7h2.5c0.5,0,0.9,0,1.4,0.1s0.9,0.2,1.3,0.4s0.7,0.5,0.9,0.8s0.3,0.8,0.3,1.5c0,0.7-0.2,1.3-0.7,1.8
		s-1,0.7-1.8,0.9l2.8,4.6h-1.4l-2.7-4.5H76v4.5h-1.2V61.7z M76,66.1h1c0.3,0,0.7,0,1,0c0.3,0,0.7-0.1,1-0.2s0.5-0.3,0.7-0.5
		c0.2-0.2,0.3-0.5,0.3-0.9c0-0.4-0.1-0.6-0.2-0.9c-0.1-0.2-0.3-0.4-0.6-0.5c-0.2-0.1-0.5-0.2-0.8-0.2c-0.3,0-0.6-0.1-0.9-0.1H76
		V66.1z"/>
	<path class="st1" d="M83.9,61.7h1.2v9.9h-1.2V61.7z"/>
	<path class="st1" d="M92.7,71.8c-0.8,0-1.4-0.1-2.1-0.4c-0.6-0.3-1.2-0.6-1.6-1.1c-0.5-0.5-0.8-1-1.1-1.7c-0.3-0.6-0.4-1.3-0.4-2.1
		c0-0.7,0.1-1.4,0.4-2.1c0.3-0.6,0.6-1.2,1.1-1.7c0.5-0.5,1-0.8,1.6-1.1c0.6-0.3,1.3-0.4,2.1-0.4c0.8,0,1.4,0.1,2.1,0.4
		c0.6,0.3,1.2,0.6,1.6,1.1c0.5,0.5,0.8,1,1.1,1.7c0.3,0.6,0.4,1.3,0.4,2.1c0,0.7-0.1,1.4-0.4,2.1c-0.3,0.6-0.6,1.2-1.1,1.7
		s-1,0.8-1.6,1.1C94.2,71.7,93.5,71.8,92.7,71.8z M92.7,70.8c0.6,0,1.1-0.1,1.6-0.3s0.9-0.5,1.2-0.9c0.3-0.4,0.6-0.8,0.8-1.3
		c0.2-0.5,0.3-1,0.3-1.6s-0.1-1.1-0.3-1.6c-0.2-0.5-0.5-0.9-0.8-1.3c-0.3-0.4-0.8-0.7-1.2-0.9s-1-0.3-1.6-0.3
		c-0.6,0-1.1,0.1-1.6,0.3c-0.5,0.2-0.9,0.5-1.2,0.9c-0.3,0.4-0.6,0.8-0.8,1.3c-0.2,0.5-0.3,1-0.3,1.6s0.1,1.1,0.3,1.6
		c0.2,0.5,0.5,0.9,0.8,1.3c0.3,0.4,0.8,0.7,1.2,0.9C91.6,70.7,92.1,70.8,92.7,70.8z"/>
	<path class="st1" d="M105.1,63.4c-0.2-0.3-0.5-0.5-0.8-0.7c-0.3-0.1-0.7-0.2-1-0.2c-0.3,0-0.5,0-0.8,0.1s-0.5,0.2-0.7,0.3
		s-0.4,0.3-0.5,0.5c-0.1,0.2-0.2,0.5-0.2,0.8c0,0.2,0,0.4,0.1,0.6c0.1,0.2,0.2,0.3,0.3,0.5c0.2,0.1,0.4,0.3,0.6,0.4
		c0.3,0.1,0.6,0.2,1,0.4c0.4,0.1,0.8,0.3,1.1,0.4c0.4,0.1,0.7,0.3,1,0.5s0.5,0.5,0.7,0.8c0.2,0.3,0.2,0.7,0.2,1.2
		c0,0.5-0.1,0.9-0.3,1.3c-0.2,0.4-0.5,0.7-0.8,0.9c-0.3,0.2-0.7,0.4-1.1,0.5c-0.4,0.1-0.9,0.2-1.3,0.2c-0.3,0-0.6,0-0.9-0.1
		c-0.3-0.1-0.6-0.1-0.8-0.2c-0.3-0.1-0.5-0.2-0.7-0.4c-0.2-0.2-0.4-0.4-0.6-0.6l1-0.8c0.2,0.4,0.5,0.6,0.9,0.8
		c0.4,0.2,0.8,0.3,1.2,0.3c0.3,0,0.5,0,0.8-0.1c0.3-0.1,0.5-0.2,0.7-0.3c0.2-0.1,0.4-0.3,0.5-0.5c0.1-0.2,0.2-0.5,0.2-0.7
		c0-0.3-0.1-0.6-0.2-0.7c-0.1-0.2-0.3-0.4-0.5-0.5c-0.2-0.1-0.5-0.3-0.8-0.4c-0.3-0.1-0.7-0.2-1.1-0.4c-0.4-0.1-0.7-0.2-1-0.4
		s-0.6-0.3-0.8-0.5c-0.2-0.2-0.4-0.5-0.5-0.8s-0.2-0.6-0.2-1.1c0-0.5,0.1-0.9,0.3-1.2c0.2-0.4,0.4-0.7,0.8-0.9
		c0.3-0.2,0.7-0.4,1.1-0.5c0.4-0.1,0.8-0.2,1.3-0.2c0.6,0,1.1,0.1,1.5,0.3c0.5,0.2,0.9,0.5,1.2,0.9L105.1,63.4z"/>
</g>
</svg>
