<?xml version="1.0" encoding="utf-8"?>
<!-- Generator: Adobe Illustrator 24.3.0, SVG Export Plug-In . SVG Version: 6.00 Build 0)  -->
<svg version="1.1" id="Layer_1" xmlns="http://www.w3.org/2000/svg" xmlns:xlink="http://www.w3.org/1999/xlink" x="0px" y="0px"
	 viewBox="0 0 115 76.6" style="enable-background:new 0 0 115 76.6;" xml:space="preserve">
<style type="text/css">
	.st0{enable-background:new    ;}
	.st1{fill:#3C3C3C;}
</style>
<g class="st0">
	<path class="st1" d="M6.7,4.1h6.2v1.1H7.8v3.1h4.7v1.1H7.8v3.5h5.3V14H6.7V4.1z"/>
	<path class="st1" d="M26.7,5.8c-0.2-0.3-0.5-0.5-0.8-0.7c-0.3-0.1-0.7-0.2-1-0.2c-0.3,0-0.5,0-0.8,0.1s-0.5,0.2-0.7,0.3
		c-0.2,0.1-0.4,0.3-0.5,0.5c-0.1,0.2-0.2,0.5-0.2,0.8c0,0.2,0,0.4,0.1,0.6c0.1,0.2,0.2,0.3,0.3,0.5c0.2,0.1,0.4,0.3,0.6,0.4
		c0.3,0.1,0.6,0.2,1,0.4c0.4,0.1,0.8,0.3,1.1,0.4c0.4,0.1,0.7,0.3,1,0.5s0.5,0.5,0.7,0.8c0.2,0.3,0.2,0.7,0.2,1.2
		c0,0.5-0.1,0.9-0.3,1.3c-0.2,0.4-0.5,0.7-0.8,0.9c-0.3,0.2-0.7,0.4-1.1,0.5c-0.4,0.1-0.9,0.2-1.3,0.2c-0.3,0-0.6,0-0.9-0.1
		c-0.3-0.1-0.6-0.1-0.8-0.2c-0.3-0.1-0.5-0.2-0.7-0.4c-0.2-0.2-0.4-0.4-0.6-0.6l1-0.8c0.2,0.4,0.5,0.6,0.9,0.8
		c0.4,0.2,0.8,0.3,1.2,0.3c0.3,0,0.5,0,0.8-0.1c0.3-0.1,0.5-0.2,0.7-0.3c0.2-0.1,0.4-0.3,0.5-0.5c0.1-0.2,0.2-0.5,0.2-0.7
		c0-0.3-0.1-0.6-0.2-0.7c-0.1-0.2-0.3-0.4-0.5-0.5c-0.2-0.1-0.5-0.3-0.8-0.4c-0.3-0.1-0.7-0.2-1.1-0.4c-0.4-0.1-0.7-0.2-1-0.4
		c-0.3-0.1-0.6-0.3-0.8-0.5S21.8,8,21.7,7.7s-0.2-0.6-0.2-1.1c0-0.5,0.1-0.9,0.3-1.2c0.2-0.4,0.4-0.7,0.8-0.9
		c0.3-0.2,0.7-0.4,1.1-0.5c0.4-0.1,0.8-0.2,1.3-0.2c0.6,0,1.1,0.1,1.5,0.3c0.5,0.2,0.9,0.5,1.2,0.9L26.7,5.8z"/>
	<path class="st1" d="M43.4,5.2h-3.3V14H39V5.2h-3.3V4.1h7.7V5.2z"/>
	<path class="st1" d="M59.2,10.2c0,0.5-0.1,1.1-0.2,1.5s-0.4,0.9-0.6,1.3c-0.3,0.4-0.7,0.7-1.2,0.9c-0.5,0.2-1.1,0.3-1.7,0.3
		c-0.7,0-1.3-0.1-1.7-0.3c-0.5-0.2-0.9-0.5-1.2-0.9c-0.3-0.4-0.5-0.8-0.6-1.3s-0.2-1-0.2-1.5V4.1h1.2v6c0,0.4,0,0.8,0.1,1.2
		c0.1,0.4,0.2,0.7,0.4,1c0.2,0.3,0.5,0.5,0.8,0.7s0.7,0.3,1.2,0.3c0.5,0,0.9-0.1,1.2-0.3c0.3-0.2,0.6-0.4,0.8-0.7
		c0.2-0.3,0.3-0.6,0.4-1c0.1-0.4,0.1-0.8,0.1-1.2v-6h1.2V10.2z"/>
	<path class="st1" d="M68.5,4.1h3.8c0.3,0,0.7,0,1,0.1c0.4,0.1,0.7,0.2,1.1,0.4c0.4,0.2,0.7,0.4,1,0.6c0.3,0.3,0.6,0.6,0.9,0.9
		c0.3,0.4,0.5,0.8,0.6,1.3s0.2,1,0.2,1.6s-0.1,1.2-0.2,1.6c-0.1,0.5-0.4,0.9-0.6,1.3c-0.3,0.4-0.5,0.7-0.9,0.9
		c-0.3,0.3-0.7,0.5-1,0.6s-0.7,0.3-1.1,0.4c-0.4,0.1-0.7,0.1-1,0.1h-3.8V4.1z M69.6,12.9h2.2c0.6,0,1.1-0.1,1.6-0.2
		c0.5-0.1,0.9-0.4,1.3-0.7c0.4-0.3,0.6-0.7,0.8-1.2s0.3-1.1,0.3-1.8c0-0.7-0.1-1.3-0.3-1.8s-0.5-0.9-0.8-1.2
		c-0.4-0.3-0.8-0.5-1.3-0.7s-1-0.2-1.6-0.2h-2.2V12.9z"/>
	<path class="st1" d="M86,4.1h1.2V14H86V4.1z"/>
	<path class="st1" d="M101.3,14.3c-0.8,0-1.4-0.1-2.1-0.4c-0.6-0.3-1.2-0.6-1.6-1.1c-0.5-0.5-0.8-1-1.1-1.7
		c-0.3-0.6-0.4-1.3-0.4-2.1c0-0.7,0.1-1.4,0.4-2.1c0.3-0.6,0.6-1.2,1.1-1.7c0.5-0.5,1-0.8,1.6-1.1c0.6-0.3,1.3-0.4,2.1-0.4
		s1.4,0.1,2.1,0.4c0.6,0.3,1.2,0.6,1.6,1.1c0.5,0.5,0.8,1,1.1,1.7c0.3,0.6,0.4,1.3,0.4,2.1c0,0.7-0.1,1.4-0.4,2.1
		c-0.3,0.6-0.6,1.2-1.1,1.7c-0.5,0.5-1,0.8-1.6,1.1C102.7,14.1,102,14.3,101.3,14.3z M101.3,13.2c0.6,0,1.1-0.1,1.6-0.3
		c0.5-0.2,0.9-0.5,1.2-0.9c0.3-0.4,0.6-0.8,0.8-1.3c0.2-0.5,0.3-1,0.3-1.6s-0.1-1.1-0.3-1.6c-0.2-0.5-0.5-0.9-0.8-1.3
		c-0.3-0.4-0.8-0.7-1.2-0.9c-0.5-0.2-1-0.3-1.6-0.3c-0.6,0-1.1,0.1-1.6,0.3s-0.9,0.5-1.2,0.9c-0.3,0.4-0.6,0.8-0.8,1.3
		c-0.2,0.5-0.3,1-0.3,1.6s0.1,1.1,0.3,1.6c0.2,0.5,0.5,0.9,0.8,1.3c0.3,0.4,0.8,0.7,1.2,0.9S100.7,13.2,101.3,13.2z"/>
</g>
<g class="st0">
	<path class="st1" d="M13.8,30.6l-5.1,4.5l-3.1-3.5l8.3-7h5V50h-5.2V30.6z"/>
	<path class="st1" d="M33.2,44.2h5.2l-3.2,10.2h-4.6L33.2,44.2z"/>
	<path class="st1" d="M47.5,44.3l9.9-8.9c0.5-0.5,1-1,1.5-1.5c0.5-0.6,0.8-1.2,0.8-2c0-0.9-0.3-1.5-0.9-2c-0.6-0.5-1.4-0.7-2.2-0.7
		c-1,0-1.8,0.3-2.4,0.9s-0.9,1.4-1,2.3l-5.4-0.4c0.1-1.3,0.3-2.5,0.8-3.4c0.5-1,1.1-1.8,1.9-2.4c0.8-0.6,1.7-1.1,2.8-1.5
		c1.1-0.3,2.2-0.5,3.5-0.5c1.2,0,2.2,0.2,3.2,0.5c1,0.3,1.9,0.8,2.6,1.4c0.7,0.6,1.3,1.4,1.7,2.4s0.6,2.1,0.6,3.3
		c0,0.8-0.1,1.6-0.3,2.2c-0.2,0.7-0.4,1.3-0.7,1.8c-0.3,0.5-0.7,1-1.1,1.5c-0.4,0.5-0.9,0.9-1.3,1.3L54,45.2h11.3V50H47.5V44.3z"/>
	<path class="st1" d="M75.5,44.2h5.2l-3.2,10.2h-4.6L75.5,44.2z"/>
	<path class="st1" d="M95.8,34.6h1.8c0.5,0,1,0,1.5-0.1c0.5-0.1,0.9-0.2,1.3-0.4s0.7-0.5,1-0.9c0.2-0.4,0.4-0.9,0.4-1.5
		c0-0.8-0.3-1.4-0.9-1.9c-0.6-0.5-1.4-0.8-2.2-0.8c-0.8,0-1.5,0.2-2.1,0.7s-0.9,1-1.1,1.7l-5.9-1.2c0.3-1.1,0.7-2,1.3-2.8
		c0.6-0.8,1.3-1.4,2.1-1.9s1.7-0.8,2.6-1.1c1-0.2,2-0.3,3.1-0.3c1.1,0,2.2,0.1,3.3,0.4c1,0.3,2,0.7,2.8,1.3s1.4,1.3,1.9,2.2
		c0.5,0.9,0.7,1.9,0.7,3.2c0,1.4-0.4,2.6-1.1,3.6c-0.7,1-1.8,1.7-3.2,1.9v0.1c0.8,0.1,1.4,0.3,2,0.7s1.1,0.8,1.5,1.3
		c0.4,0.5,0.7,1.1,0.9,1.8c0.2,0.7,0.3,1.4,0.3,2.1c0,1.3-0.2,2.4-0.7,3.3s-1.2,1.8-2,2.4c-0.8,0.6-1.8,1.1-2.9,1.4
		s-2.3,0.5-3.5,0.5c-2.3,0-4.2-0.5-5.9-1.6c-1.6-1.1-2.7-2.7-3.3-5l5.7-1.3c0.2,0.9,0.6,1.6,1.2,2.2c0.6,0.5,1.5,0.8,2.6,0.8
		c1.2,0,2-0.3,2.6-0.9c0.6-0.6,0.8-1.4,0.8-2.4c0-0.7-0.2-1.3-0.5-1.7c-0.3-0.4-0.7-0.7-1.2-0.9c-0.5-0.2-1-0.3-1.6-0.3
		c-0.6,0-1.2-0.1-1.8-0.1h-1.3V34.6z"/>
</g>
<g class="st0">
	<path class="st1" d="M5.5,61.7h3.8c0.3,0,0.7,0,1,0.1c0.4,0.1,0.7,0.2,1.1,0.4c0.4,0.2,0.7,0.4,1,0.6c0.3,0.3,0.6,0.6,0.9,0.9
		c0.3,0.4,0.5,0.8,0.6,1.3c0.1,0.5,0.2,1,0.2,1.6s-0.1,1.2-0.2,1.6c-0.1,0.5-0.4,0.9-0.6,1.3c-0.3,0.4-0.5,0.7-0.9,0.9
		c-0.3,0.3-0.7,0.5-1,0.6s-0.7,0.3-1.1,0.4c-0.4,0.1-0.7,0.1-1,0.1H5.5V61.7z M6.7,70.5h2.2c0.6,0,1.1-0.1,1.6-0.2
		c0.5-0.1,0.9-0.4,1.3-0.7c0.4-0.3,0.6-0.7,0.8-1.2c0.2-0.5,0.3-1.1,0.3-1.8c0-0.7-0.1-1.3-0.3-1.8c-0.2-0.5-0.5-0.9-0.8-1.2
		c-0.4-0.3-0.8-0.5-1.3-0.7s-1-0.2-1.6-0.2H6.7V70.5z"/>
	<path class="st1" d="M21.2,71.8c-0.8,0-1.4-0.1-2.1-0.4c-0.6-0.3-1.2-0.6-1.6-1.1s-0.8-1-1.1-1.7S16,67.4,16,66.6
		c0-0.7,0.1-1.4,0.4-2.1c0.3-0.6,0.6-1.2,1.1-1.7c0.5-0.5,1-0.8,1.6-1.1c0.6-0.3,1.3-0.4,2.1-0.4c0.8,0,1.4,0.1,2.1,0.4
		c0.6,0.3,1.2,0.6,1.6,1.1c0.5,0.5,0.8,1,1.1,1.7c0.3,0.6,0.4,1.3,0.4,2.1c0,0.7-0.1,1.4-0.4,2.1s-0.6,1.2-1.1,1.7
		c-0.5,0.5-1,0.8-1.6,1.1C22.7,71.7,22,71.8,21.2,71.8z M21.2,70.8c0.6,0,1.1-0.1,1.6-0.3c0.5-0.2,0.9-0.5,1.2-0.9s0.6-0.8,0.8-1.3
		c0.2-0.5,0.3-1,0.3-1.6S25,65.5,24.8,65c-0.2-0.5-0.5-0.9-0.8-1.3c-0.3-0.4-0.8-0.7-1.2-0.9c-0.5-0.2-1-0.3-1.6-0.3
		s-1.1,0.1-1.6,0.3c-0.5,0.2-0.9,0.5-1.2,0.9c-0.3,0.4-0.6,0.8-0.8,1.3c-0.2,0.5-0.3,1-0.3,1.6s0.1,1.1,0.3,1.6
		c0.2,0.5,0.5,0.9,0.8,1.3s0.8,0.7,1.2,0.9C20.1,70.7,20.6,70.8,21.2,70.8z"/>
	<path class="st1" d="M28.8,61.7h2.5c0.5,0,0.9,0,1.4,0.1s0.9,0.2,1.3,0.4c0.4,0.2,0.7,0.5,0.9,0.8s0.4,0.8,0.4,1.5
		c0,0.7-0.2,1.3-0.7,1.8c-0.4,0.4-1,0.7-1.8,0.9l2.8,4.6h-1.4l-2.7-4.5H30v4.5h-1.2V61.7z M30,66.1h1c0.3,0,0.7,0,1,0
		c0.4,0,0.7-0.1,1-0.2s0.5-0.3,0.7-0.5c0.2-0.2,0.3-0.5,0.3-0.9c0-0.4-0.1-0.6-0.2-0.9c-0.1-0.2-0.3-0.4-0.6-0.5
		c-0.2-0.1-0.5-0.2-0.8-0.2s-0.6-0.1-0.9-0.1H30V66.1z"/>
	<path class="st1" d="M38,61.7h1.8l3.4,7.8h0l3.4-7.8h1.7v9.9H47v-8.3h0l-3.6,8.3h-0.7l-3.6-8.3h0v8.3H38V61.7z"/>
	<path class="st1" d="M51.2,61.7h1.2v9.9h-1.2V61.7z"/>
	<path class="st1" d="M62.1,62.8h-3.3v8.8h-1.2v-8.8h-3.3v-1.1h7.7V62.8z"/>
	<path class="st1" d="M68.6,71.8c-0.8,0-1.4-0.1-2.1-0.4c-0.6-0.3-1.2-0.6-1.6-1.1c-0.5-0.5-0.8-1-1.1-1.7c-0.3-0.6-0.4-1.3-0.4-2.1
		c0-0.7,0.1-1.4,0.4-2.1c0.3-0.6,0.6-1.2,1.1-1.7c0.5-0.5,1-0.8,1.6-1.1c0.6-0.3,1.3-0.4,2.1-0.4s1.4,0.1,2.1,0.4
		c0.6,0.3,1.2,0.6,1.6,1.1c0.5,0.5,0.8,1,1.1,1.7c0.3,0.6,0.4,1.3,0.4,2.1c0,0.7-0.1,1.4-0.4,2.1c-0.3,0.6-0.6,1.2-1.1,1.7
		c-0.5,0.5-1,0.8-1.6,1.1C70.1,71.7,69.4,71.8,68.6,71.8z M68.6,70.8c0.6,0,1.1-0.1,1.6-0.3c0.5-0.2,0.9-0.5,1.2-0.9
		c0.3-0.4,0.6-0.8,0.8-1.3c0.2-0.5,0.3-1,0.3-1.6s-0.1-1.1-0.3-1.6c-0.2-0.5-0.5-0.9-0.8-1.3c-0.3-0.4-0.8-0.7-1.2-0.9
		c-0.5-0.2-1-0.3-1.6-0.3c-0.6,0-1.1,0.1-1.6,0.3s-0.9,0.5-1.2,0.9c-0.3,0.4-0.6,0.8-0.8,1.3c-0.2,0.5-0.3,1-0.3,1.6
		s0.1,1.1,0.3,1.6c0.2,0.5,0.5,0.9,0.8,1.3c0.3,0.4,0.8,0.7,1.2,0.9S68,70.8,68.6,70.8z"/>
	<path class="st1" d="M76.2,61.7h2.5c0.5,0,0.9,0,1.4,0.1s0.9,0.2,1.3,0.4s0.7,0.5,0.9,0.8s0.3,0.8,0.3,1.5c0,0.7-0.2,1.3-0.7,1.8
		s-1,0.7-1.8,0.9l2.8,4.6h-1.4l-2.7-4.5h-1.5v4.5h-1.2V61.7z M77.4,66.1h1c0.3,0,0.7,0,1,0c0.3,0,0.7-0.1,1-0.2s0.5-0.3,0.7-0.5
		c0.2-0.2,0.3-0.5,0.3-0.9c0-0.4-0.1-0.6-0.2-0.9c-0.1-0.2-0.3-0.4-0.6-0.5c-0.2-0.1-0.5-0.2-0.8-0.2c-0.3,0-0.6-0.1-0.9-0.1h-1.7
		V66.1z"/>
	<path class="st1" d="M85.4,61.7h1.2v9.9h-1.2V61.7z"/>
	<path class="st1" d="M94.2,71.8c-0.8,0-1.4-0.1-2.1-0.4c-0.6-0.3-1.2-0.6-1.6-1.1c-0.5-0.5-0.8-1-1.1-1.7c-0.3-0.6-0.4-1.3-0.4-2.1
		c0-0.7,0.1-1.4,0.4-2.1c0.3-0.6,0.6-1.2,1.1-1.7c0.5-0.5,1-0.8,1.6-1.1c0.6-0.3,1.3-0.4,2.1-0.4c0.8,0,1.4,0.1,2.1,0.4
		c0.6,0.3,1.2,0.6,1.6,1.1c0.5,0.5,0.8,1,1.1,1.7c0.3,0.6,0.4,1.3,0.4,2.1c0,0.7-0.1,1.4-0.4,2.1c-0.3,0.6-0.6,1.2-1.1,1.7
		s-1,0.8-1.6,1.1C95.6,71.7,94.9,71.8,94.2,71.8z M94.2,70.8c0.6,0,1.1-0.1,1.6-0.3s0.9-0.5,1.2-0.9c0.3-0.4,0.6-0.8,0.8-1.3
		c0.2-0.5,0.3-1,0.3-1.6S98,65.5,97.8,65c-0.2-0.5-0.5-0.9-0.8-1.3c-0.3-0.4-0.8-0.7-1.2-0.9s-1-0.3-1.6-0.3c-0.6,0-1.1,0.1-1.6,0.3
		c-0.5,0.2-0.9,0.5-1.2,0.9c-0.3,0.4-0.6,0.8-0.8,1.3c-0.2,0.5-0.3,1-0.3,1.6s0.1,1.1,0.3,1.6c0.2,0.5,0.5,0.9,0.8,1.3
		c0.3,0.4,0.8,0.7,1.2,0.9C93.1,70.7,93.6,70.8,94.2,70.8z"/>
	<path class="st1" d="M106.5,63.4c-0.2-0.3-0.5-0.5-0.8-0.7c-0.3-0.1-0.7-0.2-1-0.2c-0.3,0-0.5,0-0.8,0.1s-0.5,0.2-0.7,0.3
		s-0.4,0.3-0.5,0.5c-0.1,0.2-0.2,0.5-0.2,0.8c0,0.2,0,0.4,0.1,0.6c0.1,0.2,0.2,0.3,0.3,0.5c0.2,0.1,0.4,0.3,0.6,0.4
		c0.3,0.1,0.6,0.2,1,0.4c0.4,0.1,0.8,0.3,1.1,0.4c0.4,0.1,0.7,0.3,1,0.5s0.5,0.5,0.7,0.8c0.2,0.3,0.2,0.7,0.2,1.2
		c0,0.5-0.1,0.9-0.3,1.3c-0.2,0.4-0.5,0.7-0.8,0.9c-0.3,0.2-0.7,0.4-1.1,0.5c-0.4,0.1-0.9,0.2-1.3,0.2c-0.3,0-0.6,0-0.9-0.1
		c-0.3-0.1-0.6-0.1-0.8-0.2c-0.3-0.1-0.5-0.2-0.7-0.4c-0.2-0.2-0.4-0.4-0.6-0.6l1-0.8c0.2,0.4,0.5,0.6,0.9,0.8
		c0.4,0.2,0.8,0.3,1.2,0.3c0.3,0,0.5,0,0.8-0.1c0.3-0.1,0.5-0.2,0.7-0.3c0.2-0.1,0.4-0.3,0.5-0.5c0.1-0.2,0.2-0.5,0.2-0.7
		c0-0.3-0.1-0.6-0.2-0.7c-0.1-0.2-0.3-0.4-0.5-0.5c-0.2-0.1-0.5-0.3-0.8-0.4c-0.3-0.1-0.7-0.2-1.1-0.4c-0.4-0.1-0.7-0.2-1-0.4
		s-0.6-0.3-0.8-0.5c-0.2-0.2-0.4-0.5-0.5-0.8s-0.2-0.6-0.2-1.1c0-0.5,0.1-0.9,0.3-1.2c0.2-0.4,0.4-0.7,0.8-0.9
		c0.3-0.2,0.7-0.4,1.1-0.5c0.4-0.1,0.8-0.2,1.3-0.2c0.6,0,1.1,0.1,1.5,0.3c0.5,0.2,0.9,0.5,1.2,0.9L106.5,63.4z"/>
</g>
</svg>
