<?xml version="1.0" encoding="utf-8"?>
<!-- Generator: Adobe Illustrator 28.0.0, SVG Export Plug-In . SVG Version: 6.00 Build 0)  -->
<svg version="1.1" xmlns="http://www.w3.org/2000/svg" xmlns:xlink="http://www.w3.org/1999/xlink" x="0px" y="0px"
	 viewBox="0 0 1941.48 124.98" style="enable-background:new 0 0 1941.48 124.98;" xml:space="preserve">
<style type="text/css">
	.st0{fill:#FFFFFF;}
	.st1{fill:#6EA844;}
</style>
<g id="Capa_1">
</g>
<g id="recuadro">
</g>
<g id="boton_contacto">
</g>
<g id="iconos">
</g>
<g id="logos">
</g>
<g id="textos">
	<g>
		<path class="st0" d="M30.8,94.49h-6.61v11.87h-8.7V66.79h16.16c9.44,0,15.15,5.6,15.15,13.68v0.11
			C46.8,89.74,39.68,94.49,30.8,94.49z M37.98,80.64c0-3.9-2.71-5.99-7.06-5.99h-6.73v12.09h6.9c4.35,0,6.9-2.6,6.9-5.99V80.64z"/>
		<path class="st0" d="M80.2,94.2H59.12c0.85,3.9,3.56,5.93,7.4,5.93c2.88,0,4.97-0.9,7.35-3.11l4.92,4.35
			c-2.83,3.5-6.9,5.65-12.38,5.65c-9.1,0-15.83-6.39-15.83-15.66v-0.11c0-8.65,6.16-15.77,14.98-15.77
			c10.12,0,14.75,7.86,14.75,16.45v0.11C80.31,92.9,80.26,93.41,80.2,94.2z M65.56,82.39c-3.56,0-5.88,2.54-6.56,6.44h12.94
			C71.44,84.99,69.18,82.39,65.56,82.39z"/>
		<path class="st0" d="M104.5,84.48c-5.71,0-9.21,3.45-9.21,10.68v11.19H86.7V76.06h8.59v6.1c1.75-4.18,4.58-6.89,9.66-6.67v8.99
			H104.5z"/>
		<path class="st0" d="M120.55,106.86c-5.26,0-8.82-2.09-8.82-9.1V83.41h-3.62v-7.35h3.62v-7.74h8.59v7.74h7.12v7.35h-7.12v12.94
			c0,1.98,0.85,2.94,2.77,2.94c1.58,0,3-0.4,4.24-1.07v6.9C125.52,106.18,123.43,106.86,120.55,106.86z"/>
		<path class="st0" d="M161.07,94.2h-21.08c0.85,3.9,3.56,5.93,7.4,5.93c2.88,0,4.97-0.9,7.35-3.11l4.92,4.35
			c-2.83,3.5-6.9,5.65-12.38,5.65c-9.1,0-15.83-6.39-15.83-15.66v-0.11c0-8.65,6.16-15.77,14.98-15.77
			c10.12,0,14.75,7.86,14.75,16.45v0.11C161.18,92.9,161.13,93.41,161.07,94.2z M146.43,82.39c-3.56,0-5.88,2.54-6.56,6.44h12.94
			C152.31,84.99,150.05,82.39,146.43,82.39z"/>
		<path class="st0" d="M186.73,106.35v-16.9c0-4.07-1.92-6.16-5.2-6.16c-3.28,0-5.37,2.09-5.37,6.16v16.9h-8.59V76.06h8.59v4.29
			c1.98-2.54,4.52-4.86,8.87-4.86c6.5,0,10.29,4.3,10.29,11.25v19.61H186.73z"/>
		<path class="st0" d="M230.92,94.2h-21.08c0.85,3.9,3.56,5.93,7.4,5.93c2.88,0,4.97-0.9,7.35-3.11l4.92,4.35
			c-2.83,3.5-6.9,5.65-12.38,5.65c-9.1,0-15.83-6.39-15.83-15.66v-0.11c0-8.65,6.16-15.77,14.98-15.77
			c10.12,0,14.75,7.86,14.75,16.45v0.11C231.03,92.9,230.98,93.41,230.92,94.2z M216.28,82.39c-3.56,0-5.88,2.54-6.56,6.44h12.94
			C222.16,84.99,219.9,82.39,216.28,82.39z"/>
		<path class="st0" d="M251.72,107.03c-9.1,0-15.77-7.01-15.77-15.66v-0.11c0-8.65,6.61-15.77,15.88-15.77
			c5.71,0,9.27,1.92,12.1,5.09l-5.26,5.65c-1.92-2.04-3.84-3.33-6.9-3.33c-4.3,0-7.35,3.79-7.35,8.25v0.11c0,4.63,3,8.37,7.69,8.37
			c2.88,0,4.86-1.24,6.95-3.22l5.03,5.09C261.15,104.72,257.76,107.03,251.72,107.03z"/>
		<path class="st0" d="M296.98,94.2H275.9c0.85,3.9,3.56,5.93,7.4,5.93c2.88,0,4.97-0.9,7.35-3.11l4.92,4.35
			c-2.83,3.5-6.9,5.65-12.38,5.65c-9.1,0-15.83-6.39-15.83-15.66v-0.11c0-8.65,6.16-15.77,14.98-15.77
			c10.12,0,14.75,7.86,14.75,16.45v0.11C297.1,92.9,297.04,93.41,296.98,94.2z M282.35,82.39c-3.56,0-5.88,2.54-6.56,6.44h12.94
			C288.22,84.99,285.96,82.39,282.35,82.39z"/>
		<path class="st0" d="M341.12,106.35v-16.9c0-4.07-1.81-6.16-5.03-6.16c-3.22,0-5.2,2.09-5.2,6.16v16.9h-8.59v-16.9
			c0-4.07-1.81-6.16-5.03-6.16s-5.2,2.09-5.2,6.16v16.9h-8.59V76.06h8.59v4.29c1.98-2.54,4.58-4.86,8.93-4.86
			c3.96,0,6.95,1.75,8.53,4.8c2.66-3.11,5.82-4.8,9.95-4.8c6.39,0,10.23,3.84,10.23,11.13v19.72H341.12z"/>
		<path class="st0" d="M372.03,107.03c-9.38,0-16.33-6.95-16.33-15.66v-0.11c0-8.7,7.01-15.77,16.45-15.77
			c9.38,0,16.33,6.95,16.33,15.66v0.11C388.48,99.97,381.47,107.03,372.03,107.03z M380,91.26c0-4.46-3.22-8.36-7.97-8.36
			c-4.92,0-7.86,3.79-7.86,8.25v0.11c0,4.46,3.22,8.37,7.97,8.37c4.92,0,7.86-3.79,7.86-8.25V91.26z"/>
		<path class="st0" d="M405.32,106.92c-4.24,0-8.99-1.41-13-4.58l3.67-5.65c3.28,2.37,6.73,3.62,9.55,3.62
			c2.49,0,3.62-0.9,3.62-2.26v-0.11c0-1.87-2.94-2.49-6.27-3.5c-4.24-1.24-9.04-3.22-9.04-9.1v-0.11c0-6.16,4.97-9.61,11.08-9.61
			c3.84,0,8.03,1.3,11.3,3.5l-3.28,5.93c-3-1.75-5.99-2.83-8.2-2.83c-2.09,0-3.17,0.9-3.17,2.09v0.11c0,1.7,2.88,2.49,6.16,3.62
			c4.24,1.41,9.16,3.45,9.16,8.99v0.11C416.91,103.87,411.88,106.92,405.32,106.92z"/>
		<path class="st0" d="M457.76,106.35v-3.28c-2.09,2.32-4.97,3.84-9.16,3.84c-5.71,0-10.4-3.28-10.4-9.27v-0.11
			c0-6.61,5.03-9.66,12.21-9.66c3.05,0,5.26,0.51,7.4,1.24v-0.51c0-3.56-2.2-5.54-6.5-5.54c-3.28,0-5.6,0.62-8.36,1.64l-2.15-6.56
			c3.33-1.47,6.61-2.43,11.76-2.43c9.38,0,13.51,4.86,13.51,13.06v17.58H457.76z M457.93,94.15c-1.47-0.68-3.39-1.13-5.48-1.13
			c-3.67,0-5.93,1.47-5.93,4.18v0.11c0,2.32,1.92,3.67,4.69,3.67c4.01,0,6.73-2.2,6.73-5.31V94.15z"/>
		<path class="st0" d="M490.82,106.35V65.1h8.59v41.26H490.82z"/>
		<path class="st0" d="M525.24,106.35v-3.28c-2.09,2.32-4.97,3.84-9.16,3.84c-5.71,0-10.4-3.28-10.4-9.27v-0.11
			c0-6.61,5.03-9.66,12.21-9.66c3.05,0,5.26,0.51,7.4,1.24v-0.51c0-3.56-2.2-5.54-6.5-5.54c-3.28,0-5.6,0.62-8.36,1.64l-2.15-6.56
			c3.33-1.47,6.61-2.43,11.76-2.43c9.38,0,13.51,4.86,13.51,13.06v17.58H525.24z M525.41,94.15c-1.47-0.68-3.39-1.13-5.48-1.13
			c-3.67,0-5.93,1.47-5.93,4.18v0.11c0,2.32,1.92,3.67,4.69,3.67c4.01,0,6.73-2.2,6.73-5.31V94.15z"/>
		<path class="st1" d="M580.97,95.93h-16.54l-3.85,10.42h-5.61l15.35-39.66h2.44c1.62,0,2.78,0.89,3.46,2.66l14.22,37h-5.55
			L580.97,95.93z M566.01,91.4h13.37l-6.63-17.9h-0.06L566.01,91.4z"/>
		<path class="st0" d="M596.67,104.29c-1.85-1.68-2.78-3.9-2.78-6.66h5.16c0,1.4,0.45,2.53,1.36,3.4c0.91,0.87,2.11,1.3,3.63,1.3
			h4.99c1.44,0,2.59-0.27,3.46-0.82c0.87-0.55,1.3-1.28,1.3-2.18v-1.64c0-0.6-0.25-1.14-0.77-1.61c-0.51-0.47-1.16-0.78-1.95-0.93
			l-9.8-1.7c-2.08-0.38-3.74-1.16-4.99-2.35c-1.25-1.19-1.87-2.58-1.87-4.16v-1.87c0-2.23,0.89-4.02,2.66-5.38
			c1.77-1.36,4.15-2.04,7.14-2.04h4.76c2.83,0,5.11,0.77,6.83,2.32c1.72,1.55,2.58,3.61,2.58,6.18h-5.16
			c-0.04-1.21-0.44-2.18-1.22-2.92c-0.77-0.74-1.78-1.1-3.03-1.1h-4.7c-1.4,0-2.5,0.28-3.31,0.85c-0.81,0.57-1.22,1.32-1.22,2.27
			v1.42c0,0.6,0.26,1.13,0.79,1.59c0.53,0.45,1.21,0.78,2.04,0.96l9.92,1.76c1.96,0.34,3.56,1.1,4.79,2.27
			c1.23,1.17,1.84,2.53,1.84,4.08v2.21c0,2.19-0.93,3.96-2.78,5.3c-1.85,1.34-4.29,2.01-7.31,2.01h-4.99
			C600.97,106.81,598.52,105.97,596.67,104.29z"/>
		<path class="st0" d="M627.23,103.8c-2.02-2-3.03-4.63-3.03-7.88v-7.37c0-3.29,1.02-5.93,3.06-7.93c2.04-2,4.74-3,8.1-3h4.76
			c3.36,0,6.06,1,8.1,3c2.04,2,3.06,4.65,3.06,7.93v7.37c0,3.25-1.03,5.87-3.09,7.88c-2.06,2-4.77,3-8.13,3h-4.82
			C631.93,106.81,629.25,105.81,627.23,103.8z M640.01,102.16c1.81,0,3.27-0.59,4.36-1.76c1.1-1.17,1.64-2.74,1.64-4.7v-6.97
			c0-1.96-0.54-3.53-1.61-4.7c-1.08-1.17-2.5-1.76-4.28-1.76h-4.76c-1.78,0-3.2,0.59-4.28,1.76c-1.08,1.17-1.61,2.74-1.61,4.7v6.97
			c0,1.96,0.53,3.53,1.59,4.7c1.06,1.17,2.47,1.76,4.25,1.76H640.01z"/>
		<path class="st0" d="M659.95,103.89c-2-1.94-3-4.5-3-7.68v-7.59c0-3.32,0.99-5.99,2.97-7.99c1.98-2,4.6-3,7.85-3h4.59
			c3.1,0,5.59,0.87,7.48,2.61c1.89,1.74,2.83,4.04,2.83,6.91h-5.21c0-1.47-0.46-2.65-1.39-3.54c-0.93-0.89-2.16-1.33-3.71-1.33
			h-4.53c-1.66,0-3.01,0.59-4.05,1.78c-1.04,1.19-1.56,2.77-1.56,4.73v7.25c0,1.85,0.53,3.33,1.59,4.45
			c1.06,1.12,2.42,1.67,4.08,1.67h4.53c1.59,0,2.86-0.56,3.82-1.67c0.96-1.11,1.44-2.6,1.44-4.45h5.21c0,3.21-0.96,5.81-2.89,7.79
			c-1.93,1.98-4.46,2.97-7.59,2.97h-4.59C664.58,106.81,661.95,105.84,659.95,103.89z"/>
		<path class="st0" d="M689.92,73.35c-0.68-0.66-1.02-1.52-1.02-2.58c0-1.06,0.34-1.92,1.02-2.58c0.68-0.66,1.57-0.99,2.66-0.99
			c1.09,0,1.97,0.33,2.63,0.99c0.66,0.66,0.99,1.52,0.99,2.58c0,1.06-0.33,1.92-0.99,2.58c-0.66,0.66-1.54,0.99-2.63,0.99
			C691.49,74.34,690.6,74.01,689.92,73.35z M689.92,78.08h5.27v28.27h-5.27V78.08z"/>
		<path class="st0" d="M705.79,104.63c-1.7-1.45-2.55-3.39-2.55-5.81v-1.87c0-2.38,0.89-4.3,2.66-5.75c1.77-1.45,4.1-2.18,6.97-2.18
			h3.57c1.13,0,2.34,0.17,3.63,0.51c1.28,0.34,2.38,0.81,3.29,1.42v-4.14c0-1.4-0.43-2.52-1.3-3.37c-0.87-0.85-2-1.27-3.4-1.27H714
			c-1.44,0-2.59,0.34-3.46,1.02c-0.87,0.68-1.3,1.57-1.3,2.66h-5.21c0-2.46,0.92-4.44,2.75-5.95c1.83-1.51,4.24-2.27,7.22-2.27h4.65
			c2.98,0,5.38,0.84,7.2,2.52s2.72,3.9,2.72,6.66v19.55h-4.93v-3.8c-0.87,1.28-2,2.31-3.4,3.09c-1.4,0.77-2.81,1.16-4.25,1.16h-3.4
			C709.75,106.81,707.49,106.08,705.79,104.63z M716.27,102.45c1.66,0,3.13-0.48,4.42-1.45c1.28-0.96,2.17-2.26,2.66-3.88v-1.7
			c-0.72-0.64-1.7-1.15-2.95-1.53c-1.25-0.38-2.53-0.57-3.85-0.57h-3.63c-1.32,0-2.4,0.34-3.23,1.02c-0.83,0.68-1.25,1.59-1.25,2.72
			v1.7c0,1.13,0.41,2.03,1.22,2.69c0.81,0.66,1.9,0.99,3.26,0.99H716.27z"/>
		<path class="st0" d="M738.02,103.89c-2-1.94-3-4.5-3-7.68v-7.59c0-3.32,0.99-5.99,2.97-7.99c1.98-2,4.6-3,7.85-3h4.59
			c3.1,0,5.59,0.87,7.48,2.61c1.89,1.74,2.83,4.04,2.83,6.91h-5.21c0-1.47-0.46-2.65-1.39-3.54c-0.93-0.89-2.16-1.33-3.71-1.33
			h-4.53c-1.66,0-3.01,0.59-4.05,1.78c-1.04,1.19-1.56,2.77-1.56,4.73v7.25c0,1.85,0.53,3.33,1.59,4.45
			c1.06,1.12,2.42,1.67,4.08,1.67h4.53c1.59,0,2.86-0.56,3.82-1.67c0.96-1.11,1.44-2.6,1.44-4.45h5.21c0,3.21-0.96,5.81-2.89,7.79
			c-1.93,1.98-4.46,2.97-7.59,2.97h-4.59C742.65,106.81,740.03,105.84,738.02,103.89z"/>
		<path class="st0" d="M768,73.35c-0.68-0.66-1.02-1.52-1.02-2.58c0-1.06,0.34-1.92,1.02-2.58c0.68-0.66,1.57-0.99,2.66-0.99
			c1.09,0,1.97,0.33,2.63,0.99c0.66,0.66,0.99,1.52,0.99,2.58c0,1.06-0.33,1.92-0.99,2.58c-0.66,0.66-1.54,0.99-2.63,0.99
			C769.56,74.34,768.68,74.01,768,73.35z M768,78.08h5.27v28.27H768V78.08z"/>
		<path class="st0" d="M784.11,103.8c-2.02-2-3.03-4.63-3.03-7.88v-7.37c0-3.29,1.02-5.93,3.06-7.93c2.04-2,4.74-3,8.1-3H797
			c3.36,0,6.06,1,8.1,3c2.04,2,3.06,4.65,3.06,7.93v7.37c0,3.25-1.03,5.87-3.09,7.88c-2.06,2-4.77,3-8.13,3h-4.82
			C788.81,106.81,786.14,105.81,784.11,103.8z M796.89,102.16c1.81,0,3.27-0.59,4.36-1.76c1.1-1.17,1.64-2.74,1.64-4.7v-6.97
			c0-1.96-0.54-3.53-1.61-4.7c-1.08-1.17-2.5-1.76-4.28-1.76h-4.76c-1.78,0-3.2,0.59-4.28,1.76c-1.08,1.17-1.61,2.74-1.61,4.7v6.97
			c0,1.96,0.53,3.53,1.59,4.7c1.06,1.17,2.47,1.76,4.25,1.76H796.89z M797.17,64.6h5.95l-6.01,9.12h-4.93L797.17,64.6z"/>
		<path class="st0" d="M814.96,78.08h5.04v3.91c0.83-1.28,1.94-2.33,3.31-3.14c1.38-0.81,2.75-1.22,4.11-1.22h3.74
			c2.72,0,4.92,0.91,6.6,2.72c1.68,1.81,2.52,4.19,2.52,7.14v18.87h-5.27V87.49c0-1.55-0.4-2.8-1.19-3.77
			c-0.79-0.96-1.83-1.44-3.12-1.44h-3.51c-1.62,0-3.1,0.62-4.42,1.87c-1.32,1.25-2.17,2.87-2.55,4.87v17.34h-5.27V78.08z"/>
		<path class="st0" d="M864.85,103.8c-1.91-2-2.86-4.65-2.86-7.93v-6.69c0-2.27,0.45-4.28,1.36-6.03c0.91-1.76,2.18-3.12,3.82-4.08
			c1.64-0.96,3.54-1.45,5.69-1.45h3.85c1.21,0,2.4,0.28,3.57,0.85c1.17,0.57,2.11,1.32,2.83,2.27V66.69h5.33v39.66h-5.04v-4.02
			c-0.83,1.32-1.93,2.4-3.29,3.23c-1.36,0.83-2.72,1.25-4.08,1.25h-3.68C869.26,106.81,866.76,105.81,864.85,103.8z M876.27,102.16
			c1.77,0,3.32-0.73,4.65-2.18c1.32-1.45,2.06-3.18,2.21-5.18v-6.4c-0.26-1.85-0.95-3.33-2.07-4.45c-1.11-1.11-2.45-1.67-3.99-1.67
			h-3.8c-1.78,0-3.22,0.65-4.33,1.95c-1.11,1.3-1.67,3.03-1.67,5.18v6.29c0,1.93,0.52,3.48,1.56,4.67c1.04,1.19,2.35,1.79,3.94,1.79
			H876.27z"/>
		<path class="st0" d="M898.28,103.95c-2.02-1.91-3.03-4.41-3.03-7.51v-7.82c0-3.32,1.01-5.99,3.03-7.99c2.02-2,4.69-3,8.02-3h4.65
			c3.21,0,5.8,0.98,7.76,2.95c1.96,1.96,2.95,4.57,2.95,7.82v5.33h-21.13v2.72c0,1.74,0.53,3.14,1.59,4.19
			c1.06,1.06,2.46,1.59,4.19,1.59h4.36c1.7,0,3.08-0.44,4.14-1.33c1.06-0.89,1.59-2.07,1.59-3.54h5.16c0,2.83-1,5.12-3,6.86
			c-2,1.74-4.65,2.61-7.93,2.61h-4.31C902.97,106.81,900.3,105.85,898.28,103.95z M916.38,89.53v-1.13c0-1.89-0.5-3.4-1.5-4.53
			c-1-1.13-2.31-1.7-3.94-1.7h-4.65c-1.74,0-3.14,0.59-4.19,1.78c-1.06,1.19-1.59,2.77-1.59,4.73v0.85H916.38z"/>
		<path class="st1" d="M944.79,105.22c-0.77-0.76-1.16-1.79-1.16-3.12V66.69h17.28c2.87,0,5.39,0.55,7.56,1.64
			c2.17,1.1,3.85,2.65,5.04,4.67s1.78,4.33,1.78,6.94v12.01c0,4.72-1.2,8.3-3.6,10.74c-2.4,2.44-5.92,3.65-10.57,3.65h-13.2
			C946.62,106.35,945.57,105.98,944.79,105.22z M960.97,101.54c2.95,0,5.17-0.81,6.69-2.44c1.51-1.62,2.27-4.04,2.27-7.25V80.07
			c0-2.57-0.84-4.64-2.52-6.2c-1.68-1.57-3.9-2.35-6.66-2.35h-11.73v30.03H960.97z"/>
		<path class="st0" d="M984,103.95c-2.02-1.91-3.03-4.41-3.03-7.51v-7.82c0-3.32,1.01-5.99,3.03-7.99c2.02-2,4.69-3,8.02-3h4.65
			c3.21,0,5.8,0.98,7.76,2.95c1.96,1.96,2.95,4.57,2.95,7.82v5.33h-21.13v2.72c0,1.74,0.53,3.14,1.59,4.19
			c1.06,1.06,2.46,1.59,4.19,1.59h4.36c1.7,0,3.08-0.44,4.14-1.33c1.06-0.89,1.59-2.07,1.59-3.54h5.16c0,2.83-1,5.12-3,6.86
			c-2,1.74-4.65,2.61-7.93,2.61h-4.31C988.69,106.81,986.02,105.85,984,103.95z M1002.1,89.53v-1.13c0-1.89-0.5-3.4-1.5-4.53
			c-1-1.13-2.31-1.7-3.94-1.7h-4.65c-1.74,0-3.14,0.59-4.19,1.78c-1.06,1.19-1.59,2.77-1.59,4.73v0.85H1002.1z"/>
		<path class="st0" d="M1015.25,104.29c-1.85-1.68-2.78-3.9-2.78-6.66h5.16c0,1.4,0.45,2.53,1.36,3.4c0.91,0.87,2.11,1.3,3.63,1.3
			h4.99c1.44,0,2.59-0.27,3.46-0.82c0.87-0.55,1.3-1.28,1.3-2.18v-1.64c0-0.6-0.25-1.14-0.77-1.61c-0.51-0.47-1.16-0.78-1.95-0.93
			l-9.8-1.7c-2.08-0.38-3.74-1.16-4.99-2.35c-1.25-1.19-1.87-2.58-1.87-4.16v-1.87c0-2.23,0.89-4.02,2.66-5.38
			c1.77-1.36,4.15-2.04,7.14-2.04h4.76c2.83,0,5.11,0.77,6.83,2.32c1.72,1.55,2.58,3.61,2.58,6.18h-5.16
			c-0.04-1.21-0.44-2.18-1.22-2.92c-0.77-0.74-1.78-1.1-3.03-1.1h-4.7c-1.4,0-2.5,0.28-3.31,0.85c-0.81,0.57-1.22,1.32-1.22,2.27
			v1.42c0,0.6,0.26,1.13,0.79,1.59c0.53,0.45,1.21,0.78,2.04,0.96l9.92,1.76c1.96,0.34,3.56,1.1,4.79,2.27
			c1.23,1.17,1.84,2.53,1.84,4.08v2.21c0,2.19-0.93,3.96-2.78,5.3c-1.85,1.34-4.29,2.01-7.31,2.01h-4.99
			C1019.55,106.81,1017.1,105.97,1015.25,104.29z"/>
		<path class="st0" d="M1045.56,104.63c-1.7-1.45-2.55-3.39-2.55-5.81v-1.87c0-2.38,0.89-4.3,2.66-5.75
			c1.77-1.45,4.1-2.18,6.97-2.18h3.57c1.13,0,2.34,0.17,3.63,0.51c1.28,0.34,2.38,0.81,3.29,1.42v-4.14c0-1.4-0.43-2.52-1.3-3.37
			c-0.87-0.85-2-1.27-3.4-1.27h-4.65c-1.44,0-2.59,0.34-3.46,1.02c-0.87,0.68-1.3,1.57-1.3,2.66h-5.21c0-2.46,0.92-4.44,2.75-5.95
			c1.83-1.51,4.24-2.27,7.22-2.27h4.65c2.98,0,5.38,0.84,7.2,2.52s2.72,3.9,2.72,6.66v19.55h-4.93v-3.8c-0.87,1.28-2,2.31-3.4,3.09
			c-1.4,0.77-2.81,1.16-4.25,1.16h-3.4C1049.52,106.81,1047.26,106.08,1045.56,104.63z M1056.04,102.45c1.66,0,3.13-0.48,4.42-1.45
			c1.28-0.96,2.17-2.26,2.66-3.88v-1.7c-0.72-0.64-1.7-1.15-2.95-1.53c-1.25-0.38-2.53-0.57-3.85-0.57h-3.63
			c-1.32,0-2.4,0.34-3.23,1.02c-0.83,0.68-1.25,1.59-1.25,2.72v1.7c0,1.13,0.41,2.03,1.22,2.69c0.81,0.66,1.9,0.99,3.26,0.99
			H1056.04z"/>
		<path class="st0" d="M1075.93,78.08h5.04v4.14c0.75-1.25,1.86-2.27,3.31-3.06c1.45-0.79,2.97-1.19,4.56-1.19h2.95v4.7h-2.95
			c-2.3,0-4.16,0.71-5.55,2.12c-1.4,1.42-2.1,3.28-2.1,5.58v15.98h-5.27V78.08z"/>
		<path class="st0" d="M1096.55,78.08h5.04v4.14c0.75-1.25,1.86-2.27,3.31-3.06c1.45-0.79,2.97-1.19,4.56-1.19h2.95v4.7h-2.95
			c-2.3,0-4.16,0.71-5.55,2.12c-1.4,1.42-2.1,3.28-2.1,5.58v15.98h-5.27V78.08z"/>
		<path class="st0" d="M1118.16,103.8c-2.02-2-3.03-4.63-3.03-7.88v-7.37c0-3.29,1.02-5.93,3.06-7.93c2.04-2,4.74-3,8.1-3h4.76
			c3.36,0,6.06,1,8.1,3c2.04,2,3.06,4.65,3.06,7.93v7.37c0,3.25-1.03,5.87-3.09,7.88c-2.06,2-4.77,3-8.13,3h-4.82
			C1122.86,106.81,1120.18,105.81,1118.16,103.8z M1130.94,102.16c1.81,0,3.27-0.59,4.36-1.76c1.1-1.17,1.64-2.74,1.64-4.7v-6.97
			c0-1.96-0.54-3.53-1.61-4.7c-1.08-1.17-2.5-1.76-4.28-1.76h-4.76c-1.78,0-3.2,0.59-4.28,1.76c-1.08,1.17-1.61,2.74-1.61,4.7v6.97
			c0,1.96,0.53,3.53,1.59,4.7c1.06,1.17,2.47,1.76,4.25,1.76H1130.94z"/>
		<path class="st0" d="M1151,104.46c-1.32-1.26-1.98-3.31-1.98-6.15V66.69h5.27v31.44c0,1.29,0.26,2.21,0.79,2.78
			c0.53,0.57,1.4,0.85,2.61,0.85h2.27v4.59h-2.49C1154.47,106.35,1152.32,105.72,1151,104.46z"/>
		<path class="st0" d="M1166.35,104.46c-1.32-1.26-1.98-3.31-1.98-6.15V66.69h5.27v31.44c0,1.29,0.26,2.21,0.79,2.78
			c0.53,0.57,1.4,0.85,2.61,0.85h2.27v4.59h-2.49C1169.83,106.35,1167.67,105.72,1166.35,104.46z"/>
		<path class="st0" d="M1181.7,104.63c-1.7-1.45-2.55-3.39-2.55-5.81v-1.87c0-2.38,0.89-4.3,2.66-5.75c1.77-1.45,4.1-2.18,6.97-2.18
			h3.57c1.13,0,2.34,0.17,3.63,0.51c1.28,0.34,2.38,0.81,3.29,1.42v-4.14c0-1.4-0.43-2.52-1.3-3.37c-0.87-0.85-2-1.27-3.4-1.27
			h-4.65c-1.44,0-2.59,0.34-3.46,1.02c-0.87,0.68-1.3,1.57-1.3,2.66h-5.21c0-2.46,0.92-4.44,2.75-5.95
			c1.83-1.51,4.24-2.27,7.22-2.27h4.65c2.98,0,5.38,0.84,7.2,2.52s2.72,3.9,2.72,6.66v19.55h-4.93v-3.8c-0.87,1.28-2,2.31-3.4,3.09
			c-1.4,0.77-2.81,1.16-4.25,1.16h-3.4C1185.67,106.81,1183.4,106.08,1181.7,104.63z M1192.19,102.45c1.66,0,3.13-0.48,4.42-1.45
			c1.28-0.96,2.17-2.26,2.66-3.88v-1.7c-0.72-0.64-1.7-1.15-2.95-1.53c-1.25-0.38-2.53-0.57-3.85-0.57h-3.63
			c-1.32,0-2.4,0.34-3.23,1.02c-0.83,0.68-1.25,1.59-1.25,2.72v1.7c0,1.13,0.41,2.03,1.22,2.69c0.81,0.66,1.9,0.99,3.26,0.99
			H1192.19z"/>
		<path class="st0" d="M1213.8,103.8c-1.91-2-2.86-4.65-2.86-7.93v-6.69c0-2.27,0.45-4.28,1.36-6.03c0.91-1.76,2.18-3.12,3.82-4.08
			c1.64-0.96,3.54-1.45,5.69-1.45h3.85c1.21,0,2.4,0.28,3.57,0.85c1.17,0.57,2.11,1.32,2.83,2.27V66.69h5.33v39.66h-5.04v-4.02
			c-0.83,1.32-1.93,2.4-3.29,3.23c-1.36,0.83-2.72,1.25-4.08,1.25h-3.68C1218.21,106.81,1215.71,105.81,1213.8,103.8z
			 M1225.22,102.16c1.77,0,3.32-0.73,4.65-2.18c1.32-1.45,2.06-3.18,2.21-5.18v-6.4c-0.26-1.85-0.95-3.33-2.07-4.45
			c-1.11-1.11-2.45-1.67-3.99-1.67h-3.8c-1.78,0-3.22,0.65-4.33,1.95c-1.11,1.3-1.67,3.03-1.67,5.18v6.29
			c0,1.93,0.52,3.48,1.56,4.67c1.04,1.19,2.35,1.79,3.94,1.79H1225.22z"/>
		<path class="st0" d="M1247.23,103.8c-2.02-2-3.03-4.63-3.03-7.88v-7.37c0-3.29,1.02-5.93,3.06-7.93c2.04-2,4.74-3,8.1-3h4.76
			c3.36,0,6.06,1,8.1,3c2.04,2,3.06,4.65,3.06,7.93v7.37c0,3.25-1.03,5.87-3.09,7.88c-2.06,2-4.77,3-8.13,3h-4.82
			C1251.92,106.81,1249.25,105.81,1247.23,103.8z M1260,102.16c1.81,0,3.27-0.59,4.36-1.76c1.1-1.17,1.64-2.74,1.64-4.7v-6.97
			c0-1.96-0.54-3.53-1.61-4.7c-1.08-1.17-2.5-1.76-4.28-1.76h-4.76c-1.78,0-3.2,0.59-4.28,1.76c-1.08,1.17-1.61,2.74-1.61,4.7v6.97
			c0,1.96,0.53,3.53,1.59,4.7c1.06,1.17,2.47,1.76,4.25,1.76H1260z"/>
		<path class="st0" d="M1278.08,78.08h5.04v4.14c0.75-1.25,1.86-2.27,3.31-3.06c1.45-0.79,2.97-1.19,4.56-1.19h2.95v4.7H1291
			c-2.3,0-4.16,0.71-5.55,2.12c-1.4,1.42-2.1,3.28-2.1,5.58v15.98h-5.27V78.08z"/>
		<path class="st0" d="M1299.69,103.95c-2.02-1.91-3.03-4.41-3.03-7.51v-7.82c0-3.32,1.01-5.99,3.03-7.99c2.02-2,4.69-3,8.02-3h4.65
			c3.21,0,5.8,0.98,7.76,2.95c1.96,1.96,2.95,4.57,2.95,7.82v5.33h-21.13v2.72c0,1.74,0.53,3.14,1.59,4.19
			c1.06,1.06,2.46,1.59,4.19,1.59h4.36c1.7,0,3.08-0.44,4.14-1.33c1.06-0.89,1.59-2.07,1.59-3.54h5.16c0,2.83-1,5.12-3,6.86
			c-2,1.74-4.65,2.61-7.93,2.61h-4.31C1304.39,106.81,1301.71,105.85,1299.69,103.95z M1317.8,89.53v-1.13c0-1.89-0.5-3.4-1.5-4.53
			c-1-1.13-2.31-1.7-3.94-1.7h-4.65c-1.74,0-3.14,0.59-4.19,1.78c-1.06,1.19-1.59,2.77-1.59,4.73v0.85H1317.8z"/>
		<path class="st0" d="M1330.94,104.29c-1.85-1.68-2.78-3.9-2.78-6.66h5.16c0,1.4,0.45,2.53,1.36,3.4c0.91,0.87,2.11,1.3,3.63,1.3
			h4.99c1.44,0,2.59-0.27,3.46-0.82c0.87-0.55,1.3-1.28,1.3-2.18v-1.64c0-0.6-0.25-1.14-0.77-1.61c-0.51-0.47-1.16-0.78-1.95-0.93
			l-9.8-1.7c-2.08-0.38-3.74-1.16-4.99-2.35c-1.25-1.19-1.87-2.58-1.87-4.16v-1.87c0-2.23,0.89-4.02,2.66-5.38
			c1.77-1.36,4.15-2.04,7.14-2.04h4.76c2.83,0,5.11,0.77,6.83,2.32c1.72,1.55,2.58,3.61,2.58,6.18h-5.16
			c-0.04-1.21-0.44-2.18-1.22-2.92c-0.77-0.74-1.78-1.1-3.03-1.1h-4.7c-1.4,0-2.5,0.28-3.31,0.85c-0.81,0.57-1.22,1.32-1.22,2.27
			v1.42c0,0.6,0.26,1.13,0.79,1.59c0.53,0.45,1.21,0.78,2.04,0.96l9.92,1.76c1.96,0.34,3.56,1.1,4.79,2.27
			c1.23,1.17,1.84,2.53,1.84,4.08v2.21c0,2.19-0.93,3.96-2.78,5.3c-1.85,1.34-4.29,2.01-7.31,2.01h-4.99
			C1335.24,106.81,1332.79,105.97,1330.94,104.29z"/>
		<path class="st1" d="M1375.64,66.69h5.38v39.66h-5.38V66.69z"/>
		<path class="st0" d="M1389.75,78.08h5.04v3.91c0.83-1.28,1.94-2.33,3.31-3.14c1.38-0.81,2.75-1.22,4.11-1.22h3.74
			c2.72,0,4.92,0.91,6.6,2.72c1.68,1.81,2.52,4.19,2.52,7.14v18.87h-5.27V87.49c0-1.55-0.4-2.8-1.19-3.77
			c-0.79-0.96-1.83-1.44-3.12-1.44h-3.51c-1.62,0-3.1,0.62-4.42,1.87c-1.32,1.25-2.17,2.87-2.55,4.87v17.34h-5.27V78.08z"/>
		<path class="st0" d="M1460.34,80.15c1.55,1.68,2.32,3.98,2.32,6.88v19.32h-5.27V86.98c0-1.43-0.34-2.58-1.02-3.43
			c-0.68-0.85-1.57-1.27-2.66-1.27h-2.95c-1.44,0-2.63,0.5-3.6,1.5c-0.96,1-1.58,2.37-1.84,4.11v18.47H1440V87.2
			c0-1.55-0.31-2.76-0.93-3.63c-0.62-0.87-1.46-1.3-2.52-1.3h-2.89c-1.44,0-2.68,0.61-3.74,1.84c-1.06,1.23-1.72,2.84-1.98,4.84
			v17.39h-5.27V78.08h5.04v3.8c0.75-1.32,1.69-2.36,2.8-3.12c1.11-0.75,2.26-1.13,3.43-1.13h3.29c1.51,0,2.82,0.38,3.94,1.13
			c1.11,0.76,1.99,1.83,2.63,3.23c0.83-1.43,1.85-2.52,3.06-3.26c1.21-0.74,2.51-1.1,3.91-1.1h3.34
			C1456.72,77.63,1458.79,78.47,1460.34,80.15z"/>
		<path class="st0" d="M1472.16,103.8c-2.02-2-3.03-4.63-3.03-7.88v-7.37c0-3.29,1.02-5.93,3.06-7.93c2.04-2,4.74-3,8.1-3h4.76
			c3.36,0,6.06,1,8.1,3c2.04,2,3.06,4.65,3.06,7.93v7.37c0,3.25-1.03,5.87-3.09,7.88c-2.06,2-4.77,3-8.13,3h-4.82
			C1476.85,106.81,1474.18,105.81,1472.16,103.8z M1484.93,102.16c1.81,0,3.27-0.59,4.36-1.76c1.09-1.17,1.64-2.74,1.64-4.7v-6.97
			c0-1.96-0.54-3.53-1.62-4.7c-1.08-1.17-2.5-1.76-4.28-1.76h-4.76c-1.78,0-3.2,0.59-4.28,1.76c-1.08,1.17-1.61,2.74-1.61,4.7v6.97
			c0,1.96,0.53,3.53,1.59,4.7c1.06,1.17,2.47,1.76,4.25,1.76H1484.93z"/>
		<path class="st0" d="M1511.16,105.65c-1.32-0.77-2.36-1.75-3.12-2.92v3.63h-5.04V66.69h5.27v14.33c0.83-1.02,1.87-1.84,3.12-2.46
			c1.25-0.62,2.49-0.93,3.74-0.93h4.02c2,0,3.79,0.45,5.35,1.36c1.57,0.91,2.79,2.17,3.65,3.8c0.87,1.62,1.3,3.51,1.3,5.67v7.03
			c0,2.23-0.44,4.2-1.33,5.92c-0.89,1.72-2.12,3.05-3.71,4c-1.59,0.94-3.42,1.42-5.5,1.42h-3.91
			C1513.77,106.81,1512.49,106.42,1511.16,105.65z M1518.59,102.16c1.66,0,3-0.63,4.02-1.9c1.02-1.26,1.53-2.94,1.53-5.01v-6.63
			c0-1.89-0.5-3.42-1.5-4.59c-1-1.17-2.29-1.76-3.88-1.76h-3.68c-1.81,0-3.36,0.66-4.65,1.98c-1.29,1.32-2,3.04-2.15,5.16v6.23
			c0.15,1.81,0.87,3.35,2.15,4.62c1.28,1.27,2.74,1.9,4.36,1.9H1518.59z"/>
		<path class="st0" d="M1537.28,73.35c-0.68-0.66-1.02-1.52-1.02-2.58c0-1.06,0.34-1.92,1.02-2.58c0.68-0.66,1.57-0.99,2.66-0.99
			s1.97,0.33,2.63,0.99c0.66,0.66,0.99,1.52,0.99,2.58c0,1.06-0.33,1.92-0.99,2.58c-0.66,0.66-1.54,0.99-2.63,0.99
			S1537.96,74.01,1537.28,73.35z M1537.28,78.08h5.27v28.27h-5.27V78.08z"/>
		<path class="st0" d="M1553.49,104.46c-1.32-1.26-1.98-3.31-1.98-6.15V66.69h5.27v31.44c0,1.29,0.26,2.21,0.79,2.78
			c0.53,0.57,1.4,0.85,2.61,0.85h2.27v4.59h-2.49C1556.96,106.35,1554.81,105.72,1553.49,104.46z"/>
		<path class="st0" d="M1568.22,73.35c-0.68-0.66-1.02-1.52-1.02-2.58c0-1.06,0.34-1.92,1.02-2.58c0.68-0.66,1.57-0.99,2.66-0.99
			s1.97,0.33,2.63,0.99c0.66,0.66,0.99,1.52,0.99,2.58c0,1.06-0.33,1.92-0.99,2.58c-0.66,0.66-1.54,0.99-2.63,0.99
			S1568.9,74.01,1568.22,73.35z M1568.22,78.08h5.27v28.27h-5.27V78.08z"/>
		<path class="st0" d="M1584.08,104.63c-1.7-1.45-2.55-3.39-2.55-5.81v-1.87c0-2.38,0.89-4.3,2.66-5.75
			c1.77-1.45,4.1-2.18,6.97-2.18h3.57c1.13,0,2.34,0.17,3.63,0.51s2.38,0.81,3.29,1.42v-4.14c0-1.4-0.43-2.52-1.3-3.37
			c-0.87-0.85-2-1.27-3.4-1.27h-4.65c-1.44,0-2.59,0.34-3.46,1.02s-1.3,1.57-1.3,2.66h-5.21c0-2.46,0.92-4.44,2.75-5.95
			s4.24-2.27,7.22-2.27h4.65c2.98,0,5.38,0.84,7.2,2.52c1.81,1.68,2.72,3.9,2.72,6.66v19.55h-4.93v-3.8c-0.87,1.28-2,2.31-3.4,3.09
			c-1.4,0.77-2.81,1.16-4.25,1.16h-3.4C1588.05,106.81,1585.78,106.08,1584.08,104.63z M1594.56,102.45c1.66,0,3.13-0.48,4.42-1.45
			c1.28-0.96,2.17-2.26,2.66-3.88v-1.7c-0.72-0.64-1.7-1.15-2.95-1.53c-1.25-0.38-2.53-0.57-3.85-0.57h-3.63
			c-1.32,0-2.4,0.34-3.23,1.02c-0.83,0.68-1.25,1.59-1.25,2.72v1.7c0,1.13,0.41,2.03,1.22,2.69c0.81,0.66,1.9,0.99,3.26,0.99
			H1594.56z"/>
		<path class="st0" d="M1614.45,78.08h5.04v4.14c0.75-1.25,1.86-2.27,3.31-3.06c1.45-0.79,2.97-1.19,4.56-1.19h2.95v4.7h-2.95
			c-2.3,0-4.16,0.71-5.55,2.12c-1.4,1.42-2.1,3.28-2.1,5.58v15.98h-5.27V78.08z"/>
		<path class="st0" d="M1636.09,73.35c-0.68-0.66-1.02-1.52-1.02-2.58c0-1.06,0.34-1.92,1.02-2.58c0.68-0.66,1.57-0.99,2.66-0.99
			s1.97,0.33,2.63,0.99c0.66,0.66,0.99,1.52,0.99,2.58c0,1.06-0.33,1.92-0.99,2.58c-0.66,0.66-1.54,0.99-2.63,0.99
			S1636.77,74.01,1636.09,73.35z M1636.09,78.08h5.27v28.27h-5.27V78.08z"/>
		<path class="st0" d="M1652.21,103.8c-2.02-2-3.03-4.63-3.03-7.88v-7.37c0-3.29,1.02-5.93,3.06-7.93c2.04-2,4.74-3,8.1-3h4.76
			c3.36,0,6.06,1,8.1,3c2.04,2,3.06,4.65,3.06,7.93v7.37c0,3.25-1.03,5.87-3.09,7.88c-2.06,2-4.77,3-8.13,3h-4.82
			C1656.9,106.81,1654.23,105.81,1652.21,103.8z M1664.99,102.16c1.81,0,3.27-0.59,4.36-1.76c1.09-1.17,1.64-2.74,1.64-4.7v-6.97
			c0-1.96-0.54-3.53-1.62-4.7c-1.08-1.17-2.5-1.76-4.28-1.76h-4.76c-1.78,0-3.2,0.59-4.28,1.76c-1.08,1.17-1.61,2.74-1.61,4.7v6.97
			c0,1.96,0.53,3.53,1.59,4.7c1.06,1.17,2.47,1.76,4.25,1.76H1664.99z"/>
		<path class="st0" d="M1684.42,104.29c-1.85-1.68-2.78-3.9-2.78-6.66h5.16c0,1.4,0.45,2.53,1.36,3.4c0.91,0.87,2.11,1.3,3.63,1.3
			h4.99c1.44,0,2.59-0.27,3.46-0.82c0.87-0.55,1.3-1.28,1.3-2.18v-1.64c0-0.6-0.25-1.14-0.76-1.61c-0.51-0.47-1.16-0.78-1.96-0.93
			l-9.8-1.7c-2.08-0.38-3.74-1.16-4.99-2.35c-1.25-1.19-1.87-2.58-1.87-4.16v-1.87c0-2.23,0.89-4.02,2.66-5.38
			c1.77-1.36,4.15-2.04,7.14-2.04h4.76c2.83,0,5.11,0.77,6.83,2.32c1.72,1.55,2.58,3.61,2.58,6.18h-5.16
			c-0.04-1.21-0.44-2.18-1.22-2.92s-1.78-1.1-3.03-1.1h-4.7c-1.4,0-2.5,0.28-3.31,0.85c-0.81,0.57-1.22,1.32-1.22,2.27v1.42
			c0,0.6,0.26,1.13,0.79,1.59c0.53,0.45,1.21,0.78,2.04,0.96l9.92,1.76c1.96,0.34,3.56,1.1,4.79,2.27c1.23,1.17,1.84,2.53,1.84,4.08
			v2.21c0,2.19-0.93,3.96-2.78,5.3c-1.85,1.34-4.29,2.01-7.31,2.01h-4.99C1688.73,106.81,1686.27,105.97,1684.42,104.29z"/>
	</g>
	<g>
		<g>
			<path class="st0" d="M1879.75,106.61h-40.22V7.82h40.22c13.55,0,24.56,11.02,24.56,24.56v49.66
				C1904.31,95.59,1893.29,106.61,1879.75,106.61z M1850.08,96.06h29.66c7.73,0,14.01-6.29,14.01-14.01V32.38
				c0-7.72-6.29-14.01-14.01-14.01h-29.66V96.06z"/>
		</g>
		<g>
			<rect x="1920.19" y="10.57" class="st0" width="10.55" height="93.09"/>
		</g>
		<path class="st0" d="M1806.42,65.03h11.51l-20.78-52.57l-0.05-0.12c-1.1-2.61-3.66-4.3-6.51-4.3s-5.41,1.69-6.55,4.39
			l-37.37,93.43h11.53l32.37-80.93L1806.42,65.03z"/>
		<polygon class="st1" points="1834.08,105.88 1819.62,69.29 1815.45,69.29 1808.1,69.29 1776.01,69.29 1776.01,78.78 
			1811.86,78.78 1822.57,105.88 		"/>
	</g>
</g>
</svg>
