<?xml version="1.0" encoding="utf-8"?>
<!-- Generator: Adobe Illustrator 25.2.3, SVG Export Plug-In . SVG Version: 6.00 Build 0)  -->
<svg version="1.0" id="Capa_1" xmlns="http://www.w3.org/2000/svg" xmlns:xlink="http://www.w3.org/1999/xlink" x="0px" y="0px"
	 viewBox="0 0 646.2 294" style="enable-background:new 0 0 646.2 294;" xml:space="preserve">
<style type="text/css">
	.st0{fill:#FFFFFF;}
</style>
<g>
	<g>
		<g>
			<g>
				<path class="st0" d="M113.8,107v28.7H98.1V61h21.7c10.1,0,17.6,1.8,22.4,5.5c4.8,3.7,7.3,9.3,7.3,16.8c0,4.4-1.2,8.3-3.6,11.7
					s-5.8,6.1-10.2,8c11.2,16.8,18.5,27.6,21.9,32.6H140L122.2,107H113.8z M113.8,94.2h5.1c5,0,8.7-0.8,11-2.5
					c2.3-1.7,3.6-4.3,3.6-7.9c0-3.5-1.2-6.1-3.6-7.6c-2.4-1.5-6.2-2.2-11.3-2.2h-4.8L113.8,94.2L113.8,94.2z"/>
				<path class="st0" d="M166.9,135.7V61h15.8v74.7H166.9z"/>
				<path class="st0" d="M233.1,73.1c-5.9,0-10.5,2.2-13.8,6.7s-4.9,10.7-4.9,18.7c0,16.7,6.2,25,18.7,25c5.2,0,11.5-1.3,19-3.9
					v13.3c-6.1,2.6-12.9,3.8-20.4,3.8c-10.8,0-19.1-3.3-24.8-9.9s-8.6-16.1-8.6-28.4c0-7.8,1.4-14.6,4.2-20.4s6.9-10.3,12.1-13.4
					c5.3-3.1,11.5-4.7,18.5-4.7c7.2,0,14.5,1.8,21.8,5.3l-5.1,12.9c-2.8-1.3-5.6-2.5-8.4-3.5S235.8,73.1,233.1,73.1z"/>
				<path class="st0" d="M327.8,135.7h-17.9l-19.5-31.5l-6.7,4.8v26.7H268V61h15.8v34.2l6.2-8.8L310.1,61h17.5l-25.9,33L327.8,135.7
					z"/>
			</g>
			<path class="st0" d="M28,61h23.1c10.5,0,18.2,1.5,23,4.5c4.8,3,7.1,7.8,7.1,14.4c0,4.5-1,8.1-3.1,11s-4.9,4.6-8.3,5.2v0.5
				c4.7,1.1,8.1,3,10.2,5.9s3.1,6.7,3.1,11.5c0,6.8-2.4,12.1-7.3,15.9c-4.9,3.8-11.6,5.7-20,5.7H28V61z M43.8,90.6H53
				c4.3,0,7.4-0.7,9.3-2s2.9-3.5,2.9-6.6c0-2.9-1-4.9-3.1-6.2c-2.1-1.2-5.4-1.9-9.9-1.9h-8.3L43.8,90.6L43.8,90.6z M43.8,103.1v19.5
				H54c4.3,0,7.5-0.8,9.6-2.5s3.1-4.2,3.1-7.7c0-6.2-4.4-9.3-13.2-9.3H43.8z"/>
			<polygon class="st0" points="167.1,159.3 167.1,175.6 45.8,175.6 45.8,159.3 30,159.3 30,191.4 182.9,191.4 182.9,159.7 
				182.9,159.3 			"/>
			<polygon class="st0" points="30,10.5 30,42.2 30,42.6 45.8,42.6 45.8,26.3 167.1,26.3 167.1,42.6 182.9,42.6 182.9,10.5 			"/>
			<g>
				<path class="st0" d="M200.5,164h4v22.7h-4V164z"/>
				<path class="st0" d="M213.7,164h3.7l12.1,15.7V164h3.9v22.7h-3.3l-12.5-16.2v16.2h-3.9V164z"/>
				<path class="st0" d="M242.5,164h4.2l6.9,10.7l6.9-10.7h4.2v22.7h-4v-16.3l-7.1,10.7h-0.1l-7.1-10.6v16.2h-3.9V164z"/>
				<path class="st0" d="M272.8,175.4L272.8,175.4c0-6.5,4.9-11.8,11.9-11.8c6.9,0,11.8,5.3,11.8,11.7v0.1c0,6.4-4.9,11.7-11.9,11.7
					C277.7,187.1,272.8,181.8,272.8,175.4z M292.3,175.4L292.3,175.4c0-4.5-3.2-8.1-7.7-8.1s-7.6,3.6-7.6,8v0.1c0,4.4,3.2,8,7.7,8
					C289.2,183.4,292.3,179.9,292.3,175.4z"/>
				<path class="st0" d="M304.5,164h10.1c2.6,0,4.6,0.7,5.9,2c1,1,1.5,2.2,1.5,3.8v0.1c0,2.7-1.5,4.2-3.2,5.1
					c2.6,0.9,4.5,2.4,4.5,5.5v0.1c0,4.1-3.3,6.2-8.4,6.2h-10.5V164H304.5z M318.1,170.4c0-1.8-1.4-2.9-4-2.9h-5.7v6h5.4
					C316.4,173.6,318.1,172.6,318.1,170.4L318.1,170.4z M314.7,177h-6.3v6.2h6.6c2.7,0,4.4-1.1,4.4-3.1V180
					C319.4,178.1,317.9,177,314.7,177z"/>
				<path class="st0" d="M331.3,164h4v22.7h-4V164z"/>
				<path class="st0" d="M344.6,164h4v19.1h11.9v3.6h-15.9V164z"/>
				<path class="st0" d="M368,164h4v22.7h-4V164z"/>
				<path class="st0" d="M389.3,163.9h3.7l10,22.9h-4.2l-2.3-5.5h-10.7l-2.3,5.5h-4.1L389.3,163.9z M395,177.7l-3.9-9.1l-3.9,9.1
					H395z"/>
				<path class="st0" d="M410.1,164h10.1c2.8,0,5.1,0.8,6.5,2.3c1.2,1.2,1.9,2.9,1.9,4.9v0.1c0,3.7-2.2,6-5.4,6.9l6.1,8.6h-4.7
					l-5.6-7.9h-5v7.9h-4V164H410.1z M419.8,175.3c2.8,0,4.7-1.5,4.7-3.8v-0.1c0-2.4-1.7-3.8-4.7-3.8H414v7.6h5.8V175.3z"/>
				<path class="st0" d="M436.9,164h4v22.7h-4V164z"/>
				<path class="st0" d="M458.1,163.9h3.7l10,22.9h-4.2l-2.3-5.5h-10.7l-2.3,5.5h-4.1L458.1,163.9z M463.8,177.7l-3.9-9.1l-3.9,9.1
					H463.8z"/>
			</g>
		</g>
		<g>
			<g>
				<path class="st0" d="M16.1,164.5c0.4,0.2,0.8,0.4,1,0.8c0.2,0.3,0.4,0.6,0.6,0.9c0.1,0.3,0.2,0.7,0.2,1.2s-0.1,1.1-0.4,1.6
					s-0.7,0.9-1.3,1.1c0.5,0.2,0.9,0.5,1.1,0.9s0.3,1,0.3,1.7v0.7c0,0.5,0,0.9,0.1,1c0.1,0.3,0.2,0.5,0.4,0.6v0.3h-2.6
					c-0.1-0.2-0.1-0.4-0.2-0.6c-0.1-0.3-0.1-0.6-0.1-1v-1c0-0.7-0.1-1.2-0.4-1.4c-0.2-0.2-0.7-0.4-1.3-0.4h-2.3v4.4H9v-11.2h5.3
					C15.1,164.2,15.7,164.3,16.1,164.5z M11.3,166.1v3h2.5c0.5,0,0.9-0.1,1.1-0.2c0.4-0.2,0.7-0.6,0.7-1.3s-0.2-1.1-0.6-1.4
					c-0.2-0.1-0.6-0.2-1.1-0.2L11.3,166.1L11.3,166.1z"/>
			</g>
			<g>
				<path class="st0" d="M13.4,180.7c-5.9,0-10.7-4.8-10.7-10.8s4.8-10.8,10.7-10.8s10.7,4.8,10.7,10.8
					C24.1,175.9,19.3,180.7,13.4,180.7z M13.4,160.8c-5,0-9.1,4.1-9.1,9.1s4.1,9.1,9.1,9.1s9.1-4.1,9.1-9.1
					C22.4,164.9,18.4,160.8,13.4,160.8z"/>
			</g>
		</g>
	</g>
	<g>
		<g>
			<path class="st0" d="M507,268.1c-0.3,0-0.7,0-1,0c0.2,0,0.3,0.1,0.5,0.2C506.7,268.3,506.8,268.2,507,268.1z"/>
			<path class="st0" d="M505,268c-0.1,0-0.1,0-0.2,0s-0.1,0-0.2,0H505z"/>
			<path class="st0" d="M503.2,268.2c0.3,0,0.6,0,0.9,0C503.9,268.1,503.6,268.1,503.2,268.2z"/>
			<path class="st0" d="M504.6,268.3c-0.1-0.1-0.2-0.2,0-0.2l0,0c-0.2,0-0.4,0-0.5,0.1C504.3,268.2,504.5,268.2,504.6,268.3z"/>
			<path class="st0" d="M504.6,268.3c0.1,0.1,0.3,0.2,0.3,0.2C504.9,268.4,504.8,268.4,504.6,268.3z"/>
			<path class="st0" d="M504.2,270.3c-0.2,0.1-0.1-0.5-0.5-0.4c-0.8,0.2-1.5,0.4-2.3,0.4c-0.4,0.1-0.9-0.5-1.3-0.3
				c-0.8,0.2-2.9,1-1.7,0.9c0.9-0.1,1.7-0.2,2.5-0.2c0.8-0.1,1.5-0.1,2.3-0.2c1.4-0.2,2.7-0.5,4.1-0.7c0.4,0,0.8,0,1.1,0.1
				c-0.5-0.1-1-0.2-1.5-0.3C506.2,269.4,505.3,270.2,504.2,270.3z"/>
			<path class="st0" d="M514.5,268.5c-0.2,0.1-0.5,0.2-0.5,0.2c-0.8-0.4-1.6-0.2-2.5-0.1l0.4,0.3c0.5,0,0.5-0.2,0.1-0.3
				c1,0.3,1.9,0.4,2.8,0.3C514.8,268.7,514.8,268.5,514.5,268.5z"/>
			<path class="st0" d="M515.4,268.8c-0.2,0-0.4,0-0.6,0l0,0C515.1,268.9,515.2,268.8,515.4,268.8L515.4,268.8z"/>
			<path class="st0" d="M499.4,268.7c-2.4,0.1-4.6,0.2-6.8,0.2c-0.2,0.1-0.3,0.2-0.5,0.2c-0.2-0.1-0.3-0.1-0.5-0.2c-0.3,0-0.6,0-1,0
				c-0.1,0-0.2,0-0.3,0.1l0,0c-0.2,0.1-0.1,0.2,0,0.2c0.1,0.1,0.2,0.1,0.3,0.2c-0.1,0-0.2-0.1-0.3-0.2c-0.2-0.1-0.3-0.1-0.5-0.1
				c-0.3,0-0.6,0.1-0.9,0.1c0.3-0.1,0.6-0.1,0.9-0.1c0.2,0,0.4-0.1,0.5-0.1s0.1,0,0.2-0.1c-0.7,0-1.5,0-2.2,0c-0.2,0-0.3,0-0.5,0.1
				c-0.5,0.1-1,0.2-1.4,0c-0.1,0-0.3,0-0.4,0h0.1c-0.1,0-0.1,0-0.1,0c-0.5,0-1.1,0-1.7,0.1c-0.3,0.1-0.7,0.3-1.1,0.4
				c0,0-0.3-0.2-0.4-0.2c-0.1,0.2-0.3,0.3-0.6,0.3c0.3,0.1,0.6,0.3,0.9,0.4c0.4,0.2,0.8-0.6,1.3-0.1c-0.5-0.5-0.9,0.4-1.3,0.1
				c-0.3-0.1-0.5-0.3-0.9-0.4c-0.5,0.1-1.2,0.1-1.8-0.1c0.7-0.3,1.2-0.1,1.8,0.1c0.2-0.1,0.5-0.2,0.6-0.3c0.1,0.1,0.4,0.2,0.4,0.2
				c0.4-0.1,0.7-0.3,1.1-0.4c-1.1,0-2.2,0.1-3.3,0.1c-1.8,0.1-3.6,0.1-5.3,0.2c-1.7,0.2-3.5,0.3-5.2,0.5s-3.5,0.3-5.2,0.6
				c-1.8,0.3-3.6,0.5-5.4,0.8c-1,0.1-2,0.3-3,0.4s-2,0.3-2.9,0.5c-1.9,0.3-3.9,0.6-5.8,0.9c-1.9,0.4-3.7,0.8-5.5,1.3l-1.3,0.4
				c-0.4,0.1-0.9,0.3-1.3,0.4l-2.6,0.9c-0.9,0.3-1.8,0.5-2.6,0.9c-0.9,0.3-1.8,0.6-2.7,0.9c-0.9,0.3-1.8,0.6-2.7,0.9
				c-0.9,0.3-1.9,0.6-2.8,0.9c-0.4,0.1-0.8,0.3-1.2,0.4c-0.4,0.2-0.9,0.4-1.3,0.6c-0.9,0.5-1.9,1-2.8,1.6c-1.9,1.2-3.6,2.6-4.8,3.7
				c-0.7,0.9-0.9,1.6-0.9,2.2c-0.1,0.6,0.2,1,0.5,1.2s0.7,0.3,1,0.3c0.3,0.1,0.5,0.1,0.6,0.1c0.8-0.1,1.4-0.2,1.9-0.4
				c0.5-0.2,1-0.5,1.6-0.8c0.3-0.2,0.6-0.4,0.9-0.6s0.7-0.4,1-0.6c0.8-0.4,1.6-0.8,2.8-1.1c-1.5,0.5-1.2-0.1-0.1-0.8
				c0.6-0.4,1.3-0.8,2.2-1.1c0.9-0.3,1.8-0.5,2.6-0.5c0.6,0,1.2-0.1,1.8-0.2c0.6-0.1,1.2-0.2,1.8-0.4c1.2-0.3,2.4-0.9,3.7-1.4
				c2.5-0.9,5.1-2.3,7.8-2.6c1.3-0.2,2.6-0.7,4.2-1.1c4.1-0.5,7.9-1.6,11.9-2.3c2-0.4,4-0.9,6-1.2c2.1-0.3,4.2-0.6,6.3-0.8
				c1.1-0.1,2.2-0.4,3.2-0.7c1-0.2,2-0.5,3-0.7c1.4-0.2,3-0.1,4.1-0.1c1.8-0.1,3.4-0.5,4.9-0.8c-1.7,0.2-2.9,0.5-4.8,0.7
				c-1.2,0.1,0.8-0.8,1.6-1c0.3-0.2,0.9,0.4,1.3,0.3c0.8-0.1,1.5-0.4,2.3-0.5c0.4-0.1,0.3,0.4,0.5,0.4c1.1-0.2,2-0.9,2.7-0.8
				c0.6,0.1,1.1,0.1,1.5,0.2c0.3,0,0.6,0,0.9,0c0.2-0.1,0.4-0.1,0.6-0.2c-0.2-0.2-0.2-0.4-0.3-0.6c0.3,0,0.7,0.1,1,0.1
				c-0.3,0-0.7-0.1-1-0.1c0.1,0.2,0.1,0.4,0.3,0.6c1.5-0.4,3.2-0.7,4.8-1l0,0c-0.9,0.1-1.9,0.1-2.8-0.2c0.4,0.1,0.4,0.3-0.1,0.3
				l-0.4-0.3c0.8-0.2,1.7-0.4,2.5,0c0,0,0.4-0.1,0.5-0.2c0.3,0.1,0.3,0.2,0.3,0.4c0.2,0,0.4,0,0.6-0.1
				C500.7,269,499.4,268.7,499.4,268.7z"/>
			<path class="st0" d="M489.7,269.1c0.1,0,0.3,0,0.5-0.1c-0.6,0-1.2,0-1.8,0C488.7,269.3,489.2,269.2,489.7,269.1z"/>
		</g>
		<g>
			<g>
				<path class="st0" d="M39.1,235.2h15.3l-1,3.9H42.8l-1.8,7.5h9.3l-0.9,3.8H40l-2.2,8.8h10.9l-1,3.9H32.2L39.1,235.2z"/>
				<path class="st0" d="M56.9,242.8h4.4l-0.7,2.7c2.1-2,4.6-3.2,7.3-3.2c4.3,0,5.3,2.9,4.4,6.5l-3.5,14.4h-4.4l3.3-13.4
					c0.6-2.3,0.1-3.6-2.2-3.6c-2,0-4.2,1.6-5.6,3.1l-3.4,13.9H52L56.9,242.8z"/>
				<path class="st0" d="M80.6,260.9l3.5-4.1c0.5,0.5,2.2,2.1,5.5,2.1c2.8,0,4.8-1.4,5.2-3.2c0.6-2.5-2.2-3.2-5-4.8
					c-3-1.7-5-3.8-3.9-8.4c1.2-4.8,5.9-7.8,10.9-7.8c4.6,0,6.6,1.5,7.6,2.4l-3.4,4.2c-0.8-0.6-2.6-1.7-5-1.7c-2.3,0-4,1-4.4,2.9
					c-0.5,2.2,1.5,2.9,4.1,4.2c3.3,1.7,6.3,3.6,5,8.7c-1.2,5.1-5.8,8.3-12,8.3C84,263.7,81.5,261.9,80.6,260.9z"/>
				<path class="st0" d="M101.8,257.9c1.3-5.3,7.3-7.3,12.6-7.3h0.7l0.3-1.2c0.5-2-0.2-2.9-2.6-2.9c-2.2,0-4.2,1-5.7,1.9l-1.6-3.4
					c2-1.5,5.1-2.9,9-2.9c5.6,0,7.7,2.1,6.3,7.6l-1.8,7.4c-0.7,2.8-0.9,4.7-0.9,6h-5.5c0-0.5,0.1-1.6,0.2-2.2
					c-1.4,1.3-3.8,2.7-6.4,2.7C103.1,263.7,100.9,261.6,101.8,257.9z M113.4,257.8l0.9-3.7h-0.7c-3.3,0-5.8,1-6.3,3.4
					c-0.4,1.5,0.7,2.1,1.9,2.1C111,259.6,112.3,258.8,113.4,257.8z"/>
				<path class="st0" d="M127,242.7h5.4l-0.6,2.6c1.9-1.7,4.3-3.1,7.2-3.1c4.4,0,5.4,2.9,4.5,6.6l-3.5,14.3h-5.6l3.2-13.2
					c0.5-2.1,0-3.1-2-3.1c-1.8,0-3.7,1.4-4.8,2.6l-3.4,13.7H122L127,242.7z"/>
				<path class="st0" d="M147.3,257.3l2.5-10.4h-3.3l1-4.2h3.3l1.4-5.9h5.5l-1.4,5.9h4.8l-1,4.2h-4.8l-2.3,9.3
					c-0.5,2-0.2,2.9,1.3,2.9c1.2,0,2.4-0.5,2.9-0.8l0.3,4.2c-0.9,0.5-2.8,1.2-5.4,1.2C147.3,263.7,146.3,261.2,147.3,257.3z"/>
				<path class="st0" d="M165.2,242.7h5.6l-5,20.5h-5.6L165.2,242.7z M166.1,236.7c0.4-1.8,2.2-3.3,4.2-3.3s3.1,1.5,2.6,3.3
					c-0.4,1.8-2.3,3.4-4.2,3.4S165.6,238.5,166.1,236.7z"/>
				<path class="st0" d="M170.7,257.9c1.3-5.3,7.3-7.3,12.6-7.3h0.7l0.3-1.2c0.5-2-0.2-2.9-2.6-2.9c-2.2,0-4.2,1-5.7,1.9l-1.6-3.4
					c2-1.5,5.1-2.9,9-2.9c5.6,0,7.7,2.1,6.3,7.6l-1.8,7.4c-0.7,2.8-0.9,4.7-0.9,6h-5.5c0-0.5,0.1-1.6,0.2-2.2
					c-1.4,1.3-3.8,2.7-6.4,2.7C171.9,263.7,169.8,261.6,170.7,257.9z M182.3,257.8l0.9-3.7h-0.7c-3.3,0-5.8,1-6.3,3.4
					c-0.4,1.5,0.7,2.1,1.9,2.1C179.8,259.6,181.1,258.8,182.3,257.8z"/>
				<path class="st0" d="M188.2,267.7c0.6-2.3,2.4-3.9,4.6-5c-1-0.7-1.4-1.6-1-3.1c0.5-1.9,1.8-3.1,3.2-3.9c-2-1.3-2.8-3.4-2.1-6.1
					c1.1-4.4,5.2-7.4,10.8-7.4c1.3,0,2.6,0.2,3.5,0.5h7.4l-0.9,3.7H211c0.3,1,0.3,2.1,0,3.3c-1.1,4.4-4.9,7.4-10.6,7.4
					c-0.8,0-1.7,0-2.4-0.2c-0.6,0.3-0.9,0.7-1,1.2c-0.3,1.1,0.9,1.3,3.7,1.5c4.2,0.2,9.5,0.3,8,6.3c-1.1,4.3-6.3,7.4-13,7.4
					C190.2,273.2,187.3,271.4,188.2,267.7z M203.1,266.4c0.5-2.2-1.4-2.1-4.3-2.3c-0.9-0.1-1.9-0.1-2.7-0.3c-1.2,0.8-2,1.6-2.3,2.9
					c-0.4,1.6,0.5,2.8,3.3,2.8C200.5,269.5,202.7,268.2,203.1,266.4z M205.7,249.6c0.6-2.4-0.5-3.8-2.8-3.8s-4,1.4-4.6,3.8
					c-0.6,2.4,0.5,3.8,2.8,3.8C203.4,253.4,205.1,252,205.7,249.6z"/>
				<path class="st0" d="M213.1,253c1.3-5.3,5.7-10.8,12.8-10.8s9,5.4,7.7,10.6c-1.3,5.2-5.8,10.8-12.9,10.8
					C213.6,263.7,211.8,258.2,213.1,253z M227.7,253c0.9-3.8,0.3-6.6-2.9-6.6c-3.1,0-4.8,2.6-5.8,6.5c-0.9,3.8-0.4,6.6,2.8,6.6
					C225,259.4,226.7,256.8,227.7,253z"/>
				<path class="st0" d="M235.5,264.6c0.5-1.9-1.7-2.1-1.1-4.5c0.4-1.6,1.9-2.8,3.6-2.8c1.8,0,3.1,1.5,2.5,4
					c-0.6,2.6-2.6,5.5-4.9,7.7h-2.9C234.1,267.6,235.2,265.9,235.5,264.6z"/>
				<path class="st0" d="M257.2,242.8h4.4l-0.7,2.7c2.1-2,4.6-3.2,7.3-3.2c4.3,0,5.3,2.9,4.4,6.5l-3.5,14.4h-4.4l3.3-13.4
					c0.6-2.3,0.1-3.6-2.2-3.6c-2,0-4.2,1.6-5.6,3.1l-3.4,13.9h-4.5L257.2,242.8z"/>
				<path class="st0" d="M275.4,257.2l3.5-14.4h4.4l-3.3,13.4c-0.6,2.3-0.1,3.6,2.2,3.6c2.5,0,5.1-2.5,5.6-3.1l3.4-13.9h4.4
					l-3.7,15.2c-0.5,2.2-0.8,4.1-0.8,5.2h-4.4c0-0.5,0.1-1.9,0.3-2.9c-1.3,1.3-3.9,3.4-7.3,3.4C275.5,263.7,274.6,260.8,275.4,257.2
					z"/>
				<path class="st0" d="M297,252.9c1.5-6.2,6.6-10.5,12.2-10.5c5.4,0,7.6,3.6,6.1,9.6c-0.1,0.5-0.3,1.2-0.5,1.8h-13.2
					c-0.7,3.6,0.2,6.5,4.1,6.5c2.8,0,4.7-1.1,5.8-1.6l0.8,3.1c-1.3,0.7-3.8,2-7.8,2C297.9,263.7,295.5,259.1,297,252.9z
					 M311.2,250.5c0.5-2.6,0-4.7-3-4.7c-2.7,0-4.7,1.9-5.9,4.7H311.2z"/>
				<path class="st0" d="M315.1,261.7l2.4-3.2c0.6,0.5,2.3,1.7,4.6,1.7s3.9-0.8,4.3-2.4s-1.4-2.1-4-3.5c-2.6-1.3-4.3-2.9-3.5-6.1
					c0.9-3.5,4.2-6,8.5-6c3.4,0,5.2,1.3,5.8,1.8l-2.5,3.1c-0.6-0.5-2-1.4-4.1-1.4c-2,0-3.3,0.8-3.6,2.2c-0.4,1.6,1.2,2.2,3.3,3.1
					c2.9,1.3,5.2,2.8,4.4,6.3c-1,4-4.5,6.3-9.2,6.3C318.1,263.7,316.1,262.6,315.1,261.7z"/>
				<path class="st0" d="M335.4,257.7l2.8-11.5h-3.3l0.8-3.4h3.3l1.4-5.8h4.4l-1.4,5.8h4.9l-0.8,3.4h-4.9L340,257
					c-0.5,2-0.2,2.9,1.5,2.9c1.2,0,2.4-0.6,2.9-0.8l0.4,3.4c-0.9,0.4-2.6,1.2-5,1.2C335.6,263.7,334.5,261.4,335.4,257.7z"/>
				<path class="st0" d="M352.5,242.8h4.5l-0.7,2.9c1.2-1.4,3.4-3.4,6.1-3.4c1.4,0,2,0.3,2.3,0.5l-2.1,4c-0.3-0.2-0.7-0.4-1.9-0.4
					c-2.7,0-5,2.8-5.5,3.6l-3.2,13.2h-4.5L352.5,242.8z"/>
				<path class="st0" d="M362.6,253c1.2-5,5.3-10.7,12.3-10.7c6.9,0,8.6,5.6,7.4,10.6c-1.2,5-5.6,10.8-12.5,10.8
					C362.8,263.7,361.4,258,362.6,253z M377.6,253c1-4,0.1-7.2-3.6-7.2c-3.6,0-5.7,3.1-6.7,7.1c-1,4-0.2,7.2,3.4,7.2
					C374.4,260.1,376.6,257.1,377.6,253z"/>
				<path class="st0" d="M393.5,249.1c1.9-7.6,8.5-14.5,17.9-14.5c3.6,0,6,0.8,7.8,2.2l-3.7,4.3c-1.3-1-2.9-1.6-5.4-1.6
					c-5.2,0-9.1,4.2-10.3,9.4c-1.3,5.3,0.3,9.7,5.7,9.7c3,0,5.1-1.1,6.8-2.1l1.4,4.2c-1.7,1.3-5.5,2.9-9.5,2.9
					C394.8,263.7,391.7,256.7,393.5,249.1z"/>
				<path class="st0" d="M416.5,252.8c1.6-6.5,7-10.6,12.7-10.6c5.8,0,8,3.7,6.4,10.1c-0.2,0.6-0.3,1.3-0.6,1.9h-12.9
					c-0.5,3,0.5,5.3,3.9,5.3c2.8,0,4.5-0.9,5.7-1.4l0.9,3.6c-1.5,0.8-3.9,2-8.1,2C417.7,263.7,414.9,259.3,416.5,252.8z
					 M430.6,250.4c0.5-2.3,0.1-4.2-2.5-4.2c-2.4,0-4.1,1.6-5.1,4.2H430.6z"/>
				<path class="st0" d="M441.3,242.7h5.4l-0.6,2.6c1.9-1.7,4.3-3.1,7.2-3.1c4.4,0,5.4,2.9,4.5,6.6l-3.5,14.3h-5.6L452,250
					c0.5-2.1,0-3.1-2-3.1c-1.8,0-3.7,1.4-4.8,2.6l-3.4,13.7h-5.6L441.3,242.7z"/>
				<path class="st0" d="M461.6,257.3l2.5-10.4h-3.3l1-4.2h3.3l1.4-5.9h5.5l-1.4,5.9h4.8l-1,4.2h-4.8l-2.3,9.3
					c-0.5,2-0.2,2.9,1.3,2.9c1.2,0,2.4-0.5,2.9-0.8l0.3,4.2c-0.9,0.5-2.8,1.2-5.4,1.2C461.6,263.7,460.6,261.2,461.6,257.3z"/>
				<path class="st0" d="M479.1,242.7h5.6l-0.7,2.8c1.2-1.5,3.4-3.3,5.9-3.3c1.5,0,2.2,0.3,2.6,0.5l-2.5,4.9c-0.3-0.2-0.8-0.5-2-0.5
					c-2.5,0-4.5,2.2-5.2,3.1l-3.2,12.9H474L479.1,242.7z"/>
				<path class="st0" d="M490.2,253c1.3-5.3,5.7-10.8,12.8-10.8s9,5.4,7.7,10.6c-1.3,5.2-5.8,10.8-12.9,10.8
					C490.7,263.7,488.9,258.2,490.2,253z M504.8,253c0.9-3.8,0.3-6.6-2.9-6.6c-3.1,0-4.8,2.6-5.8,6.5c-0.9,3.8-0.4,6.6,2.8,6.6
					C502.1,259.4,503.9,256.8,504.8,253z"/>
				<path class="st0" d="M520.5,252.9c1.5-6.2,6.6-10.5,12.2-10.5c5.4,0,7.6,3.6,6.1,9.6c-0.1,0.5-0.3,1.2-0.5,1.8H525
					c-0.7,3.6,0.2,6.5,4.1,6.5c2.8,0,4.7-1.1,5.8-1.6l0.8,3.1c-1.3,0.7-3.8,2-7.8,2C521.3,263.7,518.9,259.1,520.5,252.9z
					 M534.7,250.5c0.5-2.6,0-4.7-3-4.7c-2.7,0-4.7,1.9-5.9,4.7H534.7z"/>
				<path class="st0" d="M544.8,242.8h4.5l-0.7,2.9c1.2-1.4,3.4-3.4,6.1-3.4c1.4,0,2,0.3,2.3,0.5l-2.1,4c-0.3-0.2-0.7-0.4-1.9-0.4
					c-2.7,0-5,2.8-5.5,3.6l-3.2,13.2h-4.5L544.8,242.8z"/>
				<path class="st0" d="M555.1,252.9c1.5-6.2,6.6-10.5,12.2-10.5c5.4,0,7.6,3.6,6.1,9.6c-0.1,0.5-0.3,1.2-0.5,1.8h-13.2
					c-0.7,3.6,0.2,6.5,4.1,6.5c2.8,0,4.7-1.1,5.8-1.6l0.8,3.1c-1.3,0.7-3.8,2-7.8,2C556,263.7,553.6,259.1,555.1,252.9z
					 M569.3,250.5c0.5-2.6,0-4.7-3-4.7c-2.7,0-4.7,1.9-5.9,4.7H569.3z"/>
				<path class="st0" d="M573.2,261.7l2.4-3.2c0.6,0.5,2.3,1.7,4.6,1.7s3.9-0.8,4.3-2.4c0.4-1.6-1.4-2.1-4-3.5
					c-2.6-1.3-4.3-2.9-3.5-6.1c0.9-3.5,4.2-6,8.5-6c3.4,0,5.2,1.3,5.8,1.8l-2.5,3.1c-0.6-0.5-2-1.4-4.1-1.4c-2,0-3.3,0.8-3.6,2.2
					c-0.4,1.6,1.2,2.2,3.3,3.1c2.9,1.3,5.2,2.8,4.4,6.3c-1,4-4.5,6.3-9.2,6.3C576.2,263.7,574.2,262.6,573.2,261.7z"/>
				<path class="st0" d="M601.3,257.7l2.8-11.5h-3.3l0.8-3.4h3.3l1.4-5.8h4.4l-1.4,5.8h4.9l-0.8,3.4h-4.9l-2.6,10.8
					c-0.5,2-0.2,2.9,1.5,2.9c1.2,0,2.4-0.6,2.9-0.8l0.4,3.4c-0.9,0.4-2.6,1.2-5,1.2C601.5,263.7,600.4,261.4,601.3,257.7z"/>
				<path class="st0" d="M614.6,257.2l3.5-14.4h4.4l-3.3,13.4c-0.6,2.3-0.1,3.6,2.2,3.6c2.5,0,5.1-2.5,5.6-3.1l3.4-13.9h4.4
					l-3.7,15.2c-0.5,2.2-0.8,4.1-0.8,5.2h-4.4c0-0.5,0.1-1.9,0.3-2.9c-1.3,1.3-3.9,3.4-7.3,3.4C614.7,263.7,613.7,260.8,614.6,257.2
					z M630.1,234.9h6l-7.1,5.5h-3.9L630.1,234.9z"/>
				<path class="st0" d="M635,260.4c0.4-1.8,2.2-3.1,4-3.1s2.8,1.3,2.4,3.1c-0.4,1.8-2.2,3.2-3.9,3.2
					C635.7,263.6,634.6,262.2,635,260.4z"/>
			</g>
		</g>
	</g>
</g>
</svg>
