<?xml version="1.0" encoding="utf-8"?>
<!-- Generator: Adobe Illustrator 25.1.0, SVG Export Plug-In . SVG Version: 6.00 Build 0)  -->
<svg version="1.1" id="Layer_1" xmlns="http://www.w3.org/2000/svg" xmlns:xlink="http://www.w3.org/1999/xlink" x="0px" y="0px"
	 viewBox="0 0 138.6 51.7" style="enable-background:new 0 0 138.6 51.7;" xml:space="preserve">
<style type="text/css">
	.st0{fill:#FCFCFC;}
</style>
<g transform="translate(-326.13 -32.499)">
	<g transform="translate(326.141 46.395)">
		<path class="st0" d="M9.6,0.4h7.8c4.3,0,8,1.4,8,5.7c0.2,2.6-1.6,4.8-4.1,5.3v0.1c2.8,0.4,5.1,2.2,5.1,5.5c0,4.7-3.8,6.4-9.1,6.4
			H9.6L9.6,0.4z M16.7,9.9c2.7,0,3.8-0.9,3.8-3c0-1.9-1.3-2.8-3.7-2.8h-2.4v5.7H16.7z M17,19.7c2.8,0,4.3-0.9,4.3-3.1
			c0-2.1-1.3-3.3-4.1-3.3h-2.8v6.3L17,19.7z"/>
		<path class="st0" d="M29.9,0.4h7.8c5.5,0,8.6,2.3,8.6,6.6c0,3.8-2.6,5.7-5.4,6.2v0.1c1.1,0.9,2,2,2.7,3.3l4.5,6.9h-5.4l-4.3-6.6
			c-1.8-2.7-2.2-2.9-3.3-2.9h-0.3v9.5h-4.9L29.9,0.4z M37.6,10.5c2.6,0,3.8-1.2,3.8-3.2c0-2.1-1.2-3.2-4.1-3.2h-2.5v6.4L37.6,10.5z"
			/>
		<path class="st0" d="M51.1,0.4h4.9v23.1h-4.9V0.4z"/>
		<path class="st0" d="M60.1,11.9c0-6.3,4.2-11.9,12-11.9c2.5-0.1,4.9,0.5,7,1.8L77,5.4c-1.4-0.9-3.1-1.4-4.9-1.3
			c-4.4,0-6.7,3.5-6.7,7.7c0,4.4,2.2,8,6.8,8c1.9,0,3.8-0.6,5.3-1.8l2,3.4c-2.1,1.6-4.7,2.5-7.4,2.4C64.2,23.9,60.1,18.2,60.1,11.9z
			"/>
		<path class="st0" d="M82.5,0.4h4.9v10l7.9-10h5.5l-8.6,10.7l9,12.4h-5.8l-7.9-11v11h-4.9L82.5,0.4z"/>
	</g>
	<g transform="translate(378.494 77.431)">
		<path class="st0" d="M9.6,6.6V0.1h0.8v6.5H9.6z"/>
		<path class="st0" d="M13.1,6.6V0.1h0.4L17.7,5V0.1h0.8v6.5h-0.4l-4.2-4.8v4.8H13.1z"/>
		<path class="st0" d="M21.1,6.6V0.1h0.7l2.6,4l2.6-4h0.7v6.5H27V1.6l-2.6,3.8l-2.6-3.8v5.1H21.1z"/>
		<path class="st0" d="M33.3,6.8c-0.9,0-1.8-0.3-2.4-1c-1.3-1.4-1.3-3.5,0-4.9c1.3-1.3,3.5-1.3,4.8,0c1.3,1.4,1.3,3.5,0,4.9
			C35,6.5,34.2,6.8,33.3,6.8z M33.3,6c0.7,0,1.3-0.3,1.8-0.7c1-1.1,1-2.7,0-3.8c-1-1-2.6-1-3.6,0c-1,1.1-1,2.7,0,3.8
			C31.9,5.8,32.6,6,33.3,6z"/>
		<path class="st0" d="M38.8,6.6V0.1h3.8c0.5,0,1,0.1,1.4,0.4c0.3,0.3,0.5,0.7,0.5,1.2c0,0.2,0,0.5-0.2,0.7
			c-0.1,0.2-0.2,0.4-0.4,0.5c0.3,0.2,0.6,0.4,0.8,0.7C44.9,4,45,4.3,45,4.7c0,0.5-0.2,1.1-0.6,1.4c-0.4,0.4-1,0.6-1.6,0.5L38.8,6.6z
			 M39.6,2.7h3.1c0.3,0,0.6-0.1,0.8-0.2c0.2-0.2,0.3-0.4,0.3-0.7c0-0.3-0.1-0.5-0.3-0.7c-0.2-0.2-0.5-0.2-0.8-0.2h-3.1V2.7z
			 M39.6,5.9H43c0.3,0,0.6-0.1,0.9-0.3c0.4-0.5,0.4-1.3,0-1.8c-0.2-0.2-0.5-0.3-0.9-0.3h-3.4V5.9z"/>
		<path class="st0" d="M47.3,6.6V0.1h0.8v6.5H47.3z"/>
		<path class="st0" d="M50.8,6.6V0.1h0.8v5.7h4.2v0.7H50.8z"/>
		<path class="st0" d="M57.6,6.6V0.1h0.8v6.5H57.6z"/>
		<path class="st0" d="M60.1,6.6l3.2-6.5h0.7l3.2,6.5h-0.9l-0.9-1.7h-3.6l-0.9,1.7H60.1z M62.2,4.1H65l-1.4-2.9L62.2,4.1z"/>
		<path class="st0" d="M68.8,6.6V0.1h3.7c0.5,0,1.1,0.1,1.5,0.5c0.4,0.3,0.6,0.8,0.5,1.3c0,0.4-0.1,0.9-0.4,1.2
			c-0.3,0.3-0.7,0.6-1.1,0.6l1.6,2.8h-0.9l-1.6-2.8h-2.5v2.8L68.8,6.6z M69.6,3h2.9c0.3,0,0.7-0.1,0.9-0.3c0.2-0.2,0.3-0.5,0.3-0.8
			c0-0.3-0.1-0.6-0.3-0.8c-0.2-0.2-0.6-0.3-0.9-0.3h-2.9L69.6,3z"/>
		<path class="st0" d="M76.7,6.6V0.1h0.8v6.5H76.7z"/>
		<path class="st0" d="M79.2,6.6l3.2-6.5h0.7l3.2,6.5h-0.9l-0.9-1.7H81l-0.9,1.7H79.2z M81.3,4.1h2.9l-1.4-2.9L81.3,4.1z"/>
	</g>
	<path class="st0" d="M377.3,74.8v4.5h-36.6v-4.5h-4.9v9.4h46.5v-9.4H377.3z"/>
	<path class="st0" d="M340.6,41.9v-4.5h36.6v4.5h4.9v-9.4h-46.5v9.4L340.6,41.9z"/>
</g>
<g>
	<g>
		<path class="st0" d="M5.2,43.9c0.1,0.1,0.2,0.1,0.3,0.2c0.1,0.1,0.1,0.2,0.2,0.3s0.1,0.2,0.1,0.3c0,0.2,0,0.3-0.1,0.4
			c-0.1,0.1-0.2,0.2-0.4,0.3c0.1,0.1,0.3,0.1,0.3,0.3c0.1,0.1,0.1,0.3,0.1,0.5v0.2c0,0.1,0,0.2,0,0.3c0,0.1,0.1,0.1,0.1,0.2v0.1H5.1
			c0-0.1,0-0.1,0-0.2c0-0.1,0-0.2,0-0.3l0-0.3c0-0.2,0-0.3-0.1-0.4c-0.1-0.1-0.2-0.1-0.4-0.1H3.8V47H3.2v-3.2h1.5
			C4.9,43.8,5.1,43.8,5.2,43.9z M3.8,44.3v0.9h0.7c0.1,0,0.2,0,0.3-0.1c0.1-0.1,0.2-0.2,0.2-0.4c0-0.2-0.1-0.3-0.2-0.4
			c-0.1,0-0.2-0.1-0.3-0.1H3.8L3.8,44.3z"/>
	</g>
	<g>
		<path class="st0" d="M4.4,48.5c-1.7,0-3.1-1.4-3.1-3.1s1.4-3.1,3.1-3.1s3.1,1.4,3.1,3.1C7.5,47.1,6.1,48.5,4.4,48.5z M4.4,42.8
			c-1.4,0-2.6,1.2-2.6,2.6C1.8,46.8,3,48,4.4,48S7,46.8,7,45.4C7,44,5.9,42.8,4.4,42.8z"/>
	</g>
</g>
</svg>
