<svg xmlns="http://www.w3.org/2000/svg" width="129.069" height="51.715" viewBox="0 0 129.069 51.715"><defs><style>.a{fill:#fcfcfc;}</style></defs><g transform="translate(-326.13 -32.499)"><g transform="translate(326.141 46.395)"><path class="a" d="M326.143,49.1h7.763c4.3,0,8.044,1.385,8.044,5.748a5.042,5.042,0,0,1-4.127,5.3v.07c2.762.415,5.106,2.25,5.106,5.54,0,4.71-3.812,6.407-9.128,6.407h-7.659Zm7.134,9.488c2.658,0,3.812-.935,3.812-2.978,0-1.9-1.259-2.77-3.707-2.77H331v5.748Zm.315,9.835c2.833,0,4.337-.866,4.337-3.082,0-2.147-1.259-3.255-4.127-3.255H331v6.338Z" transform="translate(-326.143 -48.688)"/><path class="a" d="M349.756,49.1h7.764c5.456,0,8.6,2.32,8.6,6.649,0,3.774-2.587,5.679-5.421,6.2v.07a12.176,12.176,0,0,1,2.728,3.29l4.547,6.857h-5.421l-4.267-6.58c-1.819-2.667-2.2-2.909-3.287-2.909h-.315v9.489h-4.931Zm7.625,10.112c2.623,0,3.847-1.177,3.847-3.187,0-2.113-1.224-3.186-4.057-3.186h-2.483v6.372Z" transform="translate(-329.403 -48.688)"/><path class="a" d="M374.344,49.1h4.931V72.166h-4.931Z" transform="translate(-332.798 -48.688)"/><path class="a" d="M384.812,60.534c0-6.268,4.161-11.913,12.03-11.913a12.194,12.194,0,0,1,6.995,1.836l-2.2,3.566a8.408,8.408,0,0,0-4.861-1.35c-4.372,0-6.714,3.462-6.714,7.722,0,4.4,2.238,8.034,6.784,8.034a8.29,8.29,0,0,0,5.281-1.766l2.028,3.429a11.776,11.776,0,0,1-7.379,2.424C388.834,72.515,384.812,66.8,384.812,60.534Z" transform="translate(-334.244 -48.621)"/><path class="a" d="M410.7,49.1h4.9V59.145L423.532,49.1h5.456l-8.568,10.7,8.953,12.363h-5.84l-7.938-11.047V72.166h-4.9Z" transform="translate(-337.818 -48.688)"/></g><g transform="translate(378.494 77.431)"><path class="a" d="M386.883,91.259V84.751h.815v6.508Z" transform="translate(-386.883 -84.646)"/><path class="a" d="M390.922,91.265V84.792h.422l4.2,4.837V84.792h.809v6.473h-.41l-4.216-4.837v4.837Z" transform="translate(-387.441 -84.651)"/><path class="a" d="M400.254,91.265V84.792H401l2.615,3.963,2.633-3.963h.733v6.473h-.8V86.211l-2.569,3.829-2.568-3.829v5.054Z" transform="translate(-388.729 -84.651)"/><path class="a" d="M413.84,91.412a3.234,3.234,0,0,1-2.4-.958,3.6,3.6,0,0,1,0-4.866,3.49,3.49,0,0,1,4.808,0,3.576,3.576,0,0,1,0,4.864A3.262,3.262,0,0,1,413.84,91.412Zm0-.756a2.4,2.4,0,0,0,1.806-.745,2.861,2.861,0,0,0,0-3.782,2.562,2.562,0,0,0-3.615,0,2.855,2.855,0,0,0,0,3.779A2.4,2.4,0,0,0,413.84,90.656Z" transform="translate(-390.143 -84.629)"/><path class="a" d="M420.755,91.265V84.792h3.829a2.21,2.21,0,0,1,1.445.408,1.479,1.479,0,0,1,.49,1.2,1.533,1.533,0,0,1-.152.691,1.268,1.268,0,0,1-.434.493,2.136,2.136,0,0,1,.779.733,1.873,1.873,0,0,1,.265,1,1.808,1.808,0,0,1-.59,1.422,2.316,2.316,0,0,1-1.6.525Zm.8-3.917h3.1a1.164,1.164,0,0,0,.78-.232.829.829,0,0,0,.269-.665.866.866,0,0,0-.26-.686,1.17,1.17,0,0,0-.789-.228h-3.1Zm0,3.172h3.389a1.155,1.155,0,0,0,.868-.326,1.4,1.4,0,0,0,0-1.773,1.147,1.147,0,0,0-.868-.328h-3.389Z" transform="translate(-391.56 -84.651)"/><path class="a" d="M430.7,91.259V84.751h.815v6.508Z" transform="translate(-392.933 -84.646)"/><path class="a" d="M434.739,91.265V84.792h.8V90.52h4.228v.745Z" transform="translate(-393.491 -84.651)"/><path class="a" d="M442.554,91.259V84.751h.815v6.508Z" transform="translate(-394.57 -84.646)"/><path class="a" d="M445.465,91.265l3.172-6.473h.668l3.207,6.473h-.873l-.88-1.741h-3.576l-.856,1.741Zm2.087-2.5h2.85l-1.43-2.867Z" transform="translate(-394.972 -84.651)"/><path class="a" d="M455.579,91.265V84.792h3.711a2.171,2.171,0,0,1,1.489.478,1.676,1.676,0,0,1,.54,1.322,1.809,1.809,0,0,1-.422,1.2,1.828,1.828,0,0,1-1.115.625l1.619,2.843h-.891l-1.619-2.832h-2.509v2.832Zm.8-3.588h2.856a1.382,1.382,0,0,0,.923-.27.988.988,0,0,0,.314-.791,1.02,1.02,0,0,0-.314-.795,1.267,1.267,0,0,0-.883-.284h-2.9Z" transform="translate(-396.368 -84.651)"/><path class="a" d="M464.789,91.259V84.751h.815v6.508Z" transform="translate(-397.64 -84.646)"/><path class="a" d="M467.7,91.265l3.172-6.473h.669l3.207,6.473h-.874l-.879-1.741h-3.577l-.856,1.741Zm2.088-2.5h2.85L471.205,85.9Z" transform="translate(-398.042 -84.651)"/></g><path class="a" d="M367.7,81.538v4.516H331.052V81.538H326.13v9.438h46.492V81.538Z" transform="translate(0 -6.771)"/><path class="a" d="M331.052,41.937V37.421H367.7v4.516h4.922V32.5H326.13v9.438Z" transform="translate(0 0)"/></g></svg>