<svg xmlns="http://www.w3.org/2000/svg" width="96" height="77" viewBox="0 0 96 77"><defs><style>.a{fill:#fff;}.b{fill:none;}</style></defs><g transform="translate(-797 -2150)"><g transform="translate(815.306 2169.146)"><g transform="translate(0.04 0)"><path class="a" d="M54.421,5.831a3.847,3.847,0,0,0-1.944.54V3.887a3.887,3.887,0,1,0-7.774,0v8.746H40.489l-3.561-3.59V5.032a3.4,3.4,0,0,0-3.418-3.4,3.338,3.338,0,0,0-1.7.477,3.4,3.4,0,0,0-5.967-.6,3.384,3.384,0,0,0-5.182,1.418,3.425,3.425,0,0,0-1.73-.477A3.387,3.387,0,0,0,15.55,5.831v6.8h-1.9V3.887a3.887,3.887,0,1,0-7.774,0V6.371a3.847,3.847,0,0,0-1.944-.54A3.887,3.887,0,0,0,.04,9.718V24.294a3.887,3.887,0,0,0,3.887,3.887,3.847,3.847,0,0,0,1.944-.54v2.484a3.887,3.887,0,0,0,7.774,0V21.379h2.876v.612A9.391,9.391,0,0,0,17.8,27.064l1.128,1.951a2.966,2.966,0,0,1,.51,1.469v8.746a1.586,1.586,0,0,0,1.584,1.584H33.391a1.6,1.6,0,0,0,1.594-1.594V30.387a.92.92,0,0,1,.139-.486l4.994-8.522H44.7v8.746a3.887,3.887,0,1,0,7.774,0V27.641a3.847,3.847,0,0,0,1.944.54,3.887,3.887,0,0,0,3.887-3.887V9.718a3.887,3.887,0,0,0-3.887-3.887ZM33.544,3.574a1.452,1.452,0,0,1,1.441,1.458V7.084l-.46-.464a2.972,2.972,0,0,0-2.09-.861h-.01a2.688,2.688,0,0,0-.356.035V5.032a1.458,1.458,0,0,1,1.474-1.458ZM27.211,3.4a1.458,1.458,0,0,1,2.915,0V7a4.811,4.811,0,0,0,0,5.248v.588a1.542,1.542,0,0,1-1.458,1.024,1.443,1.443,0,0,1-1.458-1.44Zm-4.859.8a1.458,1.458,0,0,1,2.915,0v8.212a1.445,1.445,0,0,1-1.443,1.444H23.8a1.445,1.445,0,0,1-1.443-1.444ZM17.493,5.831a1.458,1.458,0,0,1,2.915,0v8.2a1.458,1.458,0,0,1-2.915,0ZM3.927,26.238a1.944,1.944,0,0,1-1.944-1.944V9.718a1.944,1.944,0,0,1,3.887,0V24.294A1.944,1.944,0,0,1,3.927,26.238ZM11.7,30.125a1.944,1.944,0,1,1-3.887,0V3.887a1.944,1.944,0,1,1,3.887,0Zm1.944-15.548H15.6a3.392,3.392,0,0,0,6.488.749,3.349,3.349,0,0,0,1.7.476h.029a3.372,3.372,0,0,0,2.416-1.019c.011.012.018.025.03.037a3.39,3.39,0,0,0,2.4.982,3.5,3.5,0,0,0,3.055-1.808c.1.1.205.206.3.3l1.154,1.166a11.407,11.407,0,0,0-4.36,3.693c-.068.1-.121.194-.186.292H13.645ZM33.456,28.9a2.841,2.841,0,0,0-.415,1.489v8.484H21.38V30.485a4.739,4.739,0,0,0-.777-2.459l-1.137-1.961a7.539,7.539,0,0,1-1-4.074v-.612H27.6c-.128.3-.258.6-.366.92a.972.972,0,0,0,1.841.627,10.718,10.718,0,0,1,.938-2.041,5.674,5.674,0,0,1,.389-.605,9.344,9.344,0,0,1,4.747-3.514.972.972,0,0,0,.456-1.625s-.73-.74-2.193-2.213c-.411-.421-.885-.894-1.421-1.431l-.077-.078a.906.906,0,0,0-.1-.121,2.841,2.841,0,0,1,.035-3.363.713.713,0,0,1,.583-.228A1.012,1.012,0,0,1,33.145,8l7.087,7.136a1.49,1.49,0,0,1,.213,1.846Zm7.8-9.463.856-1.458a3.441,3.441,0,0,0,.085-3.4h2.5v4.859Zm9.276,10.69a1.944,1.944,0,1,1-3.887,0V3.887a1.944,1.944,0,0,1,3.887,0Zm5.831-5.831a1.944,1.944,0,1,1-3.887,0V9.718a1.944,1.944,0,1,1,3.887,0Z" transform="translate(-0.04 0)"/></g></g><rect class="b" width="96" height="77" transform="translate(797 2150)"/></g></svg>