<?xml version="1.0" encoding="UTF-8"?>
<svg id="Capa_1" data-name="Capa 1" xmlns="http://www.w3.org/2000/svg" viewBox="0 0 85.04 85.04">
  <defs>
    <style>
      .cls-1 {
        fill: #fff;
        stroke-width: 0px;
      }
    </style>
  </defs>
  <path class="cls-1" d="m57.71,5.73h-29.76v.98c0,20.48,0,40.96,0,61.44,0,.38-.01.78-.09,1.15-.13.61-.59.91-1.16.9-.61,0-1.06-.33-1.18-.97-.05-.28-.06-.58-.06-.87,0-21.09,0-42.17,0-63.26,0-1.58.33-1.9,1.93-1.9h30.98c1.49,0,1.85.35,1.85,1.84v63.33c0,1.24-.42,1.86-1.25,1.84-.83-.01-1.24-.62-1.24-1.87V5.73Z"/>
  <path class="cls-1" d="m77.56,70.39V20.59h-.85c-4,0-8,0-12,0-.24,0-.49,0-.73-.01-.8-.07-1.26-.52-1.26-1.22,0-.69.46-1.16,1.25-1.24.22-.02.44-.01.65-.01,4.51,0,9.02,0,13.53,0,1.58,0,1.92.34,1.92,1.92v53.37c0,2.83-1.46,4.3-4.3,4.3-3.1,0-6.21.03-9.31-.01-2.99-.04-4.74-3.15-3.21-5.65.67-1.1,1.69-1.75,3-1.75.61,0,.93-.21,1.29-.67,1.95-2.48,5.76-2.47,7.7.02.37.47.71.71,1.31.64.3-.04.62.07,1.01.13m-6.15,4.81c.7,0,1.4,0,2.1,0,.94,0,1.89.02,2.83-.02.54-.02,1.04-.28,1.12-.85.05-.38-.05-.87-.27-1.18-.31-.44-.83-.51-1.37-.31-1.23.45-1.63.26-2.16-1-.43-1.01-1.18-1.59-2.28-1.59-1.11,0-1.85.58-2.28,1.59-.55,1.28-.89,1.38-2.23,1-.38-.11-.97,0-1.24.24-.27.25-.41.84-.34,1.22.13.69.74.88,1.41.88,1.57,0,3.14,0,4.72,0"/>
  <path class="cls-1" d="m10.55,73.44c0-.94-.02-1.89,0-2.83.01-.38-.13-.54-.49-.66-2.9-.95-4.56-3.28-4.45-6.32.14-3.95.45-7.9,1.91-11.63.39-1,.93-2,1.64-2.79,1.75-1.95,4.12-1.73,5.67.39,1.17,1.6,1.75,3.44,2.16,5.34.68,3.11,1.07,6.26.97,9.44-.08,2.54-1.83,4.77-4.25,5.5-.55.17-.7.4-.69.95.04,1.77.02,3.54.01,5.31,0,.94-.46,1.5-1.2,1.51-.77.02-1.26-.57-1.28-1.54-.01-.9,0-1.79,0-2.69m-2.47-11.08c0,.44,0,.87,0,1.31-.04,2.33,1.54,4.07,3.71,4.08,2.15.01,3.85-1.73,3.68-4.05-.19-2.72-.51-5.44-.92-8.13-.24-1.57-.73-3.12-1.67-4.45-.68-.97-1.51-1-2.15-.01-.49.76-.88,1.62-1.16,2.48-.94,2.85-1.29,5.8-1.49,8.78"/>
  <path class="cls-1" d="m47.78,57.86h-9.91v.82c0,3.27,0,6.54,0,9.81,0,.31-.02.64-.12.93-.19.58-.66.85-1.24.79-.58-.06-.98-.41-1.08-1.01-.04-.26-.03-.53-.03-.8,0-3.22,0-6.44,0-9.67v-.91c-.32,0-.61,0-.89,0-1.02-.01-2.04,0-3.05-.06-.64-.05-.98-.5-1.01-1.14-.02-.63.29-1.07.92-1.21.28-.07.57-.08.86-.08,7.05,0,14.1,0,21.15,0,.07,0,.15,0,.22,0,1.06.02,1.61.46,1.61,1.26,0,.8-.55,1.22-1.63,1.23-1.08,0-2.17,0-3.32,0v.88c0,3.25,0,6.49,0,9.74,0,.27.01.54-.04.8-.12.6-.54.93-1.12.97-.55.04-1.01-.22-1.19-.76-.11-.31-.13-.66-.13-1,0-3.25,0-6.49,0-9.74v-.85Z"/>
  <path class="cls-1" d="m8.08,20.59v22.98c0,1.24-.42,1.84-1.26,1.82-.82-.02-1.22-.61-1.22-1.8,0-7.9,0-15.8,0-23.7,0-1.42.38-1.8,1.82-1.8,4.58,0,9.16,0,13.74,0,.26,0,.53.01.79.07.64.13,1.03.61.99,1.23-.04.63-.38,1.04-1.02,1.14-.28.05-.58.05-.87.05-4.02,0-8.05,0-12.07,0h-.91Z"/>
  <path class="cls-1" d="m25.51,75.2c-.04.55-.04.99-.1,1.41-.1.63-.61,1.08-1.19,1.04-.65-.04-1.14-.38-1.18-1.05-.06-.94-.05-1.89,0-2.83.04-.64.49-.97,1.11-1.05.24-.03.48-.02.73-.02h33.44c.17,0,.34,0,.51,0,.84.03,1.35.47,1.37,1.19.03.75-.49,1.25-1.35,1.29-.22.01-.44,0-.65,0H25.51Z"/>
  <path class="cls-1" d="m65.18,60.22c0-1.14-.02-2.28,0-3.41.02-1.01.46-1.46,1.47-1.48,1.5-.02,3-.03,4.5,0,1,.02,1.47.49,1.47,1.49.02,2.32.02,4.65,0,6.97,0,.99-.49,1.46-1.49,1.48-1.5.02-3,.03-4.5,0-1.01-.02-1.44-.48-1.46-1.49-.02-1.19,0-2.37,0-3.56m4.94-2.36h-2.4v4.86h2.4v-4.86Z"/>
  <path class="cls-1" d="m20.49,30.49c0,1.16.01,2.32,0,3.49-.02,1.05-.47,1.5-1.51,1.51-1.48.01-2.95.02-4.43,0-1.03-.01-1.5-.49-1.51-1.53-.01-2.3-.01-4.6,0-6.9,0-1.04.47-1.49,1.53-1.5,1.48-.02,2.95-.02,4.43,0,1.06.01,1.48.44,1.49,1.52.02,1.14,0,2.28,0,3.41m-4.91,2.47h2.35v-4.88h-2.35v4.88Z"/>
  <path class="cls-1" d="m32.91,30.49c0-1.16-.01-2.32,0-3.49.01-.98.44-1.43,1.41-1.44,1.52-.02,3.05-.02,4.57,0,1,.02,1.45.48,1.45,1.5.01,2.3.01,4.6,0,6.9,0,1.04-.47,1.52-1.5,1.53-1.48.02-2.95.02-4.43,0-1.05-.01-1.5-.47-1.51-1.51-.01-1.16,0-2.32,0-3.48m4.93-2.4h-2.38v4.87h2.38v-4.87Z"/>
  <path class="cls-1" d="m52.75,30.48c0,1.19.01,2.37,0,3.56-.01.96-.47,1.43-1.42,1.45-1.52.02-3.05.02-4.57,0-.95-.01-1.43-.49-1.44-1.45-.02-2.35-.02-4.69,0-7.04,0-.96.47-1.42,1.44-1.43,1.52-.02,3.05-.02,4.57,0,.98.01,1.41.46,1.42,1.43.02,1.16,0,2.32,0,3.48m-2.53-2.37h-2.38v4.86h2.38v-4.86Z"/>
  <path class="cls-1" d="m65.18,30.56c0-1.16-.01-2.32,0-3.48.02-1.07.44-1.5,1.5-1.51,1.48-.02,2.95-.02,4.43,0,1.05.01,1.51.46,1.52,1.51.02,2.3.01,4.6,0,6.9,0,1.04-.48,1.51-1.52,1.53-1.48.01-2.95.01-4.43,0-1.04-.01-1.49-.46-1.5-1.52-.02-1.14,0-2.27,0-3.41m2.53,2.39h2.39v-4.86h-2.39v4.86Z"/>
  <path class="cls-1" d="m32.91,45.4c0-1.16-.01-2.32,0-3.49.01-1.01.46-1.46,1.47-1.47,1.5-.01,3-.01,4.5,0,.99,0,1.46.48,1.47,1.49.01,2.32.01,4.65,0,6.97,0,1-.47,1.45-1.49,1.46-1.5.01-3,.01-4.5,0-1.01-.01-1.44-.45-1.45-1.48-.01-1.16,0-2.32,0-3.48m4.91-2.42h-2.35v4.88h2.35v-4.88Z"/>
  <path class="cls-1" d="m52.75,45.43c0,1.14,0,2.28,0,3.41-.01,1.08-.43,1.51-1.49,1.52-1.48.01-2.95.01-4.43,0-1.06,0-1.52-.45-1.52-1.49-.01-2.3-.01-4.6,0-6.9,0-1.05.47-1.52,1.5-1.53,1.5-.01,3-.01,4.5,0,.97.01,1.42.46,1.44,1.43.02,1.19,0,2.37,0,3.56m-4.91,2.38h2.38v-4.85h-2.38v4.85Z"/>
  <path class="cls-1" d="m32.91,15.65c0-1.19-.01-2.37,0-3.56.01-.95.47-1.43,1.43-1.44,1.53-.02,3.05-.02,4.57,0,.95.02,1.42.5,1.43,1.46.02,2.35.02,4.7,0,7.04,0,.95-.47,1.41-1.45,1.43-1.53.02-3.05.02-4.57,0-.98-.02-1.4-.47-1.42-1.44-.02-1.16,0-2.32,0-3.49m4.92-2.46h-2.38v4.86h2.38v-4.86Z"/>
  <path class="cls-1" d="m52.75,15.67c0,1.16.01,2.32,0,3.48-.01.94-.43,1.4-1.36,1.42-1.57.03-3.15.03-4.72,0-.89-.02-1.35-.49-1.35-1.37-.02-2.4-.02-4.79,0-7.19,0-.86.49-1.35,1.37-1.36,1.57-.03,3.15-.03,4.72,0,.88.02,1.32.51,1.34,1.38.02,1.21,0,2.42,0,3.63m-2.53-2.48h-2.39v4.84h2.39v-4.84Z"/>
  <path class="cls-1" d="m65.18,45.32c0-1.14-.02-2.27,0-3.41.02-1.01.47-1.45,1.48-1.46,1.5-.01,3-.01,4.5,0,.95,0,1.45.48,1.46,1.42.02,2.35.02,4.7,0,7.04,0,.97-.48,1.44-1.43,1.45-1.52.02-3.05.02-4.57,0-.98,0-1.42-.44-1.44-1.42-.02-1.21,0-2.42,0-3.63m4.93-2.35h-2.38v4.86h2.38v-4.86Z"/>
  <path class="cls-1" d="m17.99,42.96h-2.48c0,.42.02.8,0,1.18-.05.74-.5,1.22-1.16,1.25-.63.03-1.2-.37-1.26-1.06-.07-.94-.07-1.89,0-2.83.06-.69.57-1.05,1.27-1.06,1.6-.02,3.2-.02,4.8,0,.88.01,1.32.5,1.32,1.47.02,2.33.01,4.65,0,6.98,0,.92-.45,1.42-1.19,1.45-.77.03-1.28-.5-1.29-1.43-.02-1.67,0-3.34,0-5.02v-.94Z"/>
  <path class="cls-1" d="m42.8,65.25c-.69-.02-1.21-.6-1.18-1.29.03-.68.55-1.15,1.25-1.13.71.02,1.22.56,1.18,1.27-.04.66-.59,1.17-1.25,1.15"/>
</svg>