<svg xmlns="http://www.w3.org/2000/svg" width="31.656" height="31.649" viewBox="0 0 31.656 31.649"><defs><style>.a{fill:#fff;}</style></defs><path class="a" d="M15.757,39.535a8.114,8.114,0,1,0,8.114,8.114A8.1,8.1,0,0,0,15.757,39.535Zm0,13.39a5.275,5.275,0,1,1,5.275-5.275,5.285,5.285,0,0,1-5.275,5.275ZM26.1,39.2A1.893,1.893,0,1,1,24.2,37.31,1.888,1.888,0,0,1,26.1,39.2Zm5.374,1.921a9.366,9.366,0,0,0-2.556-6.631,9.428,9.428,0,0,0-6.631-2.556c-2.613-.148-10.445-.148-13.058,0a9.414,9.414,0,0,0-6.631,2.549A9.4,9.4,0,0,0,.036,41.117c-.148,2.613-.148,10.445,0,13.058a9.366,9.366,0,0,0,2.556,6.631,9.44,9.44,0,0,0,6.631,2.556c2.613.148,10.445.148,13.058,0a9.366,9.366,0,0,0,6.631-2.556,9.428,9.428,0,0,0,2.556-6.631C31.618,51.562,31.618,43.737,31.47,41.124ZM28.094,56.978a5.341,5.341,0,0,1-3.008,3.008c-2.083.826-7.027.636-9.329.636s-7.253.184-9.329-.636a5.341,5.341,0,0,1-3.008-3.008c-.826-2.083-.636-7.027-.636-9.329S2.6,40.4,3.419,38.32a5.341,5.341,0,0,1,3.008-3.008c2.083-.826,7.027-.636,9.329-.636s7.253-.184,9.329.636a5.341,5.341,0,0,1,3.008,3.008c.826,2.083.636,7.027.636,9.329S28.92,54.9,28.094,56.978Z" transform="translate(0.075 -31.825)"/></svg>