<?xml version="1.0" encoding="UTF-8"?>
<svg id="Capa_1" data-name="Capa 1" xmlns="http://www.w3.org/2000/svg" viewBox="0 0 85.04 85.04">
  <defs>
    <style>
      .cls-1 {
        fill: #fff;
        stroke-width: 0px;
      }
    </style>
  </defs>
  <path class="cls-1" d="m29.98,66.18c-2.17-2.45-6.54-2.34-8.72.23.33.7.71,1.37.97,2.08.38,1.03-.02,1.92-.91,2.21-.86.28-1.64-.18-2-1.19-.47-1.3-1.34-2.17-2.7-2.51-2.56-.63-4.98,1.66-4.48,4.26.33,1.74-.05,2.27-1.78,2.44-1.22.12-2.15,1.13-2.15,2.32,0,1.19.96,2.2,2.18,2.29.25.02.51,0,.77,0,8.65,0,17.3,0,25.95,0,.26,0,.52-.02.77.02.79.1,1.37.75,1.37,1.52,0,.74-.54,1.39-1.28,1.53-.18.03-.36.03-.54.03-8.96,0-17.92.01-26.88,0-3.16,0-5.6-2.55-5.42-5.68.13-2.22,1.29-3.79,3.32-4.73.22-.1.49-.39.51-.61.38-3.75,2.55-6.03,6.3-6.58.07-.01.15-.04.31-.08,0-1.13.01-2.29-.01-3.44,0-.14-.14-.34-.27-.4-1.91-.93-2.82-2.47-2.83-4.68-1.59.86-3.16,1.08-4.76.3-.96-.47-1.66-1.2-2.12-2.16-1.05-2.2-.37-4.22,2.1-6.22-2.67-2.3-3.26-4.44-1.85-6.7,1.34-2.16,3.62-2.67,6.62-1.43.02-1.79.64-3.27,2.16-4.26.87-.57,1.83-.8,2.86-.73,2.37.17,3.68,1.65,4.38,4.94,3.19-1.13,5.32-.62,6.61,1.59,1.31,2.23.71,4.3-1.89,6.59,2.62,2.39,3.19,4.46,1.85,6.66-1.32,2.17-3.44,2.66-6.61,1.51-.05.38-.09.76-.15,1.14-.28,1.52-1.12,2.64-2.49,3.33-.39.19-.52.4-.51.82.02,1.25,0,2.51,0,3.92.28-.25.45-.39.6-.54,3.56-3.45,9.18-3.52,12.79-.12.41.39.73.47,1.27.29,1.46-.49,2.93-.41,4.39.12.2.07.53.1.67,0,.73-.56,1.36-1.27,2.14-1.75.77-.48,1.68-.75,2.57-1.13v-1.86c-1.26,0-2.52.14-3.74-.03-3.55-.49-6.3-3.68-6.43-7.26-.03-.84.29-1.44,1.05-1.8,2.91-1.38,5.68-1.17,8.3.72.25.18.47.38.78.63v-2.78c-.81-.76-1.71-1.34-2.25-2.16-.52-.79-.69-1.82-1.01-2.75-3.18,1.11-5.4.52-6.62-1.87-1.16-2.26-.41-4.59,2.12-6.36-1.58-.93-2.54-2.24-2.63-4.08-.05-1.03.25-1.98.84-2.83,1.39-1.99,3.58-2.42,6.47-1.21.02-1.66.55-3.07,1.9-4.08.92-.69,1.97-.99,3.11-.91,2.47.17,4.04,1.97,4.34,5.02,1.43-.8,2.9-1.05,4.44-.42,1.02.41,1.79,1.11,2.31,2.07,1.19,2.21.56,4.25-1.98,6.45,2.62,2.31,3.22,4.51,1.83,6.71-1.36,2.16-3.67,2.67-6.6,1.42-.03.34-.03.65-.08.96-.26,1.6-1.09,2.82-2.56,3.54-.38.19-.53.39-.51.81.03.79.01,1.58.01,2.52,1.22-1.06,2.45-1.81,3.91-2.1,1.78-.35,3.48-.17,5.1.65.96.48,1.23.96,1.15,2.04-.35,4.79-4.82,8.09-9.5,7.02-.2-.05-.4-.09-.64-.14v2.06c.94.42,1.88.83,2.8,1.26.25.12.52.28.68.49.86,1.12,1.83,1.26,3.21.88.99-.27,2.16.11,3.25.17.29.02.68.01.87-.15,4.1-3.65,9.27-3.58,13.25.2.07.07.14.12.35.3,0-1.52,0-2.89-.01-4.26,0-.12-.13-.27-.24-.34-2.35-1.66-2.51-1.91-2.91-4.64-1.53.83-3.1,1.04-4.7.25-.99-.48-1.7-1.24-2.15-2.23-1.01-2.21-.22-4.46,2.22-6.15-1.5-.91-2.49-2.14-2.61-3.92-.08-1.09.19-2.09.82-2.99,1.39-1.98,3.38-2.37,6.4-1.27.81-3.54,2.28-5.02,4.92-4.95,2.5.07,4.01,1.72,4.54,5.01,1.48-.82,3.01-1.04,4.57-.34.97.44,1.71,1.14,2.2,2.09,1.14,2.21.52,4.17-2.03,6.37,2.61,2.2,3.23,4.32,1.92,6.58-1.29,2.22-3.52,2.76-6.67,1.58-.03.2-.07.39-.08.59-.11,1.74-.95,3.03-2.47,3.83-.5.26-.64.55-.62,1.07.03.97.01,1.95.01,2.97.49.09.94.15,1.38.25,2.87.68,5.02,3.22,5.18,6.18.03.49.19.7.62.88,2.35,1.02,3.65,3.48,3.17,5.91-.51,2.58-2.61,4.42-5.2,4.43-9.04.03-18.07.01-27.11,0-1.05,0-1.74-.65-1.73-1.56,0-.91.7-1.53,1.76-1.53,8.81,0,17.61,0,26.42,0,.33,0,.68.01,1-.05,1.15-.24,1.94-1.28,1.86-2.41-.08-1.17-1.02-2.08-2.23-2.16-1.54-.11-2.04-.77-1.73-2.29.39-1.96-.69-3.8-2.55-4.35-1.88-.55-3.78.4-4.51,2.25-.07.19-.13.39-.22.57-.35.73-1.14,1.07-1.87.82-.76-.25-1.21-1.05-1.01-1.84.11-.42.27-.83.45-1.23.18-.39.43-.76.65-1.14-1.87-2.62-6.6-2.77-8.74-.3.38.8.81,1.57,1.11,2.37.37.99-.04,1.85-.91,2.14-.84.28-1.62-.16-1.98-1.11-1.02-2.68-3.55-3.48-5.91-1.87-.99.67-1.85.49-2.47-.53-2.26-3.73-6.81-3.73-9.07,0-.61,1.01-1.49,1.2-2.47.52-2.35-1.61-4.88-.81-5.91,1.88-.36.94-1.15,1.38-1.99,1.1-.84-.28-1.27-1.14-.93-2.07.31-.83.75-1.62,1.14-2.45m14.72-33.42c-1.7-.02-3.11,1.37-3.11,3.07,0,1.67,1.35,3.06,3.01,3.1,1.7.04,3.13-1.34,3.15-3.03.03-1.7-1.35-3.12-3.05-3.13m30.59,14.39c.02-1.72-1.34-3.11-3.05-3.12-1.7,0-3.11,1.39-3.11,3.09,0,1.66,1.37,3.05,3.03,3.08,1.71.03,3.11-1.34,3.12-3.05m-61.25-.04c0,1.72,1.37,3.1,3.08,3.09,1.69,0,3.1-1.43,3.08-3.12-.02-1.67-1.4-3.04-3.06-3.05-1.71-.01-3.09,1.36-3.1,3.07m22.16,5.8c.54,2.64,3.34,4.26,5.81,3.35-.19-2.49-3.47-4.38-5.81-3.35m16.96.01c-2.35-1.05-5.64.84-5.83,3.33,2.41.91,5.06-.57,5.83-3.33m-6.96-23.19c0-.82.04-1.69-.01-2.56-.05-.75-.7-1.32-1.43-1.36-.73-.04-1.49.46-1.56,1.2-.09.92-.02,1.85-.02,2.72h3.03Zm-6.07,1.74c-.15-.09-.33-.22-.52-.33-.55-.32-1.09-.67-1.67-.94-.73-.34-1.55-.04-1.94.62-.41.7-.23,1.57.47,2.03.7.46,1.45.86,2.13,1.26.52-.9,1.02-1.75,1.53-2.64m10.61,2.65c.72-.42,1.47-.82,2.17-1.29.67-.45.83-1.3.46-1.98-.36-.67-1.2-1.01-1.92-.67-.8.38-1.55.86-2.25,1.26.53.92,1.01,1.76,1.54,2.67m-12.12,3.47c-.12.06-.3.14-.48.24-.57.33-1.17.64-1.72,1.02-.63.44-.81,1.25-.49,1.92.32.65,1.12,1.06,1.82.76.86-.36,1.65-.88,2.39-1.28-.54-.94-1.02-1.78-1.53-2.65m10.58,2.64c.72.41,1.45.87,2.22,1.25.7.34,1.49.06,1.89-.56.39-.6.36-1.47-.21-1.89-.76-.57-1.61-1.02-2.35-1.47-.55.95-1.04,1.78-1.56,2.67m-6.07,1.72v.89c0,.54-.03,1.08.02,1.61.07.82.75,1.42,1.54,1.41.76,0,1.45-.59,1.5-1.37.06-.86.01-1.73.01-2.55h-3.07Zm-32.09,3.43c.53-.91,1.02-1.76,1.53-2.63-.03-.03-.08-.09-.15-.13-.6-.35-1.19-.71-1.8-1.04-.87-.47-1.77-.24-2.2.53-.43.77-.17,1.63.7,2.15.63.39,1.29.74,1.93,1.11m7.56-4.38c0-.91.07-1.81-.02-2.7-.07-.74-.75-1.22-1.46-1.22-.72,0-1.42.5-1.48,1.2-.07.91-.02,1.83-.02,2.72h2.98Zm55.09,0s.06-.14.06-.23c0-.74.03-1.49-.01-2.23-.04-.82-.64-1.4-1.42-1.45-.8-.05-1.52.5-1.59,1.35-.07.86-.02,1.73-.02,2.57h2.98Zm-62.66,7.84c-.71.42-1.44.8-2.12,1.25-.69.45-.88,1.26-.53,1.96.33.66,1.12,1.06,1.82.76.85-.37,1.64-.88,2.39-1.29-.55-.94-1.03-1.78-1.55-2.68m4.57,4.39c0,.86-.04,1.73.01,2.59.04.73.65,1.27,1.37,1.33.71.06,1.47-.39,1.55-1.1.1-.94.03-1.91.03-2.82h-2.96Zm58.12,0h-2.99c0,.9-.07,1.8.02,2.69.08.76.79,1.26,1.53,1.23.72-.03,1.37-.55,1.42-1.27.06-.89.02-1.78.02-2.65m3.03-10.51c.55.94,1.04,1.8,1.54,2.67.68-.4,1.38-.77,2.05-1.2.77-.49.99-1.33.58-2.06-.4-.72-1.27-1-2.06-.6-.73.37-1.42.8-2.11,1.2m0,8.78c.7.4,1.39.83,2.12,1.2.76.39,1.61.13,2.02-.55.41-.67.29-1.53-.37-1.99-.72-.5-1.51-.91-2.22-1.33-.53.91-1.02,1.75-1.55,2.67m-53.57-6.12c.69-.4,1.44-.8,2.14-1.27.71-.47.87-1.35.46-2.04-.39-.66-1.22-.96-1.94-.61-.77.38-1.5.84-2.2,1.25.53.91,1.01,1.74,1.55,2.66m42.97,0c.52-.91,1.02-1.76,1.54-2.67-.71-.4-1.42-.85-2.17-1.22-.76-.37-1.6-.07-1.99.63-.38.68-.23,1.52.45,1.98.71.48,1.48.88,2.18,1.29m-44.52,6.12c.7.4,1.4.83,2.13,1.2.76.38,1.6.13,2.02-.55.42-.68.26-1.57-.44-2.04-.71-.48-1.47-.87-2.15-1.27-.52.9-1.01,1.74-1.55,2.67m44.52-2.67c-.68.4-1.43.79-2.13,1.26-.71.47-.89,1.33-.49,2.03.38.66,1.21.98,1.93.64.77-.37,1.5-.84,2.22-1.25-.53-.92-1.02-1.78-1.53-2.67"/>
  <path class="cls-1" d="m46.21,79.82c.02.86-.69,1.58-1.54,1.58-.83,0-1.52-.68-1.54-1.51-.02-.86.68-1.58,1.54-1.58.83,0,1.52.68,1.54,1.5"/>
</svg>