<svg xmlns="http://www.w3.org/2000/svg" width="96" height="77" viewBox="0 0 96 77"><defs><style>.a{fill:none;}.b{fill:#fff;stroke:#2874a1;}</style></defs><g transform="translate(-1759 -2150)"><rect class="a" width="96" height="77" transform="translate(1759 2150)"/><g transform="translate(1785.5 2172)"><path class="b" d="M39.167,0H4.594A4.1,4.1,0,0,0,.5,4.094V43.215A4.1,4.1,0,0,0,4.594,47.31H39.167a4.1,4.1,0,0,0,4.094-4.094V4.094A4.1,4.1,0,0,0,39.167,0ZM3.229,4.094A1.366,1.366,0,0,1,4.594,2.729H39.167a1.366,1.366,0,0,1,1.365,1.365V9.553H3.229Zm37.3,39.121a1.366,1.366,0,0,1-1.365,1.365H4.594a1.366,1.366,0,0,1-1.365-1.365V12.282h37.3Zm0,0"/><path class="b" d="M290.125,51.691H287.4a1.365,1.365,0,1,0,0,2.729h2.729a1.365,1.365,0,1,0,0-2.729Zm0,0" transform="translate(-259.148 -46.915)"/><path class="b" d="M368.91,51.691h-2.729a1.365,1.365,0,0,0,0,2.729h2.729a1.365,1.365,0,0,0,0-2.729Zm0,0" transform="translate(-330.653 -46.915)"/><path class="b" d="M89.117,178.114a13.192,13.192,0,1,0,26.384,0q0-.531-.042-1.052s0,0,0-.005a13.192,13.192,0,0,0-26.3,0,.022.022,0,0,0,0,.005Q89.118,177.583,89.117,178.114Zm13.192,10.463a10.476,10.476,0,0,1-10.439-9.765,5.98,5.98,0,0,1,.853.465,6.617,6.617,0,0,0,7.344,0,3.905,3.905,0,0,1,4.483,0,6.619,6.619,0,0,0,7.344,0,5.965,5.965,0,0,1,.853-.465A10.475,10.475,0,0,1,102.309,188.577Zm0-20.925a10.481,10.481,0,0,1,10.251,8.361,6.744,6.744,0,0,0-2.1.939,3.906,3.906,0,0,1-4.484,0,6.617,6.617,0,0,0-7.344,0,3.905,3.905,0,0,1-4.483,0,6.725,6.725,0,0,0-2.095-.939A10.481,10.481,0,0,1,102.309,167.651Zm0,0" transform="translate(-80.429 -149.683)"/></g></g></svg>