<svg xmlns="http://www.w3.org/2000/svg" xmlns:xlink="http://www.w3.org/1999/xlink" width="96" height="77" viewBox="0 0 96 77"><defs><style>.a{fill:none;stroke:#fff;}.b{clip-path:url(#a);}.c{fill:#494949;}</style><clipPath id="a"><rect class="a" width="96" height="77" transform="translate(18573 3701)"/></clipPath></defs><g class="b" transform="translate(-18573 -3701)"><g transform="translate(17973.139 3136.023)"><path class="c" d="M653.914,622.211a.607.607,0,0,0-.4-.68.718.718,0,0,0-.325-.077l-23.975.491a143.011,143.011,0,0,0-2.7-20.477l-.064-.35c-.676-3.735-1.375-7.6-1.873-11.43-.073-.566-.173-1.2-.279-1.875-.5-3.206-1.132-7.2.062-9.7,1.482-3.109,5.645-3.292,8.991-3.44.672-.029,1.315-.058,1.9-.106,4.159-.354,8-.614,11.748-.795,4.124-.2,8.381-.3,12.659-.3,2.934,0,5.951.048,8.972.141-2.351,2.01-3.173,5.514-3.7,9.016a55.6,55.6,0,0,0,.106,15.167c.451,3.7,1.063,7.439,1.654,11.055q.306,1.863.606,3.729c.166,1.055.358,2.114.551,3.175a49.8,49.8,0,0,1,1.1,9.449c-.052,3.8-1.248,5.943-3.874,6.962a12.927,12.927,0,0,1-4.384.909,5.617,5.617,0,0,1-2.074-.35c-3.048-1.207-5.056-7.318-4.7-10.514m-35.43,5.281c-.16-2.5.641-3.56,2.957-3.9a30.359,30.359,0,0,1,4.461-.264c.828,0,1.66.017,2.487.031s1.627.031,2.424.031c.333,0,.664,0,.99-.008l20.6-.422a16.259,16.259,0,0,0,2.865,8.615,6.532,6.532,0,0,0,1.708,1.812c-4.738.352-9.848.524-16.5.562-1.38.008-2.761.01-4.141.015-1.906.006-3.812.01-5.72.027-.5,0-1.018.021-1.55.039-.654.019-1.328.042-2,.042-2.023,0-4.326-.171-6.095-1.428-1.54-1.1-2.328-2.732-2.484-5.148m59.094-42.344a11.032,11.032,0,0,1-2.487.21l-1.165-.006-1.257.008c-1.3,0-2.593-.031-3.891-.062-.893-.021-1.783-.042-2.676-.052.121-1.261.27-2.368.454-3.383,1-5.481,2.98-8.263,5.884-8.263a5.335,5.335,0,0,1,1.2.146c3.19.741,4.9,3.412,5.237,8.173.023.312.058.6.092.872.16,1.269.248,1.971-1.39,2.358m2.888-1.29c-.083-3.032-.175-6.465-2.222-8.879a7.827,7.827,0,0,0-5.741-2.826,9.766,9.766,0,0,0-.982.06c-3.82-.156-7.68-.237-11.478-.237-5.318,0-10.685.156-15.953.464-4.074.237-8.889.551-13.723,1.08l-.293.031c-2.218.239-4.732.508-6.186,2.331-1.729,2.166-1.534,5.358-1.367,8.04a111.929,111.929,0,0,0,1.421,11.5c.354,2.129.739,4.257,1.124,6.384a140.3,140.3,0,0,1,2.657,20.171l-2.757.056c-.424,0-.963-.044-1.559-.09-.728-.058-1.556-.123-2.355-.123-2.033,0-3.219.429-3.729,1.35-1.028,1.856-.464,5.92.358,7.792,1.808,4.12,6.424,4.649,10.24,4.649,1.072,0,2.135-.044,3.144-.085.859-.033,1.679-.069,2.428-.071l2.655-.01c7.9-.027,16.076-.054,24.087-.83a.448.448,0,0,0,.341-.162l.206,0a12.266,12.266,0,0,0,1.5-.092c3.9-.485,6.394-2.029,7.424-4.592,1.4-3.487.7-7.649.075-11.324l-.185-1.1c-.356-2.183-.764-4.4-1.176-6.636-1.452-7.892-2.953-16.057-2.443-23.989.795.006,1.588.019,2.378.031,1.221.019,2.441.037,3.658.037a57.392,57.392,0,0,0,7.955-.464.741.741,0,0,0,.562-.724c-.031-.566-.046-1.151-.062-1.748" transform="translate(0 0)"/><path class="c" d="M649.591,577.761a.65.65,0,0,0-.718-.639h-.01c-8.234.805-16.6,1.215-24.87,1.221a.742.742,0,0,0,0,1.484h0c8.275,0,16.651-.416,24.895-1.221a.788.788,0,0,0,.7-.845" transform="translate(7.028 5.561)"/><path class="c" d="M648.414,582.407a.708.708,0,0,0-.722-.741,142.254,142.254,0,0,0-23.186,1.729.621.621,0,0,0-.549.7.808.808,0,0,0,.782.753l.135-.012a140.577,140.577,0,0,1,22.818-1.683.71.71,0,0,0,.722-.743" transform="translate(7.766 10.472)"/><path class="c" d="M625.175,588.873l.1-.006a90.683,90.683,0,0,1,11.155-.92q.709,0,1.417.023c1.024.035,2.056.137,3.055.235,1.215.119,2.468.244,3.7.244a12.588,12.588,0,0,0,3.9-.549.734.734,0,0,0,.506-.836.7.7,0,0,0-.674-.633.777.777,0,0,0-.235.037,12.321,12.321,0,0,1-3.777.524,38.372,38.372,0,0,1-3.879-.264c-1.23-.127-2.5-.256-3.739-.264h-.325a91.143,91.143,0,0,0-11.138.918.808.808,0,0,0-.695.872.614.614,0,0,0,.624.62" transform="translate(8.41 15.621)"/><path class="c" d="M648.685,591.1h0c-2.576.112-5.2.16-7.736.206a155.535,155.535,0,0,0-15.648.812.8.8,0,0,0-.7.866.619.619,0,0,0,.628.624l.1-.006a156.094,156.094,0,0,1,15.62-.809c2.539-.046,5.162-.094,7.743-.2a.741.741,0,0,0,.716-.789.685.685,0,0,0-.724-.7" transform="translate(8.465 20.668)"/></g></g></svg>