<svg xmlns="http://www.w3.org/2000/svg" width="96" height="77" viewBox="0 0 96 77">
  <g id="Group_511" data-name="Group 511" transform="translate(-10608 -2264)">
    <rect id="Rectangle_284" data-name="Rectangle 284" width="96" height="77" transform="translate(10608 2264)" fill="none"/>
    <g id="_061-cart-16" data-name="061-cart-16" transform="translate(10627 2269.862)">
      <g id="Group_490" data-name="Group 490" transform="translate(46.866 5.9)">
        <g id="Group_489" data-name="Group 489">
          <path id="Path_538" data-name="Path 538" d="M171.232,8.032A3.48,3.48,0,0,0,166.7,9.924L162.045,21.24a1,1,0,0,0,.547,1.312,1,1,0,0,0,.382.076A1.006,1.006,0,0,0,163.9,22l4.652-11.316a1.464,1.464,0,1,1,2.709,1.114l-3.806,9.257a1,1,0,1,0,1.859.764l3.806-9.257A3.478,3.478,0,0,0,171.232,8.032Z" transform="translate(-161.969 -7.771)" fill="#fff"/>
        </g>
      </g>
      <g id="Group_492" data-name="Group 492" transform="translate(38.112 5.901)">
        <g id="Group_491" data-name="Group 491">
          <path id="Path_539" data-name="Path 539" d="M140.843,8.034a3.48,3.48,0,0,0-4.534,1.892l-4.518,10.988a1,1,0,1,0,1.859.764l4.518-10.988a1.464,1.464,0,1,1,2.709,1.114l-3.786,9.208a1,1,0,0,0,.547,1.312,1,1,0,0,0,.382.076,1.007,1.007,0,0,0,.93-.623l3.786-9.208A3.478,3.478,0,0,0,140.843,8.034Z" transform="translate(-131.715 -7.773)" fill="#fff"/>
        </g>
      </g>
      <g id="Group_494" data-name="Group 494" transform="translate(8.889 18.965)">
        <g id="Group_493" data-name="Group 493" transform="translate(0 0)">
          <path id="Path_540" data-name="Path 540" d="M79.883,53.293a.987.987,0,0,0-.769-.368H31.706A.988.988,0,0,0,30.722,54L32.7,76.715a.988.988,0,0,0,.984.9H74.176a.987.987,0,0,0,.965-.778l4.938-22.716A.987.987,0,0,0,79.883,53.293Zm-6.5,22.349H34.588L32.784,54.9H77.889Z" transform="translate(-30.718 -52.925)" fill="#fff"/>
        </g>
      </g>
      <g id="Group_496" data-name="Group 496" transform="translate(0 10.076)">
        <g id="Group_495" data-name="Group 495" transform="translate(0 0)">
          <path id="Path_541" data-name="Path 541" d="M10.858,31.972l-.988-8.889a.988.988,0,0,0-.982-.878H.988a.988.988,0,0,0,0,1.975H8l.89,8.01a.987.987,0,0,0,.98.878.946.946,0,0,0,.11-.006A.987.987,0,0,0,10.858,31.972Z" transform="translate(0 -22.205)" fill="#fff"/>
        </g>
      </g>
      <g id="Group_498" data-name="Group 498" transform="translate(10.865 41.682)">
        <g id="Group_497" data-name="Group 497">
          <path id="Path_542" data-name="Path 542" d="M40.5,141.2l-.988-8.889a.988.988,0,1,0-1.963.218l.988,8.889a.987.987,0,0,0,.98.878,1.012,1.012,0,0,0,.11-.006A.987.987,0,0,0,40.5,141.2Z" transform="translate(-37.548 -131.432)" fill="#fff"/>
        </g>
      </g>
      <g id="Group_500" data-name="Group 500" transform="translate(8.889 50.571)">
        <g id="Group_499" data-name="Group 499">
          <path id="Path_543" data-name="Path 543" d="M35.658,162.152A4.938,4.938,0,1,0,40.6,167.09,4.944,4.944,0,0,0,35.658,162.152Zm0,7.9a2.963,2.963,0,1,1,2.963-2.963A2.966,2.966,0,0,1,35.658,170.053Z" transform="translate(-30.72 -162.152)" fill="#fff"/>
        </g>
      </g>
      <g id="Group_502" data-name="Group 502" transform="translate(42.469 50.571)">
        <g id="Group_501" data-name="Group 501">
          <path id="Path_544" data-name="Path 544" d="M151.711,162.152a4.938,4.938,0,1,0,4.938,4.938A4.944,4.944,0,0,0,151.711,162.152Zm0,7.9a2.963,2.963,0,1,1,2.963-2.963A2.966,2.966,0,0,1,151.711,170.053Z" transform="translate(-146.773 -162.152)" fill="#fff"/>
        </g>
      </g>
      <g id="Group_504" data-name="Group 504" transform="translate(16.79 54.521)">
        <g id="Group_503" data-name="Group 503">
          <path id="Path_545" data-name="Path 545" d="M84.694,175.8H59.015a.988.988,0,1,0,0,1.975H84.694a.988.988,0,1,0,0-1.975Z" transform="translate(-58.027 -175.805)" fill="#fff"/>
        </g>
      </g>
      <g id="Group_506" data-name="Group 506" transform="translate(13.827 11.064)">
        <g id="Group_505" data-name="Group 505">
          <path id="Path_546" data-name="Path 546" d="M62.6,25.618H48.775a.988.988,0,0,0-.988.988v7.9a.988.988,0,0,0,.988.988H62.6a.988.988,0,0,0,.988-.988v-7.9A.988.988,0,0,0,62.6,25.618Zm-.988,7.9H49.762V27.593H61.614Z" transform="translate(-47.787 -25.618)" fill="#fff"/>
        </g>
      </g>
      <g id="Group_508" data-name="Group 508" transform="translate(24.691 5.138)">
        <g id="Group_507" data-name="Group 507" transform="translate(0 0)">
          <path id="Path_547" data-name="Path 547" d="M89.777,5.138a4.45,4.45,0,0,0-4.444,4.444v2.17a.988.988,0,0,0,1.975,0V9.582a2.469,2.469,0,0,1,4.938,0v10.37a.988.988,0,1,0,1.975,0V9.582A4.449,4.449,0,0,0,89.777,5.138Z" transform="translate(-85.333 -5.138)" fill="#fff"/>
        </g>
      </g>
      <g id="Group_510" data-name="Group 510" transform="translate(31.605 13.039)">
        <g id="Group_509" data-name="Group 509">
          <path id="Path_548" data-name="Path 548" d="M118.832,32.989a6.917,6.917,0,0,0-9.6,6.37.988.988,0,0,0,.988.988H116.1a.988.988,0,0,0,0-1.975h-4.8a4.943,4.943,0,0,1,6.761-3.563.988.988,0,0,0,.769-1.819Z" transform="translate(-109.227 -32.445)" fill="#fff"/>
        </g>
      </g>
    </g>
  </g>
</svg>
