<?xml version="1.0" encoding="utf-8"?>
<!-- Generator: Adobe Illustrator 28.3.0, SVG Export Plug-In . SVG Version: 6.00 Build 0)  -->
<svg version="1.1" id="Capa_1" xmlns="http://www.w3.org/2000/svg" xmlns:xlink="http://www.w3.org/1999/xlink" x="0px" y="0px"
	 viewBox="0 0 388.5 172.6" style="enable-background:new 0 0 388.5 172.6;" xml:space="preserve">
<style type="text/css">
	.st0{fill:#3C3C3B;}
	.st1{fill:#2B739F;}
	.st2{fill:#706F6E;}
</style>
<g>
	<g>
		<g>
			<g>
				<g>
					<path class="st0" d="M70.1,60.8v17h-9.4V33.4h12.9c6,0,10.5,1.1,13.4,3.3c2.9,2.2,4.3,5.5,4.3,10c0,2.6-0.7,4.9-2.2,7
						c-1.4,2-3.5,3.6-6.1,4.8c6.7,10,11,16.4,13,19.3H85.7l-10.6-17H70.1z M70.1,53.1h3c3,0,5.2-0.5,6.6-1.5c1.4-1,2.1-2.5,2.1-4.7
						c0-2.1-0.7-3.6-2.2-4.5c-1.4-0.9-3.7-1.3-6.7-1.3h-2.9V53.1z"/>
					<path class="st1" d="M101.7,77.8V33.4h9.4v44.3H101.7z"/>
					<path class="st0" d="M141.2,40.6c-3.5,0-6.3,1.3-8.2,4s-2.9,6.4-2.9,11.1c0,9.9,3.7,14.8,11.1,14.8c3.1,0,6.9-0.8,11.3-2.3v7.9
						c-3.6,1.5-7.7,2.3-12.2,2.3c-6.4,0-11.4-2-14.8-5.9c-3.4-3.9-5.1-9.5-5.1-16.8c0-4.6,0.8-8.6,2.5-12.1s4.1-6.1,7.2-8
						c3.1-1.8,6.8-2.8,11.1-2.8c4.3,0,8.6,1,13,3.1l-3,7.6c-1.7-0.8-3.3-1.5-5-2.1C144.5,40.9,142.8,40.6,141.2,40.6z"/>
					<path class="st0" d="M197.7,77.8H187l-11.6-18.7l-4,2.9v15.8H162V33.4h9.4v20.3l3.7-5.2l12-15.1h10.4l-15.5,19.6L197.7,77.8z"
						/>
				</g>
				<path class="st0" d="M18.9,33.4h13.8c6.3,0,10.9,0.9,13.7,2.7c2.8,1.8,4.3,4.6,4.3,8.5c0,2.6-0.6,4.8-1.9,6.5
					c-1.2,1.7-2.9,2.7-5,3.1v0.3c2.8,0.6,4.8,1.8,6.1,3.5c1.2,1.7,1.9,4,1.9,6.9c0,4-1.5,7.2-4.4,9.5c-2.9,2.3-6.9,3.4-11.9,3.4
					H18.9V33.4z M28.3,51h5.5c2.5,0,4.4-0.4,5.5-1.2c1.1-0.8,1.7-2.1,1.7-3.9c0-1.7-0.6-2.9-1.9-3.7s-3.2-1.1-5.9-1.1h-4.9V51z
					 M28.3,58.5V70h6.1c2.6,0,4.5-0.5,5.7-1.5c1.2-1,1.8-2.5,1.8-4.5c0-3.7-2.6-5.5-7.9-5.5H28.3z"/>
				<polygon class="st1" points="101.8,91.8 101.8,101.4 29.5,101.4 29.5,91.8 20.1,91.8 20.1,110.8 111.2,110.8 111.2,92 
					111.2,91.8 				"/>
				<polygon class="st1" points="20.1,3.5 20.1,22.3 20.1,22.5 29.5,22.5 29.5,12.9 101.8,12.9 101.8,22.5 111.2,22.5 111.2,3.5 
									"/>
				<g>
					<path class="st2" d="M121.7,94.6h2.4v13.5h-2.4V94.6z"/>
					<path class="st2" d="M129.7,94.6h2.2l7.2,9.3v-9.3h2.3v13.5h-2l-7.4-9.6v9.6h-2.3V94.6z"/>
					<path class="st2" d="M146.8,94.6h2.5l4.1,6.4l4.1-6.4h2.5v13.5h-2.4v-9.7l-4.3,6.4h-0.1l-4.2-6.3v9.6h-2.3V94.6z"/>
					<path class="st2" d="M164.9,101.3L164.9,101.3c0-3.8,2.9-7,7.1-7c4.1,0,7,3.1,7,6.9v0c0,3.8-2.9,7-7.1,7
						C167.8,108.3,164.9,105.1,164.9,101.3z M176.5,101.3L176.5,101.3c0-2.7-1.9-4.8-4.6-4.8s-4.5,2.1-4.5,4.8v0
						c0,2.6,1.9,4.8,4.6,4.8S176.5,104,176.5,101.3z"/>
					<path class="st2" d="M183.8,94.6h6c1.5,0,2.8,0.4,3.5,1.2c0.6,0.6,0.9,1.3,0.9,2.2v0c0,1.6-0.9,2.5-1.9,3
						c1.6,0.5,2.7,1.4,2.7,3.3v0c0,2.4-2,3.7-5,3.7h-6.2V94.6z M191.9,98.4c0-1.1-0.8-1.7-2.4-1.7h-3.4v3.6h3.2
						C190.9,100.3,191.9,99.7,191.9,98.4L191.9,98.4z M189.9,102.3h-3.8v3.7h3.9c1.6,0,2.6-0.6,2.6-1.8v0
						C192.6,102.9,191.7,102.3,189.9,102.3z"/>
					<path class="st2" d="M199.7,94.6h2.4v13.5h-2.4V94.6z"/>
					<path class="st2" d="M207.6,94.6h2.4v11.3h7.1v2.2h-9.5V94.6z"/>
					<path class="st2" d="M221.6,94.6h2.4v13.5h-2.4V94.6z"/>
					<path class="st2" d="M234.3,94.5h2.2l5.9,13.6h-2.5l-1.4-3.3h-6.4l-1.4,3.3h-2.4L234.3,94.5z M237.7,102.7l-2.3-5.4l-2.3,5.4
						H237.7z"/>
					<path class="st2" d="M246.7,94.6h6c1.7,0,3,0.5,3.9,1.3c0.7,0.7,1.1,1.7,1.1,2.9v0c0,2.2-1.3,3.5-3.2,4.1l3.6,5.1h-2.8
						l-3.3-4.7h-3v4.7h-2.4V94.6z M252.5,101.3c1.7,0,2.8-0.9,2.8-2.3v0c0-1.4-1-2.2-2.8-2.2h-3.4v4.5H252.5z"/>
					<path class="st2" d="M262.7,94.6h2.4v13.5h-2.4V94.6z"/>
					<path class="st2" d="M275.4,94.5h2.2l5.9,13.6H281l-1.4-3.3h-6.4l-1.4,3.3h-2.4L275.4,94.5z M278.8,102.7l-2.3-5.4l-2.3,5.4
						H278.8z"/>
				</g>
			</g>
			<g>
				<g>
					<path class="st1" d="M11.8,94.8c0.2,0.1,0.4,0.3,0.6,0.5c0.1,0.2,0.3,0.4,0.3,0.6c0.1,0.2,0.1,0.4,0.1,0.7
						c0,0.3-0.1,0.6-0.2,0.9c-0.2,0.3-0.4,0.5-0.8,0.6c0.3,0.1,0.5,0.3,0.6,0.5c0.1,0.2,0.2,0.6,0.2,1v0.4c0,0.3,0,0.5,0,0.6
						c0,0.2,0.1,0.3,0.3,0.4v0.2h-1.5c0-0.1-0.1-0.3-0.1-0.4c0-0.2-0.1-0.4-0.1-0.6l0-0.6c0-0.4-0.1-0.7-0.2-0.8
						c-0.1-0.1-0.4-0.2-0.8-0.2H8.9v2.6H7.6v-6.6h3.2C11.2,94.7,11.6,94.7,11.8,94.8z M8.9,95.8v1.8h1.5c0.3,0,0.5,0,0.7-0.1
						c0.3-0.1,0.4-0.4,0.4-0.7c0-0.4-0.1-0.7-0.4-0.8c-0.1-0.1-0.4-0.1-0.6-0.1H8.9z"/>
				</g>
				<g>
					<path class="st1" d="M10.2,104.5c-3.5,0-6.4-2.9-6.4-6.4c0-3.5,2.9-6.4,6.4-6.4s6.4,2.9,6.4,6.4
						C16.6,101.6,13.7,104.5,10.2,104.5z M10.2,92.7c-3,0-5.4,2.4-5.4,5.4c0,3,2.4,5.4,5.4,5.4s5.4-2.4,5.4-5.4
						C15.6,95.1,13.2,92.7,10.2,92.7z"/>
				</g>
			</g>
		</g>
		<g>
			<path class="st1" d="M304.5,156.3c-0.2,0-0.4,0-0.6,0c0.1,0,0.2,0.1,0.3,0.1C304.3,156.5,304.4,156.4,304.5,156.3z"/>
			<path class="st1" d="M303.3,156.3c0,0-0.1,0-0.1,0c0,0-0.1,0-0.1,0L303.3,156.3z"/>
			<path class="st1" d="M302.2,156.4c0.2,0,0.4,0,0.5,0C302.6,156.3,302.4,156.3,302.2,156.4z"/>
			<path class="st1" d="M303.1,156.5c-0.1,0-0.1-0.1,0-0.1l0,0c-0.1,0-0.2,0-0.3,0C302.9,156.4,303,156.4,303.1,156.5z"/>
			<path class="st1" d="M303.1,156.5c0.1,0,0.2,0.1,0.2,0.1C303.2,156.5,303.2,156.5,303.1,156.5z"/>
			<path class="st1" d="M302.8,157.6c-0.1,0-0.1-0.3-0.3-0.2c-0.5,0.1-0.9,0.2-1.4,0.2c-0.2,0.1-0.6-0.3-0.8-0.2
				c-0.5,0.1-1.8,0.6-1,0.6c0.6,0,1-0.1,1.5-0.1c0.4,0,0.9-0.1,1.4-0.1c0.8-0.1,1.6-0.3,2.5-0.4c0.2,0,0.5,0,0.7,0
				c-0.3-0.1-0.6-0.1-0.9-0.2C304,157.1,303.5,157.5,302.8,157.6z"/>
			<path class="st1" d="M309,156.5c-0.1,0-0.3,0.1-0.3,0.1c-0.5-0.2-1-0.1-1.5-0.1l0.2,0.2c0.3,0,0.3-0.1,0.1-0.2
				c0.6,0.2,1.1,0.2,1.7,0.2C309.1,156.7,309.1,156.6,309,156.5z"/>
			<path class="st1" d="M309.5,156.8c-0.1,0-0.2,0-0.3,0c0,0,0,0,0,0C309.3,156.8,309.4,156.8,309.5,156.8L309.5,156.8z"/>
			<path class="st1" d="M300,156.7c-1.4,0.1-2.8,0.1-4.1,0.1c-0.1,0.1-0.2,0.1-0.3,0.1c-0.1-0.1-0.2-0.1-0.3-0.1c-0.2,0-0.4,0-0.6,0
				c-0.1,0-0.1,0-0.2,0l0,0c-0.1,0-0.1,0.1,0,0.1c0.1,0,0.1,0.1,0.2,0.1c0,0-0.1-0.1-0.2-0.1c-0.1,0-0.2-0.1-0.3-0.1
				c-0.2,0-0.4,0-0.5,0c0.2,0,0.4-0.1,0.5,0c0.1,0,0.2,0,0.3-0.1c0,0,0.1,0,0.1,0c-0.4,0-0.9,0-1.3,0c-0.1,0-0.2,0-0.3,0
				c-0.3,0.1-0.6,0.1-0.8,0c-0.1,0-0.2,0-0.2,0c0,0,0,0,0,0c0,0-0.1,0-0.1,0c-0.3,0-0.7,0-1,0c-0.2,0.1-0.4,0.2-0.6,0.2
				c0,0-0.2-0.1-0.2-0.1c-0.1,0.1-0.2,0.2-0.4,0.2c0.2,0.1,0.4,0.2,0.5,0.2c0.2,0.1,0.5-0.4,0.7-0.1c-0.3-0.3-0.5,0.2-0.7,0.1
				c-0.2-0.1-0.3-0.2-0.5-0.2c-0.3,0.1-0.7,0.1-1-0.1c0.4-0.2,0.7-0.1,1,0.1c0.1,0,0.3-0.1,0.4-0.2c0.1,0,0.2,0.1,0.2,0.1
				c0.2-0.1,0.4-0.2,0.6-0.2c-0.6,0-1.3,0-2,0.1c-1.1,0-2.1,0.1-3.2,0.1c-1,0.1-2.1,0.2-3.1,0.3c-1,0.1-2.1,0.2-3.1,0.3
				c-1.1,0.2-2.1,0.3-3.2,0.5c-0.6,0.1-1.2,0.1-1.8,0.2c-0.6,0.1-1.2,0.2-1.7,0.3c-1.2,0.2-2.3,0.3-3.4,0.5
				c-1.1,0.2-2.2,0.5-3.3,0.7l-0.8,0.2c-0.3,0.1-0.5,0.2-0.8,0.3L263,161c-0.5,0.2-1.1,0.3-1.6,0.5c-0.5,0.2-1,0.4-1.6,0.6
				c-0.5,0.2-1.1,0.3-1.6,0.5c-0.5,0.2-1.1,0.4-1.7,0.5c-0.2,0.1-0.5,0.2-0.7,0.3c-0.3,0.1-0.5,0.2-0.8,0.4c-0.5,0.3-1.1,0.6-1.7,1
				c-1.1,0.7-2.2,1.6-2.9,2.2c-0.4,0.5-0.6,1-0.6,1.3c0,0.3,0.1,0.6,0.3,0.7c0.2,0.1,0.4,0.2,0.6,0.2c0.2,0,0.3,0,0.4,0
				c0.5,0,0.8-0.1,1.1-0.2c0.3-0.1,0.6-0.3,0.9-0.5c0.2-0.1,0.3-0.2,0.5-0.3c0.2-0.1,0.4-0.2,0.6-0.3c0.5-0.2,1-0.5,1.7-0.7
				c-0.9,0.3-0.7,0,0-0.5c0.3-0.2,0.8-0.5,1.3-0.6c0.5-0.2,1.1-0.3,1.5-0.3c0.4,0,0.7,0,1.1-0.1c0.4-0.1,0.7-0.1,1.1-0.2
				c0.7-0.2,1.4-0.5,2.2-0.8c1.5-0.6,3-1.3,4.6-1.6c0.8-0.1,1.6-0.4,2.5-0.6c2.5-0.3,4.7-0.9,7.1-1.3c1.2-0.2,2.4-0.5,3.6-0.7
				c1.2-0.2,2.5-0.3,3.8-0.5c0.7-0.1,1.3-0.2,1.9-0.4c0.6-0.1,1.2-0.3,1.8-0.4c0.8-0.1,1.8,0,2.5-0.1c1.1-0.1,2-0.3,2.9-0.5
				c-1,0.1-1.7,0.3-2.8,0.4c-0.7,0.1,0.5-0.5,1-0.6c0.2-0.1,0.6,0.2,0.8,0.2c0.5,0,0.9-0.2,1.4-0.3c0.2-0.1,0.2,0.2,0.3,0.2
				c0.7-0.1,1.2-0.5,1.6-0.5c0.3,0,0.6,0.1,0.9,0.1c0.2,0,0.4,0,0.6,0c0.1,0,0.2-0.1,0.4-0.1c-0.1-0.1-0.1-0.2-0.2-0.3
				c0.2,0,0.4,0.1,0.6,0.1c-0.2,0-0.4-0.1-0.6-0.1c0,0.1,0.1,0.2,0.2,0.3c0.9-0.2,1.9-0.4,2.9-0.6l0,0c-0.6,0.1-1.1,0-1.7-0.1
				c0.3,0.1,0.2,0.2-0.1,0.2l-0.2-0.2c0.5-0.1,1-0.2,1.5,0c0,0,0.2-0.1,0.3-0.1c0.2,0,0.2,0.1,0.2,0.2c0.1,0,0.2,0,0.3,0
				C300.7,156.9,300,156.7,300,156.7z"/>
			<path class="st1" d="M294.2,156.9c0.1,0,0.2,0,0.3,0c-0.4,0-0.7,0-1.1,0C293.6,157,293.9,157,294.2,156.9z"/>
		</g>
	</g>
	<g>
		<g>
			<path class="st0" d="M25.5,136.7h9.1l-0.6,2.3h-6.3l-1.1,4.4h5.6l-0.6,2.2h-5.6l-1.3,5.2h6.5l-0.6,2.3h-9.3L25.5,136.7z"/>
			<path class="st0" d="M36.1,141.3h2.6l-0.4,1.6c1.3-1.2,2.7-1.9,4.3-1.9c2.6,0,3.2,1.7,2.6,3.8l-2.1,8.5h-2.6l2-8
				c0.3-1.3,0-2.1-1.3-2.1c-1.2,0-2.5,0.9-3.4,1.8l-2,8.3h-2.7L36.1,141.3z"/>
			<path class="st0" d="M50.3,152l2.1-2.4c0.3,0.3,1.3,1.2,3.3,1.2c1.7,0,2.9-0.8,3.1-1.9c0.4-1.5-1.3-1.9-3-2.9c-1.8-1-3-2.3-2.3-5
				c0.7-2.8,3.5-4.6,6.5-4.6c2.7,0,4,0.9,4.5,1.4l-2,2.5c-0.5-0.4-1.6-1-3-1c-1.3,0-2.4,0.6-2.6,1.7c-0.3,1.3,0.9,1.7,2.4,2.5
				c2,1,3.7,2.1,3,5.2c-0.7,3-3.5,4.9-7.2,4.9C52.3,153.6,50.8,152.6,50.3,152z"/>
			<path class="st0" d="M62.9,150.2c0.8-3.2,4.3-4.3,7.5-4.3h0.4l0.2-0.7c0.3-1.2-0.1-1.7-1.6-1.7c-1.3,0-2.5,0.6-3.4,1.1l-0.9-2
				c1.2-0.9,3-1.7,5.3-1.7c3.3,0,4.6,1.3,3.8,4.5l-1.1,4.4c-0.4,1.6-0.5,2.8-0.5,3.6h-3.3c0-0.3,0.1-0.9,0.1-1.3
				c-0.8,0.8-2.2,1.6-3.8,1.6C63.7,153.6,62.4,152.4,62.9,150.2z M69.9,150.1l0.5-2.2H70c-1.9,0-3.4,0.6-3.8,2
				c-0.2,0.9,0.4,1.3,1.2,1.3C68.4,151.2,69.2,150.7,69.9,150.1z"/>
			<path class="st0" d="M78,141.2h3.2l-0.4,1.5c1.1-1,2.6-1.8,4.3-1.8c2.6,0,3.2,1.7,2.7,3.9l-2.1,8.5h-3.3l1.9-7.8
				c0.3-1.2,0-1.8-1.2-1.8c-1.1,0-2.2,0.8-2.9,1.5l-2,8.2H75L78,141.2z"/>
			<path class="st0" d="M90,149.8l1.5-6.2h-1.9l0.6-2.5h1.9l0.9-3.5h3.3l-0.9,3.5h2.8l-0.6,2.5h-2.8l-1.4,5.5
				c-0.3,1.2-0.1,1.7,0.8,1.7c0.7,0,1.4-0.3,1.7-0.4l0.2,2.5c-0.6,0.3-1.7,0.7-3.2,0.7C90.1,153.6,89.5,152.2,90,149.8z"/>
			<path class="st0" d="M100.7,141.2h3.3l-3,12.1h-3.3L100.7,141.2z M101.2,137.6c0.3-1,1.3-1.9,2.5-1.9s1.8,0.9,1.6,1.9
				c-0.3,1.1-1.4,2-2.5,2S101,138.7,101.2,137.6z"/>
			<path class="st0" d="M104,150.2c0.8-3.2,4.3-4.3,7.5-4.3h0.4l0.2-0.7c0.3-1.2-0.1-1.7-1.6-1.7c-1.3,0-2.5,0.6-3.4,1.1l-1-2
				c1.2-0.9,3-1.7,5.3-1.7c3.3,0,4.6,1.3,3.8,4.5l-1.1,4.4c-0.4,1.6-0.5,2.8-0.5,3.6h-3.3c0-0.3,0.1-0.9,0.1-1.3
				c-0.8,0.8-2.2,1.6-3.8,1.6C104.7,153.6,103.4,152.4,104,150.2z M110.9,150.1l0.5-2.2H111c-1.9,0-3.4,0.6-3.8,2
				c-0.2,0.9,0.4,1.3,1.2,1.3C109.4,151.2,110.2,150.7,110.9,150.1z"/>
			<path class="st0" d="M114.5,156c0.3-1.3,1.4-2.3,2.8-3c-0.6-0.4-0.8-1-0.6-1.8c0.3-1.1,1.1-1.8,1.9-2.3c-1.2-0.7-1.6-2-1.3-3.6
				c0.6-2.6,3.1-4.4,6.5-4.4c0.8,0,1.5,0.1,2.1,0.3h4.4l-0.5,2.2H128c0.2,0.6,0.2,1.2,0,1.9c-0.6,2.6-2.9,4.4-6.3,4.4
				c-0.5,0-1,0-1.4-0.1c-0.3,0.2-0.5,0.4-0.6,0.7c-0.2,0.6,0.5,0.8,2.2,0.9c2.5,0.1,5.7,0.2,4.8,3.7c-0.6,2.6-3.7,4.4-7.7,4.4
				C115.7,159.3,113.9,158.2,114.5,156z M123.3,155.3c0.3-1.3-0.8-1.2-2.6-1.4c-0.6,0-1.1-0.1-1.6-0.2c-0.7,0.4-1.2,1-1.4,1.7
				c-0.2,1,0.3,1.6,2,1.6C121.8,157.1,123.1,156.3,123.3,155.3z M124.9,145.3c0.3-1.4-0.3-2.2-1.6-2.2c-1.4,0-2.4,0.8-2.7,2.2
				c-0.3,1.4,0.3,2.2,1.6,2.2C123.5,147.5,124.5,146.7,124.9,145.3z"/>
			<path class="st0" d="M129.3,147.3c0.8-3.1,3.4-6.4,7.6-6.4c4.2,0,5.4,3.2,4.6,6.3c-0.8,3.1-3.4,6.4-7.7,6.4
				C129.6,153.6,128.5,150.4,129.3,147.3z M138,147.3c0.6-2.3,0.2-3.9-1.7-3.9c-1.9,0-2.9,1.6-3.4,3.8c-0.6,2.3-0.2,3.9,1.7,3.9
				C136.4,151.1,137.4,149.6,138,147.3z"/>
			<path class="st0" d="M142.7,154.2c0.3-1.1-1-1.2-0.6-2.7c0.2-0.9,1.2-1.6,2.1-1.6c1.1,0,1.8,0.9,1.5,2.4
				c-0.4,1.5-1.6,3.3-2.9,4.6H141C141.8,156,142.5,155,142.7,154.2z"/>
			<path class="st0" d="M155.6,141.3h2.6l-0.4,1.6c1.3-1.2,2.7-1.9,4.3-1.9c2.6,0,3.2,1.7,2.6,3.8l-2.1,8.5H160l2-8
				c0.3-1.3,0-2.1-1.3-2.1c-1.2,0-2.5,0.9-3.4,1.8l-2,8.3h-2.7L155.6,141.3z"/>
			<path class="st0" d="M166.5,149.8l2.1-8.5h2.6l-2,8c-0.3,1.3,0,2.1,1.3,2.1c1.5,0,3-1.5,3.4-1.8l2-8.3h2.6l-2.2,9
				c-0.3,1.3-0.5,2.4-0.5,3.1h-2.6c0-0.3,0.1-1.1,0.2-1.7c-0.8,0.8-2.3,2-4.4,2C166.5,153.6,165.9,151.9,166.5,149.8z"/>
			<path class="st0" d="M179.3,147.2c0.9-3.7,4-6.3,7.2-6.3c3.2,0,4.5,2.1,3.6,5.7c-0.1,0.3-0.2,0.7-0.3,1H182
				c-0.4,2.1,0.1,3.9,2.5,3.9c1.6,0,2.8-0.6,3.4-0.9l0.5,1.8c-0.8,0.4-2.3,1.2-4.6,1.2C179.8,153.6,178.4,150.9,179.3,147.2z
				 M187.8,145.8c0.3-1.5,0-2.8-1.8-2.8c-1.6,0-2.8,1.1-3.5,2.8H187.8z"/>
			<path class="st0" d="M190.1,152.5l1.4-1.9c0.4,0.3,1.4,1,2.7,1c1.4,0,2.3-0.5,2.5-1.4c0.2-0.9-0.8-1.3-2.4-2.1
				c-1.6-0.8-2.6-1.7-2.1-3.6c0.5-2.1,2.5-3.5,5.1-3.5c2,0,3.1,0.7,3.5,1l-1.5,1.8c-0.4-0.3-1.2-0.8-2.4-0.8c-1.2,0-1.9,0.5-2.1,1.3
				c-0.2,1,0.7,1.3,1.9,1.8c1.7,0.8,3.1,1.7,2.6,3.7c-0.6,2.4-2.7,3.7-5.5,3.7C191.9,153.6,190.7,153,190.1,152.5z"/>
			<path class="st0" d="M202.2,150.1l1.7-6.8h-1.9l0.5-2h1.9l0.8-3.5h2.6l-0.9,3.5h2.9l-0.5,2h-2.9l-1.6,6.4
				c-0.3,1.2-0.1,1.7,0.9,1.7c0.7,0,1.5-0.3,1.7-0.5l0.3,2c-0.5,0.2-1.6,0.7-3,0.7C202.3,153.6,201.7,152.3,202.2,150.1z"/>
			<path class="st0" d="M212.4,141.3h2.7l-0.4,1.7c0.7-0.8,2-2,3.6-2c0.8,0,1.2,0.2,1.4,0.3l-1.2,2.4c-0.2-0.1-0.4-0.2-1.1-0.2
				c-1.6,0-3,1.7-3.3,2.1l-1.9,7.8h-2.7L212.4,141.3z"/>
			<path class="st0" d="M218.4,147.3c0.7-3,3.2-6.4,7.3-6.4c4.1,0,5.1,3.3,4.4,6.3c-0.7,2.9-3.3,6.4-7.5,6.4
				C218.6,153.6,217.7,150.3,218.4,147.3z M227.4,147.3c0.6-2.4,0-4.3-2.1-4.3c-2.1,0-3.4,1.8-4,4.2c-0.6,2.4-0.1,4.3,2,4.3
				C225.4,151.5,226.8,149.7,227.4,147.3z"/>
			<path class="st0" d="M236.9,145c1.1-4.5,5.1-8.6,10.7-8.6c2.2,0,3.6,0.5,4.7,1.3l-2.2,2.6c-0.8-0.6-1.7-1-3.2-1
				c-3.1,0-5.4,2.5-6.2,5.6c-0.8,3.2,0.2,5.8,3.4,5.8c1.8,0,3-0.6,4.1-1.3l0.8,2.5c-1,0.8-3.3,1.7-5.7,1.7
				C237.6,153.6,235.7,149.5,236.9,145z"/>
			<path class="st0" d="M250.6,147.2c0.9-3.8,4.2-6.3,7.6-6.3c3.4,0,4.7,2.2,3.8,6c-0.1,0.4-0.2,0.7-0.3,1.1h-7.7
				c-0.3,1.8,0.3,3.1,2.3,3.1c1.6,0,2.7-0.5,3.4-0.8l0.5,2.1c-0.9,0.4-2.3,1.2-4.8,1.2C251.3,153.6,249.6,151.1,250.6,147.2z
				 M259,145.8c0.3-1.4,0-2.5-1.5-2.5c-1.4,0-2.4,0.9-3.1,2.5H259z"/>
			<path class="st0" d="M265.4,141.2h3.2l-0.4,1.5c1.1-1,2.6-1.8,4.3-1.8c2.6,0,3.2,1.7,2.7,3.9l-2.1,8.5h-3.3l1.9-7.8
				c0.3-1.2,0-1.8-1.2-1.8c-1.1,0-2.2,0.8-2.9,1.5l-2,8.2h-3.3L265.4,141.2z"/>
			<path class="st0" d="M277.4,149.8l1.5-6.2H277l0.6-2.5h1.9l0.9-3.5h3.3l-0.9,3.5h2.8l-0.6,2.5h-2.8l-1.4,5.5
				c-0.3,1.2-0.1,1.7,0.8,1.7c0.7,0,1.4-0.3,1.7-0.4l0.2,2.5c-0.6,0.3-1.7,0.7-3.2,0.7C277.5,153.6,276.9,152.2,277.4,149.8z"/>
			<path class="st0" d="M287.9,141.2h3.3l-0.4,1.6c0.7-0.9,2-1.9,3.5-1.9c0.9,0,1.3,0.2,1.6,0.3l-1.5,2.9c-0.2-0.1-0.5-0.3-1.2-0.3
				c-1.5,0-2.7,1.3-3.1,1.8l-1.9,7.7h-3.3L287.9,141.2z"/>
			<path class="st0" d="M294.5,147.3c0.8-3.1,3.4-6.4,7.6-6.4c4.2,0,5.4,3.2,4.6,6.3c-0.8,3.1-3.4,6.4-7.7,6.4
				C294.8,153.6,293.7,150.4,294.5,147.3z M303.2,147.3c0.6-2.3,0.2-3.9-1.7-3.9c-1.9,0-2.9,1.6-3.4,3.8c-0.6,2.3-0.2,3.9,1.7,3.9
				C301.6,151.1,302.6,149.6,303.2,147.3z"/>
			<path class="st0" d="M312.5,147.2c0.9-3.7,4-6.3,7.2-6.3c3.2,0,4.5,2.1,3.6,5.7c-0.1,0.3-0.2,0.7-0.3,1h-7.9
				c-0.4,2.1,0.1,3.9,2.5,3.9c1.6,0,2.8-0.6,3.4-0.9l0.5,1.8c-0.8,0.4-2.3,1.2-4.6,1.2C313.1,153.6,311.6,150.9,312.5,147.2z
				 M321,145.8c0.3-1.5,0-2.8-1.8-2.8c-1.6,0-2.8,1.1-3.5,2.8H321z"/>
			<path class="st0" d="M327,141.3h2.7l-0.4,1.7c0.7-0.8,2-2,3.6-2c0.8,0,1.2,0.2,1.4,0.3l-1.2,2.4c-0.2-0.1-0.4-0.2-1.1-0.2
				c-1.6,0-3,1.7-3.3,2.1l-1.9,7.8h-2.7L327,141.3z"/>
			<path class="st0" d="M333.2,147.2c0.9-3.7,4-6.3,7.2-6.3c3.2,0,4.5,2.1,3.6,5.7c-0.1,0.3-0.2,0.7-0.3,1h-7.9
				c-0.4,2.1,0.1,3.9,2.5,3.9c1.6,0,2.8-0.6,3.4-0.9l0.5,1.8c-0.8,0.4-2.3,1.2-4.6,1.2C333.7,153.6,332.3,150.9,333.2,147.2z
				 M341.7,145.8c0.3-1.5,0-2.8-1.8-2.8c-1.6,0-2.8,1.1-3.5,2.8H341.7z"/>
			<path class="st0" d="M344,152.5l1.4-1.9c0.4,0.3,1.4,1,2.7,1c1.4,0,2.3-0.5,2.5-1.4c0.2-0.9-0.8-1.3-2.4-2.1
				c-1.6-0.8-2.6-1.7-2.1-3.6c0.5-2.1,2.5-3.5,5.1-3.5c2,0,3.1,0.7,3.5,1l-1.5,1.8c-0.4-0.3-1.2-0.8-2.4-0.8c-1.2,0-1.9,0.5-2.1,1.3
				c-0.2,1,0.7,1.3,1.9,1.8c1.8,0.8,3.1,1.7,2.6,3.7c-0.6,2.4-2.7,3.7-5.5,3.7C345.8,153.6,344.6,153,344,152.5z"/>
			<path class="st0" d="M360.7,150.1l1.7-6.8h-1.9l0.5-2h1.9l0.8-3.5h2.6l-0.9,3.5h2.9l-0.5,2h-2.9l-1.6,6.4
				c-0.3,1.2-0.1,1.7,0.9,1.7c0.7,0,1.5-0.3,1.7-0.5l0.3,2c-0.5,0.2-1.6,0.7-3,0.7C360.9,153.6,360.2,152.3,360.7,150.1z"/>
			<path class="st0" d="M368.7,149.8l2.1-8.5h2.6l-2,8c-0.3,1.3,0,2.1,1.3,2.1c1.5,0,3-1.5,3.4-1.8l2-8.3h2.6l-2.2,9
				c-0.3,1.3-0.5,2.4-0.5,3.1h-2.6c0-0.3,0.1-1.1,0.2-1.7c-0.8,0.8-2.3,2-4.4,2C368.7,153.6,368.1,151.9,368.7,149.8z M377.9,136.6
				h3.6l-4.2,3.3h-2.3L377.9,136.6z"/>
			<path class="st0" d="M380.8,151.7c0.3-1,1.3-1.8,2.4-1.8c1,0,1.7,0.8,1.4,1.8c-0.3,1-1.3,1.9-2.4,1.9
				C381.2,153.6,380.6,152.8,380.8,151.7z"/>
		</g>
	</g>
</g>
</svg>
