<?xml version="1.0" encoding="utf-8"?>
<!-- Generator: Adobe Illustrator 24.3.0, SVG Export Plug-In . SVG Version: 6.00 Build 0)  -->
<svg version="1.1" id="Layer_1" xmlns="http://www.w3.org/2000/svg" xmlns:xlink="http://www.w3.org/1999/xlink" x="0px" y="0px"
	 viewBox="0 0 696.7 594.1" style="enable-background:new 0 0 696.7 594.1;" xml:space="preserve">
<style type="text/css">
	.st0{fill:#808080;}
</style>
<g>
	<path class="st0" d="M50,297C50.6,157.9,185.9,50.3,348.4,50l0,0C510.8,50.3,646,157.9,646.7,297l0,0
		c-0.6,139.1-135.9,246.8-298.3,247l0,0C185.9,543.8,50.6,436.1,50,297L50,297z M159.1,146.4c-48,39.3-76.7,92.4-76.7,150.7l0,0
		c0,58.2,28.7,111.3,76.7,150.7l0,0c47.9,39.2,114.9,64,189.2,64l0,0c74.3,0,141.3-24.7,189.2-64l0,0c48-39.3,76.7-92.4,76.7-150.7
		l0,0c0-58.2-28.7-111.4-76.7-150.7l0,0c-47.9-39.3-114.9-64-189.2-64l0,0c0,0-0.1,0-0.1,0l0,0C274,82.4,207,107.1,159.1,146.4
		L159.1,146.4z"/>
</g>
<polygon class="st0" points="210,164.9 139.8,291.8 210,418.7 280.2,291.8 "/>
<polygon class="st0" points="350.4,166.9 280.2,293.8 350.4,420.7 420.6,293.8 "/>
<polygon class="st0" points="490.8,166.9 420.6,293.8 490.8,420.7 561,293.8 "/>
</svg>
