<svg xmlns="http://www.w3.org/2000/svg" xmlns:xlink="http://www.w3.org/1999/xlink" width="96" height="77" viewBox="0 0 96 77"><defs><style>.a{fill:none;stroke:#fff;}.b{clip-path:url(#a);}.c{fill:#494949;}</style><clipPath id="a"><rect class="a" width="96" height="77" transform="translate(18950 3701)"/></clipPath></defs><g class="b" transform="translate(-18950 -3701)"><g transform="translate(18688.074 3145.264)"><path class="c" d="M299.571,584.7c-.048.6-.71,1.2-1.824,1.639l-.046-1.231c-.034-.863-.066-1.729-.088-2.594,1.353.772,2.011,1.506,1.958,2.186m-3.28.72.05,1.331a5.148,5.148,0,0,1-.71.089c-.105.006-.211.008-.314.008-.159,0-.314-.006-.466-.014l.008-4.943.285.032c.348.038.7.076,1.038.131.022,1.122.066,2.246.109,3.366m-1.428-4.9.008-4.782a6.5,6.5,0,0,1,1.269-.125c0,1.713,0,3.426.03,5.139l-.058-.008c-.372-.054-.744-.109-1.112-.191Zm-2.483-3.427a3.055,3.055,0,0,1,1.07-.865l-.008,3.865a2.378,2.378,0,0,1-1.554-1.313,1.963,1.963,0,0,1,.491-1.687m1.046,11.009-.006,3.016a.671.671,0,0,0,.189.485.736.736,0,0,0,.521.2.679.679,0,0,0,.71-.69l.006-2.833c.1,0,.207.006.31.006a11.012,11.012,0,0,0,1.235-.07q.021.555.036,1.11c.016.563.034,1.128.06,1.693a.715.715,0,0,0,.74.682.707.707,0,0,0,.513-.2.651.651,0,0,0,.169-.489c-.032-.621-.05-1.241-.068-1.864-.012-.4-.024-.81-.038-1.214a3.758,3.758,0,0,0,2.97-2.781c.438-2.061-1.221-3.535-3.181-4.122-.03-1.753-.032-3.507-.032-5.262a3.148,3.148,0,0,1,1.912,1.16.705.705,0,0,0,.591.316.787.787,0,0,0,.684-.4.608.608,0,0,0-.058-.65,4.882,4.882,0,0,0-3.137-1.828s-.01-1.044-.008-1.291a.666.666,0,0,0-.187-.487.735.735,0,0,0-.519-.205.685.685,0,0,0-.714.69c0,.223.006,1.15.006,1.15l-.119,0a8.048,8.048,0,0,0-1.138.082l0-1.13a.67.67,0,0,0-.189-.485.735.735,0,0,0-.521-.2.679.679,0,0,0-.71.69l0,1.464a4.187,4.187,0,0,0-2.96,3.056c-.354,1.8,1.094,3.229,2.684,3.847.074.03.149.052.263.086l-.01,4.953a3.449,3.449,0,0,1-2.133-2.3.71.71,0,0,0-.686-.485.757.757,0,0,0-.613.294.63.63,0,0,0-.066.583,4.647,4.647,0,0,0,3.5,3.428" transform="translate(14.597 3.608)"/><path class="c" d="M306.734,572.272c1.767,0,3.583.04,5.4.119l.452.016c1.056.03,1.307.036,1.657,1.19l.1.322a12.013,12.013,0,0,0,.573,1.637,10.76,10.76,0,0,0,2.5,3.233c.263.261.531.527.784.786a7.547,7.547,0,0,1,.076,3.28c-.054.537-.1,1-.1,1.315.006.243.05.615.1,1.044.125,1.048.294,2.483-.01,2.96a3.065,3.065,0,0,1-.891.426,4.414,4.414,0,0,0-.929.426,4.915,4.915,0,0,0-1.6,2.005,6.693,6.693,0,0,0-.464,1.452,7.71,7.71,0,0,1-.33,1.132c-.358.879-.358.879-1.353.9l-.187,0c-.706.02-1.412.028-2.121.028-1.148,0-2.3-.02-3.448-.038q-1.208-.021-2.417-.034-1.883-.015-3.764-.066c-.71-.02-1.381-.064-1.478-.254-.084-.167.213-.595.648-1.226a15.377,15.377,0,0,0,2.493-6.569c.832-5.58-.571-10.631-3.853-13.9a27.151,27.151,0,0,1,3.537-.181l2.077.01.73-.006q.907-.015,1.816-.014M301.2,584.535a15.331,15.331,0,0,1-1.778,6.549,10.321,10.321,0,0,1-1.08,1.494,7.908,7.908,0,0,0-1.331,2.017.707.707,0,0,0,.332.818,10.453,10.453,0,0,0,4.414.72c1.017,0,2.047-.06,3.042-.115.883-.052,1.725-.1,2.584-.1h.012c.541,0,1.2.056,1.9.11.845.066,1.8.139,2.708.139a7.1,7.1,0,0,0,3.04-.509.7.7,0,0,0,.36-.617,5.677,5.677,0,0,1,3.76-5.781.731.731,0,0,0,.509-.682c-.006-.814-.02-1.629-.036-2.443-.02-1.144-.042-2.288-.034-3.434,0-.27.03-.593.06-.939a5.669,5.669,0,0,0-.193-2.807l-.05-.119-.115-.155c-.269-.282-.539-.551-.8-.814a10.257,10.257,0,0,1-2.226-2.813,7.173,7.173,0,0,1-.438-1.371,6.231,6.231,0,0,0-.547-1.588c-.561-.971-1.172-1.013-2.184-1.082l-.175-.012c-1.566-.111-3.272-.165-5.214-.165-1.1,0-2.206.016-3.3.042-.422.01-.851.012-1.289.012h-.987a21.8,21.8,0,0,0-5.294.458.748.748,0,0,0-.513.569.617.617,0,0,0,.209.627c4.221,3.352,4.866,8.371,4.661,11.992" transform="translate(20.952 2.078)"/><path class="c" d="M282.712,573.6c.35-1.152.6-1.16,1.657-1.19l.452-.014c1.824-.08,3.637-.121,5.383-.121q.916,0,1.83.016c.249,0,.5.006.762.006l2.055-.01a27.024,27.024,0,0,1,3.527.181c-3.171,3.161-4.6,8.047-3.911,13.448a15.83,15.83,0,0,0,2.294,6.652c.167.263.338.488.485.682.257.34.462.611.4.76s-.39.278-1.015.4a9.177,9.177,0,0,1-1.695.129c-.408,0-.82-.014-1.225-.028s-.788-.028-1.164-.028c0,0-1.7.02-2.491.032-1.178.018-2.357.036-3.535.036-.591,0-1.182,0-1.773-.016l-.456,0c-.9,0-.989,0-1.391-.838a4.439,4.439,0,0,1-.3-1.112,5.384,5.384,0,0,0-.3-1.154,5.9,5.9,0,0,0-1.5-2.208,4.28,4.28,0,0,0-1.062-.507,2.992,2.992,0,0,1-1.04-.527,5.433,5.433,0,0,1-.03-2.616c.05-.406.1-.776.1-1.047.008-.338-.038-.843-.09-1.43-.115-1.283-.259-2.88.066-3.487.273-.285.543-.553.81-.816a10.641,10.641,0,0,0,2.491-3.227,12.48,12.48,0,0,0,.575-1.641Zm-5.357,9.105c.008,1.146-.014,2.292-.034,3.438-.016.814-.032,1.625-.036,2.439a.727.727,0,0,0,.509.68,5.674,5.674,0,0,1,3.758,5.783.709.709,0,0,0,.36.617,7.148,7.148,0,0,0,3.048.509c.909,0,1.87-.076,2.717-.141.7-.054,1.347-.1,2-.108.758,0,1.611.05,2.5.1.993.056,2.019.118,3.03.118a10.405,10.405,0,0,0,4.4-.724.705.705,0,0,0,.33-.819,7.818,7.818,0,0,0-1.325-2.011,10.184,10.184,0,0,1-1.084-1.5,15.466,15.466,0,0,1-1.778-6.549c-.326-5.087,1.329-9.344,4.661-11.99a.618.618,0,0,0,.209-.627.75.75,0,0,0-.513-.571,22.054,22.054,0,0,0-5.359-.438c-.581,0-1.154,0-1.707-.018-1.245-.036-2.5-.06-3.76-.06-1.936,0-3.656.056-5.26.171l-.2.012c-.925.064-1.594.107-2.129,1.009a4.722,4.722,0,0,0-.456,1.42,6.629,6.629,0,0,1-.247.951,9.768,9.768,0,0,1-2.554,3.481c-.263.263-.527.527-.846.883l-.1.169a5.642,5.642,0,0,0-.2,2.835c.03.344.058.666.06.939" transform="translate(2.062 2.076)"/><path class="c" d="M280.775,576.421a.731.731,0,0,0,.7-.476,26.774,26.774,0,0,1,1.221-2.725.688.688,0,0,0-.018-.694.781.781,0,0,0-.651-.376.627.627,0,0,0-.563.362,29.916,29.916,0,0,0-1.353,3.034.606.606,0,0,0,.052.577.738.738,0,0,0,.613.3" transform="translate(4.875 3.378)"/><path class="c" d="M281.184,575.542a.8.8,0,0,0,.7.406.731.731,0,0,0,.593-.3,11.05,11.05,0,0,1,1.353-1.456.623.623,0,0,0,.181-.71.784.784,0,0,0-.7-.491.69.69,0,0,0-.473.191,12.759,12.759,0,0,0-1.566,1.727.577.577,0,0,0-.084.631" transform="translate(5.927 4.213)"/><path class="c" d="M276.99,615.886a5.889,5.889,0,0,1-.113-.839c6.754-.088,13.621-.1,20.264-.105,5.755-.008,11.51-.016,17.264-.074.6,0,1.208-.008,1.808-.008,2.8,0,5.626.06,8.359.115s5.528.115,8.3.115c4.084,0,7.474-.127,10.653-.4a4.025,4.025,0,0,1-.259,2.053c-.253.3-1.18.459-2.761.459-.812,0-1.657-.04-2.343-.072-.457-.022-.842-.04-1.194-.04h-.03c-7.709.189-16.066.283-25.555.283l-2.984,0c-4.058-.006-8.117-.048-12.173-.089-4.52-.046-9.042-.09-13.559-.09l-1.862,0c-.275,0-.557.014-.837.028s-.557.026-.826.026c-1.114,0-1.906-.231-2.147-1.359m26.148-9.736q2.969.018,5.94.038c3.181.024,6.364.044,9.545.044,9.853,0,17.465-.185,24.65-.6q.015,1.45.016,2.9l0,.515-10.162.072q-11.614.087-23.228.153-3.035.015-6.064.016c-4.132,0-7.77-.028-11.128-.086-1.878-.032-3.764-.115-5.65-.2-2.367-.105-4.81-.215-7.209-.215-1.029,0-2.053.018-3.078.068l-.064-3.249c8.813.444,17.767.493,26.429.541m-17.228-4.212c3.084,0,6.223-.1,9.258-.191s6.171-.193,9.247-.193c2.023,0,3.845.042,5.57.127,3.183.155,6.414.231,9.875.231,2.57,0,5.206-.042,8.055-.127l.71-.022c1.794-.056,3.648-.112,5.473-.112.816,0,1.631.01,2.449.038.493.016,1.046.064,1.627.111.844.072,1.715.143,2.566.143a7.413,7.413,0,0,0,2.457-.334c.018.867.036,1.735.048,2.6-7.182.412-14.787.595-24.636.595q-4.766,0-9.529-.042-2.978-.024-5.952-.038c-8.668-.048-17.63-.1-26.448-.543q-.03-1.319-.086-2.64c2.777.265,5.827.392,9.316.392m-9.089,8.64-.008-.3c1.011-.046,2.023-.066,3.04-.066,2.393,0,4.834.109,7.193.215,1.892.086,3.778.169,5.66.2,3.358.058,7,.085,11.132.085q3.032,0,6.066-.016,11.617-.057,23.232-.151l10.164-.074,0,.617c0,.227.034.653.076,1.174.024.31.052.652.076,1.01-3.163.271-6.535.4-10.6.4-2.761,0-5.568-.058-8.284-.113-2.733-.058-5.56-.116-8.359-.116-.6,0-1.206,0-1.806.008-5.757.058-11.514.066-17.272.072-6.646.01-13.52.02-20.279.108l.008-.36c.01-.469.02-.931,0-1.365s-.03-.883-.042-1.323m3.406-40.091c.384.014.732.028,1,.028.141,0,.263,0,.356-.012l.465-.044c.814-.077,1.584-.151,2.381-.151.261,0,.525.008.792.026.834.056,1.727.083,2.735.083,1.239,0,2.483-.04,3.722-.082,1-.032,2-.066,2.984-.076,5.994-.07,12.067-.1,18.042-.1l2.881,0c6.941.014,13.977.072,20.92.175l.145,0c.432,0,.925-.026,1.444-.056.569-.03,1.166-.062,1.739-.062a6.931,6.931,0,0,1,1.87.2c1.55.45,1.506,1.882,1.458,3.4-.012.334-.022.668-.014.993.078,3.525.125,7.09.143,10.6s.008,7.056-.034,10.6c0,.324.014.66.032,1,.078,1.466.147,2.851-1.452,3.308a5.594,5.594,0,0,1-1.516.171c-.583,0-1.192-.05-1.769-.1-.416-.034-.818-.066-1.18-.08q-1.7-.053-3.406-.052c-2.544,0-5.125.078-7.623.153-2.479.076-5.041.151-7.6.153-2.095,0-4.217-.1-6.266-.195-1.114-.052-2.23-.1-3.348-.141-.436-.016-.873-.022-1.309-.022-.947,0-1.894.028-2.841.058s-1.892.056-2.835.056c-.515,0-1.028-.01-1.544-.03-1.184-.05-2.369-.068-3.555-.068-2.208,0-4.45.068-6.619.133s-4.408.133-6.617.133c-.46,0-1.745-.012-1.745-.012-.312,0-1.637.018-1.977.018a12.41,12.41,0,0,1-3.074-.294,2.438,2.438,0,0,0-.509-.089,3.269,3.269,0,0,1,.006-.68c.01-.131.018-.251.018-.334l-.006-.253a51.263,51.263,0,0,1,.1-5.538c.32-3.535.3-7.132.279-10.609l0-.76c-.01-2.073-.054-3.68-.139-5.206-.016-.279-.04-.583-.062-.905-.129-1.713-.286-3.841.29-5.127a3.856,3.856,0,0,1,1.763-.239c.487,0,1,.02,1.466.038m64.354,29.369c.034-.276.042-.575.058-.907.1-2.628.1-5.308.09-7.9l0-2.115q0-5.007-.076-10.01-.039-2.357-.091-4.711c-.006-.294.01-.645.028-1.021a7.309,7.309,0,0,0-.213-2.841c-.436-1.052-1.024-1.188-2.033-1.339a28.407,28.407,0,0,0-4.225-.263c-.969,0-1.946.026-2.914.054-.947.024-1.888.05-2.805.05l-.533,0c-6.338-.078-12.8-.115-19.2-.115H312.1c-7.134,0-14.369.054-21.5.153l-.47,0c-.776,0-1.556-.024-2.338-.048s-1.572-.05-2.353-.05a23.932,23.932,0,0,0-2.475.112,19.82,19.82,0,0,1-1.987.073l-.905,0a15.412,15.412,0,0,0-2.912.2,2.764,2.764,0,0,0-.847.314.63.63,0,0,0-.394.257l.07.1-.143,0a.47.47,0,0,0-.082.207c-.826,1.838-.617,4.2-.432,6.292.052.6.1,1.176.129,1.721.123,2.636.089,5.333.058,7.943-.01.859-.022,1.719-.028,2.576-.01,1.792-.093,3.6-.173,5.353-.1,2.232-.209,4.54-.167,6.841.1,1.972.131,3.977.165,5.918.024,1.335.046,2.67.09,4,.016.505-.014,1.124-.046,1.786-.08,1.7-.171,3.629.412,4.8.607,1.225,2.145,1.327,3.535,1.327h.732q3.074.03,6.147.04,2.659.012,5.319.032c7.673.068,13.88.1,19.532.1,12.515,0,22.969-.153,32.9-.481a.726.726,0,0,0,.706-.708c.145-5.126.129-10.766-.054-17.743" transform="translate(0 0)"/></g></g></svg>