<svg xmlns="http://www.w3.org/2000/svg" width="96" height="77" viewBox="0 0 96 77"><defs><style>.a{fill:#fff;}.b{fill:none;}</style></defs><g transform="translate(-1237 -2150)"><g transform="translate(1253.724 2159)"><path class="a" d="M59.033,56H55.147V53.735a14.071,14.071,0,0,0-3.867-9.728V40.359L52.1,40.2a7.309,7.309,0,0,0,5.2-4.855l1.173-4.3a2.847,2.847,0,0,0-2.057-3.512l-.178-.044a2.847,2.847,0,0,0-3.453,2.073c-.619,2.477-1.027,4.062-3.181,4.761a4.782,4.782,0,0,0,.71-2.484,4.833,4.833,0,1,0-9.667,0,4.784,4.784,0,0,0,.7,2.475c-2.128-.7-2.535-2.286-3.15-4.751a2.848,2.848,0,0,0-3.452-2.072l-.178.044a2.847,2.847,0,0,0-2.057,3.512l1.172,4.3a7.306,7.306,0,0,0,5.2,4.854l.82.163v3.648a14.068,14.068,0,0,0-3.867,9.728V56H25.2v-.332a14.068,14.068,0,0,0-3.867-9.728V41.29a8.892,8.892,0,0,0,6.1-6.224l1.1-4.024A2.847,2.847,0,0,0,26.47,27.53l-.177-.044a2.847,2.847,0,0,0-3.453,2.073c-.62,2.477-1.028,4.062-3.182,4.761a4.831,4.831,0,1,0-7.049,1.337l-.776.258a8.708,8.708,0,0,0-4.362,3.221l-2.23,3.121a2.849,2.849,0,0,0,.739,4.025,2.859,2.859,0,0,0,3.593-.356l2.094-2.092v3.238L7.2,56H2.967A.966.966,0,0,0,2,56.967v2.9a.966.966,0,0,0,.967.967H59.033A.966.966,0,0,0,60,59.867v-2.9A.966.966,0,0,0,59.033,56ZM45.481,28.933a2.9,2.9,0,1,1-2.9,2.9A2.9,2.9,0,0,1,45.481,28.933Zm-7.706,24.8a12.152,12.152,0,0,1,3.583-8.652.964.964,0,0,0,.283-.683V40.358a1.94,1.94,0,0,0-1.554-1.9l-.82-.163a5.381,5.381,0,0,1-3.716-3.467l-1.172-4.3a.917.917,0,0,1,.66-1.129l.179-.044a.918.918,0,0,1,1.108.666c.891,3.563,1.661,6.641,8.5,6.641h1.326c6.846,0,7.615-3.078,8.5-6.64a.918.918,0,0,1,1.11-.666l.178.044a.917.917,0,0,1,.66,1.129l-1.173,4.3A5.462,5.462,0,0,1,51.723,38.3l-.822.163a1.939,1.939,0,0,0-1.553,1.9V44.4a.962.962,0,0,0,.283.683,12.157,12.157,0,0,1,3.583,8.652V56H51.048l-1.475-5.253a2.985,2.985,0,0,0-2.929-2.48h-2.3a2.984,2.984,0,0,0-2.928,2.48L39.942,56H37.774ZM49.039,56h-7.09l1.343-4.785a.952.952,0,0,0,.026-.125,1.042,1.042,0,0,1,1.027-.89h2.3a1.042,1.042,0,0,1,1.027.89q.01.062.026.125ZM15.533,28.933a2.9,2.9,0,1,1-2.9,2.9A2.9,2.9,0,0,1,15.533,28.933ZM13.5,47.732a.969.969,0,0,0,.1-.432V41.5a.966.966,0,0,0-1.65-.683L8.207,44.56A.915.915,0,0,1,6.816,43.38l2.23-3.121a6.8,6.8,0,0,1,3.4-2.511l3.243-1.081h.52c6.844,0,7.613-3.078,8.5-6.64a.918.918,0,0,1,1.109-.666l.178.044a.917.917,0,0,1,.66,1.129l-1.1,4.024a6.973,6.973,0,0,1-5.387,5.028.965.965,0,0,0-.777.947v5.8a.962.962,0,0,0,.283.683,12.154,12.154,0,0,1,3.583,8.652V56H21.206l-.6-4.217a2.971,2.971,0,0,0-5.52-1.054L12.073,56H9.364ZM19.252,56H14.3l2.463-4.311a1.037,1.037,0,0,1,1.927.368Zm38.815,2.9H3.933v-.967H58.067Z" transform="translate(0 -0.833)"/><path class="a" d="M30.767,2V4A7.733,7.733,0,1,0,32.7,4V2Zm6.767,9.667a5.8,5.8,0,1,1-5.8-5.8A5.806,5.806,0,0,1,37.533,11.667Z" transform="translate(-0.733 0)"/><path class="a" d="M43,17h1.933v1.933H43Z" transform="translate(-1.367 -0.5)"/><path class="a" d="M41,19h1.933v1.933H41Z" transform="translate(-1.3 -0.567)"/><path class="a" d="M45,19h1.933v1.933H45Z" transform="translate(-1.433 -0.567)"/><path class="a" d="M43,21h1.933v1.933H43Z" transform="translate(-1.367 -0.633)"/><path class="a" d="M27.6,10.135l-.969,1.672a10.275,10.275,0,0,0,5.186,1.1,10.275,10.275,0,0,0,5.186-1.1l-.969-1.672a8.606,8.606,0,0,1-4.218.836,8.606,8.606,0,0,1-4.218-.836Z" transform="translate(-0.821 -0.271)"/><path class="a" d="M30.417,7.105l-.865,1.729a5.309,5.309,0,0,0,4.732,0l-.865-1.729a3.369,3.369,0,0,1-3,0Z" transform="translate(-0.918 -0.17)"/><path class="a" d="M30.417,14.634l-.865,1.729a5.319,5.319,0,0,0,4.731,0l-.865-1.729a3.37,3.37,0,0,1-3,0Z" transform="translate(-0.918 -0.421)"/><path class="a" d="M19,4h1.933V5.933H19Z" transform="translate(-0.567 -0.067)"/><path class="a" d="M17,6h1.933V7.933H17Z" transform="translate(-0.5 -0.133)"/><path class="a" d="M21,6h1.933V7.933H21Z" transform="translate(-0.633 -0.133)"/><path class="a" d="M19,8h1.933V9.933H19Z" transform="translate(-0.567 -0.2)"/><path class="a" d="M58,9h1.933v1.933H58Z" transform="translate(-1.867 -0.233)"/><path class="a" d="M56,11h1.933v1.933H56Z" transform="translate(-1.8 -0.3)"/><path class="a" d="M60,11h1.933v1.933H60Z" transform="translate(-1.933 -0.3)"/><path class="a" d="M58,13h1.933v1.933H58Z" transform="translate(-1.867 -0.367)"/><path class="a" d="M4,21H5.933v1.933H4Z" transform="translate(-0.067 -0.633)"/><path class="a" d="M2,23H3.933v1.933H2Z" transform="translate(0 -0.7)"/><path class="a" d="M6,23H7.933v1.933H6Z" transform="translate(-0.133 -0.7)"/><path class="a" d="M4,25H5.933v1.933H4Z" transform="translate(-0.067 -0.767)"/></g><rect class="b" width="96" height="77" transform="translate(1237 2150)"/></g></svg>