<svg xmlns="http://www.w3.org/2000/svg" width="96" height="77" viewBox="0 0 96 77"><defs><style>.a{fill:#fff;}.b{fill:none;}</style></defs><g transform="translate(-1450 -2150)"><g transform="translate(1436.789 2123.818)"><path class="a" d="M103.609,137.007a1.042,1.042,0,0,0,.554-.159c.286-.179.577-.353.865-.518a1.048,1.048,0,0,0-1.043-1.818c-.31.178-.624.366-.933.559a1.048,1.048,0,0,0,.556,1.936Z" transform="translate(-53.552 -73.503)"/><path class="a" d="M87.771,148.711a1.044,1.044,0,0,0,.714-.282c.246-.229.5-.455.75-.673a1.048,1.048,0,0,0-1.37-1.586c-.272.235-.544.479-.809.726a1.048,1.048,0,0,0,.715,1.814Z" transform="translate(-41.864 -82.023)"/><path class="a" d="M73.584,162.693a1.045,1.045,0,0,0,.741-.307l.741-.741a1.048,1.048,0,0,0-1.482-1.482l-.741.741a1.048,1.048,0,0,0,.741,1.789Z" transform="translate(-31.394 -92.311)"/><path class="a" d="M121.474,128.592a1.041,1.041,0,0,0,.376-.07c.31-.119.629-.235.947-.344a1.048,1.048,0,0,0-.677-1.983c-.343.117-.687.242-1.022.371a1.048,1.048,0,0,0,.377,2.026Z" transform="translate(-66.737 -67.426)"/><path class="a" d="M168.394,99.1c-.328.064-.661.123-.989.173a1.048,1.048,0,1,0,.317,2.071c.356-.054.718-.118,1.075-.188a1.048,1.048,0,1,0-.4-2.056Z" transform="translate(-100.754 -47.454)"/><path class="a" d="M204.923,83.594c-.272.194-.551.384-.829.564a1.048,1.048,0,1,0,1.142,1.757c.3-.2.606-.4.9-.614a1.048,1.048,0,0,0-1.215-1.707Z" transform="translate(-128.136 -35.883)"/><path class="a" d="M220.132,73a1.045,1.045,0,0,0,.746-.312c.256-.26.508-.527.75-.793a1.048,1.048,0,1,0-1.554-1.406c-.221.244-.452.489-.687.727A1.048,1.048,0,0,0,220.132,73Z" transform="translate(-139.551 -26.097)"/><path class="a" d="M231.977,56.819a1.048,1.048,0,0,0,1.446-.326c.195-.308.385-.623.564-.936a1.048,1.048,0,0,0-1.818-1.042c-.164.287-.338.575-.517.858A1.048,1.048,0,0,0,231.977,56.819Z" transform="translate(-148.706 -14.176)"/><path class="a" d="M186.866,95.669a1.045,1.045,0,0,0,.372-.069c.338-.128.678-.266,1.012-.409a1.048,1.048,0,1,0-.826-1.926c-.307.132-.62.258-.93.376a1.048,1.048,0,0,0,.373,2.027Z" transform="translate(-114.999 -43.101)"/><path class="a" d="M90.348,79.19l.835.633a1.048,1.048,0,0,0,1.267-1.67l-.835-.633a1.048,1.048,0,0,0-1.267,1.67Z" transform="translate(-44.233 -31.387)"/><path class="a" d="M106.867,90.675c.317.18.641.355.962.52a1.048,1.048,0,0,0,.956-1.865c-.294-.151-.591-.311-.882-.477a1.048,1.048,0,0,0-1.036,1.822Z" transform="translate(-56.34 -39.807)"/><path class="a" d="M74.414,67.1l.835.633a1.048,1.048,0,0,0,1.267-1.67l-.835-.633a1.048,1.048,0,0,0-1.267,1.67Z" transform="translate(-32.474 -22.466)"/><path class="a" d="M125.384,98.717q.228.071.455.137a1.048,1.048,0,1,0,.587-2.012q-.211-.061-.42-.127a1.048,1.048,0,1,0-.622,2Z" transform="translate(-69.852 -45.676)"/><path class="a" d="M243.048,134.459a1.048,1.048,0,0,0,1.048-1.048v-3.144a1.048,1.048,0,1,0-2.1,0v3.144A1.048,1.048,0,0,0,243.048,134.459Z" transform="translate(-156.464 -69.7)"/><path class="a" d="M243.048,157.22A1.048,1.048,0,0,0,242,158.268v3.144a1.048,1.048,0,1,0,2.1,0v-3.144A1.048,1.048,0,0,0,243.048,157.22Z" transform="translate(-156.464 -90.365)"/><path class="a" d="M226.191,149.22h-3.144a1.048,1.048,0,1,0,0,2.1h3.144a1.048,1.048,0,1,0,0-2.1Z" transform="translate(-141.703 -84.461)"/><path class="a" d="M254.191,149.22h-3.144a1.048,1.048,0,1,0,0,2.1h3.144a1.048,1.048,0,1,0,0-2.1Z" transform="translate(-162.368 -84.461)"/><path class="a" d="M39.343,106.346a3.783,3.783,0,1,0-3.783-3.783,3.787,3.787,0,0,0,3.783,3.783Zm0-5.47a1.687,1.687,0,1,1-1.687,1.687A1.689,1.689,0,0,1,39.343,100.876Z" transform="translate(-4.103 -47.234)"/><path class="a" d="M191.343,42.346a3.783,3.783,0,1,0-3.783-3.783,3.787,3.787,0,0,0,3.783,3.783Zm0-5.47a1.687,1.687,0,1,1-1.687,1.687A1.689,1.689,0,0,1,191.343,36.876Z" transform="translate(-116.285)"/><circle class="a" cx="1.048" cy="1.048" r="1.048" transform="translate(35.239 36.467)"/><path class="a" d="M90.039,112.565H86.584v-2.1h1.048a1.048,1.048,0,0,0,1.048-1.048V105.23a1.048,1.048,0,0,0-1.048-1.048H85.5a4.806,4.806,0,0,1-2.954-1.021l-8.092-6.35a9.7,9.7,0,0,0-5.684-2.054v-4.13h1.605a1.048,1.048,0,0,0,.924-1.542l-8.616-16.1V70.509l4.953-2.972a1.048,1.048,0,0,0,.116-1.717l-5.462-4.37c-.011-.009-.023-.014-.034-.022a1.065,1.065,0,0,0-.094-.061c-.028-.016-.056-.032-.085-.046a1.034,1.034,0,0,0-.1-.038.967.967,0,0,0-.1-.03c-.031-.008-.063-.012-.1-.017a1,1,0,0,0-.112-.011c-.014,0-.026,0-.04,0s-.036,0-.054.006a.991.991,0,0,0-.111.011c-.032.005-.064.012-.1.02a1.039,1.039,0,0,0-.1.031c-.031.012-.062.024-.092.039s-.061.031-.09.049a1,1,0,0,0-.084.057c-.026.02-.052.041-.077.063a1.014,1.014,0,0,0-.078.08c-.012.014-.026.024-.038.039s-.014.023-.021.033a1.052,1.052,0,0,0-.062.1c-.016.028-.032.055-.045.083s-.026.064-.038.1a.945.945,0,0,0-.03.1c-.008.031-.012.063-.017.095a1,1,0,0,0-.011.112c0,.014,0,.026,0,.04V72.9L53.039,89.138a1.048,1.048,0,0,0,.95,1.49h1.137v2.029H35.239A1.048,1.048,0,0,0,34.191,93.7l0,18.861h-3.14a1.048,1.048,0,1,0,0,2.1H90.039a1.048,1.048,0,0,0,0-2.1ZM63.531,98.943H60.388V93.7h3.144Zm2.1,2.1v3.134H58.314v-3.134Zm-7.313,5.229h7.313v2.106H58.314Zm9.408-5.229a.968.968,0,0,1,.388,0h1.075a2.406,2.406,0,0,1,1.48.511l9.108,7.148a8.341,8.341,0,0,0,4.715,1.754v2.113H67.723ZM73.16,98.46l8.092,6.35a6.913,6.913,0,0,0,4.248,1.468h1.083v2.1H84.9a6.237,6.237,0,0,1-3.834-1.325L71.959,99.9a4.513,4.513,0,0,0-2.774-.959H68.77V96.859A7.589,7.589,0,0,1,73.16,98.46ZM62.684,68.065V64.449l2.583,2.066Zm-1.01,7.472,6.953,12.995H55.632Zm5,15.091v8.316H65.627V92.657a1.048,1.048,0,0,0-1.048-1.048H59.34a1.048,1.048,0,0,0-1.048,1.048v6.287h-1.07V93.919a1.042,1.042,0,0,0,0-.429V90.628ZM49.909,104.183H42.574V94.752h7.335Zm-7.335,2.1h7.335v2.1H42.574ZM36.287,94.752h4.192v14.67a1.048,1.048,0,0,0,1.048,1.048h9.431A1.048,1.048,0,0,0,52,109.422V94.752h3.121v5.239a1.048,1.048,0,0,0,1.048,1.048h.045v8.169a1.042,1.042,0,0,0,0,.429v2.929H36.284Zm22.027,17.813v-2.1h7.313v2.1Z" transform="translate(0 -19.514)"/></g><rect class="b" width="96" height="77" transform="translate(1450 2150)"/></g></svg>