<svg xmlns="http://www.w3.org/2000/svg" width="96" height="77" viewBox="0 0 96 77"><defs><style>.a{fill:none;}.b{fill:#fff;}</style></defs><g transform="translate(-1607 -2150)"><rect class="a" width="96" height="77" transform="translate(1607 2150)"/><g transform="translate(1628.326 2147.664)"><g transform="translate(-0.001 21.383)"><g transform="translate(0 0)"><path class="b" d="M287.028,281.376a1.029,1.029,0,1,0,1.029,1.029A1.029,1.029,0,0,0,287.028,281.376Z" transform="translate(-256.583 -254.635)"/><path class="b" d="M124.819,219.917a25.785,25.785,0,0,1-5.147-7.8,8.806,8.806,0,0,0-16.256,0,24.877,24.877,0,0,1-5.506,8.143l-.011.01a8.819,8.819,0,0,0-2.934,6.562,8.728,8.728,0,0,0,3.981,7.4,9.759,9.759,0,0,0,8,1.292,18.567,18.567,0,0,1,9.231.019,9.7,9.7,0,0,0,7.963-1.252,8.858,8.858,0,0,0,.678-14.373Zm-1.813,12.657a7.641,7.641,0,0,1-6.275.987,20.613,20.613,0,0,0-10.329-.022,7.7,7.7,0,0,1-6.315-1.019,6.689,6.689,0,0,1-3.065-5.689,6.76,6.76,0,0,1,2.245-5.026,26.484,26.484,0,0,0,6.038-8.875l.007-.016a6.749,6.749,0,0,1,12.464,0l.007.016a27.84,27.84,0,0,0,5.63,8.49,1.061,1.061,0,0,0,.093.082,6.8,6.8,0,0,1-.5,11.072Z" transform="translate(-85.197 -187.638)"/><path class="b" d="M306.749,317.109a1.029,1.029,0,1,0-1.724,1.123,29.392,29.392,0,0,0,3.795,4.743,1.029,1.029,0,1,0,1.449-1.46A27.269,27.269,0,0,1,306.749,317.109Z" transform="translate(-273.503 -286.273)"/><path class="b" d="M128.366,35.429a10.45,10.45,0,0,0,1.13-6.294c-.522-4.424-3.573-8.13-6.982-7.721a5.254,5.254,0,0,0-3.854,2.845,10.456,10.456,0,0,0-1.13,6.294C118.382,37.778,125.108,41.119,128.366,35.429Zm-7.921-10.148a3.158,3.158,0,0,1,2.573-1.839c2.024,0,4.055,2.717,4.435,5.935a8.361,8.361,0,0,1-.873,5.031c-2.37,4.141-6.448.65-7.008-4.1A8.368,8.368,0,0,1,120.445,25.281Z" transform="translate(-105.369 -21.383)"/><path class="b" d="M13.144,173.657a9.333,9.333,0,0,0-1.019-5.709,9.333,9.333,0,0,0-4.067-4.135,5.576,5.576,0,0,0-5.107-.126A5.577,5.577,0,0,0,.1,167.925a9.334,9.334,0,0,0,1.019,5.709,9.335,9.335,0,0,0,4.067,4.134,5.591,5.591,0,0,0,5.107.127A5.576,5.576,0,0,0,13.144,173.657Zm-3.795,2.411a3.579,3.579,0,0,1-3.257-.147,7.272,7.272,0,0,1-3.145-3.232,7.27,7.27,0,0,1-.816-4.435A3.58,3.58,0,0,1,3.9,165.514h0a3.6,3.6,0,0,1,3.256.146,7.271,7.271,0,0,1,3.145,3.232,7.27,7.27,0,0,1,.816,4.435A3.579,3.579,0,0,1,9.349,176.068Z" transform="translate(0.001 -148.548)"/><path class="b" d="M282.424,38.512c3.118,0,5.964-3.4,6.48-7.75.548-4.63-1.785-9.169-5.49-9.169-3.118,0-5.964,3.4-6.479,7.75C276.387,33.982,278.726,38.512,282.424,38.512Zm-3.446-8.927c.381-3.217,2.412-5.935,4.436-5.935a1.947,1.947,0,0,1,.251.014,3.471,3.471,0,0,1,2.446,2.059,8.59,8.59,0,0,1,.751,4.8c-.4,3.333-2.6,6.191-4.688,5.921h-.011a3.419,3.419,0,0,1-2.434-2.057A8.594,8.594,0,0,1,278.978,29.585Z" transform="translate(-248.38 -21.571)"/><path class="b" d="M396.357,167.977a5.307,5.307,0,0,0-7.958-4.112,9.8,9.8,0,0,0-5.086,9.844,5.307,5.307,0,0,0,7.958,4.111A9.8,9.8,0,0,0,396.357,167.977Zm-5.992,8a3.581,3.581,0,0,1-3.257.147h0a3.58,3.58,0,0,1-1.765-2.741,7.752,7.752,0,0,1,3.961-7.667c2.42-1.187,4.589-.069,5.021,2.595A7.751,7.751,0,0,1,390.365,175.973Z" transform="translate(-343.797 -148.596)"/></g></g></g></g></svg>