<?xml version="1.0" encoding="utf-8"?>
<!-- Generator: Adobe Illustrator 25.0.1, SVG Export Plug-In . SVG Version: 6.00 Build 0)  -->
<svg version="1.0" xmlns="http://www.w3.org/2000/svg" xmlns:xlink="http://www.w3.org/1999/xlink" x="0px" y="0px"
	 viewBox="0 0 163 83" style="enable-background:new 0 0 163 83;" xml:space="preserve">
<style type="text/css">
	.st0{fill:#2A729F;}
	.st1{opacity:0.59;fill:#2A729F;}
</style>
<g id="Capa_1">
</g>
<g id="LOGOS_E_ICONO">
	<path class="st0" d="M10.6,13.6c0.3,0,0.6,0,0.9,0c10.9,0,21.8,0,32.8,0c0.4,0,0.8,0,1.2-0.1c1.2-0.2,2-0.9,2.4-2
		c0.4-1,0.1-2-0.6-2.8c-0.7-0.8-1.6-1.1-2.6-1.1c-12.2,0-24.4,0-36.6,0c-2.1,0-3.4,1.3-3.4,3.5c0,14.7,0,29.3,0,44
		c0,0.4,0,0.8,0.1,1.2c0.3,1.4,1.6,2.2,3.2,2.2c14.7,0,29.4,0,44,0c1.9,0,3.5-1.4,3.5-3.5c-0.1-6.7,0-13.3,0-20c0-0.3,0-0.5,0-0.8
		c-0.2-1.2-0.8-2.1-1.9-2.5c-1.1-0.4-2.1-0.2-3,0.6c-0.7,0.7-1,1.5-1,2.5c0,5.6,0,11.3,0,16.9c0,0.2,0,0.5,0,0.7
		c-13,0-25.9,0-38.9,0C10.6,39.5,10.6,26.6,10.6,13.6z"/>
	<path class="st1" d="M30.5,38c-0.2-0.2-0.5-0.4-0.7-0.5c-3.2-2.5-6.4-4.9-9.6-7.4c-1.5-1.2-3.6-0.9-4.6,0.6c-0.8,1.4-0.5,3.1,1,4.2
		c1.9,1.5,3.8,2.9,5.8,4.4c2.2,1.7,4.3,3.3,6.5,5c1.4,1.1,3.1,1,4.4-0.4c1.4-1.5,2.7-2.9,4.1-4.4c7.4-7.9,14.8-15.9,22.2-23.8
		c1.9-2,3.7-4,5.6-6c0.8-0.9,1.2-1.9,0.8-3.1c-0.7-2.3-3.5-2.8-5.2-0.9c-6.2,6.6-12.3,13.1-18.4,19.7C38.3,29.5,34.4,33.7,30.5,38z"
		/>
</g>
<g id="LINEAS">
</g>
<g id="TEXTOS">
	<g>
		<g>
			<path class="st0" d="M23.1,73.6l-1.1-0.7l0.1,1.3h-0.4l0.1-1.3l-1.1,0.7l-0.2-0.4l1.2-0.6l-1.2-0.6l0.2-0.4l1.1,0.7l-0.1-1.3h0.4
				l-0.1,1.3l1.1-0.7l0.2,0.4l-1.2,0.6l1.2,0.6L23.1,73.6z"/>
			<path class="st0" d="M27.2,78.3h-2.4v-7.2h2.4c2.2,0,3.8,1.5,3.8,3.6v0C31,76.8,29.4,78.3,27.2,78.3z M30.4,74.8
				c0-1.7-1.3-3.1-3.2-3.1h-1.9v6.2h1.9C29.2,77.9,30.4,76.5,30.4,74.8L30.4,74.8z"/>
			<path class="st0" d="M32.4,78.3v-7.2h5.1v0.5h-4.6v2.8H37V75h-4.1v2.9h4.6v0.5H32.4z"/>
			<path class="st0" d="M41.2,78.4c-1.1,0-2-0.4-2.9-1.1l0.3-0.4c0.8,0.7,1.5,1.1,2.6,1.1c1.1,0,1.8-0.6,1.8-1.4v0
				c0-0.8-0.4-1.2-2-1.5c-1.7-0.3-2.4-0.9-2.4-2v0c0-1.1,1-1.9,2.3-1.9c1,0,1.7,0.3,2.5,0.9l-0.3,0.4c-0.7-0.6-1.3-0.8-2.1-0.8
				c-1.1,0-1.7,0.6-1.7,1.3v0c0,0.8,0.4,1.2,2.1,1.6c1.7,0.3,2.4,0.9,2.4,2v0C43.6,77.6,42.6,78.4,41.2,78.4z"/>
			<path class="st0" d="M47.3,78.3h-2.4v-7.2h2.4c2.2,0,3.8,1.5,3.8,3.6v0C51.1,76.8,49.6,78.3,47.3,78.3z M50.6,74.8
				c0-1.7-1.3-3.1-3.2-3.1h-1.9v6.2h1.9C49.3,77.9,50.6,76.5,50.6,74.8L50.6,74.8z"/>
			<path class="st0" d="M52.5,78.3v-7.2h5.1v0.5h-4.6v2.8h4.1V75h-4.1v2.9h4.6v0.5H52.5z"/>
			<path class="st0" d="M64,78.3h-2.4v-7.2H64c2.2,0,3.8,1.5,3.8,3.6v0C67.8,76.8,66.3,78.3,64,78.3z M67.3,74.8
				c0-1.7-1.3-3.1-3.3-3.1h-1.8v6.2H64C66,77.9,67.3,76.5,67.3,74.8L67.3,74.8z"/>
			<path class="st0" d="M69.3,78.3v-7.2h0.5v7.2H69.3z"/>
			<path class="st0" d="M74.9,78.5c-2,0-3.6-1.6-3.6-3.7v0c0-2,1.5-3.7,3.6-3.7c1.3,0,2,0.5,2.8,1.1l-0.4,0.4
				c-0.6-0.6-1.3-1.1-2.4-1.1c-1.7,0-3,1.4-3,3.2v0c0,1.8,1.3,3.2,3,3.2c1,0,1.7-0.4,2.5-1.1l0.4,0.3C76.9,78,76.1,78.5,74.9,78.5z"
				/>
			<path class="st0" d="M78.8,78.3v-7.2h0.5v7.2H78.8z"/>
			<path class="st0" d="M81.1,78.3v-7.2h5.1v0.5h-4.6v2.8h4.1V75h-4.1v2.9h4.6v0.5H81.1z"/>
			<path class="st0" d="M93.8,78.3v-6.2L91,76.2h0l-2.8-4.1v6.2h-0.5v-7.2h0.5l2.9,4.2l2.9-4.2h0.5v7.2H93.8z"/>
			<path class="st0" d="M99.2,78.3H96v-7.2h3c1.4,0,2.3,0.7,2.3,1.8v0c0,1-0.6,1.5-1.2,1.7c0.9,0.2,1.6,0.7,1.6,1.7v0
				C101.7,77.6,100.7,78.3,99.2,78.3z M100.8,73c0-0.8-0.6-1.3-1.8-1.3h-2.4v2.8h2.4C100,74.5,100.8,74,100.8,73L100.8,73z
				 M101.2,76.4c0-0.9-0.8-1.4-2.2-1.4h-2.4v2.9h2.6C100.4,77.9,101.2,77.3,101.2,76.4L101.2,76.4z"/>
			<path class="st0" d="M108.2,78.3l-2.3-3h-2.3v3H103v-7.2h3c1.5,0,2.6,0.8,2.6,2v0c0,1.2-0.9,1.9-2.1,2l2.4,3.1H108.2z M108,73.2
				c0-1-0.8-1.6-2.1-1.6h-2.4v3.2h2.4C107.2,74.9,108,74.3,108,73.2L108,73.2z"/>
			<path class="st0" d="M110,78.3v-7.2h5.1v0.5h-4.6v2.8h4.1V75h-4.1v2.9h4.6v0.5H110z"/>
			<path class="st0" d="M119.1,72.9l-0.4-0.3c0.6-1,1.3-1.5,2.5-1.5c1.2,0,2.1,0.8,2.1,2c0,1-0.5,1.6-1.8,2.8l-2.2,2h4v0.5h-4.9
				v-0.4l2.7-2.4c1.2-1.1,1.6-1.7,1.6-2.4c0-0.9-0.8-1.5-1.6-1.5C120.3,71.6,119.7,72,119.1,72.9z"/>
			<path class="st0" d="M127.3,78.5c-1.8,0-3-1.7-3-3.7s1.2-3.7,3-3.7s3,1.7,3,3.7C130.3,76.7,129.1,78.5,127.3,78.5z M127.3,71.5
				c-1.5,0-2.4,1.5-2.4,3.2c0,1.7,0.9,3.2,2.4,3.2s2.4-1.5,2.4-3.2C129.7,73.1,128.8,71.5,127.3,71.5z"/>
			<path class="st0" d="M131.4,72.9l-0.4-0.3c0.6-1,1.3-1.5,2.5-1.5c1.2,0,2.1,0.8,2.1,2c0,1-0.5,1.6-1.8,2.8l-2.2,2h4v0.5h-4.9
				v-0.4l2.7-2.4c1.2-1.1,1.6-1.7,1.6-2.4c0-0.9-0.8-1.5-1.6-1.5C132.6,71.6,132,72,131.4,72.9z"/>
			<path class="st0" d="M139.6,78.5c-1.8,0-3-1.7-3-3.7s1.2-3.7,3-3.7s3,1.7,3,3.7C142.6,76.7,141.5,78.5,139.6,78.5z M139.6,71.5
				c-1.5,0-2.4,1.5-2.4,3.2c0,1.7,0.9,3.2,2.4,3.2s2.4-1.5,2.4-3.2C142.1,73.1,141.1,71.5,139.6,71.5z"/>
		</g>
	</g>
	<g>
		<path class="st0" d="M68,18.3h3.8c0.6,0,1.1,0.1,1.5,0.2s0.8,0.4,1.1,0.7s0.5,0.6,0.7,1c0.2,0.4,0.2,0.8,0.2,1.3v0
			c0,0.5-0.1,1-0.3,1.4c-0.2,0.4-0.5,0.8-0.8,1c-0.3,0.3-0.7,0.5-1.2,0.6c-0.5,0.1-1,0.2-1.5,0.2H70v2.8H68V18.3z M71.7,23
			c0.5,0,0.9-0.1,1.2-0.4c0.3-0.3,0.4-0.6,0.4-1v0c0-0.5-0.1-0.8-0.4-1.1c-0.3-0.2-0.7-0.4-1.2-0.4H70V23H71.7z"/>
		<path class="st0" d="M80.4,18.2h1.9l4,9.4h-2.2l-0.9-2.1h-4l-0.9,2.1h-2.1L80.4,18.2z M82.6,23.7l-1.2-3l-1.2,3H82.6z"/>
		<path class="st0" d="M92.5,27.8c-0.7,0-1.4-0.1-2-0.4c-0.6-0.2-1.1-0.6-1.6-1c-0.4-0.4-0.8-0.9-1-1.5c-0.2-0.6-0.4-1.2-0.4-1.9v0
			c0-0.7,0.1-1.3,0.4-1.9c0.2-0.6,0.6-1.1,1-1.5c0.4-0.4,1-0.8,1.6-1c0.6-0.3,1.3-0.4,2-0.4c0.4,0,0.8,0,1.1,0.1
			c0.3,0.1,0.7,0.1,1,0.2c0.3,0.1,0.6,0.2,0.8,0.4c0.3,0.2,0.5,0.3,0.7,0.5l-1.3,1.6c-0.2-0.2-0.4-0.3-0.5-0.4
			c-0.2-0.1-0.4-0.2-0.6-0.3c-0.2-0.1-0.4-0.1-0.6-0.2C93,20,92.7,20,92.4,20c-0.4,0-0.7,0.1-1.1,0.2c-0.3,0.2-0.6,0.4-0.9,0.6
			s-0.4,0.6-0.6,0.9c-0.1,0.4-0.2,0.7-0.2,1.1v0c0,0.4,0.1,0.8,0.2,1.2c0.1,0.4,0.3,0.7,0.6,0.9c0.3,0.3,0.6,0.5,0.9,0.6
			c0.3,0.1,0.7,0.2,1.1,0.2c0.8,0,1.4-0.2,1.9-0.6V24h-2.1v-1.8h4.1v4.1c-0.5,0.4-1.1,0.8-1.7,1C94.1,27.6,93.4,27.8,92.5,27.8z"/>
		<path class="st0" d="M102,18.2h1.9l4,9.4h-2.2l-0.9-2.1h-4l-0.9,2.1H98L102,18.2z M104.1,23.7l-1.2-3l-1.2,3H104.1z"/>
		<path class="st0" d="M113.9,18.3h7v1.8h-5V22h4.4v1.8h-4.4v2h5.1v1.8h-7.1V18.3z"/>
		<path class="st0" d="M123.1,18.3h2.1v7.5h4.7v1.9h-6.7V18.3z"/>
		<path class="st0" d="M135.9,18.3h3.8c0.6,0,1.1,0.1,1.5,0.2s0.8,0.4,1.1,0.7s0.5,0.6,0.7,1c0.2,0.4,0.2,0.8,0.2,1.3v0
			c0,0.5-0.1,1-0.3,1.4c-0.2,0.4-0.5,0.8-0.8,1c-0.3,0.3-0.7,0.5-1.2,0.6c-0.5,0.1-1,0.2-1.5,0.2H138v2.8h-2.1V18.3z M139.6,23
			c0.5,0,0.9-0.1,1.2-0.4c0.3-0.3,0.4-0.6,0.4-1v0c0-0.5-0.1-0.8-0.4-1.1c-0.3-0.2-0.7-0.4-1.2-0.4H138V23H139.6z"/>
		<path class="st0" d="M145.2,18.3h2.1v9.4h-2.1V18.3z"/>
		<path class="st0" d="M149.9,18.3h7v1.8h-5V22h4.4v1.8h-4.4v2h5.1v1.8h-7.1V18.3z"/>
		<path class="st0" d="M68,32.5H70v3.7h3.8v-3.7h2.1v9.4h-2.1v-3.8H70v3.8H68V32.5z"/>
		<path class="st0" d="M81.6,32.4h1.9l4,9.4h-2.2l-0.9-2.1h-4l-0.9,2.1h-2.1L81.6,32.4z M83.8,37.9l-1.2-3l-1.2,3H83.8z"/>
		<path class="st0" d="M92.6,42c-0.7,0-1.4-0.1-2.1-0.4s-1.3-0.6-1.9-1.1l1.2-1.5c0.4,0.3,0.9,0.6,1.3,0.8c0.5,0.2,0.9,0.3,1.5,0.3
			c0.4,0,0.8-0.1,1-0.2c0.2-0.2,0.4-0.4,0.4-0.6v0c0-0.1,0-0.3-0.1-0.4c0-0.1-0.1-0.2-0.3-0.3c-0.1-0.1-0.3-0.2-0.6-0.3
			s-0.6-0.2-1-0.3c-0.5-0.1-0.9-0.2-1.3-0.4s-0.7-0.3-1-0.5c-0.3-0.2-0.5-0.5-0.6-0.8S89,35.6,89,35.2v0c0-0.4,0.1-0.8,0.2-1.2
			c0.2-0.3,0.4-0.6,0.7-0.9c0.3-0.2,0.6-0.4,1-0.6c0.4-0.1,0.8-0.2,1.3-0.2c0.7,0,1.3,0.1,1.9,0.3c0.6,0.2,1.1,0.5,1.6,0.9l-1.1,1.6
			c-0.4-0.3-0.8-0.5-1.2-0.7s-0.8-0.2-1.2-0.2s-0.7,0.1-0.9,0.2C91.1,34.5,91,34.7,91,35v0c0,0.2,0,0.3,0.1,0.4
			c0.1,0.1,0.2,0.2,0.3,0.3s0.4,0.2,0.6,0.3s0.6,0.2,1,0.3c0.5,0.1,0.9,0.3,1.3,0.4s0.7,0.3,0.9,0.6c0.3,0.2,0.4,0.5,0.6,0.8
			c0.1,0.3,0.2,0.6,0.2,1.1v0c0,0.5-0.1,0.9-0.3,1.2c-0.2,0.4-0.4,0.7-0.7,0.9c-0.3,0.2-0.7,0.4-1.1,0.6C93.6,41.9,93.1,42,92.6,42z
			"/>
		<path class="st0" d="M100.3,34.4h-2.8v-1.9h7.8v1.9h-2.8v7.5h-2.1V34.4z"/>
		<path class="st0" d="M110.2,32.4h1.9l4,9.4H114l-0.9-2.1h-4l-0.9,2.1h-2.1L110.2,32.4z M112.4,37.9l-1.2-3l-1.2,3H112.4z"/>
		<path class="st0" d="M122.1,32.5h7v1.8h-5v1.9h4.4V38h-4.4v2h5.1v1.8h-7.1V32.5z"/>
		<path class="st0" d="M131.3,32.5h1.9l4.4,5.8v-5.8h2v9.4h-1.8l-4.5-6v6h-2V32.5z"/>
		<path class="st0" d="M71,56.2c-0.8,0-1.6-0.2-2.2-0.5c-0.6-0.3-1.1-0.7-1.5-1.2l1.4-1.4c0.3,0.4,0.7,0.6,1,0.8
			c0.4,0.2,0.8,0.3,1.3,0.3c0.4,0,0.7-0.1,1-0.3s0.4-0.5,0.4-0.8v0c0-0.4-0.2-0.7-0.5-0.9c-0.3-0.2-0.8-0.3-1.4-0.3h-0.9l-0.3-1.3
			l2.2-2.2h-3.7v-1.8h6.3v1.6l-2.4,2.3c0.3,0.1,0.6,0.1,0.9,0.3c0.3,0.1,0.6,0.3,0.8,0.5c0.2,0.2,0.4,0.5,0.6,0.8
			c0.1,0.3,0.2,0.7,0.2,1.1v0c0,0.4-0.1,0.9-0.2,1.2s-0.4,0.7-0.7,1c-0.3,0.3-0.6,0.5-1.1,0.6C72,56.1,71.5,56.2,71,56.2z"/>
		<path class="st0" d="M80.3,56.2c-0.6,0-1.2-0.1-1.7-0.4s-0.9-0.6-1.3-1s-0.6-0.9-0.8-1.5c-0.2-0.6-0.3-1.2-0.3-1.9v0
			c0-0.7,0.1-1.3,0.3-1.9c0.2-0.6,0.5-1.1,0.8-1.5c0.4-0.4,0.8-0.8,1.3-1c0.5-0.2,1.1-0.4,1.7-0.4c0.6,0,1.2,0.1,1.7,0.4
			s0.9,0.6,1.3,1c0.4,0.4,0.6,0.9,0.8,1.5c0.2,0.6,0.3,1.2,0.3,1.9v0c0,0.7-0.1,1.3-0.3,1.9c-0.2,0.6-0.5,1.1-0.8,1.5
			c-0.4,0.4-0.8,0.8-1.3,1C81.5,56.1,80.9,56.2,80.3,56.2z M80.3,54.3c0.3,0,0.6-0.1,0.8-0.2c0.2-0.1,0.5-0.4,0.6-0.6
			c0.2-0.3,0.3-0.6,0.4-0.9s0.1-0.8,0.1-1.2v0c0-0.4,0-0.8-0.1-1.2c-0.1-0.4-0.2-0.7-0.4-0.9s-0.4-0.5-0.7-0.6
			c-0.3-0.2-0.5-0.2-0.8-0.2c-0.3,0-0.6,0.1-0.8,0.2c-0.2,0.1-0.5,0.4-0.6,0.6c-0.2,0.3-0.3,0.6-0.4,0.9c-0.1,0.4-0.1,0.8-0.1,1.2v0
			c0,0.4,0,0.8,0.1,1.2c0.1,0.4,0.2,0.7,0.4,0.9c0.2,0.3,0.4,0.5,0.6,0.6S80,54.3,80.3,54.3z"/>
		<path class="st0" d="M95.2,56.2c-0.7,0-1.3-0.1-1.9-0.4c-0.6-0.2-1.1-0.6-1.5-1s-0.8-0.9-1-1.5c-0.2-0.6-0.4-1.2-0.4-1.9v0
			c0-0.7,0.1-1.3,0.4-1.9c0.2-0.6,0.6-1.1,1-1.5c0.4-0.4,0.9-0.8,1.5-1c0.6-0.3,1.3-0.4,2-0.4c0.4,0,0.8,0,1.2,0.1
			c0.4,0.1,0.7,0.2,1,0.3s0.6,0.3,0.8,0.5c0.2,0.2,0.5,0.4,0.7,0.6l-1.3,1.5c-0.4-0.3-0.7-0.6-1.1-0.8c-0.4-0.2-0.8-0.3-1.3-0.3
			c-0.4,0-0.8,0.1-1.1,0.2c-0.3,0.2-0.6,0.4-0.9,0.6c-0.2,0.3-0.4,0.6-0.6,0.9s-0.2,0.7-0.2,1.1v0c0,0.4,0.1,0.8,0.2,1.1
			s0.3,0.7,0.6,0.9c0.2,0.3,0.5,0.5,0.9,0.6s0.7,0.2,1.1,0.2c0.5,0,1-0.1,1.4-0.3c0.4-0.2,0.7-0.5,1.1-0.8l1.3,1.3
			c-0.2,0.3-0.5,0.5-0.7,0.7s-0.5,0.4-0.8,0.5c-0.3,0.1-0.6,0.3-1,0.3C96.1,56.1,95.7,56.2,95.2,56.2z"/>
		<path class="st0" d="M104.9,56.2c-1.3,0-2.2-0.3-3-1c-0.7-0.7-1.1-1.7-1.1-3.1v-5.3h2.1V52c0,0.8,0.2,1.3,0.5,1.7
			c0.4,0.4,0.9,0.6,1.5,0.6c0.6,0,1.1-0.2,1.5-0.6c0.4-0.4,0.5-0.9,0.5-1.7v-5.4h2.1v5.3c0,0.7-0.1,1.3-0.3,1.9
			c-0.2,0.5-0.5,1-0.8,1.3c-0.4,0.4-0.8,0.6-1.3,0.8C106.1,56.1,105.5,56.2,104.9,56.2z"/>
		<path class="st0" d="M115.9,56.2c-0.7,0-1.4-0.1-2-0.4s-1.1-0.6-1.6-1c-0.4-0.4-0.8-0.9-1-1.5S111,52,111,51.4v0
			c0-0.7,0.1-1.3,0.4-1.9c0.2-0.6,0.6-1.1,1-1.5c0.4-0.4,1-0.8,1.6-1c0.6-0.3,1.3-0.4,2-0.4c0.7,0,1.4,0.1,2,0.4
			c0.6,0.3,1.1,0.6,1.6,1s0.8,0.9,1,1.5s0.4,1.2,0.4,1.9v0c0,0.7-0.1,1.3-0.4,1.9c-0.2,0.6-0.6,1.1-1,1.5s-1,0.8-1.6,1
			S116.6,56.2,115.9,56.2z M116,54.3c0.4,0,0.8-0.1,1.1-0.2s0.6-0.4,0.9-0.6s0.4-0.6,0.6-0.9c0.1-0.4,0.2-0.7,0.2-1.1v0
			c0-0.4-0.1-0.8-0.2-1.1c-0.1-0.4-0.3-0.7-0.6-0.9c-0.3-0.3-0.6-0.5-0.9-0.6c-0.3-0.2-0.7-0.2-1.1-0.2c-0.4,0-0.8,0.1-1.1,0.2
			c-0.3,0.2-0.6,0.4-0.9,0.6s-0.4,0.6-0.6,0.9s-0.2,0.7-0.2,1.1v0c0,0.4,0.1,0.8,0.2,1.1s0.3,0.7,0.6,0.9c0.3,0.3,0.6,0.5,0.9,0.6
			C115.2,54.2,115.5,54.3,116,54.3z"/>
		<path class="st0" d="M125.2,48.6h-2.8v-1.9h7.8v1.9h-2.8V56h-2.1V48.6z"/>
		<path class="st0" d="M135.2,46.6h1.9l4,9.4h-2.2l-0.9-2.1h-4l-0.9,2.1h-2.1L135.2,46.6z M137.3,52.1l-1.2-3l-1.2,3H137.3z"/>
		<path class="st0" d="M146.1,56.2c-0.7,0-1.4-0.1-2.1-0.4s-1.3-0.6-1.9-1.1l1.2-1.5c0.4,0.3,0.9,0.6,1.3,0.8
			c0.5,0.2,0.9,0.3,1.5,0.3c0.4,0,0.8-0.1,1-0.2c0.2-0.2,0.4-0.4,0.4-0.6v0c0-0.1,0-0.3-0.1-0.4c0-0.1-0.1-0.2-0.3-0.3
			c-0.1-0.1-0.3-0.2-0.6-0.3s-0.6-0.2-1-0.3c-0.5-0.1-0.9-0.2-1.3-0.4s-0.7-0.3-1-0.5c-0.3-0.2-0.5-0.5-0.6-0.8s-0.2-0.7-0.2-1.2v0
			c0-0.4,0.1-0.8,0.2-1.2c0.2-0.3,0.4-0.6,0.7-0.9c0.3-0.2,0.6-0.4,1-0.6c0.4-0.1,0.8-0.2,1.3-0.2c0.7,0,1.3,0.1,1.9,0.3
			c0.6,0.2,1.1,0.5,1.6,0.9l-1.1,1.6c-0.4-0.3-0.8-0.5-1.2-0.7s-0.8-0.2-1.2-0.2s-0.7,0.1-0.9,0.2c-0.2,0.2-0.3,0.3-0.3,0.6v0
			c0,0.2,0,0.3,0.1,0.4c0.1,0.1,0.2,0.2,0.3,0.3s0.4,0.2,0.6,0.3s0.6,0.2,1,0.3c0.5,0.1,0.9,0.3,1.3,0.4s0.7,0.3,0.9,0.6
			c0.3,0.2,0.4,0.5,0.6,0.8c0.1,0.3,0.2,0.6,0.2,1.1v0c0,0.5-0.1,0.9-0.3,1.2c-0.2,0.4-0.4,0.7-0.7,0.9c-0.3,0.2-0.7,0.4-1.1,0.6
			C147.1,56.1,146.6,56.2,146.1,56.2z"/>
		<path class="st0" d="M152.1,48.2l-0.8,0.6l-0.3-0.6l0.9-0.4l-0.9-0.4l0.3-0.6l0.8,0.6l-0.1-1h0.7l-0.1,1l0.8-0.6l0.3,0.6l-0.9,0.4
			l0.9,0.4l-0.3,0.6l-0.8-0.6l0.1,1h-0.7L152.1,48.2z"/>
	</g>
</g>
</svg>
