<?xml version="1.0" encoding="utf-8"?>
<!-- Generator: Adobe Illustrator 25.4.1, SVG Export Plug-In . SVG Version: 6.00 Build 0)  -->
<svg version="1.1" id="ac5bfa5b-72a3-4f82-a016-d7209556bbad"
	 xmlns="http://www.w3.org/2000/svg" xmlns:xlink="http://www.w3.org/1999/xlink" x="0px" y="0px" viewBox="0 0 377 327"
	 style="enable-background:new 0 0 377 327;" xml:space="preserve">
<style type="text/css">
	.st0{fill:#FFFFFF;}
</style>
<path class="st0" d="M315.8,201.8c-1,5.3-1.8,10.8-3.1,16c-9.4,35.4-39.2,61.6-75.6,66.3c-21.5,2.8-41.7-1.4-60.1-13.2
	c-13.1-8.4-26.9-10.6-42-6.6c-41.2,10.6-81.2-14.5-89.8-56.1c-8.1-39.2,19.4-78.9,59.1-85.1c10.9-1.7,21.7-1,32.3,1.8
	c13.5,3.5,26.1,1.5,38.2-5.5c5.5-3.2,11.2-6,17-8.8c1.6-0.8,1.8-1.7,1.8-3.1c0-8.4-0.1-16.9,0-25.3c0.2-16.6,10.8-29.5,27-32
	c11.8-1.8,21.7,2.3,29.5,11.5c0.5,0.6,0.9,1.2,1.3,1.7c0.4,0.5,0.7,1,1.2,1.6c4.7-7.3,11.1-12.1,19.4-14.3
	c19.7-5.1,39.5,10.1,39.5,30.4c0,7.3-5.4,13.2-12.8,13.8c-6.7,0.5-12.9-4.4-14.2-11.4c-0.2-0.9-0.2-1.8-0.3-2.7
	c-0.3-2.3-2.1-4-4.4-4c-2.2,0-4.1,1.5-4.5,3.9c-0.1,0.8-0.1,1.6-0.1,2.4c0,11.1,0,22.3-0.1,33.4c0,1.9,0.7,2.9,2.2,3.9
	c22.3,16.1,35.1,37.7,38.2,65c0.1,0.6,0.3,1.2,0.5,1.8C315.8,192.1,315.8,197,315.8,201.8z M193.3,140.3c-0.3,0-0.5-0.1-0.6,0
	c-1.4,0.8-2.8,1.6-4.2,2.4c-16.6,9.8-34.4,13-53.4,9.6c-5.7-1-11.5-2.6-17.2-2.8c-27.9-0.9-49.8,23.7-45.9,51.3
	c3.7,26.8,29.8,44.2,56.2,37.3c22.7-5.9,43.7-2.6,63.5,9.9c13.6,8.6,28.5,11.5,44.4,8.8c47.5-7.9,69-65.2,38.4-102.3
	c-0.5-0.7-1.2-1.3-1.8-1.9c-0.4,0.4-0.6,0.5-0.8,0.7c-7.2,7.5-17.4,6.3-22.6-2.6c-0.5-0.8-1.9-1.5-2.9-1.5c-7.9-0.1-15.8,0-23.7-0.1
	c-1.8,0-2.8,0.4-3.8,2.1c-2.8,5.2-8.7,7.9-14.4,6.8c-5.7-1.1-10-5.7-10.8-11.6C193.4,144.4,193.4,142.3,193.3,140.3z M193.4,119.2
	c-4.9,2.8-9.3,5.1-13.5,7.6c-14.4,8.6-29.6,11.1-45.9,6.8c-9.6-2.5-19.3-3.1-29.1-1.4c-34.7,6.2-58,40.4-50.7,74.9
	c7.7,36.2,42.6,57.8,78.8,48.4c17.3-4.5,33.2-2,48.3,7.5c17.7,11.3,37.2,15.5,57.8,11.5c33.3-6.5,55.7-26.2,64.5-58.8
	c9-32.9-0.8-61.1-26.3-83.7c-0.6-0.5-1.3-0.9-1.9-1.4c-0.2,0.3-0.4,0.5-0.4,0.6c0,2.8-0.2,5.6,0,8.3c0.1,1.4,0.7,3,1.6,3.9
	c18.7,19.8,25.1,43,18.5,69.3c-8.9,35.5-44.2,58.6-80.2,53.3c-11.3-1.7-21.5-6-31.2-12c-13.2-8.2-27.7-11.2-43.1-9.2
	c-6,0.8-11.9,2.6-18,3.4c-35.5,4.5-66-27.2-60-62.3c5.4-31.8,35.6-51.7,67.1-44c11.2,2.7,22.3,3.5,33.6,1.2
	c10.7-2.2,19.8-7.9,29-13.2c0.5-0.3,0.9-1.1,0.9-1.7C193.5,125.5,193.4,122.9,193.4,119.2z M202.5,112.4
	C202.5,112.4,202.5,112.4,202.5,112.4c0,10.1,0,20.1,0,30.2c0,4.5,1.4,6.6,4.5,6.6c3.1,0,4.6-2.1,4.6-6.5c0-5.5,0-11,0-16.4
	c0-15,0-30,0-45c0-7.1,5.2-12.5,12.3-13.4c6.4-0.8,12.7,3.6,14.4,10.1c0.3,1.3,0.3,2.7,0.6,4c0.5,2.5,2.4,4.1,4.7,3.9
	c2.4-0.2,4.4-2.1,4.2-4.7c-0.3-3-0.8-6.1-1.9-8.9c-4.1-9.7-14.7-15.2-24.9-13.2c-10.5,2.1-18.2,11.1-18.4,22
	C202.4,91.6,202.5,102,202.5,112.4z M256.9,112C256.9,112,256.9,112,256.9,112c0,8.4,0,16.9,0,25.3c0,2.6-0.1,5.2,0.1,7.8
	c0.2,2.3,1.6,3.8,4,4c2.3,0.3,4.3-1,4.8-3.4c0.2-1,0.2-2.1,0.2-3.2c0-18,0-35.9,0-53.9c0-2.9-0.1-5.8,0.1-8.6
	c0.5-7.4,7.6-13.1,15-12.1c6.9,1,11.4,5.9,12,13.1c0.2,3,2.1,4.9,4.7,4.9c2.7-0.1,4.6-2.3,4.4-5.4c-0.1-1.7-0.4-3.4-0.8-5
	c-3-11.1-13.4-17.9-25.1-16.5C265.6,60.4,257.1,70,257,81C256.9,91.3,256.9,101.7,256.9,112z M220.7,103.8c9.2,0,18.1,0,27,0
	c0-3.2,0-6.3,0-9.3c-0.4,0-0.7,0-0.9,0.1c-7.5,2.3-16.9-3.5-17-12.8c0-0.4-0.1-0.9-0.2-1.3c-0.6-2.3-2.2-3.5-4.5-3.5
	c-2.2,0-4.2,1.8-4.2,4.1C220.7,88.5,220.7,96.1,220.7,103.8z M247.7,113.2c-9.1,0-18,0-26.9,0c0,3,0,5.8,0,8.7c9.1,0,18,0,26.9,0
	C247.7,118.9,247.7,116.2,247.7,113.2z M247.7,131.4c-9.1,0-17.9,0-26.8,0c0,3,0,5.8,0,8.7c9,0,17.9,0,26.8,0
	C247.7,137.1,247.7,134.4,247.7,131.4z"/>
<path class="st0" d="M109.6,194.5c5,0.1,9.3,1.8,12.9,5.3c5.1,5,9.9,5,15,0.1c7.4-7.2,18.3-7.3,25.7-0.1c2.2,2.1,4.6,3.6,7.8,3.8
	c2.8,0.2,4.6,2.4,4.4,4.8c-0.2,2.5-2.3,4.3-5.1,4.2c-4.7-0.2-8.7-1.9-12.1-5.1c-5.5-5.2-10-5.2-15.4-0.1c-7.2,6.9-18,7-25.3,0.1
	c-5.7-5.3-9.8-5.3-15.6,0c-3.3,3.1-7.2,4.7-11.6,5c-3,0.2-5.2-1.4-5.4-4c-0.3-2.7,1.6-4.8,4.7-5c2.9-0.2,5.1-1.5,7.1-3.5
	C100.1,196.4,104.5,194.6,109.6,194.5z"/>
<path class="st0" d="M274,212.6c-4.4-0.3-8.5-2.1-12-5.5c-5-4.8-9.9-4.8-14.8,0c-7.5,7.3-18.4,7.3-25.9,0.1c-5.1-4.9-9.8-4.9-15,0.1
	c-3.3,3.2-7.2,4.9-11.8,5.3c-3.1,0.2-5.4-1.5-5.5-4.2c-0.2-2.6,1.7-4.6,4.7-4.8c2.9-0.2,5.1-1.5,7.1-3.4c7.7-7.5,18.6-7.5,26.3,0
	c4.6,4.6,9.7,4.6,14.4,0c7.7-7.5,18.6-7.6,26.3,0c2.1,2,4.4,3.3,7.3,3.5c2.8,0.2,4.6,2.3,4.5,4.8C279.4,210.9,277.2,212.6,274,212.6
	z"/>
<path class="st0" d="M165.1,167.4c4,0.2,8.2,1.8,11.7,5.3c5.2,5.1,9.9,5.1,15.2,0c7.2-6.9,18.1-7.1,25.3-0.2c2.4,2.3,5,3.9,8.5,4.1
	c2.5,0.2,4,2.2,3.9,4.6c-0.1,2.5-2,4.3-4.7,4.2c-4.8-0.1-9.2-1.5-12.3-5.1c-4.4-5-11.3-4.7-15.8,0c-6.8,7.2-18,6.8-25.2,0
	c-5.5-5.2-9.8-5.2-15.4,0.1c-3.3,3.2-7.3,4.8-11.9,5.1c-2.9,0.1-4.9-1.4-5.2-3.9c-0.3-2.7,1.3-4.7,4.4-5c2.9-0.3,5.3-1.4,7.3-3.5
	C154.8,169.1,159.2,167.3,165.1,167.4z"/>
</svg>
