<?xml version="1.0" encoding="utf-8"?>
<!-- Generator: Adobe Illustrator 25.4.1, SVG Export Plug-In . SVG Version: 6.00 Build 0)  -->
<svg version="1.1" id="ac5bfa5b-72a3-4f82-a016-d7209556bbad"
	 xmlns="http://www.w3.org/2000/svg" xmlns:xlink="http://www.w3.org/1999/xlink" x="0px" y="0px" viewBox="0 0 377 327"
	 style="enable-background:new 0 0 377 327;" xml:space="preserve">
<style type="text/css">
	.st0{fill:#FFFFFF;}
</style>
<path class="st0" d="M354,211.5c-1.3,6.8-2.2,13.8-4,20.5c-12.1,45.4-50.2,78.8-96.9,84.9c-27.6,3.6-53.5-1.8-77-16.9
	c-16.8-10.7-34.4-13.5-53.8-8.5c-52.7,13.6-104-18.5-115-71.8c-10.4-50.3,24.9-101,75.7-109c14-2.2,27.7-1.3,41.4,2.3
	c17.2,4.5,33.5,1.9,48.9-7c7-4.1,14.4-7.7,21.7-11.2c2-1,2.3-2.2,2.3-4c0-10.8-0.1-21.6,0-32.4c0.2-21.3,13.8-37.8,34.6-40.9
	c15.2-2.3,27.8,2.9,37.7,14.7c0.6,0.7,1.1,1.5,1.7,2.2c0.5,0.6,0.9,1.2,1.6,2c6-9.3,14.2-15.5,24.8-18.3c25.3-6.6,50.6,12.9,50.6,39
	c0,9.4-7,16.9-16.4,17.6c-8.6,0.7-16.5-5.7-18.1-14.6c-0.2-1.1-0.2-2.3-0.4-3.4c-0.4-3-2.7-5.1-5.6-5.1c-2.8,0-5.2,2-5.7,5
	c-0.2,1-0.2,2.1-0.2,3.1c0,14.3,0.1,28.5-0.1,42.8c0,2.4,0.9,3.7,2.8,5c28.6,20.6,44.9,48.3,48.9,83.3c0.1,0.8,0.4,1.5,0.6,2.3
	C354,199.1,354,205.3,354,211.5z M197.1,132.7c-0.4,0-0.6-0.1-0.8,0c-1.8,1-3.6,2.1-5.4,3.1c-21.3,12.5-44.1,16.7-68.4,12.3
	c-7.3-1.3-14.7-3.4-22.1-3.6c-35.7-1.2-63.8,30.4-58.8,65.7c4.8,34.3,38.2,56.6,71.9,47.8c29-7.6,56-3.4,81.3,12.7
	c17.4,11.1,36.5,14.7,56.9,11.3c60.9-10.1,88.4-83.4,49.2-131c-0.7-0.8-1.5-1.6-2.3-2.5c-0.5,0.5-0.8,0.7-1,0.9
	c-9.2,9.6-22.2,8.1-29-3.4c-0.6-1-2.5-1.9-3.8-1.9c-10.1-0.2-20.3,0-30.4-0.1c-2.3,0-3.6,0.5-4.8,2.7c-3.6,6.7-11.2,10.1-18.4,8.7
	c-7.4-1.5-12.8-7.3-13.8-14.9C197.2,138,197.2,135.3,197.1,132.7z M197.3,105.6c-6.3,3.6-11.9,6.5-17.3,9.7
	c-18.4,11.1-37.9,14.2-58.7,8.7c-12.3-3.2-24.7-4-37.3-1.7c-44.5,7.9-74.2,51.8-64.9,95.9c9.8,46.4,54.6,74,100.9,62
	c22.1-5.7,42.5-2.6,61.8,9.7c22.7,14.4,47.6,19.8,74,14.7c42.6-8.3,71.3-33.6,82.6-75.3c11.5-42.1-1-78.2-33.7-107.2
	c-0.7-0.7-1.6-1.1-2.4-1.7c-0.3,0.4-0.5,0.6-0.5,0.8c-0.1,3.6-0.3,7.1,0,10.7c0.1,1.7,0.9,3.8,2.1,5.1c24,25.3,32.2,55,23.7,88.7
	c-11.4,45.4-56.6,75.1-102.7,68.2c-14.5-2.1-27.5-7.7-39.9-15.4c-16.9-10.5-35.5-14.4-55.3-11.8c-7.7,1-15.3,3.3-23,4.3
	c-45.5,5.8-84.5-34.8-76.8-79.8c6.9-40.7,45.6-66.2,85.9-56.3c14.3,3.5,28.5,4.5,43.1,1.5c13.7-2.8,25.3-10.1,37.2-16.9
	c0.6-0.4,1.1-1.5,1.1-2.2C197.3,113.8,197.3,110.4,197.3,105.6z M208.9,97C208.9,97,208.9,97,208.9,97c0,12.9,0,25.8,0,38.6
	c0,5.8,1.8,8.4,5.8,8.5c4,0.1,5.9-2.6,5.9-8.3c0-7,0-14,0-21c0-19.2-0.1-38.4,0-57.6c0-9.1,6.6-16,15.7-17.1
	c8.2-1,16.2,4.6,18.4,12.9c0.4,1.6,0.4,3.4,0.7,5.1c0.6,3.2,3.1,5.2,6,5c3.1-0.2,5.7-2.7,5.3-6c-0.4-3.8-1-7.8-2.4-11.3
	c-5.2-12.5-18.8-19.5-31.9-16.9C219,31.5,209.1,43,208.9,57C208.7,70.3,208.9,83.6,208.9,97z M278.6,96.4
	C278.6,96.4,278.6,96.4,278.6,96.4c0,10.8,0,21.6,0,32.4c0,3.3-0.1,6.7,0.1,10c0.2,3,2,4.8,5.1,5.2c3,0.3,5.4-1.3,6.1-4.3
	c0.3-1.3,0.3-2.7,0.3-4.1c0-23,0-46,0-69c0-3.7-0.1-7.4,0.1-11c0.6-9.5,9.8-16.8,19.2-15.5c8.9,1.2,14.6,7.5,15.4,16.8
	c0.3,3.8,2.7,6.3,6,6.2c3.4-0.1,5.9-3,5.6-6.9c-0.1-2.2-0.5-4.3-1.1-6.4c-3.9-14.3-17.2-22.9-32.2-21.1c-13.6,1.7-24.5,14-24.7,28.1
	C278.5,70,278.6,83.2,278.6,96.4z M232.2,85.9c11.8,0,23.1,0,34.5,0c0-4.2,0-8,0-11.9c-0.5,0-0.9,0-1.2,0.1
	c-9.6,3-21.6-4.4-21.8-16.4c0-0.6-0.1-1.1-0.3-1.7c-0.8-3-2.8-4.4-5.8-4.4c-2.9,0-5.4,2.3-5.4,5.2C232.2,66.4,232.2,76.1,232.2,85.9
	z M266.8,98c-11.7,0-23,0-34.4,0c0,3.8,0,7.5,0,11.1c11.6,0,23,0,34.4,0C266.8,105.3,266.8,101.8,266.8,98z M266.8,121.3
	c-11.6,0-23,0-34.4,0c0,3.8,0,7.4,0,11.2c11.6,0,22.9,0,34.4,0C266.8,128.7,266.8,125.1,266.8,121.3z"/>
<path class="st0" d="M89.9,202.1c6.4,0.2,11.9,2.3,16.5,6.8c6.6,6.4,12.6,6.4,19.2,0.1c9.5-9.2,23.5-9.3,32.9-0.1
	c2.8,2.8,5.9,4.6,9.9,4.9c3.5,0.2,5.9,3.1,5.6,6.2c-0.3,3.2-2.9,5.5-6.5,5.3c-6-0.2-11.2-2.5-15.5-6.6c-7.1-6.7-12.8-6.7-19.7-0.1
	c-9.2,8.9-23,8.9-32.4,0.2c-7.3-6.8-12.6-6.8-20,0c-4.2,3.9-9.2,6.1-14.9,6.5c-3.9,0.3-6.6-1.8-7-5.1c-0.4-3.4,2-6.1,6.1-6.4
	c3.7-0.3,6.5-1.9,9-4.5C77.8,204.5,83.4,202.3,89.9,202.1z"/>
<path class="st0" d="M300.4,225.2c-5.7-0.4-10.9-2.7-15.3-7c-6.3-6.2-12.7-6.2-19,0c-9.6,9.3-23.5,9.4-33.2,0.1
	c-6.6-6.3-12.5-6.3-19.2,0.1c-4.2,4.1-9.3,6.3-15.1,6.8c-4,0.3-6.9-1.9-7.1-5.4c-0.2-3.3,2.1-5.9,6-6.2c3.7-0.3,6.5-1.9,9.1-4.4
	c9.9-9.7,23.8-9.6,33.7,0c6,5.8,12.5,5.8,18.5,0c9.9-9.6,23.8-9.7,33.7-0.1c2.7,2.6,5.6,4.2,9.4,4.4c3.6,0.2,5.9,3,5.7,6.1
	C307.3,223.1,304.6,225.3,300.4,225.2z"/>
<path class="st0" d="M161,167.4c5.1,0.2,10.5,2.4,15,6.7c6.7,6.5,12.7,6.5,19.5,0c9.3-8.9,23.2-9.1,32.4-0.3c3.1,3,6.4,5,10.8,5.3
	c3.2,0.2,5.2,2.9,5,5.9c-0.2,3.2-2.6,5.5-6,5.4c-6.1-0.1-11.8-2-15.8-6.6c-5.6-6.4-14.4-6-20.2,0c-8.8,9.2-23.1,8.7-32.3-0.1
	c-7-6.7-12.6-6.7-19.7,0.1c-4.3,4-9.3,6.2-15.2,6.5c-3.7,0.2-6.3-1.8-6.7-5c-0.4-3.5,1.7-6,5.6-6.4c3.7-0.4,6.7-1.8,9.4-4.5
	C147.8,169.6,153.4,167.3,161,167.4z"/>
</svg>
