<svg xmlns="http://www.w3.org/2000/svg" xmlns:xlink="http://www.w3.org/1999/xlink" width="96" height="77" viewBox="0 0 96 77"><defs><style>.a{fill:none;stroke:#fff;}.b{clip-path:url(#a);}.c{fill:#373437;}.d{fill:#fff;}</style><clipPath id="a"><rect class="a" width="96" height="77" transform="translate(19200 3701)"/></clipPath></defs><g class="b" transform="translate(-19200 -3701)"><g transform="translate(19322.609 3466.65)"><path class="c" d="M-82.924,255.238a1.685,1.685,0,0,0-1.683,1.683,1.685,1.685,0,0,0,1.683,1.683.4.4,0,0,1,.4.4v12.085a.4.4,0,0,1-.4.4,1.6,1.6,0,0,0-1.683,1.579,1.6,1.6,0,0,0,1.683,1.578.4.4,0,0,1,.4.4v12.313a.4.4,0,0,1-.4.4,1.593,1.593,0,0,0-1.683,1.569,1.593,1.593,0,0,0,1.683,1.569h35.191a1.593,1.593,0,0,0,1.683-1.569,1.593,1.593,0,0,0-1.683-1.569.4.4,0,0,1-.4-.4V275.043a.4.4,0,0,1,.4-.4,1.6,1.6,0,0,0,1.683-1.578,1.6,1.6,0,0,0-1.683-1.579.4.4,0,0,1-.4-.4V259a.4.4,0,0,1,.4-.4,1.685,1.685,0,0,0,1.683-1.683,1.685,1.685,0,0,0-1.683-1.683Zm35.191,36.454H-82.924a2.373,2.373,0,0,1-2.481-2.367,2.342,2.342,0,0,1,2.083-2.34V275.412a2.379,2.379,0,0,1-2.083-2.346,2.379,2.379,0,0,1,2.083-2.347V259.371a2.486,2.486,0,0,1-2.083-2.45,2.484,2.484,0,0,1,2.481-2.481h35.191a2.484,2.484,0,0,1,2.481,2.481,2.486,2.486,0,0,1-2.083,2.45V270.72a2.38,2.38,0,0,1,2.083,2.347,2.38,2.38,0,0,1-2.083,2.346v11.572a2.342,2.342,0,0,1,2.083,2.34,2.373,2.373,0,0,1-2.481,2.367" transform="translate(16.213 4.473)"/><path class="c" d="M-81.295,268.605h6.533v-9.948h-6.533Zm6.932.8h-7.33a.4.4,0,0,1-.4-.4V258.258a.4.4,0,0,1,.4-.4h7.33a.4.4,0,0,1,.4.4v10.747a.4.4,0,0,1-.4.4" transform="translate(17.682 5.99)"/><path class="c" d="M-73.515,268.605h6.533v-9.948h-6.533Zm6.932.8h-7.331a.4.4,0,0,1-.4-.4V258.258a.4.4,0,0,1,.4-.4h7.331a.4.4,0,0,1,.4.4v10.747a.4.4,0,0,1-.4.4" transform="translate(21.133 5.99)"/><path class="c" d="M-65.735,268.605H-59.2v-9.948h-6.533Zm6.932.8h-7.331a.4.4,0,0,1-.4-.4V258.258a.4.4,0,0,1,.4-.4H-58.8a.4.4,0,0,1,.4.4v10.747a.4.4,0,0,1-.4.4" transform="translate(24.583 5.99)"/><path class="c" d="M-81.295,279.649h6.533V269.7h-6.533Zm6.932.8h-7.33a.4.4,0,0,1-.4-.4V269.3a.4.4,0,0,1,.4-.4h7.33a.4.4,0,0,1,.4.4v10.747a.4.4,0,0,1-.4.4" transform="translate(17.682 10.887)"/><path class="c" d="M-73.515,279.649h6.533V269.7h-6.533Zm6.932.8h-7.331a.4.4,0,0,1-.4-.4V269.3a.4.4,0,0,1,.4-.4h7.331a.4.4,0,0,1,.4.4v10.747a.4.4,0,0,1-.4.4" transform="translate(21.133 10.887)"/><path class="c" d="M-65.735,279.649H-59.2V269.7h-6.533Zm6.932.8h-7.331a.4.4,0,0,1-.4-.4V269.3a.4.4,0,0,1,.4-.4H-58.8a.4.4,0,0,1,.4.4v10.747a.4.4,0,0,1-.4.4" transform="translate(24.583 10.887)"/><rect class="d" width="0.72" height="2.366" transform="translate(-56.682 256.948)"/><path class="c" d="M-75.9,255.965h-.72a.4.4,0,0,1-.4-.4V253.2a.4.4,0,0,1,.4-.4h.72a.4.4,0,0,1,.4.4v2.366a.4.4,0,0,1-.4.4" transform="translate(19.935 3.747)"/><rect class="d" width="0.72" height="2.366" transform="translate(-42.27 256.948)"/><path class="c" d="M-65.912,255.965h-.72a.4.4,0,0,1-.4-.4V253.2a.4.4,0,0,1,.4-.4h.72a.4.4,0,0,1,.4.4v2.366a.4.4,0,0,1-.4.4" transform="translate(24.362 3.747)"/><path class="c" d="M-78.46,254.9h20.792v-6.029H-78.46Zm21.19.8H-78.858a.4.4,0,0,1-.4-.4v-6.828a.4.4,0,0,1,.4-.4h21.589a.4.4,0,0,1,.4.4V255.3a.4.4,0,0,1-.4.4" transform="translate(18.94 1.649)"/><path class="c" d="M-74.381,249.551V253.1h-.472v-2.59l-1.189,2.59h-.3l-1.194-2.59v2.59h-.468v-3.554h.478l1.338,2.913,1.334-2.913Z" transform="translate(19.494 2.305)"/><path class="c" d="M-74.186,251.956h1.314l-.657-1.836Zm1.724,1.149-.277-.779h-1.579l-.277.779h-.476l1.292-3.554h.512l1.288,3.554Z" transform="translate(20.796 2.305)"/><path class="c" d="M-72.041,249.926v1.342h.687a.809.809,0,0,0,.572-.176.646.646,0,0,0,.188-.5q0-.671-.759-.671Zm0,1.712V253.1h-.466v-3.554h1.153a1.3,1.3,0,0,1,.915.293.936.936,0,0,1,.316.715,1.084,1.084,0,0,1-.231.706,1.07,1.07,0,0,1-.693.354l.98,1.487h-.585l-.934-1.467Z" transform="translate(21.934 2.305)"/><path class="c" d="M-69.849,253.1h-.466v-3.554h.466V251.2l1.461-1.647h.611l-1.661,1.8,1.661,1.754H-68.4l-1.451-1.589Z" transform="translate(22.906 2.305)"/><path class="c" d="M-66.309,249.551v.37h-1.415v1.21h1.26v.364h-1.26v1.241h1.415v.37h-1.882v-3.554Z" transform="translate(23.847 2.305)"/><path class="c" d="M-66.507,249.925v-.374h2.343v.374H-65.1V253.1h-.466v-3.179Z" transform="translate(24.594 2.305)"/><path class="c" d="M-81.757,281.857h-39.808a.4.4,0,0,0-.4.4.4.4,0,0,0,.4.4h39.808a.4.4,0,0,0,.4-.4.4.4,0,0,0-.4-.4" transform="translate(0 16.633)"/><path class="c" d="M-52.393,281.857H-68.836a.4.4,0,0,0-.4.4.4.4,0,0,0,.4.4h16.443a.4.4,0,0,0,.4-.4.4.4,0,0,0-.4-.4" transform="translate(23.385 16.633)"/><path class="c" d="M-61.257,281.857h-29.58a.4.4,0,0,0-.4.4.4.4,0,0,0,.4.4h29.58a.4.4,0,0,0,.4-.4.4.4,0,0,0-.4-.4" transform="translate(13.627 16.633)"/><path class="c" d="M-119.933,295.206h24.993V245.151h-24.993Zm25.392.8h-25.791a.4.4,0,0,1-.4-.4V244.751a.4.4,0,0,1,.4-.4h25.791a.4.4,0,0,1,.4.4V295.6a.4.4,0,0,1-.4.4" transform="translate(0.547 0)"/><path class="c" d="M-119.933,247.993h24.993v-.743h-24.993Zm25.392.8h-25.791a.4.4,0,0,1-.4-.4v-1.543a.4.4,0,0,1,.4-.4h25.791a.4.4,0,0,1,.4.4v1.543a.4.4,0,0,1-.4.4" transform="translate(0.547 0.93)"/><path class="c" d="M-117.833,257.035h3.632V253a1.818,1.818,0,0,0-1.816-1.816A1.819,1.819,0,0,0-117.833,253Zm4.03.8h-4.429a.4.4,0,0,1-.4-.4V253a2.616,2.616,0,0,1,2.613-2.613A2.616,2.616,0,0,1-113.4,253v4.437a.4.4,0,0,1-.4.4" transform="translate(1.479 2.675)"/><path class="c" d="M-112.533,257.035h3.632V253a1.818,1.818,0,0,0-1.816-1.816A1.819,1.819,0,0,0-112.533,253Zm4.03.8h-4.429a.4.4,0,0,1-.4-.4V253a2.616,2.616,0,0,1,2.613-2.613A2.616,2.616,0,0,1-108.1,253v4.437a.4.4,0,0,1-.4.4" transform="translate(3.829 2.675)"/><path class="c" d="M-107.233,257.035h3.632V253a1.819,1.819,0,0,0-1.816-1.816A1.819,1.819,0,0,0-107.233,253Zm4.03.8h-4.429a.4.4,0,0,1-.4-.4V253a2.616,2.616,0,0,1,2.613-2.613A2.616,2.616,0,0,1-102.8,253v4.437a.4.4,0,0,1-.4.4" transform="translate(6.18 2.675)"/><path class="c" d="M-117.833,264.005h3.632v-4.037a1.818,1.818,0,0,0-1.816-1.816,1.819,1.819,0,0,0-1.816,1.816Zm4.03.8h-4.429a.4.4,0,0,1-.4-.4v-4.437a2.616,2.616,0,0,1,2.613-2.613,2.616,2.616,0,0,1,2.613,2.613V264.4a.4.4,0,0,1-.4.4" transform="translate(1.479 5.766)"/><path class="c" d="M-112.533,264.005h3.632v-4.037a1.818,1.818,0,0,0-1.816-1.816,1.819,1.819,0,0,0-1.816,1.816Zm4.03.8h-4.429a.4.4,0,0,1-.4-.4v-4.437a2.616,2.616,0,0,1,2.613-2.613,2.616,2.616,0,0,1,2.613,2.613V264.4a.4.4,0,0,1-.4.4" transform="translate(3.829 5.766)"/><path class="c" d="M-107.233,264.005h3.632v-4.037a1.819,1.819,0,0,0-1.816-1.816,1.819,1.819,0,0,0-1.816,1.816Zm4.03.8h-4.429a.4.4,0,0,1-.4-.4v-4.437a2.616,2.616,0,0,1,2.613-2.613,2.616,2.616,0,0,1,2.613,2.613V264.4a.4.4,0,0,1-.4.4" transform="translate(6.18 5.766)"/><path class="c" d="M-117.833,270.977h3.632V266.94a1.817,1.817,0,0,0-1.816-1.816,1.818,1.818,0,0,0-1.816,1.816Zm4.03.8h-4.429a.4.4,0,0,1-.4-.4V266.94a2.616,2.616,0,0,1,2.613-2.613,2.616,2.616,0,0,1,2.613,2.613v4.437a.4.4,0,0,1-.4.4" transform="translate(1.479 8.858)"/><path class="c" d="M-112.533,270.977h3.632V266.94a1.817,1.817,0,0,0-1.816-1.816,1.818,1.818,0,0,0-1.816,1.816Zm4.03.8h-4.429a.4.4,0,0,1-.4-.4V266.94a2.616,2.616,0,0,1,2.613-2.613,2.616,2.616,0,0,1,2.613,2.613v4.437a.4.4,0,0,1-.4.4" transform="translate(3.829 8.858)"/><path class="c" d="M-107.233,270.977h3.632V266.94a1.818,1.818,0,0,0-1.816-1.816,1.818,1.818,0,0,0-1.816,1.816Zm4.03.8h-4.429a.4.4,0,0,1-.4-.4V266.94a2.616,2.616,0,0,1,2.613-2.613,2.616,2.616,0,0,1,2.613,2.613v4.437a.4.4,0,0,1-.4.4" transform="translate(6.18 8.858)"/><path class="c" d="M-117.479,280.8h5.171v-9h-5.171Zm5.569.8h-5.969a.4.4,0,0,1-.4-.4v-9.794a.4.4,0,0,1,.4-.4h5.969a.4.4,0,0,1,.4.4V281.2a.4.4,0,0,1-.4.4" transform="translate(1.635 11.821)"/><path class="c" d="M-118.564,279.979h8.375v-.5h-8.375Zm8.775.8h-9.173a.4.4,0,0,1-.4-.4v-1.292a.4.4,0,0,1,.4-.4h9.173a.4.4,0,0,1,.4.4v1.292a.4.4,0,0,1-.4.4" transform="translate(1.154 15.227)"/><path class="c" d="M-117.832,279.082h6.19v-.494h-6.19Zm6.588.8h-6.988a.4.4,0,0,1-.4-.4V278.19a.4.4,0,0,1,.4-.4h6.988a.4.4,0,0,1,.4.4v1.292a.4.4,0,0,1-.4.4" transform="translate(1.479 14.83)"/><path class="c" d="M-88.327,286.246a.4.4,0,0,1-.4-.4V266.8a.4.4,0,0,1,.4-.4.4.4,0,0,1,.4.4v19.05a.4.4,0,0,1-.4.4" transform="translate(14.741 9.777)"/><path class="c" d="M-87.847,270.128a.4.4,0,0,1-.281-.117l-1.56-1.559a.4.4,0,0,1,0-.564.4.4,0,0,1,.564,0l1.559,1.559a.4.4,0,0,1,0,.564.4.4,0,0,1-.281.117" transform="translate(14.262 10.386)"/><path class="c" d="M-88.326,272.421a.391.391,0,0,1-.227-.072.4.4,0,0,1-.1-.554l1.711-2.46a.4.4,0,0,1,.554-.1.4.4,0,0,1,.1.554L-88,272.249a.4.4,0,0,1-.328.172" transform="translate(14.741 11.003)"/><path class="c" d="M-87.378,261.953c-.349.28-1.188,2.1-1.94,6.546-.639,3.786-.827,7.284-.468,8.7a4.174,4.174,0,0,0,2.408,3.089A4.152,4.152,0,0,0-84.97,277.2c.359-1.416.17-4.914-.468-8.7-.752-4.45-1.592-6.266-1.94-6.546m0,19.154a.385.385,0,0,1-.1-.013,4.792,4.792,0,0,1-3.08-3.7c-.792-3.124.856-13.767,2.451-15.816a1.175,1.175,0,0,1,.521-.413.4.4,0,0,1,.176-.04h.064a.4.4,0,0,1,.176.04,1.175,1.175,0,0,1,.521.413c1.6,2.05,3.244,12.693,2.451,15.816a4.792,4.792,0,0,1-3.08,3.7.393.393,0,0,1-.1.013" transform="translate(13.837 7.439)"/><path class="c" d="M-94.113,283.023a.4.4,0,0,1-.4-.4V272.3a.4.4,0,0,1,.4-.4.4.4,0,0,1,.4.4v10.327a.4.4,0,0,1-.4.4" transform="translate(12.175 12.217)"/><path class="c" d="M-93.8,274.311a.4.4,0,0,1-.281-.115l-1.008-1a.4.4,0,0,1,0-.564.4.4,0,0,1,.564,0l1.008,1a.4.4,0,0,1,0,.563.394.394,0,0,1-.283.118" transform="translate(11.865 12.488)"/><path class="c" d="M-94.113,275.795a.394.394,0,0,1-.222-.068.4.4,0,0,1-.108-.554l1.207-1.791a.4.4,0,0,1,.553-.108.4.4,0,0,1,.108.554l-1.207,1.791a.4.4,0,0,1-.331.176" transform="translate(12.175 12.796)"/><path class="c" d="M-92.991,271.128a3.254,3.254,0,0,0-3.251,3.251,3.254,3.254,0,0,0,3.251,3.251,3.254,3.254,0,0,0,3.251-3.251,3.254,3.254,0,0,0-3.251-3.251m0,7.3a4.053,4.053,0,0,1-4.049-4.049,4.053,4.053,0,0,1,4.049-4.048,4.053,4.053,0,0,1,4.049,4.048,4.053,4.053,0,0,1-4.049,4.049" transform="translate(11.053 11.521)"/></g></g></svg>