<?xml version="1.0" encoding="utf-8"?>
<!-- Generator: Adobe Illustrator 25.2.3, SVG Export Plug-In . SVG Version: 6.00 Build 0)  -->
<svg version="1.1" id="Capa_1" xmlns="http://www.w3.org/2000/svg" xmlns:xlink="http://www.w3.org/1999/xlink" x="0px" y="0px"
	 viewBox="0 0 646.2 209" style="enable-background:new 0 0 646.2 209;" xml:space="preserve">
<style type="text/css">
	.st0{fill:#3C3C3B;}
	.st1{fill:#2B739F;}
	.st2{fill:#706F6E;}
</style>
<g>
	<g>
		<g>
			<g>
				<path class="st0" d="M113.8,107v28.7H98.1V61h21.7c10.1,0,17.6,1.8,22.4,5.5c4.8,3.7,7.3,9.3,7.3,16.8c0,4.4-1.2,8.3-3.6,11.7
					s-5.8,6.1-10.2,8c11.2,16.8,18.5,27.6,21.9,32.6H140L122.2,107H113.8z M113.8,94.2h5.1c5,0,8.7-0.8,11-2.5
					c2.3-1.7,3.6-4.3,3.6-7.9c0-3.5-1.2-6.1-3.6-7.6c-2.4-1.5-6.2-2.2-11.3-2.2h-4.8L113.8,94.2L113.8,94.2z"/>
				<path class="st1" d="M166.9,135.7V61h15.8v74.7H166.9z"/>
				<path class="st0" d="M233.1,73.1c-5.9,0-10.5,2.2-13.8,6.7s-4.9,10.7-4.9,18.7c0,16.7,6.2,25,18.7,25c5.2,0,11.5-1.3,19-3.9
					v13.3c-6.1,2.6-12.9,3.8-20.4,3.8c-10.8,0-19.1-3.3-24.8-9.9s-8.6-16.1-8.6-28.4c0-7.8,1.4-14.6,4.2-20.4s6.9-10.3,12.1-13.4
					c5.3-3.1,11.5-4.7,18.5-4.7c7.2,0,14.5,1.8,21.8,5.3l-5.1,12.9c-2.8-1.3-5.6-2.5-8.4-3.5S235.8,73.1,233.1,73.1z"/>
				<path class="st0" d="M327.8,135.7h-17.9l-19.5-31.5l-6.7,4.8v26.7H268V61h15.8v34.2l6.2-8.8L310.1,61h17.5l-25.9,33L327.8,135.7
					z"/>
			</g>
			<path class="st0" d="M28,61h23.1c10.5,0,18.2,1.5,23,4.5c4.8,3,7.1,7.8,7.1,14.4c0,4.5-1,8.1-3.1,11s-4.9,4.6-8.3,5.2v0.5
				c4.7,1.1,8.1,3,10.2,5.9s3.1,6.7,3.1,11.5c0,6.8-2.4,12.1-7.3,15.9c-4.9,3.8-11.6,5.7-20,5.7H28V61z M43.8,90.6H53
				c4.3,0,7.4-0.7,9.3-2s2.9-3.5,2.9-6.6c0-2.9-1-4.9-3.1-6.2c-2.1-1.2-5.4-1.9-9.9-1.9h-8.3L43.8,90.6L43.8,90.6z M43.8,103.1v19.5
				H54c4.3,0,7.5-0.8,9.6-2.5s3.1-4.2,3.1-7.7c0-6.2-4.4-9.3-13.2-9.3H43.8z"/>
			<polygon class="st1" points="167.1,159.3 167.1,175.6 45.8,175.6 45.8,159.3 30,159.3 30,191.4 182.9,191.4 182.9,159.7 
				182.9,159.3 			"/>
			<polygon class="st1" points="30,10.5 30,42.2 30,42.6 45.8,42.6 45.8,26.3 167.1,26.3 167.1,42.6 182.9,42.6 182.9,10.5 			"/>
			<g>
				<path class="st2" d="M200.5,164h4v22.7h-4V164z"/>
				<path class="st2" d="M213.7,164h3.7l12.1,15.7V164h3.9v22.7h-3.3l-12.5-16.2v16.2h-3.9V164z"/>
				<path class="st2" d="M242.5,164h4.2l6.9,10.7l6.9-10.7h4.2v22.7h-4v-16.3l-7.1,10.7h-0.1l-7.1-10.6v16.2h-3.9V164z"/>
				<path class="st2" d="M272.8,175.4L272.8,175.4c0-6.5,4.9-11.8,11.9-11.8c6.9,0,11.8,5.3,11.8,11.7v0.1c0,6.4-4.9,11.7-11.9,11.7
					C277.7,187.1,272.8,181.8,272.8,175.4z M292.3,175.4L292.3,175.4c0-4.5-3.2-8.1-7.7-8.1s-7.6,3.6-7.6,8v0.1c0,4.4,3.2,8,7.7,8
					C289.2,183.4,292.3,179.9,292.3,175.4z"/>
				<path class="st2" d="M304.5,164h10.1c2.6,0,4.6,0.7,5.9,2c1,1,1.5,2.2,1.5,3.8v0.1c0,2.7-1.5,4.2-3.2,5.1
					c2.6,0.9,4.5,2.4,4.5,5.5v0.1c0,4.1-3.3,6.2-8.4,6.2h-10.5V164H304.5z M318.1,170.4c0-1.8-1.4-2.9-4-2.9h-5.7v6h5.4
					C316.4,173.6,318.1,172.6,318.1,170.4L318.1,170.4z M314.7,177h-6.3v6.2h6.6c2.7,0,4.4-1.1,4.4-3.1V180
					C319.4,178.1,317.9,177,314.7,177z"/>
				<path class="st2" d="M331.3,164h4v22.7h-4V164z"/>
				<path class="st2" d="M344.6,164h4v19.1h11.9v3.6h-15.9V164z"/>
				<path class="st2" d="M368,164h4v22.7h-4V164z"/>
				<path class="st2" d="M389.3,163.9h3.7l10,22.9h-4.2l-2.3-5.5h-10.7l-2.3,5.5h-4.1L389.3,163.9z M395,177.7l-3.9-9.1l-3.9,9.1
					H395z"/>
				<path class="st2" d="M410.1,164h10.1c2.8,0,5.1,0.8,6.5,2.3c1.2,1.2,1.9,2.9,1.9,4.9v0.1c0,3.7-2.2,6-5.4,6.9l6.1,8.6h-4.7
					l-5.6-7.9h-5v7.9h-4V164H410.1z M419.8,175.3c2.8,0,4.7-1.5,4.7-3.8v-0.1c0-2.4-1.7-3.8-4.7-3.8H414v7.6h5.8V175.3z"/>
				<path class="st2" d="M436.9,164h4v22.7h-4V164z"/>
				<path class="st2" d="M458.1,163.9h3.7l10,22.9h-4.2l-2.3-5.5h-10.7l-2.3,5.5h-4.1L458.1,163.9z M463.8,177.7l-3.9-9.1l-3.9,9.1
					H463.8z"/>
			</g>
		</g>
		<g>
			<g>
				<path class="st1" d="M16.1,164.5c0.4,0.2,0.8,0.4,1,0.8c0.2,0.3,0.4,0.6,0.6,0.9c0.1,0.3,0.2,0.7,0.2,1.2s-0.1,1.1-0.4,1.6
					s-0.7,0.9-1.3,1.1c0.5,0.2,0.9,0.5,1.1,0.9s0.3,1,0.3,1.7v0.7c0,0.5,0,0.9,0.1,1c0.1,0.3,0.2,0.5,0.4,0.6v0.3h-2.6
					c-0.1-0.2-0.1-0.4-0.2-0.6c-0.1-0.3-0.1-0.6-0.1-1v-1c0-0.7-0.1-1.2-0.4-1.4c-0.2-0.2-0.7-0.4-1.3-0.4h-2.3v4.4H9v-11.2h5.3
					C15.1,164.2,15.7,164.3,16.1,164.5z M11.3,166.1v3h2.5c0.5,0,0.9-0.1,1.1-0.2c0.4-0.2,0.7-0.6,0.7-1.3s-0.2-1.1-0.6-1.4
					c-0.2-0.1-0.6-0.2-1.1-0.2L11.3,166.1L11.3,166.1z"/>
			</g>
			<g>
				<path class="st1" d="M13.4,180.7c-5.9,0-10.7-4.8-10.7-10.8s4.8-10.8,10.7-10.8s10.7,4.8,10.7,10.8
					C24.1,175.9,19.3,180.7,13.4,180.7z M13.4,160.8c-5,0-9.1,4.1-9.1,9.1s4.1,9.1,9.1,9.1s9.1-4.1,9.1-9.1
					C22.4,164.9,18.4,160.8,13.4,160.8z"/>
			</g>
		</g>
	</g>
</g>
</svg>
