<svg xmlns="http://www.w3.org/2000/svg" width="161.675" height="64.78" viewBox="0 0 161.675 64.78"><defs><style>.a{fill:#3c3c3b;}.b{fill:#2876a2;}</style></defs><g transform="translate(-326.13 -32.499)"><g transform="translate(326.144 49.905)"><path class="a" d="M326.143,49.1h9.725c5.389,0,10.077,1.735,10.077,7.2a6.316,6.316,0,0,1-5.169,6.637v.087c3.46.52,6.4,2.819,6.4,6.94,0,5.9-4.775,8.025-11.434,8.025h-9.594Zm8.936,11.885c3.33,0,4.775-1.171,4.775-3.73,0-2.385-1.577-3.47-4.644-3.47h-2.979v7.2Zm.394,12.32c3.549,0,5.433-1.085,5.433-3.861,0-2.689-1.577-4.078-5.169-4.078h-3.5v7.939Z" transform="translate(-326.143 -48.583)"/><path class="a" d="M349.756,49.1h9.726c6.834,0,10.776,2.906,10.776,8.329,0,4.728-3.241,7.114-6.79,7.764v.087a15.253,15.253,0,0,1,3.417,4.121l5.7,8.589h-6.79l-5.344-8.242c-2.278-3.34-2.761-3.644-4.118-3.644h-.4V77.993h-6.177Zm9.551,12.667c3.285,0,4.819-1.475,4.819-3.992,0-2.646-1.533-3.99-5.082-3.99h-3.111V61.77Z" transform="translate(-324.262 -48.583)"/><path class="b" d="M374.344,49.1h6.177v28.89h-6.177Z" transform="translate(-322.303 -48.583)"/><path class="a" d="M384.812,63.543c0-7.851,5.213-14.922,15.069-14.922a15.274,15.274,0,0,1,8.761,2.3l-2.76,4.467a10.532,10.532,0,0,0-6.089-1.691c-5.476,0-8.411,4.337-8.411,9.673,0,5.508,2.8,10.064,8.5,10.064a10.384,10.384,0,0,0,6.615-2.212l2.54,4.295a14.751,14.751,0,0,1-9.243,3.036C389.85,78.551,384.812,71.394,384.812,63.543Z" transform="translate(-321.469 -48.621)"/><path class="a" d="M410.7,49.1h6.134V61.682L426.774,49.1h6.834l-10.733,13.4L434.09,77.993h-7.316l-9.944-13.838V77.993H410.7Z" transform="translate(-319.407 -48.583)"/></g><g transform="translate(391.723 88.782)"><path class="a" d="M386.883,92.9V84.751h1.02V92.9Z" transform="translate(-386.883 -84.619)"/><path class="a" d="M390.922,92.9V84.792h.529l5.259,6.059V84.792h1.013V92.9h-.514l-5.281-6.059V92.9Z" transform="translate(-386.561 -84.616)"/><path class="a" d="M400.254,92.9V84.792h.933l3.276,4.964,3.3-4.964h.918V92.9h-1V86.569l-3.217,4.8-3.216-4.8V92.9Z" transform="translate(-385.818 -84.616)"/><path class="a" d="M414.686,93.126a4.051,4.051,0,0,1-3.008-1.2,4.5,4.5,0,0,1,0-6.1,4.372,4.372,0,0,1,6.022,0,4.48,4.48,0,0,1,0,6.093A4.086,4.086,0,0,1,414.686,93.126Zm0-.947a3.009,3.009,0,0,0,2.262-.933,3.584,3.584,0,0,0,0-4.738,3.209,3.209,0,0,0-4.528,0,3.576,3.576,0,0,0,0,4.733A3.008,3.008,0,0,0,414.686,92.179Z" transform="translate(-385.002 -84.629)"/><path class="a" d="M420.755,92.9V84.792h4.8a2.768,2.768,0,0,1,1.811.511,1.853,1.853,0,0,1,.613,1.509,1.92,1.92,0,0,1-.191.866,1.588,1.588,0,0,1-.543.618,2.675,2.675,0,0,1,.976.918,2.347,2.347,0,0,1,.331,1.248,2.265,2.265,0,0,1-.738,1.781,2.9,2.9,0,0,1-2,.658Zm1.006-4.906h3.878a1.458,1.458,0,0,0,.977-.29,1.039,1.039,0,0,0,.337-.834,1.085,1.085,0,0,0-.326-.859,1.466,1.466,0,0,0-.988-.286h-3.878Zm0,3.973h4.245a1.447,1.447,0,0,0,1.087-.408,1.754,1.754,0,0,0,0-2.221,1.436,1.436,0,0,0-1.087-.411h-4.245Z" transform="translate(-384.185 -84.616)"/><path class="a" d="M430.7,92.9V84.751h1.021V92.9Z" transform="translate(-383.392 -84.619)"/><path class="a" d="M434.739,92.9V84.792h1.006v7.175h5.3V92.9Z" transform="translate(-383.071 -84.616)"/><path class="a" d="M442.554,92.9V84.751h1.021V92.9Z" transform="translate(-382.448 -84.619)"/><path class="a" d="M445.465,92.9l3.973-8.108h.837l4.017,8.108H453.2l-1.1-2.181h-4.48L446.545,92.9Zm2.614-3.129h3.569l-1.791-3.591Z" transform="translate(-382.216 -84.616)"/><path class="a" d="M455.579,92.9V84.792h4.649a2.72,2.72,0,0,1,1.866.6,2.1,2.1,0,0,1,.676,1.656,2.266,2.266,0,0,1-.529,1.509,2.29,2.29,0,0,1-1.4.783l2.028,3.562h-1.116l-2.028-3.548h-3.143V92.9Zm1.006-4.495h3.577a1.731,1.731,0,0,0,1.156-.338,1.237,1.237,0,0,0,.393-.991,1.277,1.277,0,0,0-.393-1,1.587,1.587,0,0,0-1.106-.356h-3.628Z" transform="translate(-381.41 -84.616)"/><path class="a" d="M464.789,92.9V84.751h1.02V92.9Z" transform="translate(-380.677 -84.619)"/><path class="a" d="M467.7,92.9l3.973-8.108h.838l4.017,8.108h-1.095l-1.1-2.181h-4.481L468.779,92.9Zm2.615-3.129h3.569l-1.792-3.591Z" transform="translate(-380.445 -84.616)"/></g><path class="b" d="M378.2,81.538v5.657H332.3V81.538H326.13V93.36h58.237V81.538Z" transform="translate(0 3.907)"/><path class="b" d="M332.3,44.321V38.664H378.2v5.657h6.165V32.5H326.13V44.321Z" transform="translate(0 0)"/></g></svg>