<?xml version="1.0" encoding="utf-8"?>
<!-- Generator: Adobe Illustrator 23.0.2, SVG Export Plug-In . SVG Version: 6.00 Build 0)  -->
<svg version="1.0" id="Capa_1" xmlns="http://www.w3.org/2000/svg" xmlns:xlink="http://www.w3.org/1999/xlink" x="0px" y="0px"
	 viewBox="0 0 646.18 279.21" style="enable-background:new 0 0 646.18 279.21;" xml:space="preserve">
<style type="text/css">
	.st0{fill:#353838;}
	.st1{fill:#2F759F;}
	.st2{fill:#676A6A;}
</style>
<g>
	<g>
		<g>
			<path class="st0" d="M162.64,147.47v37.11h-20.51V87.86h28.18c13.14,0,22.87,2.39,29.17,7.18c6.31,4.79,9.46,12.05,9.46,21.8
				c0,5.69-1.57,10.75-4.7,15.18c-3.13,4.43-7.56,7.91-13.3,10.42c14.55,21.74,24.04,35.79,28.45,42.14h-22.76l-23.09-37.11H162.64z
				 M162.64,130.8h6.62c6.48,0,11.27-1.08,14.36-3.24c3.09-2.16,4.63-5.56,4.63-10.19c0-4.59-1.58-7.85-4.73-9.79
				c-3.15-1.94-8.04-2.91-14.65-2.91h-6.22V130.8z"/>
			<path class="st1" d="M231.71,184.58V87.86h20.51v96.72H231.71z"/>
			<path class="st0" d="M317.78,103.54c-7.72,0-13.69,2.9-17.93,8.7c-4.23,5.8-6.35,13.88-6.35,24.25
				c0,21.57,8.09,32.35,24.28,32.35c6.79,0,15.02-1.7,24.68-5.09v17.2c-7.94,3.31-16.8,4.96-26.59,4.96
				c-14.07,0-24.83-4.27-32.28-12.8c-7.45-8.53-11.18-20.78-11.18-36.75c0-10.06,1.83-18.87,5.49-26.43s8.92-13.36,15.78-17.4
				c6.86-4.04,14.9-6.05,24.11-6.05c9.39,0,18.83,2.27,28.31,6.81l-6.62,16.67c-3.62-1.72-7.26-3.22-10.92-4.5
				C324.9,104.18,321.31,103.54,317.78,103.54z"/>
			<path class="st0" d="M440.96,184.58h-23.29l-25.34-40.75l-8.67,6.22v34.53h-20.51V87.86h20.51v44.26l8.07-11.38l26.2-32.88h22.76
				l-33.74,42.8L440.96,184.58z"/>
		</g>
		<path class="st0" d="M50.96,87.86h30.1c13.72,0,23.67,1.95,29.87,5.85c6.2,3.9,9.29,10.11,9.29,18.62
			c0,5.78-1.36,10.52-4.07,14.22c-2.71,3.7-6.32,5.93-10.82,6.68v0.66c6.13,1.37,10.55,3.93,13.26,7.67
			c2.71,3.75,4.07,8.73,4.07,14.95c0,8.82-3.19,15.7-9.56,20.64c-6.37,4.94-15.03,7.41-25.97,7.41H50.96V87.86z M71.47,126.16h11.91
			c5.56,0,9.58-0.86,12.07-2.58s3.74-4.56,3.74-8.53c0-3.7-1.36-6.36-4.07-7.97c-2.71-1.61-7-2.41-12.87-2.41H71.47V126.16z
			 M71.47,142.44v25.21h13.36c5.65,0,9.81-1.08,12.5-3.24c2.69-2.16,4.04-5.47,4.04-9.92c0-8.03-5.73-12.04-17.2-12.04H71.47z"/>
		<polygon class="st1" points="231.91,215.17 231.91,236.25 74.07,236.25 74.07,215.17 53.56,215.17 53.56,256.76 252.42,256.76 
			252.42,215.64 252.42,215.17 		"/>
		<polygon class="st1" points="53.56,22.45 53.56,63.57 53.56,64.04 74.07,64.04 74.07,42.96 231.91,42.96 231.91,64.04 
			252.42,64.04 252.42,22.45 		"/>
		<g>
			<path class="st2" d="M275.35,221.24h5.17v29.42h-5.17V221.24z"/>
			<path class="st2" d="M292.59,221.24h4.79l15.76,20.34v-20.34h5.08v29.42h-4.33l-16.22-20.93v20.93h-5.08V221.24z"/>
			<path class="st2" d="M330.01,221.24h5.51l8.95,13.91l8.95-13.91h5.51v29.42h-5.17v-21.1l-9.29,13.87h-0.17l-9.2-13.79v21.01
				h-5.08V221.24z"/>
			<path class="st2" d="M369.41,236.03v-0.08c0-8.28,6.39-15.21,15.42-15.21c9.03,0,15.34,6.85,15.34,15.13v0.09
				c0,8.28-6.39,15.21-15.42,15.21C375.71,251.16,369.41,244.31,369.41,236.03z M394.75,236.03v-0.08c0-5.72-4.16-10.46-10-10.46
				c-5.84,0-9.92,4.66-9.92,10.38v0.09c0,5.71,4.16,10.42,10,10.42S394.75,241.75,394.75,236.03z"/>
			<path class="st2" d="M410.66,221.24h13.2c3.36,0,6.01,0.92,7.69,2.61c1.3,1.3,1.97,2.9,1.97,4.87v0.09c0,3.53-2.02,5.42-4.2,6.56
				c3.45,1.18,5.84,3.15,5.84,7.14v0.09c0,5.25-4.33,8.07-10.88,8.07h-13.62V221.24z M428.35,229.56c0-2.31-1.85-3.74-5.17-3.74
				h-7.44v7.82h7.06c3.32,0,5.55-1.3,5.55-3.99V229.56z M423.94,238.01h-8.2v8.07h8.58c3.53,0,5.67-1.39,5.67-4.03v-0.08
				C429.99,239.48,428.01,238.01,423.94,238.01z"/>
			<path class="st2" d="M445.51,221.24h5.17v29.42h-5.17V221.24z"/>
			<path class="st2" d="M462.75,221.24h5.17v24.71h15.46v4.71h-20.63V221.24z"/>
			<path class="st2" d="M493.28,221.24h5.17v29.42h-5.17V221.24z"/>
			<path class="st2" d="M520.94,221.03h4.79l12.94,29.63h-5.46l-2.98-7.1h-13.91l-3.02,7.1h-5.3L520.94,221.03z M528.34,238.97
				l-5.08-11.77l-5.04,11.77H528.34z"/>
			<path class="st2" d="M547.94,221.24h13.11c3.7,0,6.6,1.09,8.49,2.94c1.55,1.6,2.44,3.78,2.44,6.34v0.09
				c0,4.83-2.9,7.73-6.98,8.91l7.95,11.14h-6.14l-7.23-10.26h-6.47v10.26h-5.17V221.24z M560.67,235.82c3.7,0,6.05-1.93,6.05-4.92
				v-0.09c0-3.15-2.27-4.87-6.09-4.87h-7.52v9.88H560.67z"/>
			<path class="st2" d="M582.84,221.24h5.17v29.42h-5.17V221.24z"/>
			<path class="st2" d="M610.5,221.03h4.79l12.94,29.63h-5.46l-2.98-7.1h-13.91l-3.02,7.1h-5.3L610.5,221.03z M617.9,238.97
				l-5.08-11.77l-5.04,11.77H617.9z"/>
		</g>
	</g>
	<g>
		<g>
			<path class="st1" d="M35.48,221.81c0.53,0.23,0.98,0.56,1.35,1.01c0.31,0.37,0.55,0.77,0.73,1.21c0.18,0.44,0.27,0.95,0.27,1.52
				c0,0.69-0.17,1.36-0.52,2.02c-0.35,0.66-0.92,1.13-1.71,1.41c0.67,0.27,1.14,0.65,1.42,1.14c0.28,0.49,0.42,1.25,0.42,2.26v0.97
				c0,0.66,0.03,1.11,0.08,1.34c0.08,0.37,0.26,0.65,0.56,0.82v0.36h-3.33c-0.09-0.32-0.16-0.58-0.2-0.77
				c-0.08-0.41-0.12-0.82-0.13-1.24l-0.02-1.34c-0.01-0.92-0.17-1.53-0.48-1.84c-0.31-0.31-0.88-0.46-1.72-0.46h-2.95v5.66h-2.95
				v-14.44h6.91C34.18,221.46,34.94,221.58,35.48,221.81z M29.24,223.95v3.88h3.25c0.64,0,1.13-0.08,1.45-0.23
				c0.57-0.27,0.86-0.82,0.86-1.63c0-0.87-0.28-1.46-0.83-1.76c-0.31-0.17-0.78-0.26-1.4-0.26H29.24z"/>
		</g>
		<g>
			<path class="st1" d="M31.93,242.87c-7.71,0-13.98-6.27-13.98-13.98c0-7.71,6.27-13.98,13.98-13.98s13.98,6.27,13.98,13.98
				C45.9,236.6,39.63,242.87,31.93,242.87z M31.93,217.11c-6.5,0-11.78,5.29-11.78,11.78c0,6.5,5.29,11.78,11.78,11.78
				s11.78-5.29,11.78-11.78C43.71,222.4,38.42,217.11,31.93,217.11z"/>
		</g>
	</g>
</g>
</svg>
