<svg xmlns="http://www.w3.org/2000/svg" xmlns:xlink="http://www.w3.org/1999/xlink" width="96" height="77" viewBox="0 0 96 77"><defs><style>.a{fill:none;stroke:#fff;}.b{clip-path:url(#a);}.c{fill:#494949;}</style><clipPath id="a"><rect class="a" width="96" height="77" transform="translate(18823 3701)"/></clipPath></defs><g class="b" transform="translate(-18823 -3701)"><g transform="translate(18470.143 3464.205)"><path class="c" d="M374.11,273.156l1.042-.015c.24,0,.551-.025.9-.052.493-.035,1.066-.077,1.625-.077,1.2,0,1.94.2,2.261.609a8.885,8.885,0,0,1,.19,2.665c0,.228-.005.416,0,.534.02.933.01,1.868-.005,2.8-.013.8-.034,1.6-.054,2.393s-.04,1.62-.054,2.43H368.481c-.059-1.217-.044-2.452-.029-3.647.015-1.148.03-2.333-.02-3.5-.034-.789-.035-1.554-.007-2.343.059-1.564.258-1.781,1.642-1.781l.245,0q.6.012,1.208.012c.863,0,1.727-.015,2.59-.029m4.641-1.44c-.269,0-.535.012-.787.023-.218.01-.426.02-.68.02-.007,0-.942-.01-1.4-.01-.876,0-1.752.01-2.627.018s-1.751.02-2.625.02l-.9,0c-2.58,0-2.6.834-2.67,3.068l-.01.356a94.709,94.709,0,0,0,.091,9.931.591.591,0,0,0,.049.185l.112-.025v0l-.072.133a.629.629,0,0,0,.6.384l2.722,0,10.145,0a.691.691,0,0,0,.686-.685c.01-1.034.039-2.068.066-3.1.039-1.425.077-2.85.07-4.277,0-.279.015-.618.03-.989.064-1.4.151-3.325-.591-4.292a2.664,2.664,0,0,0-2.2-.759" transform="translate(0 14.624)"/><path class="c" d="M379.013,266.105c.119-.213.17-.341.215-.438a2.009,2.009,0,0,0,.242.015,3.481,3.481,0,0,0,.4-.027,7.616,7.616,0,0,1,.947-.052c.41,0,.829.022,1.245.044s.812.042,1.313.042h.022c.433-.005.994-.057,1.608-.113.791-.072,1.687-.154,2.516-.154a4.416,4.416,0,0,1,2.429.492c1,.69.851,3.481.755,5.329-.025.5-.049.935-.047,1.266.013,3.12-.012,6.239-.042,9.359l-.049,4.309c0,.29.02.636.045,1a6.637,6.637,0,0,1-.076,2.206c-.023.07-.04.131-.052.181h-.015a1.166,1.166,0,0,0-.381.086,3.838,3.838,0,0,1-1.292.17c-.537,0-1.118-.05-1.662-.1-.48-.04-.93-.079-1.291-.079l-6.85,0c-.225-3.491-.136-7.065-.049-10.521.052-2.117.107-4.3.089-6.445,0-.463-.069-1.088-.146-1.811-.18-1.7-.4-3.819.124-4.763m9.3-2.028c-.645,0-1.314.057-1.962.113-.547.049-1.076.094-1.615.1-.379,0-.885-.047-1.448-.1-.727-.067-1.549-.143-2.338-.143-1.843,0-2.9.441-3.218,1.35a11.474,11.474,0,0,0-.19,4.493c.05.586.1,1.151.109,1.667.055,2.536-.012,5.126-.076,7.63a109.4,109.4,0,0,0,.089,11.15.54.54,0,0,0,.045.176l.042.114a.627.627,0,0,0,.6.388l2.721,0,10.145,0a.7.7,0,0,0,.687-.685q.02-3.371.065-6.739c.039-3.488.079-6.976.07-10.462,0-.577.01-1.163.022-1.756a29.2,29.2,0,0,0-.173-4.9c-.322-2.127-2.08-2.4-3.575-2.4" transform="translate(7.093 9.423)"/><path class="c" d="M389.446,272.676c.007-.243-.007-.53-.02-.833a5.853,5.853,0,0,1,.107-1.915.957.957,0,0,0,.067-.488,2.847,2.847,0,0,1,.361-.23,1.671,1.671,0,0,1,.812-.143c.306,0,.633.03.921.055.233.02.441.039.6.039.438,0,1.1-.069,1.865-.148,1.046-.109,2.348-.243,3.521-.243,1.872,0,2.961.336,3.33,1.026.452.846.321,2.647.217,4.1-.039.542-.074,1.029-.074,1.393.008,2.39-.023,4.779-.059,7.169l-.051,3.337a3.928,3.928,0,0,0,.025.4,1.984,1.984,0,0,1-.059.962c-.074.141-.133.255-.173.255h0a1.171,1.171,0,0,0-.472-.084,2.558,2.558,0,0,0-.3.02,30.692,30.692,0,0,1-3.745.2c-1.269,0-2.553-.05-3.825-.1-1.014-.039-2.019-.077-3.006-.091-.307-4.935-.168-10.109-.045-14.678m13.063-.972a5.925,5.925,0,0,0-.435-3.149c-.487-.747-1.477-1.111-3.026-1.111-.656,0-1.308.06-1.882.114-.314.03-.6.057-.837.069l-.906.047c-1.026.055-2.086.111-3.14.112-.238,0-.51-.022-.8-.045-.326-.025-.67-.054-1-.054a2.967,2.967,0,0,0-1.187.195c-1.16.5-1.161,1.462-1.163,2.477,0,.18,0,.364-.007.551a162.946,162.946,0,0,0,.023,17.13,1.073,1.073,0,0,0,.092.3.629.629,0,0,0,.6.383l2.719,0,10.146,0a.7.7,0,0,0,.686-.686c.012-1.724.042-3.451.07-5.175.057-3.372.116-6.86.035-10.287-.007-.253,0-.549.013-.866" transform="translate(14.217 11.725)"/><path class="c" d="M399.921,282.5c.032-1.475.065-2.946.077-4.409.027-3.192,0-6.437-.025-9.572-.017-2.11-.035-4.22-.037-6.328,0-.656.022-1.316.069-1.971l.017-.257c.042-.638.042-.638.435-.658.114-.007.253-.013.426-.032a28.768,28.768,0,0,1,2.986-.136c1.044,0,2.1.037,3.135.07.69.024,1.371.047,2.036.059,2.212.042,2.362.708,2.5,2.81.055.853.072,1.707.089,2.6.1,5.364.062,10.824.022,16.1l-.094,11.8c0,.109.01.25.022.4a2.6,2.6,0,0,1-.025.915.526.526,0,0,0,0,.252,11.692,11.692,0,0,0-2.019-.284l-1.1,0-8.419,0c-.25-3.761-.166-7.625-.084-11.361m12.966-20.766c-.275-3.592-.745-3.81-4.317-3.849l-1.578-.022c-1.042-.017-2.093-.032-3.14-.032-1.073,0-2.142.017-3.194.067l-.22.008c-.717.027-1.234.047-1.633.765-.628,1.128-.443,3.045-.279,4.737.059.592.112,1.145.123,1.6.059,2.637.037,5.319.017,7.912l-.01,1.214c-.013,1.982-.064,3.976-.112,5.974a142.068,142.068,0,0,0,.131,14.443.539.539,0,0,0,.047.176l.114-.022-.076.133a.631.631,0,0,0,.6.391l2.717,0,10.15,0a.7.7,0,0,0,.686-.686c.017-3.307.1-6.694.18-9.968.183-7.518.371-15.292-.206-22.846" transform="translate(21.31 5.205)"/><path class="c" d="M406.855,267.492a.621.621,0,0,0,.467-.2,150.257,150.257,0,0,1,16.222-14.46l-.039.19a13.256,13.256,0,0,0-.337,2.308.634.634,0,0,0,.173.472.7.7,0,0,0,.5.2.674.674,0,0,0,.7-.665,12.772,12.772,0,0,1,.329-2.219,12.676,12.676,0,0,0,.334-2.268.679.679,0,0,0-.2-.483.688.688,0,0,0-.493-.208h0a18.146,18.146,0,0,0-4.926.923.678.678,0,0,0-.467.777.645.645,0,0,0,.621.581.747.747,0,0,0,.222-.037,18.159,18.159,0,0,1,2.78-.685c-4.74,3.741-8.518,6.957-11.862,10.1-.416.389-.817.809-1.222,1.23a20.83,20.83,0,0,1-1.971,1.885,2.376,2.376,0,0,1-1.472.661,4.254,4.254,0,0,1-1.61-.51l-.425-.188c-2.529-1.1-5.111-2.18-7.671-3.209-.547-.222-1.143-.5-1.764-.8a13.847,13.847,0,0,0-5.168-1.682c-1.5,0-2.811,1.193-3.968,2.247-.3.274-.586.535-.861.76-4.492,3.691-9.089,7.664-13.666,11.811a.6.6,0,0,0-.176.688.761.761,0,0,0,.683.477.676.676,0,0,0,.458-.185c4.7-4.26,9.433-8.345,14.067-12.142a6.7,6.7,0,0,1,4.208-1.789,4.824,4.824,0,0,1,1.749.334q2.284.876,4.554,1.794c3.156,1.276,6.383,2.652,9.869,4.208a.924.924,0,0,0,.358.079" transform="translate(2.652 0)"/><path class="c" d="M400.9,266.879a.651.651,0,0,0,.488-.2.593.593,0,0,0,.139-.472l-.012-.119c-.31-2.961-.216-4.74.277-5.289a.424.424,0,0,1,.326-.154v-.1l.01,0,.111.111a.587.587,0,0,0,.6-.6.73.73,0,0,0-.651-.779c-.1-.008-.186-.013-.275-.013-.974,0-1.558.557-1.736,1.658a20.964,20.964,0,0,0-.022,5.311.729.729,0,0,0,.745.651" transform="translate(22.416 6.172)"/><path class="c" d="M402.685,260.669a.64.64,0,0,0,.5-.218.719.719,0,0,0,.166-.468.657.657,0,0,0-.668-.686.635.635,0,0,0-.5.218.716.716,0,0,0-.166.468.657.657,0,0,0,.668.687" transform="translate(23.787 6.197)"/></g></g></svg>