<svg xmlns="http://www.w3.org/2000/svg" width="96" height="77" viewBox="0 0 96 77"><defs><style>.a{fill:#fff;}.b{fill:none;}</style></defs><g transform="translate(-576 -2150)"><g transform="translate(598.574 2161)"><ellipse class="a" cx="1.5" cy="1" rx="1.5" ry="1" transform="translate(36.426 6)"/><circle class="a" cx="1" cy="1" r="1" transform="translate(30.426 6)"/><path class="a" d="M47.408,24.708H44.8V19.686a1,1,0,0,0-1-1H41.783v-4.62h2.009a1,1,0,0,0,1-1V7.031a1,1,0,0,0-.294-.71L38.476.294A1,1,0,0,0,37.766,0H13.66a1,1,0,0,0-.71.294L6.923,6.321a1,1,0,0,0-.294.71v6.026a1,1,0,0,0,1,1H9.642v4.62H7.634a1,1,0,0,0-1,1v5.022H4.018A4.022,4.022,0,0,0,0,28.726v21.7a1,1,0,0,0,1,1H7.634a1,1,0,0,0,1-1V47.81H21.193a1,1,0,0,0,0-2.009H8.638V41.783h34.15V45.8H30.233a1,1,0,0,0,0,2.009H42.788v2.611a1,1,0,0,0,1,1h6.629a1,1,0,0,0,1-1v-21.7A4.022,4.022,0,0,0,47.408,24.708ZM6.629,49.417H2.009V28.726a2.011,2.011,0,0,1,2.009-2.009H6.629ZM8.638,12.053V7.447l5.438-5.438H37.35l5.438,5.438v4.606Zm31.137,2.009v4.62H11.651v-4.62ZM22.7,39.775a2.011,2.011,0,0,1-2.009-2.009,10.061,10.061,0,0,1,.758-3.136c.6-1.473,1.129-1.857,1.251-1.885.122.029.653.413,1.251,1.885a10.061,10.061,0,0,1,.758,3.136A2.011,2.011,0,0,1,22.7,39.775Zm6.026,0a2.011,2.011,0,0,1-2.009-2.009,10.061,10.061,0,0,1,.758-3.136c.6-1.473,1.129-1.857,1.251-1.885.122.029.653.413,1.251,1.885a10.061,10.061,0,0,1,.758,3.136A2.011,2.011,0,0,1,28.726,39.775Zm8.035,0H32.2a3.992,3.992,0,0,0,.54-2.009,12.034,12.034,0,0,0-.961-4.026c-.837-1.994-1.866-3-3.057-3-1.171,0-2.184.977-3.013,2.9-.829-1.926-1.843-2.9-3.013-2.9-1.191,0-2.22,1.011-3.057,3a12.034,12.034,0,0,0-.961,4.026,3.992,3.992,0,0,0,.54,2.009H14.664V26.717h22.1Zm6.026,0H38.77V25.713a1,1,0,0,0-1-1H13.66a1,1,0,0,0-1,1V39.775H8.638V20.691h34.15Zm6.629,9.642H44.8v-22.7h2.611a2.011,2.011,0,0,1,2.009,2.009Z"/><ellipse class="a" cx="1.5" cy="1" rx="1.5" ry="1" transform="translate(24.426 46)"/></g><rect class="b" width="96" height="77" transform="translate(576 2150)"/></g></svg>