<?xml version="1.0" encoding="UTF-8"?>
<svg id="Capa_1" data-name="Capa 1" xmlns="http://www.w3.org/2000/svg" viewBox="0 0 85.04 85.04">
  <defs>
    <style>
      .cls-1 {
        fill: #fff;
        stroke-width: 0px;
      }
    </style>
  </defs>
  <path class="cls-1" d="m44.56,79.03c-1.24,1.38-2.75,1.73-4.45,1.73-9.35-.03-18.7-.01-28.05-.01-3.37,0-5.29-1.93-5.29-5.32v-28.34c0-3.29,1.94-5.23,5.22-5.23,4.3,0,8.61,0,12.91,0h.94c-.9-1.46-.75-2.97-.75-4.46,0-9.05,0-18.11,0-27.16,0-2.62,1.55-4.55,4-5,.36-.07.73-.07,1.1-.07,9.57,0,19.14,0,28.71,0,3.07,0,5.1,2.01,5.1,5.07,0,9.59.02,19.19-.02,28.78,0,.91-.31,1.82-.49,2.83h.7c4.31,0,8.61,0,12.92,0,3.28,0,5.22,1.95,5.22,5.23,0,9.47,0,18.94,0,28.41,0,3.28-1.96,5.24-5.22,5.24-9.37,0-18.75-.02-28.12.01-1.71,0-3.21-.35-4.45-1.73m.03-71.65h-14.17c-2.15,0-3.11.95-3.11,3.1,0,7.18,0,14.37,0,21.55,0,2.36,0,4.72,0,7.09,0,1.24.6,2.19,1.66,2.53.5.16,1.06.2,1.59.2,7.01.01,14.02,0,21.03.01.91,0,1.37.37,1.38,1.08.01.7-.45,1.12-1.34,1.13-1.01.02-2.02,0-3.03,0-1.98,0-2.95.96-2.95,2.94,0,9.52,0,19.04,0,28.56,0,1.97.99,2.95,2.94,2.95h28.49c2.06,0,3.02-.97,3.02-3.02,0-9.47,0-18.94,0-28.41,0-2.07-.95-3.01-3.02-3.01-6.49,0-12.99,0-19.48,0-.27,0-.54.01-.81-.02-.7-.07-1.14-.52-1.13-1.12.01-.6.47-1.05,1.17-1.07.66-.02,1.33,0,1.99-.01,1.97-.02,2.96-1.01,2.96-2.96,0-9.52,0-19.04,0-28.56,0-1.95-1.01-2.94-2.96-2.95-4.75,0-9.5,0-14.24,0M8.99,61.26c0,4.77,0,9.55,0,14.32,0,1.96.99,2.95,2.95,2.95,9.52,0,19.04,0,28.56,0,1.96,0,2.94-.98,2.95-2.95,0-9.52,0-19.04,0-28.56,0-1.98-.97-2.94-2.95-2.94-9.52,0-19.04,0-28.56,0-1.98,0-2.95.97-2.95,2.94,0,4.75,0,9.5,0,14.24"/>
  <path class="cls-1" d="m52.42,33.12c-.05.64-.32,1.02-.87,1.13-.58.11-1.03-.1-1.25-.66-.4-1-.79-2.01-1.15-3.03-.14-.4-.33-.57-.79-.57-2.6.02-5.21.02-7.82,0-.48,0-.7.17-.84.6-.32.93-.68,1.84-1.04,2.75-.31.81-.87,1.11-1.53.87-.62-.24-.84-.88-.53-1.67,2.12-5.57,4.24-11.14,6.36-16.72.27-.71.71-1.19,1.51-1.19.79,0,1.23.49,1.5,1.2,2.09,5.56,4.19,11.11,6.28,16.67.09.23.14.47.18.62m-4.34-5.37c-1.2-3.18-2.38-6.3-3.62-9.6-1.26,3.3-2.44,6.42-3.65,9.6h7.28Z"/>
  <path class="cls-1" d="m63.44,70.97c-4.89.02-8.93-3.87-9.24-8.9-.29-4.72,3.42-9.02,8.21-9.56,2.13-.24,4.1.22,5.92,1.33.74.45.97,1.06.64,1.65-.34.61-1.01.7-1.79.25-4.28-2.5-9.45-.34-10.58,4.42-1.2,5.06,3.67,9.81,8.59,8.31.87-.27,1.67-.9,2.4-1.49.7-.55,1.23-.71,1.75-.23.5.46.47,1.13-.1,1.76-1.56,1.7-3.53,2.42-5.79,2.47"/>
  <path class="cls-1" d="m30.72,60.64c.2.15.39.3.58.44,1.81,1.4,2.57,3.68,1.96,5.85-.62,2.16-2.41,3.78-4.65,3.93-2.03.14-4.08.1-6.11.1-.76,0-1.16-.43-1.18-1.22-.03-1.08-.01-2.16-.01-3.24,0-4.13,0-8.26,0-12.39,0-1.39.3-1.68,1.69-1.68,1.18,0,2.36.02,3.54,0,2.17-.05,3.92.7,4.93,2.69.99,1.96.62,3.8-.75,5.51m-7.12,1.55v6.52c1.61,0,3.16.08,4.7-.02,1.71-.12,2.94-1.53,2.96-3.19.02-1.68-1.24-3.16-2.96-3.28-1.54-.1-3.08-.02-4.69-.02m-.07-2.24c1.26,0,2.41.01,3.56,0,1.48-.02,2.61-1.07,2.69-2.48.08-1.43-.98-2.67-2.47-2.77-1.1-.07-2.21-.04-3.31,0-.16,0-.44.25-.45.39-.03,1.59-.02,3.18-.02,4.87"/>
</svg>