<?xml version="1.0" encoding="utf-8"?>
<!-- Generator: Adobe Illustrator 25.4.1, SVG Export Plug-In . SVG Version: 6.00 Build 0)  -->
<svg version="1.1" id="Layer_1" xmlns="http://www.w3.org/2000/svg" xmlns:xlink="http://www.w3.org/1999/xlink" x="0px" y="0px"
	 viewBox="0 0 204 111" style="enable-background:new 0 0 204 111;" xml:space="preserve">
<style type="text/css">
	.st0{fill:#404041;}
	.st1{fill:#E07C00;}
	.st2{fill:#6D6E70;}
</style>
<g>
	<g>
		<polygon class="st0" points="9,86.3 29.8,104.3 29.8,10.7 9,10.7 		"/>
		<polygon class="st1" points="97.3,39 97.3,24.9 29.8,24.9 29.8,38.8 29.8,90.3 29.8,100.2 29.8,104.4 97.3,104.4 97.3,90.4 
			97.3,90.3 90.4,90.3 90.4,97.4 36.8,97.4 36.8,90.3 36.8,31.8 90.4,31.8 90.4,39 		"/>
		<polygon class="st2" points="8.9,10.6 72.6,10.7 97.3,24.9 30,24.9 		"/>
	</g>
	<g>
		<path class="st0" d="M85.3,71.2c0,1.7-0.3,3.2-1,4.3c-0.7,1.2-1.6,2.1-2.7,2.8c-1.1,0.7-2.4,1.2-3.8,1.5c-1.4,0.3-2.9,0.5-4.4,0.5
			H60.8V48.9h12.5c1.2,0,2.5,0.1,3.7,0.4c1.3,0.3,2.4,0.7,3.5,1.3S82.4,52,83,53c0.7,1,1,2.3,1,3.9c0,1.7-0.5,3.2-1.4,4.3
			c-0.9,1.1-2.2,2-3.7,2.5v0.1c0.9,0.1,1.7,0.4,2.5,0.8c0.8,0.4,1.5,0.9,2,1.5s1,1.3,1.4,2.2C85.1,69.2,85.3,70.1,85.3,71.2z
			 M76.7,58c0-1.1-0.4-1.8-1.2-2.3c-0.8-0.5-2-0.7-3.6-0.7h-3.7v6.5h4.1c1.4,0,2.5-0.3,3.3-0.9C76.3,60,76.7,59.1,76.7,58z
			 M77.7,70.4c0-1.3-0.5-2.2-1.5-2.7c-1-0.5-2.3-0.8-3.9-0.8h-4.2v7.2h4.3c0.6,0,1.2-0.1,1.8-0.2c0.6-0.1,1.2-0.3,1.7-0.6
			c0.5-0.3,0.9-0.6,1.3-1.1C77.6,71.8,77.7,71.2,77.7,70.4z"/>
		<path class="st0" d="M107.1,80.3l-6.8-12.5h-2.6v12.5h-7.4V48.9h12c1.5,0,3,0.2,4.4,0.5s2.7,0.8,3.9,1.6c1.1,0.7,2,1.7,2.7,2.9
			c0.7,1.2,1,2.7,1,4.5c0,2.1-0.6,3.9-1.7,5.4c-1.2,1.4-2.7,2.5-4.8,3.1l8.2,13.4H107.1z M106.8,58.5c0-0.7-0.2-1.3-0.5-1.8
			c-0.3-0.5-0.7-0.8-1.2-1.1c-0.5-0.2-1-0.4-1.6-0.5c-0.6-0.1-1.2-0.1-1.8-0.1h-4.1v7.3h3.6c0.6,0,1.3-0.1,1.9-0.2s1.2-0.3,1.8-0.6
			c0.5-0.3,1-0.6,1.3-1.2C106.6,60,106.8,59.3,106.8,58.5z"/>
		<path class="st0" d="M119.7,80.3V48.9h7.6v31.4H119.7z"/>
		<path class="st0" d="M156.3,79.7c-2,0.9-4.4,1.4-7,1.4c-2.4,0-4.7-0.4-6.7-1.2s-3.8-1.9-5.3-3.4s-2.7-3.2-3.5-5.3
			c-0.9-2-1.3-4.3-1.3-6.7c0-2.5,0.4-4.8,1.3-6.8c0.9-2,2.1-3.8,3.6-5.2c1.5-1.4,3.3-2.5,5.4-3.3c2.1-0.8,4.3-1.2,6.7-1.2
			c2.2,0,4.4,0.4,6.5,1.2s3.9,1.9,5.2,3.4l-5.1,5.1c-0.7-1-1.6-1.7-2.8-2.2s-2.3-0.7-3.5-0.7c-1.3,0-2.5,0.2-3.7,0.7
			c-1.1,0.5-2.1,1.2-2.9,2s-1.4,1.9-1.9,3c-0.4,1.2-0.7,2.4-0.7,3.8c0,1.4,0.2,2.7,0.7,3.9c0.4,1.2,1.1,2.2,1.8,3
			c0.8,0.8,1.7,1.5,2.8,2c1.1,0.5,2.3,0.7,3.6,0.7c1.5,0,2.8-0.3,3.9-0.9c1.1-0.6,2-1.4,2.7-2.3l5.3,5
			C160,77.5,158.3,78.8,156.3,79.7z"/>
		<path class="st0" d="M183.8,80.3l-11.7-14.5h-0.1v14.5h-7.4V48.9h7.4v12.8h0.1l11.2-12.8h9.5l-13.5,14.5l14.3,16.9H183.8z"/>
	</g>
	<g>
		<path class="st1" d="M115.7,104.5c-1.1,0-2.1-0.2-3-0.5c-1-0.3-1.8-0.8-2.5-1.5l1.8-2.2c1.2,1,2.5,1.4,3.9,1.4
			c0.4,0,0.8-0.1,1-0.2c0.2-0.1,0.3-0.3,0.3-0.6v0c0-0.1,0-0.2-0.1-0.3s-0.2-0.2-0.3-0.3c-0.2-0.1-0.4-0.2-0.6-0.3
			c-0.3-0.1-0.6-0.2-1-0.3c-0.6-0.1-1.2-0.3-1.8-0.5c-0.5-0.2-1-0.4-1.4-0.7c-0.4-0.3-0.7-0.6-1-1c-0.2-0.4-0.3-0.9-0.3-1.5v0
			c0-0.6,0.1-1.1,0.3-1.5s0.5-0.9,0.9-1.2c0.4-0.3,0.9-0.6,1.5-0.8c0.6-0.2,1.2-0.3,1.9-0.3c1,0,1.9,0.1,2.7,0.4
			c0.8,0.3,1.5,0.7,2.2,1.2l-1.6,2.3c-0.5-0.4-1.1-0.7-1.7-0.9c-0.6-0.2-1.1-0.3-1.7-0.3c-0.4,0-0.7,0.1-0.9,0.2
			c-0.2,0.1-0.3,0.3-0.3,0.5v0c0,0.1,0,0.3,0.1,0.4s0.2,0.2,0.3,0.3c0.2,0.1,0.4,0.2,0.6,0.3c0.3,0.1,0.6,0.2,1,0.3
			c0.7,0.1,1.3,0.3,1.8,0.5c0.5,0.2,1,0.4,1.4,0.7s0.7,0.6,0.9,1c0.2,0.4,0.3,0.9,0.3,1.4v0c0,0.6-0.1,1.2-0.3,1.6s-0.6,0.9-1,1.2
			s-0.9,0.6-1.5,0.8S116.4,104.5,115.7,104.5z"/>
		<path class="st1" d="M125,95.3h-3.6v-2.9h10.4v2.9h-3.6v9H125V95.3z"/>
		<path class="st1" d="M139.2,104.5c-0.9,0-1.8-0.2-2.5-0.5c-0.8-0.3-1.5-0.8-2-1.3c-0.6-0.6-1-1.2-1.3-2c-0.3-0.7-0.5-1.5-0.5-2.4
			v0c0-0.8,0.2-1.6,0.5-2.4c0.3-0.8,0.8-1.4,1.3-2c0.6-0.6,1.3-1,2-1.3c0.8-0.3,1.6-0.5,2.5-0.5s1.8,0.2,2.5,0.5
			c0.8,0.3,1.5,0.8,2,1.3c0.6,0.6,1,1.2,1.3,2s0.5,1.5,0.5,2.4v0c0,0.8-0.2,1.6-0.5,2.4s-0.8,1.4-1.3,2c-0.6,0.6-1.3,1-2,1.3
			C141,104.4,140.1,104.5,139.2,104.5z M139.3,101.6c0.5,0,0.9-0.1,1.2-0.3c0.4-0.2,0.7-0.4,1-0.7c0.3-0.3,0.5-0.6,0.6-1
			c0.1-0.4,0.2-0.8,0.2-1.2v0c0-0.4-0.1-0.8-0.2-1.2c-0.1-0.4-0.4-0.7-0.6-1c-0.3-0.3-0.6-0.5-1-0.7c-0.4-0.2-0.8-0.3-1.2-0.3
			c-0.5,0-0.9,0.1-1.2,0.3c-0.4,0.2-0.7,0.4-1,0.7s-0.5,0.6-0.6,1c-0.1,0.4-0.2,0.8-0.2,1.2v0c0,0.4,0.1,0.8,0.2,1.2
			c0.1,0.4,0.4,0.7,0.6,1c0.3,0.3,0.6,0.5,1,0.7S138.8,101.6,139.3,101.6z"/>
		<path class="st1" d="M147.4,92.4h5.6c0.9,0,1.7,0.1,2.3,0.3c0.6,0.2,1.1,0.5,1.5,1c0.7,0.7,1.1,1.6,1.1,2.8v0
			c0,0.9-0.2,1.7-0.7,2.3c-0.4,0.6-1,1.1-1.8,1.4l2.8,4.1h-3.8l-2.4-3.6h0h-1.4v3.6h-3.3V92.4z M152.8,98.1c0.6,0,1-0.1,1.3-0.4
			c0.3-0.3,0.5-0.6,0.5-1v0c0-0.5-0.2-0.8-0.5-1.1c-0.3-0.2-0.8-0.3-1.3-0.3h-2.2v2.9H152.8z"/>
		<path class="st1" d="M163.7,92.3h3.2l5.1,12h-3.5l-0.9-2.1h-4.6l-0.8,2.1h-3.5L163.7,92.3z M166.5,99.6l-1.3-3.4l-1.3,3.4H166.5z"
			/>
		<path class="st1" d="M179.1,104.5c-0.9,0-1.8-0.1-2.6-0.4s-1.5-0.7-2-1.3s-1-1.2-1.4-1.9c-0.3-0.8-0.5-1.6-0.5-2.5v0
			c0-0.9,0.2-1.7,0.5-2.4c0.3-0.8,0.8-1.4,1.3-2c0.6-0.6,1.2-1,2-1.3c0.8-0.3,1.6-0.5,2.6-0.5c1.1,0,2,0.2,2.7,0.5s1.5,0.7,2.1,1.3
			l-1.9,2.3c-0.4-0.4-0.9-0.6-1.3-0.8s-1-0.3-1.6-0.3c-0.4,0-0.8,0.1-1.2,0.3c-0.4,0.2-0.7,0.4-1,0.7s-0.5,0.6-0.6,1
			c-0.2,0.4-0.2,0.8-0.2,1.3v0c0,0.5,0.1,0.9,0.2,1.3c0.2,0.4,0.4,0.8,0.7,1c0.3,0.3,0.6,0.5,1,0.7c0.4,0.2,0.8,0.2,1.3,0.2
			c0.8,0,1.4-0.2,1.9-0.5v-1.4h-2.3v-2.4h5.5v5.3c-0.6,0.5-1.4,1-2.2,1.3S180.2,104.5,179.1,104.5z"/>
		<path class="st1" d="M186.1,92.4h9.5v2.8h-6.3V97h5.7v2.6h-5.7v1.9h6.4v2.8h-9.6V92.4z"/>
	</g>
</g>
</svg>
