<?xml version="1.0" encoding="utf-8"?>
<!-- Generator: Adobe Illustrator 25.4.1, SVG Export Plug-In . SVG Version: 6.00 Build 0)  -->
<svg version="1.1" id="TEXTOS" xmlns="http://www.w3.org/2000/svg" xmlns:xlink="http://www.w3.org/1999/xlink" x="0px" y="0px"
	 viewBox="0 0 651.3 185.9" style="enable-background:new 0 0 651.3 185.9;" xml:space="preserve">
<style type="text/css">
	.st0{fill:#8CC63F;}
	.st1{fill:#FFFFFF;}
</style>
<g>
	<path class="st0" d="M5.4,123.8h3l7,18h0.1l7.2-18h2.8l-8.9,21.9H14L5.4,123.8z"/>
	<path class="st0" d="M28.6,123.8h2.7v21.9h-2.7V123.8z"/>
	<path class="st0" d="M48.3,127.7c-0.4-0.7-1-1.2-1.8-1.5c-0.7-0.3-1.5-0.5-2.3-0.5c-0.6,0-1.2,0.1-1.8,0.2
		c-0.6,0.1-1.1,0.4-1.5,0.7c-0.5,0.3-0.8,0.7-1.1,1.1c-0.3,0.5-0.4,1-0.4,1.7c0,0.5,0.1,0.9,0.2,1.3c0.2,0.4,0.4,0.7,0.8,1
		c0.4,0.3,0.9,0.6,1.5,0.9c0.6,0.3,1.4,0.5,2.3,0.8c0.9,0.3,1.7,0.6,2.5,0.9c0.8,0.3,1.5,0.7,2.2,1.2c0.6,0.5,1.1,1.1,1.5,1.8
		s0.6,1.6,0.6,2.7c0,1.1-0.2,2-0.7,2.9c-0.4,0.8-1,1.5-1.8,2c-0.7,0.5-1.6,0.9-2.5,1.2s-2,0.4-3,0.4c-0.7,0-1.3-0.1-2-0.2
		c-0.7-0.1-1.3-0.3-1.9-0.5c-0.6-0.2-1.2-0.5-1.7-0.9c-0.5-0.4-1-0.9-1.4-1.4l2.3-1.8c0.5,0.8,1.2,1.4,2,1.8
		c0.9,0.4,1.8,0.6,2.8,0.6c0.6,0,1.2-0.1,1.7-0.2c0.6-0.2,1.1-0.4,1.6-0.7c0.5-0.3,0.9-0.7,1.2-1.2c0.3-0.5,0.4-1,0.4-1.6
		c0-0.7-0.1-1.2-0.4-1.7c-0.2-0.4-0.6-0.8-1.1-1.1s-1.1-0.6-1.9-0.8c-0.7-0.2-1.6-0.5-2.6-0.9c-0.8-0.2-1.6-0.5-2.2-0.9
		s-1.3-0.7-1.8-1.2s-0.9-1-1.2-1.7s-0.4-1.4-0.4-2.3c0-1.1,0.2-2,0.6-2.8c0.4-0.8,1-1.4,1.7-2c0.7-0.5,1.5-0.9,2.5-1.2
		c0.9-0.3,1.9-0.4,2.9-0.4c1.3,0,2.4,0.2,3.5,0.6s2,1,2.8,2L48.3,127.7z"/>
	<path class="st0" d="M56,123.8h2.7v21.9H56V123.8z"/>
	<path class="st0" d="M80.2,126.2h-7.5v19.5H70v-19.5h-7.5v-2.4h17.6V126.2z"/>
	<path class="st0" d="M88.4,123.8h2.5l9.6,21.9h-3.1l-2.3-5.4H83.8l-2.3,5.4h-3L88.4,123.8z M89.6,127.1L89.6,127.1l-4.8,10.8h9.2
		L89.6,127.1z"/>
	<path class="st0" d="M113.7,123.8h3.4l13.1,18.2h0.1v-18.2h2.7v21.9h-3.4l-13.1-18.2h-0.1v18.2h-2.7V123.8z"/>
	<path class="st0" d="M156.2,137.4c0,1.2-0.2,2.3-0.5,3.4c-0.3,1.1-0.8,2-1.5,2.8c-0.7,0.8-1.6,1.5-2.6,2s-2.4,0.7-4,0.7
		s-2.9-0.2-4-0.7c-1.1-0.5-2-1.1-2.6-2c-0.7-0.8-1.2-1.8-1.5-2.8c-0.3-1.1-0.5-2.2-0.5-3.4v-13.6h2.7V137c0,0.9,0.1,1.7,0.3,2.6
		c0.2,0.8,0.5,1.6,1,2.2c0.4,0.6,1,1.2,1.8,1.5c0.7,0.4,1.7,0.6,2.8,0.6s2.1-0.2,2.8-0.6c0.7-0.4,1.3-0.9,1.8-1.5
		c0.4-0.6,0.8-1.4,1-2.2c0.2-0.8,0.3-1.7,0.3-2.6v-13.2h2.7V137.4z"/>
	<path class="st0" d="M162.3,123.8h14.2v2.4H165v6.9h10.8v2.4H165v7.8h12.1v2.4h-14.8V123.8z"/>
	<path class="st0" d="M192.7,127.7c-0.4-0.7-1-1.2-1.8-1.5c-0.7-0.3-1.5-0.5-2.3-0.5c-0.6,0-1.2,0.1-1.8,0.2
		c-0.6,0.1-1.1,0.4-1.5,0.7c-0.5,0.3-0.8,0.7-1.1,1.1c-0.3,0.5-0.4,1-0.4,1.7c0,0.5,0.1,0.9,0.2,1.3c0.2,0.4,0.4,0.7,0.8,1
		c0.4,0.3,0.9,0.6,1.5,0.9c0.6,0.3,1.4,0.5,2.3,0.8c0.9,0.3,1.7,0.6,2.5,0.9c0.8,0.3,1.5,0.7,2.2,1.2c0.6,0.5,1.1,1.1,1.5,1.8
		s0.6,1.6,0.6,2.7c0,1.1-0.2,2-0.7,2.9c-0.4,0.8-1,1.5-1.8,2c-0.7,0.5-1.6,0.9-2.5,1.2s-2,0.4-3,0.4c-0.7,0-1.3-0.1-2-0.2
		c-0.7-0.1-1.3-0.3-1.9-0.5c-0.6-0.2-1.2-0.5-1.7-0.9c-0.5-0.4-1-0.9-1.4-1.4l2.3-1.8c0.5,0.8,1.2,1.4,2,1.8
		c0.9,0.4,1.8,0.6,2.8,0.6c0.6,0,1.2-0.1,1.7-0.2c0.6-0.2,1.1-0.4,1.6-0.7c0.5-0.3,0.9-0.7,1.2-1.2c0.3-0.5,0.4-1,0.4-1.6
		c0-0.7-0.1-1.2-0.4-1.7c-0.2-0.4-0.6-0.8-1.1-1.1s-1.1-0.6-1.9-0.8c-0.7-0.2-1.6-0.5-2.6-0.9c-0.8-0.2-1.6-0.5-2.2-0.9
		s-1.3-0.7-1.8-1.2s-0.9-1-1.2-1.7s-0.4-1.4-0.4-2.3c0-1.1,0.2-2,0.6-2.8c0.4-0.8,1-1.4,1.7-2c0.7-0.5,1.5-0.9,2.5-1.2
		c0.9-0.3,1.9-0.4,2.9-0.4c1.3,0,2.4,0.2,3.5,0.6s2,1,2.8,2L192.7,127.7z"/>
	<path class="st0" d="M215.6,126.2h-7.5v19.5h-2.7v-19.5h-7.5v-2.4h17.6V126.2z"/>
	<path class="st0" d="M219.4,123.8h5.8c1.1,0,2.2,0.1,3.2,0.2c1.1,0.1,2,0.4,2.9,0.8c0.9,0.4,1.5,1,2.1,1.8c0.5,0.8,0.8,1.9,0.8,3.2
		c0,1.6-0.5,2.9-1.5,3.9c-1,1-2.4,1.6-4.2,1.9l6.4,10.1h-3.3l-6.1-9.9H222v9.9h-2.7V123.8z M222,133.5h2.4c0.7,0,1.5,0,2.3-0.1
		c0.8,0,1.5-0.2,2.2-0.4c0.7-0.2,1.2-0.6,1.7-1.1c0.4-0.5,0.7-1.2,0.7-2.1c0-0.8-0.2-1.4-0.5-1.9c-0.3-0.5-0.7-0.8-1.3-1.1
		c-0.5-0.3-1.1-0.4-1.8-0.5c-0.7-0.1-1.3-0.1-2-0.1H222V133.5z"/>
	<path class="st0" d="M246.9,123.8h2.5l9.6,21.9h-3.1l-2.3-5.4h-11.3l-2.3,5.4h-3L246.9,123.8z M248.1,127.1L248.1,127.1l-4.8,10.8
		h9.2L248.1,127.1z"/>
	<path class="st0" d="M282.9,127.7c-0.4-0.7-1-1.2-1.8-1.5c-0.7-0.3-1.5-0.5-2.3-0.5c-0.6,0-1.2,0.1-1.8,0.2
		c-0.6,0.1-1.1,0.4-1.5,0.7c-0.5,0.3-0.8,0.7-1.1,1.1c-0.3,0.5-0.4,1-0.4,1.7c0,0.5,0.1,0.9,0.2,1.3c0.2,0.4,0.4,0.7,0.8,1
		c0.4,0.3,0.9,0.6,1.5,0.9c0.6,0.3,1.4,0.5,2.3,0.8c0.9,0.3,1.7,0.6,2.5,0.9c0.8,0.3,1.5,0.7,2.2,1.2c0.6,0.5,1.1,1.1,1.5,1.8
		s0.6,1.6,0.6,2.7c0,1.1-0.2,2-0.7,2.9c-0.4,0.8-1,1.5-1.8,2c-0.7,0.5-1.6,0.9-2.5,1.2s-2,0.4-3,0.4c-0.7,0-1.3-0.1-2-0.2
		c-0.7-0.1-1.3-0.3-1.9-0.5c-0.6-0.2-1.2-0.5-1.7-0.9c-0.5-0.4-1-0.9-1.4-1.4l2.3-1.8c0.5,0.8,1.2,1.4,2,1.8
		c0.9,0.4,1.8,0.6,2.8,0.6c0.6,0,1.2-0.1,1.7-0.2c0.6-0.2,1.1-0.4,1.6-0.7c0.5-0.3,0.9-0.7,1.2-1.2c0.3-0.5,0.4-1,0.4-1.6
		c0-0.7-0.1-1.2-0.4-1.7c-0.2-0.4-0.6-0.8-1.1-1.1s-1.1-0.6-1.9-0.8c-0.7-0.2-1.6-0.5-2.6-0.9c-0.8-0.2-1.6-0.5-2.2-0.9
		s-1.3-0.7-1.8-1.2s-0.9-1-1.2-1.7s-0.4-1.4-0.4-2.3c0-1.1,0.2-2,0.6-2.8c0.4-0.8,1-1.4,1.7-2c0.7-0.5,1.5-0.9,2.5-1.2
		c0.9-0.3,1.9-0.4,2.9-0.4c1.3,0,2.4,0.2,3.5,0.6s2,1,2.8,2L282.9,127.7z"/>
	<path class="st0" d="M298,123.8h2.5l9.6,21.9H307l-2.3-5.4h-11.3l-2.3,5.4h-3L298,123.8z M299.2,127.1L299.2,127.1l-4.8,10.8h9.2
		L299.2,127.1z"/>
	<path class="st0" d="M313.8,123.8h2.7v19.5h10.4v2.4h-13V123.8z"/>
	<path class="st0" d="M337.7,123.8h2.5l9.6,21.9h-3.1l-2.3-5.4h-11.3l-2.3,5.4h-3L337.7,123.8z M339,127.1L339,127.1l-4.8,10.8h9.2
		L339,127.1z"/>
	<path class="st0" d="M362.6,123.8h8.7c0.7,0,1.5,0.1,2.4,0.2s1.7,0.4,2.5,0.8c0.8,0.4,1.6,0.8,2.4,1.4s1.4,1.3,2,2.1
		c0.6,0.8,1,1.8,1.4,2.8s0.5,2.3,0.5,3.6c0,1.3-0.2,2.5-0.5,3.6s-0.8,2-1.4,2.8c-0.6,0.8-1.2,1.5-2,2.1c-0.8,0.6-1.5,1-2.4,1.4
		c-0.8,0.4-1.6,0.6-2.5,0.8c-0.8,0.2-1.6,0.2-2.4,0.2h-8.7V123.8z M365.3,143.3h5.1c1.3,0,2.5-0.2,3.6-0.5c1.1-0.3,2.1-0.8,2.9-1.5
		c0.8-0.7,1.4-1.6,1.9-2.7c0.5-1.1,0.7-2.4,0.7-3.9s-0.2-2.8-0.7-3.9c-0.5-1.1-1.1-2-1.9-2.7c-0.8-0.7-1.8-1.2-2.9-1.5
		s-2.3-0.5-3.6-0.5h-5.1V143.3z"/>
	<path class="st0" d="M387.4,123.8h14.2v2.4h-11.5v6.9h10.8v2.4h-10.8v7.8h12.1v2.4h-14.8V123.8z"/>
	<path class="st0" d="M413.4,123.8h3l7,18h0.1l7.2-18h2.8l-8.9,21.9h-2.6L413.4,123.8z"/>
	<path class="st0" d="M436.7,123.8h14.2v2.4h-11.5v6.9h10.8v2.4h-10.8v7.8h12.1v2.4h-14.8V123.8z"/>
	<path class="st0" d="M456.3,123.8h3.4l13.1,18.2h0.1v-18.2h2.7v21.9h-3.4L459,127.5H459v18.2h-2.7V123.8z"/>
	<path class="st0" d="M497,126.2h-7.5v19.5h-2.7v-19.5h-7.5v-2.4H497V126.2z"/>
	<path class="st0" d="M505.2,123.8h2.5l9.6,21.9h-3.1l-2.3-5.4h-11.3l-2.3,5.4h-3L505.2,123.8z M506.4,127.1L506.4,127.1l-4.8,10.8
		h9.2L506.4,127.1z"/>
	<path class="st0" d="M531.7,127.7c-0.4-0.7-1-1.2-1.8-1.5c-0.7-0.3-1.5-0.5-2.3-0.5c-0.6,0-1.2,0.1-1.8,0.2
		c-0.6,0.1-1.1,0.4-1.5,0.7c-0.5,0.3-0.8,0.7-1.1,1.1c-0.3,0.5-0.4,1-0.4,1.7c0,0.5,0.1,0.9,0.2,1.3c0.2,0.4,0.4,0.7,0.8,1
		c0.4,0.3,0.9,0.6,1.5,0.9c0.6,0.3,1.4,0.5,2.3,0.8c0.9,0.3,1.7,0.6,2.5,0.9c0.8,0.3,1.5,0.7,2.2,1.2c0.6,0.5,1.1,1.1,1.5,1.8
		s0.6,1.6,0.6,2.7c0,1.1-0.2,2-0.7,2.9c-0.4,0.8-1,1.5-1.8,2c-0.7,0.5-1.6,0.9-2.5,1.2s-2,0.4-3,0.4c-0.7,0-1.3-0.1-2-0.2
		c-0.7-0.1-1.3-0.3-1.9-0.5c-0.6-0.2-1.2-0.5-1.7-0.9c-0.5-0.4-1-0.9-1.4-1.4l2.3-1.8c0.5,0.8,1.2,1.4,2,1.8
		c0.9,0.4,1.8,0.6,2.8,0.6c0.6,0,1.2-0.1,1.7-0.2c0.6-0.2,1.1-0.4,1.6-0.7c0.5-0.3,0.9-0.7,1.2-1.2c0.3-0.5,0.4-1,0.4-1.6
		c0-0.7-0.1-1.2-0.4-1.7c-0.2-0.4-0.6-0.8-1.1-1.1s-1.1-0.6-1.9-0.8c-0.7-0.2-1.6-0.5-2.6-0.9c-0.8-0.2-1.6-0.5-2.2-0.9
		s-1.3-0.7-1.8-1.2s-0.9-1-1.2-1.7s-0.4-1.4-0.4-2.3c0-1.1,0.2-2,0.6-2.8c0.4-0.8,1-1.4,1.7-2c0.7-0.5,1.5-0.9,2.5-1.2
		c0.9-0.3,1.9-0.4,2.9-0.4c1.3,0,2.4,0.2,3.5,0.6s2,1,2.8,2L531.7,127.7z"/>
	<path class="st0" d="M13.8,173.1l-8.4-12.5h3.4l6.4,9.9l6.6-9.9h3.2l-8.4,12.5v9.5h-2.7V173.1z"/>
	<path class="st0" d="M37.6,160.6h2.7v19.5h10.4v2.4h-13V160.6z"/>
	<path class="st0" d="M54.3,160.6h2.7v19.5h10.4v2.4h-13V160.6z"/>
	<path class="st0" d="M70.9,160.6h14.2v2.4H73.6v6.9h10.8v2.4H73.6v7.8h12.1v2.4H70.9V160.6z M78.7,154.6h3.5l-4.6,4.5h-2.3
		L78.7,154.6z"/>
	<path class="st0" d="M87.4,160.6h3l7,18h0.1l7.2-18h2.8l-8.9,21.9H96L87.4,160.6z"/>
	<path class="st0" d="M116.5,160.6h2.5l9.6,21.9h-3.1l-2.3-5.4h-11.3l-2.3,5.4h-3L116.5,160.6z M117.8,163.9L117.8,163.9l-4.8,10.8
		h9.2L117.8,163.9z"/>
	<path class="st0" d="M144.6,163h-7.5v19.5h-2.7V163h-7.5v-2.4h17.6V163z"/>
	<path class="st0" d="M148.4,160.6h14.2v2.4h-11.5v6.9h10.8v2.4h-10.8v7.8h12.1v2.4h-14.8V160.6z"/>
	<path class="st0" d="M194.5,174.2c0,1.2-0.2,2.3-0.5,3.4c-0.3,1.1-0.8,2-1.5,2.8c-0.7,0.8-1.6,1.5-2.6,2s-2.4,0.7-4,0.7
		s-2.9-0.2-4-0.7c-1.1-0.5-2-1.1-2.6-2c-0.7-0.8-1.2-1.8-1.5-2.8c-0.3-1.1-0.5-2.2-0.5-3.4v-13.6h2.7v13.2c0,0.9,0.1,1.7,0.3,2.6
		c0.2,0.8,0.5,1.6,1,2.2c0.4,0.6,1,1.2,1.8,1.5c0.7,0.4,1.7,0.6,2.8,0.6s2.1-0.2,2.8-0.6c0.7-0.4,1.3-0.9,1.8-1.5
		c0.4-0.6,0.8-1.4,1-2.2c0.2-0.8,0.3-1.7,0.3-2.6v-13.2h2.7V174.2z"/>
	<path class="st0" d="M200.7,160.6h3.4l13.1,18.2h0.1v-18.2h2.7v21.9h-3.4l-13.1-18.2h-0.1v18.2h-2.7V160.6z"/>
	<path class="st0" d="M233.5,160.6h2.5l9.6,21.9h-3.1l-2.3-5.4h-11.3l-2.3,5.4h-3L233.5,160.6z M234.7,163.9L234.7,163.9l-4.8,10.8
		h9.2L234.7,163.9z"/>
	<path class="st0" d="M269.6,164.5c-0.4-0.7-1-1.2-1.8-1.5c-0.7-0.3-1.5-0.5-2.3-0.5c-0.6,0-1.2,0.1-1.8,0.2
		c-0.6,0.1-1.1,0.4-1.5,0.7c-0.5,0.3-0.8,0.7-1.1,1.1c-0.3,0.5-0.4,1-0.4,1.7c0,0.5,0.1,0.9,0.2,1.3c0.2,0.4,0.4,0.7,0.8,1
		c0.4,0.3,0.9,0.6,1.5,0.9c0.6,0.3,1.4,0.5,2.3,0.8c0.9,0.3,1.7,0.6,2.5,0.9c0.8,0.3,1.5,0.7,2.2,1.2c0.6,0.5,1.1,1.1,1.5,1.8
		s0.6,1.6,0.6,2.7c0,1.1-0.2,2-0.7,2.9c-0.4,0.8-1,1.5-1.8,2c-0.7,0.5-1.6,0.9-2.5,1.2s-2,0.4-3,0.4c-0.7,0-1.3-0.1-2-0.2
		c-0.7-0.1-1.3-0.3-1.9-0.5c-0.6-0.2-1.2-0.5-1.7-0.9c-0.5-0.4-1-0.9-1.4-1.4l2.3-1.8c0.5,0.8,1.2,1.4,2,1.8
		c0.9,0.4,1.8,0.6,2.8,0.6c0.6,0,1.2-0.1,1.7-0.2c0.6-0.2,1.1-0.4,1.6-0.7c0.5-0.3,0.9-0.7,1.2-1.2c0.3-0.5,0.4-1,0.4-1.6
		c0-0.7-0.1-1.2-0.4-1.7c-0.2-0.4-0.6-0.8-1.1-1.1s-1.1-0.6-1.9-0.8c-0.7-0.2-1.6-0.5-2.6-0.9c-0.8-0.2-1.6-0.5-2.2-0.9
		s-1.3-0.7-1.8-1.2s-0.9-1-1.2-1.7s-0.4-1.4-0.4-2.3c0-1.1,0.2-2,0.6-2.8c0.4-0.8,1-1.4,1.7-2c0.7-0.5,1.5-0.9,2.5-1.2
		c0.9-0.3,1.9-0.4,2.9-0.4c1.3,0,2.4,0.2,3.5,0.6s2,1,2.8,2L269.6,164.5z"/>
	<path class="st0" d="M294.2,174.2c0,1.2-0.2,2.3-0.5,3.4c-0.3,1.1-0.8,2-1.5,2.8c-0.7,0.8-1.6,1.5-2.6,2s-2.4,0.7-4,0.7
		s-2.9-0.2-4-0.7c-1.1-0.5-2-1.1-2.6-2c-0.7-0.8-1.2-1.8-1.5-2.8c-0.3-1.1-0.5-2.2-0.5-3.4v-13.6h2.7v13.2c0,0.9,0.1,1.7,0.3,2.6
		c0.2,0.8,0.5,1.6,1,2.2c0.4,0.6,1,1.2,1.8,1.5c0.7,0.4,1.7,0.6,2.8,0.6s2.1-0.2,2.8-0.6c0.7-0.4,1.3-0.9,1.8-1.5
		c0.4-0.6,0.8-1.4,1-2.2c0.2-0.8,0.3-1.7,0.3-2.6v-13.2h2.7V174.2z"/>
	<path class="st0" d="M316.3,165.1c-0.7-0.9-1.5-1.6-2.5-2s-2-0.7-3.1-0.7c-1.3,0-2.4,0.2-3.5,0.7c-1.1,0.5-2,1.2-2.7,2
		c-0.8,0.8-1.4,1.8-1.8,2.9c-0.4,1.1-0.6,2.3-0.6,3.5c0,1.3,0.2,2.5,0.6,3.6c0.4,1.1,1,2.1,1.8,2.9s1.7,1.5,2.7,1.9s2.2,0.7,3.5,0.7
		c1.4,0,2.6-0.3,3.7-0.8c1.1-0.5,2-1.3,2.8-2.3l2,1.6c-1,1.3-2.3,2.3-3.7,2.9c-1.4,0.6-3.1,0.9-4.9,0.9c-1.6,0-3.1-0.3-4.5-0.9
		c-1.4-0.6-2.6-1.4-3.7-2.4s-1.8-2.2-2.4-3.6s-0.9-2.9-0.9-4.6c0-1.6,0.3-3.1,0.8-4.5c0.6-1.4,1.4-2.6,2.4-3.7c1-1,2.2-1.8,3.6-2.4
		c1.4-0.6,3-0.9,4.6-0.9c1.5,0,3,0.3,4.4,0.8c1.4,0.5,2.6,1.4,3.6,2.6L316.3,165.1z"/>
	<path class="st0" d="M340.5,174.2c0,1.2-0.2,2.3-0.5,3.4c-0.3,1.1-0.8,2-1.5,2.8c-0.7,0.8-1.6,1.5-2.6,2s-2.4,0.7-4,0.7
		s-2.9-0.2-4-0.7c-1.1-0.5-2-1.1-2.6-2c-0.7-0.8-1.2-1.8-1.5-2.8c-0.3-1.1-0.5-2.2-0.5-3.4v-13.6h2.7v13.2c0,0.9,0.1,1.7,0.3,2.6
		c0.2,0.8,0.5,1.6,1,2.2c0.4,0.6,1,1.2,1.8,1.5c0.7,0.4,1.7,0.6,2.8,0.6s2.1-0.2,2.8-0.6c0.7-0.4,1.3-0.9,1.8-1.5
		c0.4-0.6,0.8-1.4,1-2.2c0.2-0.8,0.3-1.7,0.3-2.6v-13.2h2.7V174.2z"/>
	<path class="st0" d="M346.7,160.6h2.7v19.5h10.4v2.4h-13V160.6z"/>
	<path class="st0" d="M363.3,160.6h14.2v2.4H366v6.9h10.8v2.4H366v7.8h12.1v2.4h-14.8V160.6z"/>
	<path class="st0" d="M382.9,160.6h3.4l13.1,18.2h0.1v-18.2h2.7v21.9h-3.4l-13.1-18.2h-0.1v18.2h-2.7V160.6z"/>
	<path class="st0" d="M423.6,163h-7.5v19.5h-2.7V163H406v-2.4h17.6V163z"/>
	<path class="st0" d="M431.8,160.6h2.5l9.6,21.9h-3.1l-2.3-5.4h-11.3l-2.3,5.4h-3L431.8,160.6z M433.1,163.9L433.1,163.9l-4.8,10.8
		h9.2L433.1,163.9z"/>
	<path class="st0" d="M456.7,160.6h8.7c0.7,0,1.5,0.1,2.4,0.2s1.7,0.4,2.5,0.8c0.8,0.4,1.6,0.8,2.4,1.4s1.4,1.3,2,2.1
		c0.6,0.8,1,1.8,1.4,2.8s0.5,2.3,0.5,3.6c0,1.3-0.2,2.5-0.5,3.6s-0.8,2-1.4,2.8c-0.6,0.8-1.2,1.5-2,2.1c-0.8,0.6-1.5,1-2.4,1.4
		c-0.8,0.4-1.6,0.6-2.5,0.8c-0.8,0.2-1.6,0.2-2.4,0.2h-8.7V160.6z M459.4,180.1h5.1c1.3,0,2.5-0.2,3.6-0.5c1.1-0.3,2.1-0.8,2.9-1.5
		c0.8-0.7,1.4-1.6,1.9-2.7c0.5-1.1,0.7-2.4,0.7-3.9s-0.2-2.8-0.7-3.9c-0.5-1.1-1.1-2-1.9-2.7c-0.8-0.7-1.8-1.2-2.9-1.5
		s-2.3-0.5-3.6-0.5h-5.1V180.1z"/>
	<path class="st0" d="M481.5,160.6h14.2v2.4h-11.5v6.9H495v2.4h-10.8v7.8h12.1v2.4h-14.8V160.6z"/>
	<path class="st0" d="M510.6,160.6h5.8c1.1,0,2.2,0.1,3.2,0.2c1.1,0.1,2,0.4,2.9,0.8c0.9,0.4,1.5,1,2.1,1.8c0.5,0.8,0.8,1.9,0.8,3.2
		c0,1.6-0.5,2.9-1.5,3.9c-1,1-2.4,1.6-4.2,1.9l6.4,10.1h-3.3l-6.1-9.9h-3.5v9.9h-2.7V160.6z M513.3,170.3h2.4c0.7,0,1.5,0,2.3-0.1
		c0.8,0,1.5-0.2,2.2-0.4c0.7-0.2,1.2-0.6,1.7-1.1c0.4-0.5,0.7-1.2,0.7-2.1c0-0.8-0.2-1.4-0.5-1.9c-0.3-0.5-0.7-0.8-1.3-1.1
		c-0.5-0.3-1.1-0.4-1.8-0.5c-0.7-0.1-1.3-0.1-2-0.1h-3.8V170.3z"/>
	<path class="st0" d="M530.8,160.6H545v2.4h-11.5v6.9h10.8v2.4h-10.8v7.8h12.1v2.4h-14.8V160.6z"/>
	<path class="st0" d="M569.6,181c-1.3,0.7-2.7,1.2-4.1,1.5s-2.9,0.5-4.4,0.5c-1.8,0-3.4-0.3-4.9-0.8s-2.7-1.3-3.8-2.4
		c-1.1-1-1.9-2.2-2.5-3.6c-0.6-1.4-0.9-3-0.9-4.7c0-1.7,0.3-3.3,0.9-4.7c0.6-1.4,1.5-2.6,2.6-3.6c1.1-1,2.4-1.8,3.9-2.3
		c1.5-0.6,3.1-0.8,4.8-0.8c1.5,0,2.9,0.2,4.3,0.7s2.6,1.2,3.7,2.2l-2,2c-0.8-0.8-1.7-1.4-2.8-1.9s-2.2-0.7-3.4-0.7
		c-1.3,0-2.5,0.2-3.6,0.7s-2.1,1.1-2.9,1.9c-0.8,0.8-1.5,1.8-1.9,2.9c-0.5,1.1-0.7,2.3-0.7,3.7c0,1.3,0.2,2.5,0.7,3.6
		s1.1,2.1,1.9,2.9c0.8,0.8,1.8,1.5,3,1.9c1.2,0.5,2.4,0.7,3.8,0.7c0.9,0,1.9-0.1,2.9-0.3c1-0.2,1.9-0.5,2.8-0.9v-6.7h-5.2v-2.4h7.9
		V181z"/>
	<path class="st0" d="M583.3,160.6h2.5l9.6,21.9h-3.1l-2.3-5.4h-11.3l-2.3,5.4h-3L583.3,160.6z M584.5,163.9L584.5,163.9l-4.8,10.8
		h9.2L584.5,163.9z"/>
	<path class="st0" d="M599,160.6h2.7v19.5h10.4v2.4h-13V160.6z"/>
	<path class="st0" d="M626.2,183.1c-1.7,0-3.3-0.3-4.7-0.9c-1.4-0.6-2.7-1.4-3.7-2.4s-1.9-2.2-2.5-3.7c-0.6-1.4-0.9-3-0.9-4.6
		s0.3-3.2,0.9-4.6c0.6-1.4,1.4-2.6,2.5-3.7c1.1-1,2.3-1.8,3.7-2.4c1.4-0.6,3-0.9,4.7-0.9s3.3,0.3,4.7,0.9c1.4,0.6,2.7,1.4,3.7,2.4
		c1.1,1,1.9,2.2,2.5,3.7c0.6,1.4,0.9,3,0.9,4.6s-0.3,3.2-0.9,4.6c-0.6,1.4-1.4,2.6-2.5,3.7c-1.1,1-2.3,1.8-3.7,2.4
		C629.5,182.8,627.9,183.1,626.2,183.1z M626.2,180.7c1.3,0,2.5-0.2,3.6-0.7s2-1.1,2.8-2c0.8-0.8,1.4-1.8,1.8-2.9
		c0.4-1.1,0.7-2.3,0.7-3.5s-0.2-2.4-0.7-3.5c-0.4-1.1-1-2.1-1.8-2.9c-0.8-0.8-1.7-1.5-2.8-2c-1.1-0.5-2.3-0.7-3.6-0.7
		s-2.5,0.2-3.6,0.7c-1.1,0.5-2,1.1-2.8,2c-0.8,0.8-1.4,1.8-1.8,2.9c-0.4,1.1-0.7,2.3-0.7,3.5s0.2,2.4,0.7,3.5c0.4,1.1,1,2.1,1.8,2.9
		c0.8,0.8,1.7,1.5,2.8,2S624.9,180.7,626.2,180.7z"/>
	<path class="st0" d="M644.6,179c0.5,0,1,0.2,1.4,0.5c0.4,0.4,0.6,0.8,0.6,1.3c0,0.5-0.2,1-0.6,1.3s-0.8,0.5-1.3,0.5
		c-0.5,0-0.9-0.2-1.3-0.5s-0.6-0.8-0.6-1.3c0-0.5,0.2-1,0.6-1.3C643.6,179.2,644.1,179,644.6,179z"/>
</g>
<g>
	<path class="st1" d="M9.6,5.7h3.5V32h13.5v3.2h-17V5.7z"/>
	<path class="st1" d="M29.6,18.2c1-1,2.2-1.8,3.6-2.3c1.4-0.5,2.8-0.7,4.2-0.7c2.9,0,5,0.7,6.2,2c1.3,1.4,1.9,3.4,1.9,6.2v8.4
		c0,0.6,0,1.1,0.1,1.7s0.1,1.1,0.2,1.6h-3.1c-0.1-0.4-0.2-0.9-0.2-1.5c0-0.5,0-1,0-1.4h-0.1c-0.6,1-1.5,1.8-2.6,2.5
		c-1.1,0.6-2.4,1-3.9,1c-1,0-1.9-0.1-2.8-0.4c-0.9-0.2-1.6-0.6-2.3-1.1c-0.7-0.5-1.2-1.1-1.6-1.8c-0.4-0.7-0.6-1.6-0.6-2.5
		c0-1.6,0.4-2.9,1.2-3.8c0.8-0.9,1.9-1.6,3.1-2c1.2-0.4,2.6-0.7,4-0.8c1.4-0.1,2.7-0.2,3.9-0.2h1.2v-0.6c0-1.4-0.4-2.5-1.3-3.2
		c-0.8-0.7-2-1.1-3.6-1.1c-1.1,0-2.1,0.2-3.1,0.5c-1,0.3-1.9,0.9-2.7,1.6L29.6,18.2z M39,25.8c-2.1,0-3.7,0.3-5,0.9
		c-1.2,0.6-1.8,1.5-1.8,2.9c0,1.2,0.4,2.1,1.2,2.6c0.8,0.5,1.8,0.8,3.1,0.8c0.9,0,1.8-0.2,2.5-0.5c0.7-0.3,1.3-0.7,1.8-1.3
		c0.5-0.5,0.8-1.1,1.1-1.9s0.4-1.5,0.4-2.3v-1.2H39z"/>
	<path class="st1" d="M51.9,30.1c0.6,0.8,1.3,1.4,2.1,1.9c0.8,0.5,1.7,0.7,2.9,0.7c0.5,0,1-0.1,1.5-0.2c0.5-0.1,1-0.3,1.4-0.5
		c0.4-0.2,0.7-0.6,1-0.9c0.2-0.4,0.4-0.8,0.4-1.4s-0.1-1-0.4-1.3c-0.2-0.3-0.5-0.6-0.9-0.9c-0.4-0.2-0.8-0.4-1.3-0.6
		c-0.5-0.1-1-0.3-1.5-0.4c-0.9-0.2-1.8-0.4-2.6-0.7c-0.8-0.2-1.6-0.6-2.2-1s-1.1-0.9-1.5-1.6S50.1,22,50.1,21c0-0.9,0.2-1.8,0.6-2.5
		s1-1.3,1.7-1.8c0.7-0.5,1.5-0.8,2.3-1.1c0.9-0.2,1.7-0.4,2.7-0.4c1.4,0,2.7,0.3,3.9,0.8c1.2,0.6,2.1,1.5,2.8,2.7l-2.7,1.8
		c-0.4-0.7-1-1.3-1.6-1.7c-0.7-0.4-1.5-0.6-2.5-0.6c-0.4,0-0.9,0.1-1.4,0.2s-0.9,0.3-1.2,0.5c-0.4,0.2-0.7,0.5-0.9,0.9
		c-0.2,0.3-0.4,0.7-0.4,1.2c0,0.4,0.1,0.8,0.4,1.1c0.3,0.3,0.6,0.5,1.1,0.8c0.5,0.2,1,0.4,1.6,0.6c0.6,0.2,1.2,0.3,1.9,0.4
		c0.9,0.2,1.7,0.4,2.5,0.6c0.8,0.3,1.5,0.6,2,1.1c0.6,0.4,1,1,1.4,1.7c0.3,0.7,0.5,1.5,0.5,2.5c0,1.1-0.2,2.1-0.7,2.8
		c-0.4,0.8-1,1.4-1.8,1.9c-0.7,0.5-1.6,0.8-2.5,1.1c-0.9,0.2-1.9,0.3-2.9,0.3c-1.7,0-3.1-0.3-4.3-0.8c-1.2-0.5-2.3-1.5-3.3-2.9
		L51.9,30.1z"/>
	<path class="st1" d="M94.7,20.6c-0.7-0.8-1.4-1.4-2.2-1.8c-0.8-0.4-1.7-0.6-2.7-0.6c-1.1,0-2,0.2-2.9,0.6c-0.8,0.4-1.5,0.9-2.1,1.6
		c-0.5,0.7-1,1.4-1.2,2.3c-0.3,0.9-0.4,1.8-0.4,2.8c0,1,0.2,1.9,0.5,2.8c0.3,0.9,0.8,1.6,1.3,2.3c0.6,0.7,1.3,1.2,2.1,1.6
		c0.8,0.4,1.7,0.6,2.7,0.6c2.1,0,3.8-0.8,5-2.4l2.4,2.3c-0.9,1.1-2.1,1.9-3.3,2.4c-1.3,0.5-2.6,0.8-4,0.8c-1.5,0-2.9-0.2-4.1-0.8
		s-2.3-1.2-3.2-2.1c-0.9-0.9-1.6-2-2-3.2c-0.5-1.2-0.7-2.6-0.7-4.1c0-1.5,0.2-2.8,0.7-4.1c0.5-1.2,1.2-2.3,2.1-3.2
		c0.9-0.9,1.9-1.6,3.2-2.1c1.2-0.5,2.6-0.8,4.1-0.8c1.4,0,2.8,0.2,4.1,0.7c1.3,0.5,2.4,1.3,3.4,2.3L94.7,20.6z"/>
	<path class="st1" d="M99.7,25.5c0-1.5,0.3-2.9,0.8-4.2c0.5-1.2,1.2-2.3,2.2-3.2s2-1.6,3.3-2.1c1.3-0.5,2.7-0.7,4.2-0.7
		s2.9,0.2,4.2,0.7c1.3,0.5,2.4,1.2,3.3,2.1s1.6,2,2.2,3.2c0.5,1.2,0.8,2.6,0.8,4.2c0,1.5-0.3,2.9-0.8,4.2s-1.2,2.3-2.2,3.2
		c-0.9,0.9-2,1.6-3.3,2.1c-1.3,0.5-2.7,0.8-4.2,0.8s-2.9-0.2-4.2-0.8c-1.3-0.5-2.4-1.2-3.3-2.1c-0.9-0.9-1.6-2-2.2-3.2
		S99.7,27,99.7,25.5z M103.2,25.5c0,1,0.2,2,0.5,2.9c0.3,0.9,0.8,1.6,1.4,2.3c0.6,0.7,1.3,1.2,2.2,1.5c0.8,0.4,1.8,0.6,2.9,0.6
		c1.1,0,2-0.2,2.9-0.6c0.8-0.4,1.6-0.9,2.2-1.5c0.6-0.7,1.1-1.4,1.4-2.3c0.3-0.9,0.5-1.8,0.5-2.9c0-1-0.2-2-0.5-2.9
		c-0.3-0.9-0.8-1.6-1.4-2.3c-0.6-0.7-1.3-1.2-2.2-1.5c-0.8-0.4-1.8-0.6-2.9-0.6c-1.1,0-2,0.2-2.9,0.6c-0.8,0.4-1.6,0.9-2.2,1.5
		c-0.6,0.7-1.1,1.4-1.4,2.3C103.4,23.5,103.2,24.4,103.2,25.5z"/>
	<path class="st1" d="M126,30.1c0.6,0.8,1.3,1.4,2.1,1.9c0.8,0.5,1.7,0.7,2.9,0.7c0.5,0,1-0.1,1.5-0.2c0.5-0.1,1-0.3,1.4-0.5
		c0.4-0.2,0.7-0.6,1-0.9c0.2-0.4,0.4-0.8,0.4-1.4s-0.1-1-0.4-1.3c-0.2-0.3-0.5-0.6-0.9-0.9c-0.4-0.2-0.8-0.4-1.3-0.6
		c-0.5-0.1-1-0.3-1.5-0.4c-0.9-0.2-1.8-0.4-2.6-0.7c-0.8-0.2-1.6-0.6-2.2-1s-1.1-0.9-1.5-1.6s-0.6-1.5-0.6-2.5
		c0-0.9,0.2-1.8,0.6-2.5s1-1.3,1.7-1.8c0.7-0.5,1.5-0.8,2.3-1.1c0.9-0.2,1.7-0.4,2.7-0.4c1.4,0,2.7,0.3,3.9,0.8
		c1.2,0.6,2.1,1.5,2.8,2.7l-2.7,1.8c-0.4-0.7-1-1.3-1.6-1.7c-0.7-0.4-1.5-0.6-2.5-0.6c-0.4,0-0.9,0.1-1.4,0.2s-0.9,0.3-1.2,0.5
		c-0.4,0.2-0.7,0.5-0.9,0.9c-0.2,0.3-0.4,0.7-0.4,1.2c0,0.4,0.1,0.8,0.4,1.1c0.3,0.3,0.6,0.5,1.1,0.8c0.5,0.2,1,0.4,1.6,0.6
		c0.6,0.2,1.2,0.3,1.9,0.4c0.9,0.2,1.7,0.4,2.5,0.6c0.8,0.3,1.5,0.6,2,1.1c0.6,0.4,1,1,1.4,1.7s0.5,1.5,0.5,2.5
		c0,1.1-0.2,2.1-0.7,2.8c-0.4,0.8-1,1.4-1.8,1.9c-0.7,0.5-1.6,0.8-2.5,1.1c-0.9,0.2-1.9,0.3-2.9,0.3c-1.7,0-3.1-0.3-4.3-0.8
		c-1.2-0.5-2.3-1.5-3.3-2.9L126,30.1z"/>
	<path class="st1" d="M143.1,18.2c1-1,2.2-1.8,3.6-2.3c1.4-0.5,2.8-0.7,4.2-0.7c2.9,0,5,0.7,6.2,2c1.3,1.4,1.9,3.4,1.9,6.2v8.4
		c0,0.6,0,1.1,0.1,1.7s0.1,1.1,0.2,1.6h-3.1c-0.1-0.4-0.2-0.9-0.2-1.5c0-0.5,0-1,0-1.4h-0.1c-0.6,1-1.5,1.8-2.6,2.5
		c-1.1,0.6-2.4,1-3.9,1c-1,0-1.9-0.1-2.8-0.4c-0.9-0.2-1.6-0.6-2.3-1.1c-0.7-0.5-1.2-1.1-1.6-1.8c-0.4-0.7-0.6-1.6-0.6-2.5
		c0-1.6,0.4-2.9,1.2-3.8c0.8-0.9,1.9-1.6,3.1-2c1.2-0.4,2.6-0.7,4-0.8c1.4-0.1,2.7-0.2,3.9-0.2h1.2v-0.6c0-1.4-0.4-2.5-1.3-3.2
		c-0.8-0.7-2-1.1-3.6-1.1c-1.1,0-2.1,0.2-3.1,0.5c-1,0.3-1.9,0.9-2.7,1.6L143.1,18.2z M152.5,25.8c-2.1,0-3.7,0.3-5,0.9
		c-1.2,0.6-1.8,1.5-1.8,2.9c0,1.2,0.4,2.1,1.2,2.6c0.8,0.5,1.8,0.8,3.1,0.8c0.9,0,1.8-0.2,2.5-0.5c0.7-0.3,1.3-0.7,1.8-1.3
		c0.5-0.5,0.8-1.1,1.1-1.9s0.4-1.5,0.4-2.3v-1.2H152.5z"/>
	<path class="st1" d="M165.4,30.1c0.6,0.8,1.3,1.4,2.1,1.9c0.8,0.5,1.7,0.7,2.9,0.7c0.5,0,1-0.1,1.5-0.2c0.5-0.1,1-0.3,1.4-0.5
		c0.4-0.2,0.7-0.6,1-0.9c0.2-0.4,0.4-0.8,0.4-1.4s-0.1-1-0.4-1.3c-0.2-0.3-0.5-0.6-0.9-0.9c-0.4-0.2-0.8-0.4-1.3-0.6
		c-0.5-0.1-1-0.3-1.5-0.4c-0.9-0.2-1.8-0.4-2.6-0.7c-0.8-0.2-1.6-0.6-2.2-1s-1.1-0.9-1.5-1.6s-0.6-1.5-0.6-2.5
		c0-0.9,0.2-1.8,0.6-2.5s1-1.3,1.7-1.8c0.7-0.5,1.5-0.8,2.3-1.1c0.9-0.2,1.7-0.4,2.7-0.4c1.4,0,2.7,0.3,3.9,0.8
		c1.2,0.6,2.1,1.5,2.8,2.7l-2.7,1.8c-0.4-0.7-1-1.3-1.6-1.7c-0.7-0.4-1.5-0.6-2.5-0.6c-0.4,0-0.9,0.1-1.4,0.2s-0.9,0.3-1.2,0.5
		c-0.4,0.2-0.7,0.5-0.9,0.9c-0.2,0.3-0.4,0.7-0.4,1.2c0,0.4,0.1,0.8,0.4,1.1c0.3,0.3,0.6,0.5,1.1,0.8c0.5,0.2,1,0.4,1.6,0.6
		c0.6,0.2,1.2,0.3,1.9,0.4c0.9,0.2,1.7,0.4,2.5,0.6c0.8,0.3,1.5,0.6,2,1.1c0.6,0.4,1,1,1.4,1.7s0.5,1.5,0.5,2.5
		c0,1.1-0.2,2.1-0.7,2.8c-0.4,0.8-1,1.4-1.8,1.9c-0.7,0.5-1.6,0.8-2.5,1.1c-0.9,0.2-1.9,0.3-2.9,0.3c-1.7,0-3.1-0.3-4.3-0.8
		c-1.2-0.5-2.3-1.5-3.3-2.9L165.4,30.1z"/>
	<path class="st1" d="M219.9,33.2c-1.7,0.9-3.5,1.6-5.4,2.1c-1.9,0.4-3.8,0.7-5.7,0.7c-2.3,0-4.4-0.4-6.3-1.1
		c-1.9-0.7-3.6-1.8-5-3.2c-1.4-1.4-2.5-3-3.3-4.9c-0.8-1.9-1.2-4-1.2-6.3c0-2.3,0.4-4.4,1.2-6.4c0.8-1.9,1.9-3.5,3.4-4.9
		c1.4-1.3,3.1-2.4,5-3.1c1.9-0.8,4-1.1,6.2-1.1c1.9,0,3.8,0.3,5.6,0.9s3.4,1.6,4.8,3l-2.6,2.7c-1-1.1-2.2-1.9-3.6-2.5
		c-1.4-0.6-2.9-0.9-4.4-0.9c-1.7,0-3.3,0.3-4.7,0.9s-2.7,1.5-3.8,2.5c-1.1,1.1-1.9,2.4-2.5,3.9c-0.6,1.5-0.9,3.1-0.9,4.9
		c0,1.7,0.3,3.4,0.9,4.9c0.6,1.5,1.4,2.8,2.5,3.9c1.1,1.1,2.4,2,3.9,2.6c1.5,0.6,3.2,0.9,5,0.9c1.2,0,2.4-0.1,3.7-0.4
		c1.3-0.3,2.5-0.7,3.6-1.3v-9h-6.8v-3.2h10.3V33.2z"/>
	<path class="st1" d="M226.7,20.3c0-0.9,0-1.7-0.1-2.5c-0.1-0.8-0.1-1.5-0.1-2.1h3.1c0,0.5,0,1.1,0,1.6c0,0.5,0,1.1,0,1.6h0.1
		c0.2-0.5,0.5-0.9,0.9-1.4c0.4-0.4,0.9-0.8,1.4-1.2c0.6-0.3,1.2-0.6,1.9-0.8c0.7-0.2,1.4-0.3,2.2-0.3c0.2,0,0.4,0,0.7,0
		s0.4,0.1,0.7,0.2l-0.2,3.3c-0.6-0.2-1.1-0.2-1.7-0.2c-2,0-3.4,0.6-4.4,1.9c-0.9,1.3-1.4,3.1-1.4,5.3v9.5h-3.2V20.3z"/>
	<path class="st1" d="M241.1,18.2c1-1,2.2-1.8,3.6-2.3c1.4-0.5,2.8-0.7,4.2-0.7c2.9,0,5,0.7,6.2,2c1.3,1.4,1.9,3.4,1.9,6.2v8.4
		c0,0.6,0,1.1,0.1,1.7s0.1,1.1,0.2,1.6h-3.1c-0.1-0.4-0.2-0.9-0.2-1.5c0-0.5,0-1,0-1.4h-0.1c-0.6,1-1.5,1.8-2.6,2.5
		c-1.1,0.6-2.4,1-3.9,1c-1,0-1.9-0.1-2.8-0.4c-0.9-0.2-1.6-0.6-2.3-1.1c-0.7-0.5-1.2-1.1-1.6-1.8c-0.4-0.7-0.6-1.6-0.6-2.5
		c0-1.6,0.4-2.9,1.2-3.8c0.8-0.9,1.9-1.6,3.1-2c1.2-0.4,2.6-0.7,4-0.8c1.4-0.1,2.7-0.2,3.9-0.2h1.2v-0.6c0-1.4-0.4-2.5-1.3-3.2
		c-0.8-0.7-2-1.1-3.6-1.1c-1.1,0-2.1,0.2-3.1,0.5c-1,0.3-1.9,0.9-2.7,1.6L241.1,18.2z M250.5,25.8c-2.1,0-3.7,0.3-5,0.9
		c-1.2,0.6-1.8,1.5-1.8,2.9c0,1.2,0.4,2.1,1.2,2.6c0.8,0.5,1.8,0.8,3.1,0.8c0.9,0,1.8-0.2,2.5-0.5c0.7-0.3,1.3-0.7,1.8-1.3
		c0.5-0.5,0.8-1.1,1.1-1.9s0.4-1.5,0.4-2.3v-1.2H250.5z"/>
	<path class="st1" d="M262.9,20.3c0-0.9,0-1.7-0.1-2.5c-0.1-0.8-0.1-1.5-0.1-2.1h3.1c0,0.5,0,1.1,0,1.6c0,0.5,0,1.1,0,1.6h0.1
		c0.2-0.5,0.5-0.9,0.9-1.4c0.4-0.4,0.9-0.8,1.4-1.2c0.6-0.3,1.2-0.6,1.9-0.8c0.7-0.2,1.4-0.3,2.2-0.3c1.3,0,2.4,0.2,3.3,0.6
		c0.9,0.4,1.7,0.9,2.3,1.6c0.6,0.7,1.1,1.5,1.4,2.5s0.4,2.1,0.4,3.2v12h-3.2V23.5c0-1.6-0.4-2.9-1.1-3.9c-0.7-0.9-1.8-1.4-3.4-1.4
		c-1.1,0-2,0.2-2.7,0.5c-0.8,0.4-1.4,0.9-1.9,1.5c-0.5,0.7-0.8,1.5-1.1,2.4c-0.2,0.9-0.4,1.9-0.4,3v9.5h-3.2V20.3z"/>
	<path class="st1" d="M302.3,31.7L302.3,31.7c-0.7,1.1-1.7,2-3,2.8c-1.3,0.8-2.9,1.1-4.6,1.1c-1.4,0-2.6-0.3-3.8-0.8
		c-1.2-0.5-2.2-1.2-3.1-2.1c-0.9-0.9-1.6-2-2.1-3.2c-0.5-1.2-0.7-2.6-0.7-4.1c0-1.5,0.2-2.8,0.7-4.1c0.5-1.2,1.2-2.3,2.1-3.2
		c0.9-0.9,2-1.6,3.2-2.1c1.3-0.5,2.7-0.8,4.2-0.8c1.4,0,2.7,0.3,3.9,0.9c1.2,0.6,2.2,1.4,3.1,2.5h0.1V3.7h3.2v31.5h-3.2V31.7z
		 M302.3,25.5c0-1-0.2-2-0.5-2.9c-0.3-0.9-0.8-1.6-1.4-2.3c-0.6-0.7-1.3-1.2-2.2-1.5c-0.8-0.4-1.8-0.6-2.9-0.6c-1.1,0-2,0.2-2.9,0.6
		c-0.8,0.4-1.6,0.9-2.2,1.5c-0.6,0.7-1.1,1.4-1.4,2.3c-0.3,0.9-0.5,1.8-0.5,2.9c0,1,0.2,2,0.5,2.9c0.3,0.9,0.8,1.6,1.4,2.3
		c0.6,0.7,1.3,1.2,2.2,1.5c0.8,0.4,1.8,0.6,2.9,0.6c1.1,0,2-0.2,2.9-0.6c0.8-0.4,1.6-0.9,2.2-1.5c0.6-0.7,1.1-1.4,1.4-2.3
		C302.1,27.4,302.3,26.5,302.3,25.5z"/>
	<path class="st1" d="M328.9,31.7c-1.2,1.5-2.4,2.5-3.8,3.1c-1.4,0.6-3,0.9-4.8,0.9c-1.5,0-2.9-0.3-4.1-0.8
		c-1.2-0.5-2.3-1.3-3.1-2.2c-0.8-0.9-1.5-2-2-3.2s-0.7-2.6-0.7-4c0-1.5,0.2-2.9,0.7-4.1c0.5-1.3,1.2-2.3,2.1-3.2
		c0.9-0.9,1.9-1.6,3.2-2.1c1.2-0.5,2.6-0.7,4-0.7c1.4,0,2.6,0.2,3.7,0.7c1.1,0.5,2.1,1.1,2.9,2c0.8,0.9,1.5,1.9,1.9,3.2
		c0.4,1.3,0.7,2.7,0.7,4.3v1h-15.7c0.1,0.8,0.3,1.6,0.6,2.4c0.3,0.8,0.8,1.4,1.4,2c0.6,0.6,1.2,1,2,1.4c0.7,0.3,1.6,0.5,2.5,0.5
		c1.4,0,2.6-0.2,3.6-0.8c1-0.5,1.8-1.2,2.6-2.2L328.9,31.7z M326.1,23.7c-0.1-1.7-0.6-3-1.6-4c-1-1-2.4-1.5-4.2-1.5
		c-1.8,0-3.3,0.5-4.4,1.5c-1.1,1-1.8,2.3-2,4H326.1z"/>
	<path class="st1" d="M335.1,30.1c0.6,0.8,1.3,1.4,2.1,1.9c0.8,0.5,1.7,0.7,2.9,0.7c0.5,0,1-0.1,1.5-0.2c0.5-0.1,1-0.3,1.4-0.5
		c0.4-0.2,0.7-0.6,1-0.9c0.2-0.4,0.4-0.8,0.4-1.4s-0.1-1-0.4-1.3c-0.2-0.3-0.5-0.6-0.9-0.9c-0.4-0.2-0.8-0.4-1.3-0.6
		c-0.5-0.1-1-0.3-1.5-0.4c-0.9-0.2-1.8-0.4-2.6-0.7c-0.8-0.2-1.6-0.6-2.2-1s-1.1-0.9-1.5-1.6s-0.6-1.5-0.6-2.5
		c0-0.9,0.2-1.8,0.6-2.5s1-1.3,1.7-1.8c0.7-0.5,1.5-0.8,2.3-1.1c0.9-0.2,1.7-0.4,2.7-0.4c1.4,0,2.7,0.3,3.9,0.8
		c1.2,0.6,2.1,1.5,2.8,2.7l-2.7,1.8c-0.4-0.7-1-1.3-1.6-1.7c-0.7-0.4-1.5-0.6-2.5-0.6c-0.4,0-0.9,0.1-1.4,0.2s-0.9,0.3-1.2,0.5
		c-0.4,0.2-0.7,0.5-0.9,0.9c-0.2,0.3-0.4,0.7-0.4,1.2c0,0.4,0.1,0.8,0.4,1.1c0.3,0.3,0.6,0.5,1.1,0.8c0.5,0.2,1,0.4,1.6,0.6
		c0.6,0.2,1.2,0.3,1.9,0.4c0.9,0.2,1.7,0.4,2.5,0.6c0.8,0.3,1.5,0.6,2,1.1c0.6,0.4,1,1,1.4,1.7s0.5,1.5,0.5,2.5
		c0,1.1-0.2,2.1-0.7,2.8c-0.4,0.8-1,1.4-1.8,1.9c-0.7,0.5-1.6,0.8-2.5,1.1c-0.9,0.2-1.9,0.3-2.9,0.3c-1.7,0-3.1-0.3-4.3-0.8
		c-1.2-0.5-2.3-1.5-3.3-2.9L335.1,30.1z"/>
	<path class="st1" d="M364.4,30.1c0.6,0.8,1.3,1.4,2.1,1.9c0.8,0.5,1.7,0.7,2.9,0.7c0.5,0,1-0.1,1.5-0.2c0.5-0.1,1-0.3,1.4-0.5
		c0.4-0.2,0.7-0.6,1-0.9c0.2-0.4,0.4-0.8,0.4-1.4s-0.1-1-0.4-1.3c-0.2-0.3-0.5-0.6-0.9-0.9c-0.4-0.2-0.8-0.4-1.3-0.6
		c-0.5-0.1-1-0.3-1.5-0.4c-0.9-0.2-1.8-0.4-2.6-0.7c-0.8-0.2-1.6-0.6-2.2-1s-1.1-0.9-1.5-1.6s-0.6-1.5-0.6-2.5
		c0-0.9,0.2-1.8,0.6-2.5s1-1.3,1.7-1.8c0.7-0.5,1.5-0.8,2.3-1.1c0.9-0.2,1.7-0.4,2.7-0.4c1.4,0,2.7,0.3,3.9,0.8
		c1.2,0.6,2.1,1.5,2.8,2.7l-2.7,1.8c-0.4-0.7-1-1.3-1.6-1.7c-0.7-0.4-1.5-0.6-2.5-0.6c-0.4,0-0.9,0.1-1.4,0.2s-0.9,0.3-1.2,0.5
		c-0.4,0.2-0.7,0.5-0.9,0.9c-0.2,0.3-0.4,0.7-0.4,1.2c0,0.4,0.1,0.8,0.4,1.1c0.3,0.3,0.6,0.5,1.1,0.8c0.5,0.2,1,0.4,1.6,0.6
		c0.6,0.2,1.2,0.3,1.9,0.4c0.9,0.2,1.7,0.4,2.5,0.6c0.8,0.3,1.5,0.6,2,1.1c0.6,0.4,1,1,1.4,1.7s0.5,1.5,0.5,2.5
		c0,1.1-0.2,2.1-0.7,2.8c-0.4,0.8-1,1.4-1.8,1.9c-0.7,0.5-1.6,0.8-2.5,1.1c-0.9,0.2-1.9,0.3-2.9,0.3c-1.7,0-3.1-0.3-4.3-0.8
		c-1.2-0.5-2.3-1.5-3.3-2.9L364.4,30.1z"/>
	<path class="st1" d="M398.7,30.6c0,0.9,0,1.7,0.1,2.5c0.1,0.8,0.1,1.5,0.1,2.1h-3.1c0-0.5,0-1.1,0-1.6c0-0.5,0-1.1,0-1.6h-0.1
		c-0.2,0.5-0.5,0.9-0.9,1.4c-0.4,0.4-0.9,0.8-1.4,1.2c-0.6,0.3-1.2,0.6-1.9,0.8s-1.4,0.3-2.2,0.3c-1.3,0-2.4-0.2-3.3-0.6
		c-0.9-0.4-1.7-0.9-2.3-1.6c-0.6-0.7-1.1-1.5-1.4-2.5s-0.4-2.1-0.4-3.2v-12h3.2v11.7c0,1.6,0.4,2.9,1.1,3.9c0.7,0.9,1.8,1.4,3.4,1.4
		c1.1,0,2-0.2,2.7-0.5c0.8-0.4,1.4-0.9,1.9-1.5c0.5-0.7,0.8-1.5,1.1-2.4c0.2-0.9,0.4-1.9,0.4-3v-9.5h3.2V30.6z"/>
	<path class="st1" d="M422.3,31.7c-1.2,1.5-2.4,2.5-3.8,3.1c-1.4,0.6-3,0.9-4.8,0.9c-1.5,0-2.9-0.3-4.1-0.8
		c-1.2-0.5-2.3-1.3-3.1-2.2c-0.8-0.9-1.5-2-2-3.2s-0.7-2.6-0.7-4c0-1.5,0.2-2.9,0.7-4.1c0.5-1.3,1.2-2.3,2.1-3.2
		c0.9-0.9,1.9-1.6,3.2-2.1c1.2-0.5,2.6-0.7,4-0.7c1.4,0,2.6,0.2,3.7,0.7c1.1,0.5,2.1,1.1,2.9,2c0.8,0.9,1.5,1.9,1.9,3.2
		c0.4,1.3,0.7,2.7,0.7,4.3v1h-15.7c0.1,0.8,0.3,1.6,0.6,2.4c0.3,0.8,0.8,1.4,1.4,2c0.6,0.6,1.2,1,2,1.4c0.7,0.3,1.6,0.5,2.5,0.5
		c1.4,0,2.6-0.2,3.6-0.8c1-0.5,1.8-1.2,2.6-2.2L422.3,31.7z M419.5,23.7c-0.1-1.7-0.6-3-1.6-4c-1-1-2.4-1.5-4.2-1.5
		c-1.8,0-3.3,0.5-4.4,1.5c-1.1,1-1.8,2.3-2,4H419.5z"/>
	<path class="st1" d="M428.3,3.7h3.2v31.5h-3.2V3.7z"/>
	<path class="st1" d="M455.4,31.7c-1.2,1.5-2.4,2.5-3.8,3.1c-1.4,0.6-3,0.9-4.8,0.9c-1.5,0-2.9-0.3-4.1-0.8
		c-1.2-0.5-2.3-1.3-3.1-2.2c-0.8-0.9-1.5-2-2-3.2s-0.7-2.6-0.7-4c0-1.5,0.2-2.9,0.7-4.1c0.5-1.3,1.2-2.3,2.1-3.2
		c0.9-0.9,1.9-1.6,3.2-2.1c1.2-0.5,2.6-0.7,4-0.7c1.4,0,2.6,0.2,3.7,0.7c1.1,0.5,2.1,1.1,2.9,2c0.8,0.9,1.5,1.9,1.9,3.2
		c0.4,1.3,0.7,2.7,0.7,4.3v1h-15.7c0.1,0.8,0.3,1.6,0.6,2.4c0.3,0.8,0.8,1.4,1.4,2c0.6,0.6,1.2,1,2,1.4c0.7,0.3,1.6,0.5,2.5,0.5
		c1.4,0,2.6-0.2,3.6-0.8c1-0.5,1.8-1.2,2.6-2.2L455.4,31.7z M452.6,23.7c-0.1-1.7-0.6-3-1.6-4c-1-1-2.4-1.5-4.2-1.5
		c-1.8,0-3.3,0.5-4.4,1.5c-1.1,1-1.8,2.3-2,4H452.6z"/>
	<path class="st1" d="M461.2,20.3c0-0.9,0-1.7-0.1-2.5c-0.1-0.8-0.1-1.5-0.1-2.1h3.1c0,0.5,0,1.1,0,1.6c0,0.5,0,1.1,0,1.6h0.1
		c0.2-0.5,0.5-0.9,0.9-1.4c0.4-0.4,0.9-0.8,1.4-1.2c0.6-0.3,1.2-0.6,1.9-0.8c0.7-0.2,1.4-0.3,2.2-0.3c1.3,0,2.4,0.2,3.3,0.6
		c0.9,0.4,1.7,0.9,2.3,1.6c0.6,0.7,1.1,1.5,1.4,2.5s0.4,2.1,0.4,3.2v12h-3.2V23.5c0-1.6-0.4-2.9-1.1-3.9c-0.7-0.9-1.8-1.4-3.4-1.4
		c-1.1,0-2,0.2-2.7,0.5c-0.8,0.4-1.4,0.9-1.9,1.5c-0.5,0.7-0.8,1.5-1.1,2.4c-0.2,0.9-0.4,1.9-0.4,3v9.5h-3.2V20.3z"/>
	<path class="st1" d="M506.6,18.5h-5.7v9.7c0,0.6,0,1.2,0,1.8c0,0.5,0.1,1,0.3,1.4c0.2,0.4,0.5,0.7,0.9,1c0.4,0.2,0.9,0.4,1.7,0.4
		c0.5,0,1-0.1,1.5-0.2c0.5-0.1,1-0.3,1.4-0.5l0.1,3c-0.6,0.2-1.2,0.4-1.9,0.5c-0.7,0.1-1.3,0.2-1.9,0.2c-1.2,0-2.1-0.2-2.8-0.5
		c-0.7-0.3-1.2-0.7-1.6-1.3c-0.4-0.6-0.6-1.2-0.8-2.1c-0.1-0.8-0.2-1.7-0.2-2.7V18.5h-4.2v-2.7h4.2v-5.5h3.2v5.5h5.7V18.5z"/>
	<path class="st1" d="M528,31.7c-1.2,1.5-2.4,2.5-3.8,3.1c-1.4,0.6-3,0.9-4.8,0.9c-1.5,0-2.9-0.3-4.1-0.8c-1.2-0.5-2.3-1.3-3.1-2.2
		c-0.8-0.9-1.5-2-2-3.2s-0.7-2.6-0.7-4c0-1.5,0.2-2.9,0.7-4.1c0.5-1.3,1.2-2.3,2.1-3.2c0.9-0.9,1.9-1.6,3.2-2.1
		c1.2-0.5,2.6-0.7,4-0.7c1.4,0,2.6,0.2,3.7,0.7c1.1,0.5,2.1,1.1,2.9,2c0.8,0.9,1.5,1.9,1.9,3.2c0.4,1.3,0.7,2.7,0.7,4.3v1h-15.7
		c0.1,0.8,0.3,1.6,0.6,2.4c0.3,0.8,0.8,1.4,1.4,2c0.6,0.6,1.2,1,2,1.4c0.7,0.3,1.6,0.5,2.5,0.5c1.4,0,2.6-0.2,3.6-0.8
		c1-0.5,1.8-1.2,2.6-2.2L528,31.7z M525.2,23.7c-0.1-1.7-0.6-3-1.6-4c-1-1-2.4-1.5-4.2-1.5c-1.8,0-3.3,0.5-4.4,1.5
		c-1.1,1-1.8,2.3-2,4H525.2z"/>
	<path class="st1" d="M533.7,20.3c0-0.9,0-1.7-0.1-2.5c-0.1-0.8-0.1-1.5-0.1-2.1h3.1c0,0.5,0,1.1,0,1.6c0,0.5,0,1.1,0,1.6h0.1
		c0.2-0.5,0.5-0.9,0.9-1.4c0.4-0.4,0.9-0.8,1.4-1.2c0.6-0.3,1.2-0.6,1.9-0.8c0.7-0.2,1.4-0.3,2.2-0.3c1.3,0,2.4,0.2,3.3,0.6
		c0.9,0.4,1.7,0.9,2.3,1.6c0.6,0.7,1.1,1.5,1.4,2.5s0.4,2.1,0.4,3.2v12h-3.2V23.5c0-1.6-0.4-2.9-1.1-3.9c-0.7-0.9-1.8-1.4-3.4-1.4
		c-1.1,0-2,0.2-2.7,0.5c-0.8,0.4-1.4,0.9-1.9,1.5c-0.5,0.7-0.8,1.5-1.1,2.4c-0.2,0.9-0.4,1.9-0.4,3v9.5h-3.2V20.3z"/>
	<path class="st1" d="M574.3,31.7c-1.2,1.5-2.4,2.5-3.8,3.1c-1.4,0.6-3,0.9-4.8,0.9c-1.5,0-2.9-0.3-4.1-0.8
		c-1.2-0.5-2.3-1.3-3.1-2.2c-0.8-0.9-1.5-2-2-3.2s-0.7-2.6-0.7-4c0-1.5,0.2-2.9,0.7-4.1c0.5-1.3,1.2-2.3,2.1-3.2
		c0.9-0.9,1.9-1.6,3.2-2.1c1.2-0.5,2.6-0.7,4-0.7c1.4,0,2.6,0.2,3.7,0.7c1.1,0.5,2.1,1.1,2.9,2c0.8,0.9,1.5,1.9,1.9,3.2
		c0.4,1.3,0.7,2.7,0.7,4.3v1h-15.7c0.1,0.8,0.3,1.6,0.6,2.4c0.3,0.8,0.8,1.4,1.4,2c0.6,0.6,1.2,1,2,1.4c0.7,0.3,1.6,0.5,2.5,0.5
		c1.4,0,2.6-0.2,3.6-0.8c1-0.5,1.8-1.2,2.6-2.2L574.3,31.7z M571.5,23.7c-0.1-1.7-0.6-3-1.6-4c-1-1-2.4-1.5-4.2-1.5
		c-1.8,0-3.3,0.5-4.4,1.5c-1.1,1-1.8,2.3-2,4H571.5z"/>
	<path class="st1" d="M580,20.3c0-0.9,0-1.7-0.1-2.5c-0.1-0.8-0.1-1.5-0.1-2.1h3.1c0,0.5,0,1.1,0,1.6c0,0.5,0,1.1,0,1.6h0.1
		c0.2-0.5,0.5-0.9,0.9-1.4c0.4-0.4,0.9-0.8,1.4-1.2c0.6-0.3,1.2-0.6,1.9-0.8c0.7-0.2,1.4-0.3,2.2-0.3c0.2,0,0.4,0,0.7,0
		s0.4,0.1,0.7,0.2l-0.2,3.3c-0.6-0.2-1.1-0.2-1.7-0.2c-2,0-3.4,0.6-4.4,1.9c-0.9,1.3-1.4,3.1-1.4,5.3v9.5H580V20.3z"/>
	<path class="st1" d="M9.6,48.8h8.7c1.4,0,2.7,0.1,3.9,0.4c1.2,0.3,2.3,0.7,3.3,1.3c1,0.6,1.7,1.5,2.3,2.5c0.6,1,0.9,2.3,0.9,3.9
		c0,1.6-0.3,2.9-0.9,4c-0.6,1.1-1.4,1.9-2.4,2.5c-1,0.6-2,1-3.1,1.3S20.1,65,19,65h-5.9v13.2H9.6V48.8z M13.1,61.7H19
		c1.7,0,3.2-0.4,4.3-1.2c1.1-0.8,1.6-2,1.6-3.7c0-1.7-0.5-2.9-1.6-3.7C22.2,52.4,20.8,52,19,52h-5.9V61.7z"/>
	<path class="st1" d="M51.1,74.7c-1.2,1.5-2.4,2.5-3.8,3.1c-1.4,0.6-3,0.9-4.8,0.9c-1.5,0-2.9-0.3-4.1-0.8c-1.2-0.5-2.3-1.3-3.1-2.2
		c-0.8-0.9-1.5-2-2-3.2s-0.7-2.6-0.7-4c0-1.5,0.2-2.9,0.7-4.1c0.5-1.3,1.2-2.3,2.1-3.2c0.9-0.9,1.9-1.6,3.2-2.1
		c1.2-0.5,2.6-0.7,4-0.7c1.4,0,2.6,0.2,3.7,0.7c1.1,0.5,2.1,1.1,2.9,2c0.8,0.9,1.5,1.9,1.9,3.2c0.4,1.3,0.7,2.7,0.7,4.3v1H36.1
		c0.1,0.8,0.3,1.6,0.6,2.4c0.3,0.8,0.8,1.4,1.4,2c0.6,0.6,1.2,1,2,1.4s1.6,0.5,2.5,0.5c1.4,0,2.6-0.2,3.6-0.8s1.8-1.2,2.6-2.2
		L51.1,74.7z M48.4,66.7c-0.1-1.7-0.6-3-1.6-4c-1-1-2.4-1.5-4.2-1.5c-1.8,0-3.3,0.5-4.4,1.5c-1.1,1-1.8,2.3-2,4H48.4z"/>
	<path class="st1" d="M76.3,87.7h-3.2V75.4H73c-0.9,1.1-1.9,1.9-3.1,2.5c-1.2,0.6-2.5,0.9-3.9,0.9c-1.5,0-2.9-0.3-4.2-0.8
		s-2.3-1.2-3.2-2.1c-0.9-0.9-1.6-2-2.1-3.2c-0.5-1.2-0.7-2.6-0.7-4.1c0-1.4,0.2-2.8,0.7-4c0.5-1.2,1.2-2.3,2.1-3.2
		c0.9-0.9,1.9-1.6,3.1-2.2c1.2-0.5,2.5-0.8,3.8-0.8c1.7,0,3.3,0.4,4.6,1.1c1.3,0.8,2.3,1.7,2.9,2.8h0.1v-3.5h3.2V87.7z M73.1,68.5
		c0-1-0.2-2-0.5-2.9c-0.3-0.9-0.8-1.6-1.4-2.3c-0.6-0.7-1.3-1.2-2.2-1.5c-0.8-0.4-1.8-0.6-2.9-0.6c-1.1,0-2,0.2-2.9,0.6
		c-0.8,0.4-1.6,0.9-2.2,1.5c-0.6,0.7-1.1,1.4-1.4,2.3c-0.3,0.9-0.5,1.8-0.5,2.9c0,1,0.2,2,0.5,2.9c0.3,0.9,0.8,1.6,1.4,2.3
		c0.6,0.7,1.3,1.2,2.2,1.5c0.8,0.4,1.8,0.6,2.9,0.6c1.1,0,2-0.2,2.9-0.6c0.8-0.4,1.6-0.9,2.2-1.5c0.6-0.7,1.1-1.4,1.4-2.3
		C72.9,70.5,73.1,69.5,73.1,68.5z"/>
	<path class="st1" d="M99.3,73.6c0,0.9,0,1.7,0.1,2.5c0.1,0.8,0.1,1.5,0.1,2.1h-3.1c0-0.5,0-1.1,0-1.6c0-0.5,0-1.1,0-1.6h-0.1
		c-0.2,0.5-0.5,0.9-0.9,1.4c-0.4,0.4-0.9,0.8-1.4,1.2c-0.6,0.3-1.2,0.6-1.9,0.8s-1.4,0.3-2.2,0.3c-1.3,0-2.4-0.2-3.3-0.6
		c-0.9-0.4-1.7-0.9-2.3-1.6c-0.6-0.7-1.1-1.5-1.4-2.5s-0.4-2.1-0.4-3.2v-12h3.2v11.7c0,1.6,0.4,2.9,1.1,3.9c0.7,0.9,1.8,1.4,3.4,1.4
		c1.1,0,2-0.2,2.7-0.5c0.8-0.4,1.4-0.9,1.9-1.5c0.5-0.7,0.8-1.5,1.1-2.4c0.2-0.9,0.4-1.9,0.4-3v-9.5h3.2V73.6z"/>
	<path class="st1" d="M122.9,74.7c-1.2,1.5-2.4,2.5-3.8,3.1c-1.4,0.6-3,0.9-4.8,0.9c-1.5,0-2.9-0.3-4.1-0.8
		c-1.2-0.5-2.3-1.3-3.1-2.2c-0.8-0.9-1.5-2-2-3.2s-0.7-2.6-0.7-4c0-1.5,0.2-2.9,0.7-4.1c0.5-1.3,1.2-2.3,2.1-3.2
		c0.9-0.9,1.9-1.6,3.2-2.1c1.2-0.5,2.6-0.7,4-0.7c1.4,0,2.6,0.2,3.7,0.7c1.1,0.5,2.1,1.1,2.9,2c0.8,0.9,1.5,1.9,1.9,3.2
		c0.4,1.3,0.7,2.7,0.7,4.3v1h-15.7c0.1,0.8,0.3,1.6,0.6,2.4c0.3,0.8,0.8,1.4,1.4,2c0.6,0.6,1.2,1,2,1.4s1.6,0.5,2.5,0.5
		c1.4,0,2.6-0.2,3.6-0.8s1.8-1.2,2.6-2.2L122.9,74.7z M120.1,66.7c-0.1-1.7-0.6-3-1.6-4c-1-1-2.4-1.5-4.2-1.5
		c-1.8,0-3.3,0.5-4.4,1.5c-1.1,1-1.8,2.3-2,4H120.1z"/>
	<path class="st1" d="M128.6,63.4c0-0.9,0-1.7-0.1-2.5c-0.1-0.8-0.1-1.5-0.1-2.1h3.1c0,0.5,0,1.1,0,1.6c0,0.5,0,1.1,0,1.6h0.1
		c0.2-0.5,0.5-0.9,0.9-1.4c0.4-0.4,0.9-0.8,1.4-1.2c0.6-0.3,1.2-0.6,1.9-0.8c0.7-0.2,1.4-0.3,2.2-0.3c1.3,0,2.4,0.2,3.3,0.6
		c0.9,0.4,1.7,0.9,2.3,1.6c0.6,0.7,1.1,1.5,1.4,2.5s0.4,2.1,0.4,3.2v12h-3.2V66.5c0-1.6-0.4-2.9-1.1-3.9c-0.7-0.9-1.8-1.4-3.4-1.4
		c-1.1,0-2,0.2-2.7,0.5c-0.8,0.4-1.4,0.9-1.9,1.5c-0.5,0.7-0.8,1.5-1.1,2.4c-0.2,0.9-0.4,1.9-0.4,3v9.5h-3.2V63.4z M130.2,53.6
		c0.1-0.5,0.2-1.1,0.4-1.6c0.2-0.5,0.5-1,0.8-1.4c0.3-0.4,0.8-0.7,1.2-1c0.5-0.2,1-0.4,1.6-0.4c0.6,0,1.2,0.1,1.8,0.3
		c0.6,0.2,1.1,0.4,1.7,0.6c0.4,0.2,0.8,0.3,1.1,0.5c0.3,0.2,0.7,0.2,1.1,0.2c0.6,0,1-0.2,1.3-0.5c0.3-0.4,0.5-0.8,0.7-1.3h2
		c-0.1,0.5-0.2,1-0.4,1.6c-0.2,0.5-0.4,1-0.7,1.4c-0.3,0.4-0.7,0.7-1.1,1c-0.4,0.2-1,0.4-1.6,0.4c-0.6,0-1.2-0.1-1.7-0.3
		c-0.6-0.2-1.1-0.4-1.6-0.6c-0.4-0.2-0.9-0.3-1.3-0.5c-0.5-0.2-0.9-0.3-1.4-0.3c-0.5,0-0.9,0.2-1.2,0.6c-0.3,0.4-0.5,0.8-0.7,1.3
		H130.2z"/>
	<path class="st1" d="M150.7,68.5c0-1.5,0.3-2.9,0.8-4.2c0.5-1.2,1.2-2.3,2.2-3.2s2-1.6,3.3-2.1c1.3-0.5,2.7-0.7,4.2-0.7
		s2.9,0.2,4.2,0.7c1.3,0.5,2.4,1.2,3.3,2.1s1.6,2,2.2,3.2c0.5,1.2,0.8,2.6,0.8,4.2c0,1.5-0.3,2.9-0.8,4.2s-1.2,2.3-2.2,3.2
		s-2,1.6-3.3,2.1c-1.3,0.5-2.7,0.8-4.2,0.8s-2.9-0.2-4.2-0.8c-1.3-0.5-2.4-1.2-3.3-2.1s-1.6-2-2.2-3.2S150.7,70,150.7,68.5z
		 M154.2,68.5c0,1,0.2,2,0.5,2.9c0.3,0.9,0.8,1.6,1.4,2.3c0.6,0.7,1.3,1.2,2.2,1.5c0.8,0.4,1.8,0.6,2.9,0.6c1.1,0,2-0.2,2.9-0.6
		c0.8-0.4,1.6-0.9,2.2-1.5c0.6-0.7,1.1-1.4,1.4-2.3c0.3-0.9,0.5-1.8,0.5-2.9c0-1-0.2-2-0.5-2.9c-0.3-0.9-0.8-1.6-1.4-2.3
		c-0.6-0.7-1.3-1.2-2.2-1.5c-0.8-0.4-1.8-0.6-2.9-0.6c-1.1,0-2,0.2-2.9,0.6c-0.8,0.4-1.6,0.9-2.2,1.5c-0.6,0.7-1.1,1.4-1.4,2.3
		C154.3,66.5,154.2,67.5,154.2,68.5z"/>
	<path class="st1" d="M176.9,73.1c0.6,0.8,1.3,1.4,2.1,1.9c0.8,0.5,1.7,0.7,2.9,0.7c0.5,0,1-0.1,1.5-0.2c0.5-0.1,1-0.3,1.4-0.5
		c0.4-0.2,0.7-0.6,1-0.9c0.2-0.4,0.4-0.8,0.4-1.4s-0.1-1-0.4-1.3c-0.2-0.3-0.5-0.6-0.9-0.9c-0.4-0.2-0.8-0.4-1.3-0.6
		c-0.5-0.1-1-0.3-1.5-0.4c-0.9-0.2-1.8-0.4-2.6-0.7c-0.8-0.2-1.6-0.6-2.2-1s-1.1-0.9-1.5-1.6s-0.6-1.5-0.6-2.5
		c0-0.9,0.2-1.8,0.6-2.5s1-1.3,1.7-1.8c0.7-0.5,1.5-0.8,2.3-1.1c0.9-0.2,1.7-0.4,2.7-0.4c1.4,0,2.7,0.3,3.9,0.8
		c1.2,0.6,2.1,1.5,2.8,2.7l-2.7,1.8c-0.4-0.7-1-1.3-1.6-1.7c-0.7-0.4-1.5-0.6-2.5-0.6c-0.4,0-0.9,0.1-1.4,0.2s-0.9,0.3-1.2,0.5
		c-0.4,0.2-0.7,0.5-0.9,0.9c-0.2,0.3-0.4,0.7-0.4,1.2c0,0.4,0.1,0.8,0.4,1.1c0.3,0.3,0.6,0.5,1.1,0.8c0.5,0.2,1,0.4,1.6,0.6
		c0.6,0.2,1.2,0.3,1.9,0.4c0.9,0.2,1.7,0.4,2.5,0.6c0.8,0.3,1.5,0.6,2,1.1c0.6,0.4,1,1,1.4,1.7s0.5,1.5,0.5,2.5
		c0,1.1-0.2,2.1-0.7,2.8c-0.4,0.8-1,1.4-1.8,1.9c-0.7,0.5-1.6,0.8-2.5,1.1c-0.9,0.2-1.9,0.3-2.9,0.3c-1.7,0-3.1-0.3-4.3-0.8
		c-1.2-0.5-2.3-1.5-3.3-2.9L176.9,73.1z"/>
	<path class="st1" d="M219.7,63.6c-0.7-0.8-1.4-1.4-2.2-1.8c-0.8-0.4-1.7-0.6-2.7-0.6c-1.1,0-2,0.2-2.9,0.6
		c-0.8,0.4-1.5,0.9-2.1,1.6c-0.5,0.7-1,1.4-1.2,2.3c-0.3,0.9-0.4,1.8-0.4,2.8c0,1,0.2,1.9,0.5,2.8c0.3,0.9,0.8,1.6,1.3,2.3
		c0.6,0.7,1.3,1.2,2.1,1.6c0.8,0.4,1.7,0.6,2.7,0.6c2.1,0,3.8-0.8,5-2.4l2.4,2.3c-0.9,1.1-2.1,1.9-3.3,2.4c-1.3,0.5-2.6,0.8-4,0.8
		c-1.5,0-2.9-0.2-4.1-0.8s-2.3-1.2-3.2-2.1c-0.9-0.9-1.6-2-2-3.2c-0.5-1.2-0.7-2.6-0.7-4.1c0-1.5,0.2-2.8,0.7-4.1
		c0.5-1.2,1.2-2.3,2.1-3.2c0.9-0.9,1.9-1.6,3.2-2.1c1.2-0.5,2.6-0.8,4.1-0.8c1.4,0,2.8,0.2,4.1,0.7c1.3,0.5,2.4,1.3,3.4,2.3
		L219.7,63.6z"/>
	<path class="st1" d="M224.8,68.5c0-1.5,0.3-2.9,0.8-4.2c0.5-1.2,1.2-2.3,2.2-3.2s2-1.6,3.3-2.1c1.3-0.5,2.7-0.7,4.2-0.7
		s2.9,0.2,4.2,0.7c1.3,0.5,2.4,1.2,3.3,2.1s1.6,2,2.2,3.2c0.5,1.2,0.8,2.6,0.8,4.2c0,1.5-0.3,2.9-0.8,4.2s-1.2,2.3-2.2,3.2
		s-2,1.6-3.3,2.1c-1.3,0.5-2.7,0.8-4.2,0.8s-2.9-0.2-4.2-0.8c-1.3-0.5-2.4-1.2-3.3-2.1s-1.6-2-2.2-3.2S224.8,70,224.8,68.5z
		 M228.3,68.5c0,1,0.2,2,0.5,2.9c0.3,0.9,0.8,1.6,1.4,2.3c0.6,0.7,1.3,1.2,2.2,1.5c0.8,0.4,1.8,0.6,2.9,0.6c1.1,0,2-0.2,2.9-0.6
		c0.8-0.4,1.6-0.9,2.2-1.5c0.6-0.7,1.1-1.4,1.4-2.3c0.3-0.9,0.5-1.8,0.5-2.9c0-1-0.2-2-0.5-2.9c-0.3-0.9-0.8-1.6-1.4-2.3
		c-0.6-0.7-1.3-1.2-2.2-1.5c-0.8-0.4-1.8-0.6-2.9-0.6c-1.1,0-2,0.2-2.9,0.6c-0.8,0.4-1.6,0.9-2.2,1.5c-0.6,0.7-1.1,1.4-1.4,2.3
		C228.4,66.5,228.3,67.5,228.3,68.5z"/>
	<path class="st1" d="M250.6,63.4c0-0.9,0-1.7-0.1-2.5c-0.1-0.8-0.1-1.5-0.1-2.1h3.1c0,0.5,0,1.1,0,1.6c0,0.5,0,1.1,0,1.6h0.1
		c0.2-0.5,0.5-0.9,0.9-1.4c0.4-0.4,0.9-0.8,1.4-1.2c0.6-0.3,1.2-0.6,1.9-0.8c0.7-0.2,1.4-0.3,2.2-0.3c1.1,0,1.9,0.1,2.6,0.4
		c0.7,0.3,1.3,0.6,1.8,1c0.5,0.4,0.8,0.8,1.1,1.2c0.3,0.4,0.5,0.8,0.6,1.1c0.7-1.2,1.6-2.1,2.5-2.7c0.9-0.7,2.2-1,3.7-1
		c1.4,0,2.6,0.2,3.5,0.6c0.9,0.4,1.7,0.9,2.3,1.6c0.6,0.7,1,1.6,1.2,2.6c0.2,1,0.4,2.1,0.4,3.4v11.8h-3.2V66.6c0-0.7-0.1-1.3-0.2-2
		c-0.1-0.6-0.4-1.2-0.7-1.7c-0.4-0.5-0.8-0.9-1.5-1.2c-0.6-0.3-1.4-0.5-2.3-0.5c-0.7,0-1.3,0.1-2,0.4c-0.6,0.3-1.1,0.7-1.6,1.2
		c-0.5,0.5-0.8,1.1-1.1,1.8c-0.3,0.7-0.4,1.5-0.4,2.4v11.2h-3.2v-11c0-2.2-0.3-3.7-0.9-4.6s-1.5-1.4-2.9-1.4c-1.1,0-2,0.2-2.7,0.5
		c-0.8,0.4-1.4,0.9-1.9,1.5c-0.5,0.7-0.8,1.5-1.1,2.4c-0.2,0.9-0.4,1.9-0.4,3v9.5h-3.2V63.4z"/>
	<path class="st1" d="M285.7,51.1c0-0.6,0.2-1.2,0.7-1.7c0.5-0.5,1-0.7,1.7-0.7c0.7,0,1.2,0.2,1.7,0.7c0.5,0.5,0.7,1,0.7,1.7
		c0,0.7-0.2,1.3-0.7,1.7c-0.4,0.4-1,0.7-1.7,0.7c-0.7,0-1.3-0.2-1.7-0.7C285.9,52.4,285.7,51.8,285.7,51.1z M286.4,58.8h3.2v19.5
		h-3.2V58.8z"/>
	<path class="st1" d="M313.5,74.7c-1.2,1.5-2.4,2.5-3.8,3.1c-1.4,0.6-3,0.9-4.8,0.9c-1.5,0-2.9-0.3-4.1-0.8
		c-1.2-0.5-2.3-1.3-3.1-2.2c-0.8-0.9-1.5-2-2-3.2s-0.7-2.6-0.7-4c0-1.5,0.2-2.9,0.7-4.1c0.5-1.3,1.2-2.3,2.1-3.2
		c0.9-0.9,1.9-1.6,3.2-2.1c1.2-0.5,2.6-0.7,4-0.7c1.4,0,2.6,0.2,3.7,0.7c1.1,0.5,2.1,1.1,2.9,2c0.8,0.9,1.5,1.9,1.9,3.2
		c0.4,1.3,0.7,2.7,0.7,4.3v1h-15.7c0.1,0.8,0.3,1.6,0.6,2.4c0.3,0.8,0.8,1.4,1.4,2c0.6,0.6,1.2,1,2,1.4s1.6,0.5,2.5,0.5
		c1.4,0,2.6-0.2,3.6-0.8s1.8-1.2,2.6-2.2L313.5,74.7z M310.7,66.7c-0.1-1.7-0.6-3-1.6-4c-1-1-2.4-1.5-4.2-1.5
		c-1.8,0-3.3,0.5-4.4,1.5c-1.1,1-1.8,2.3-2,4H310.7z"/>
	<path class="st1" d="M319.3,63.4c0-0.9,0-1.7-0.1-2.5c-0.1-0.8-0.1-1.5-0.1-2.1h3.1c0,0.5,0,1.1,0,1.6c0,0.5,0,1.1,0,1.6h0.1
		c0.2-0.5,0.5-0.9,0.9-1.4c0.4-0.4,0.9-0.8,1.4-1.2c0.6-0.3,1.2-0.6,1.9-0.8c0.7-0.2,1.4-0.3,2.2-0.3c1.3,0,2.4,0.2,3.3,0.6
		c0.9,0.4,1.7,0.9,2.3,1.6c0.6,0.7,1.1,1.5,1.4,2.5s0.4,2.1,0.4,3.2v12H333V66.5c0-1.6-0.4-2.9-1.1-3.9c-0.7-0.9-1.8-1.4-3.4-1.4
		c-1.1,0-2,0.2-2.7,0.5c-0.8,0.4-1.4,0.9-1.9,1.5c-0.5,0.7-0.8,1.5-1.1,2.4c-0.2,0.9-0.4,1.9-0.4,3v9.5h-3.2V63.4z"/>
	<path class="st1" d="M340.6,75.7L352,61.5h-11v-2.7h15.2v2.5l-11.5,14.2h11.7v2.7h-16V75.7z"/>
	<path class="st1" d="M359.8,68.5c0-1.5,0.3-2.9,0.8-4.2c0.5-1.2,1.2-2.3,2.2-3.2s2-1.6,3.3-2.1c1.3-0.5,2.7-0.7,4.2-0.7
		s2.9,0.2,4.2,0.7c1.3,0.5,2.4,1.2,3.3,2.1s1.6,2,2.2,3.2c0.5,1.2,0.8,2.6,0.8,4.2c0,1.5-0.3,2.9-0.8,4.2s-1.2,2.3-2.2,3.2
		s-2,1.6-3.3,2.1c-1.3,0.5-2.7,0.8-4.2,0.8s-2.9-0.2-4.2-0.8c-1.3-0.5-2.4-1.2-3.3-2.1s-1.6-2-2.2-3.2S359.8,70,359.8,68.5z
		 M363.3,68.5c0,1,0.2,2,0.5,2.9c0.3,0.9,0.8,1.6,1.4,2.3c0.6,0.7,1.3,1.2,2.2,1.5c0.8,0.4,1.8,0.6,2.9,0.6c1.1,0,2-0.2,2.9-0.6
		c0.8-0.4,1.6-0.9,2.2-1.5c0.6-0.7,1.1-1.4,1.4-2.3c0.3-0.9,0.5-1.8,0.5-2.9c0-1-0.2-2-0.5-2.9c-0.3-0.9-0.8-1.6-1.4-2.3
		c-0.6-0.7-1.3-1.2-2.2-1.5c-0.8-0.4-1.8-0.6-2.9-0.6c-1.1,0-2,0.2-2.9,0.6c-0.8,0.4-1.6,0.9-2.2,1.5c-0.6,0.7-1.1,1.4-1.4,2.3
		C363.4,66.5,363.3,67.5,363.3,68.5z"/>
	<path class="st1" d="M386,73.1c0.6,0.8,1.3,1.4,2.1,1.9c0.8,0.5,1.7,0.7,2.9,0.7c0.5,0,1-0.1,1.5-0.2c0.5-0.1,1-0.3,1.4-0.5
		c0.4-0.2,0.7-0.6,1-0.9c0.2-0.4,0.4-0.8,0.4-1.4s-0.1-1-0.4-1.3c-0.2-0.3-0.5-0.6-0.9-0.9c-0.4-0.2-0.8-0.4-1.3-0.6
		c-0.5-0.1-1-0.3-1.5-0.4c-0.9-0.2-1.8-0.4-2.6-0.7c-0.8-0.2-1.6-0.6-2.2-1s-1.1-0.9-1.5-1.6s-0.6-1.5-0.6-2.5
		c0-0.9,0.2-1.8,0.6-2.5s1-1.3,1.7-1.8c0.7-0.5,1.5-0.8,2.3-1.1c0.9-0.2,1.7-0.4,2.7-0.4c1.4,0,2.7,0.3,3.9,0.8
		c1.2,0.6,2.1,1.5,2.8,2.7l-2.7,1.8c-0.4-0.7-1-1.3-1.6-1.7c-0.7-0.4-1.5-0.6-2.5-0.6c-0.4,0-0.9,0.1-1.4,0.2s-0.9,0.3-1.2,0.5
		c-0.4,0.2-0.7,0.5-0.9,0.9c-0.2,0.3-0.4,0.7-0.4,1.2c0,0.4,0.1,0.8,0.4,1.1c0.3,0.3,0.6,0.5,1.1,0.8c0.5,0.2,1,0.4,1.6,0.6
		c0.6,0.2,1.2,0.3,1.9,0.4c0.9,0.2,1.7,0.4,2.5,0.6c0.8,0.3,1.5,0.6,2,1.1c0.6,0.4,1,1,1.4,1.7s0.5,1.5,0.5,2.5
		c0,1.1-0.2,2.1-0.7,2.8c-0.4,0.8-1,1.4-1.8,1.9c-0.7,0.5-1.6,0.8-2.5,1.1c-0.9,0.2-1.9,0.3-2.9,0.3c-1.7,0-3.1-0.3-4.3-0.8
		c-1.2-0.5-2.3-1.5-3.3-2.9L386,73.1z"/>
	<path class="st1" d="M406.1,73.5c0.7,0,1.3,0.2,1.8,0.7c0.5,0.5,0.7,1.1,0.7,1.8c0,0.7-0.3,1.3-0.8,1.8c-0.5,0.5-1.1,0.7-1.7,0.7
		c-0.6,0-1.2-0.2-1.7-0.7c-0.5-0.5-0.8-1.1-0.8-1.8c0-0.7,0.2-1.3,0.7-1.8C404.8,73.7,405.4,73.5,406.1,73.5z"/>
</g>
</svg>
