<svg xmlns="http://www.w3.org/2000/svg" xmlns:xlink="http://www.w3.org/1999/xlink" width="96" height="77" viewBox="0 0 96 77"><defs><style>.a{fill:none;stroke:#fff;}.b{clip-path:url(#a);}.c{fill:#494949;}</style><clipPath id="a"><rect class="a" width="96" height="77" transform="translate(19073 3701)"/></clipPath></defs><g class="b" transform="translate(-19073 -3701)"><g transform="translate(18638.105 3140.021)"><path class="c" d="M458.428,598.22c-.388.336-1.547,1.235-1.6,1.04-.177-.728,1.346-2.158,1.853-2.716.628-.692,1.261-1.376,1.911-2.046.73-.756,3.75-4.422,5.212-4.247-.034,1.149-3.689,4.244-4.279,4.838-.672.684-1.348,1.362-2.022,2.042-.356.358-.7.756-1.08,1.088m3.862-1.917c1.424-1.438,2.933-2.86,4.222-4.413a2.144,2.144,0,0,0,.6-2.257.53.53,0,0,0-.189-.388.569.569,0,0,0-.459-.219c-2.384-.819-4.446,2.082-5.908,3.532-1.871,1.857-4.427,3.951-5.194,6.481a.665.665,0,0,0,.183.662c2.406,2.309,5.313-1.943,6.749-3.4" transform="translate(2.466 20.133)"/><path class="c" d="M458.742,601.071c.131-1.6,3.16-3.88,4.178-4.91.579-.587,3.76-4.242,4.283-3.715.811.819-7.077,8.32-8.461,8.626m4.675-7.391c-1.5,1.509-3,3.021-4.452,4.572-1.1,1.179-1.812,1.788-1.6,3.378v0c0,.03,0,.052.008.082a.535.535,0,0,0,.336.443c2.038,1.716,5.536-2.8,6.666-3.949,1.189-1.2,5.7-4.778,4.532-6.864-1.364-2.438-4.683,1.517-5.5,2.336" transform="translate(4.488 21.833)"/><path class="c" d="M511.383,620.981c-.245,2.436-1.845,4.289-4.719,3.629-2.108-.483-3.7-2.386-5.166-3.8-7.715-7.459-15.3-15.049-22.918-22.594q-3.971-3.932-7.94-7.865l-.024-.018a.837.837,0,0,0-.9-.215c-4.309,1.305-8.356,1.49-11.993-1.66-3.269-2.834-3.977-8.02-1.225-11.317q.978,1.572,1.955,3.142c.487.779,1.06,2.414,1.867,2.935,1.547,1,4.91.465,6.739.551a.965.965,0,0,0,.913-.668c.622-1.591,2.356-4.218,2.253-5.928a6.787,6.787,0,0,0-1.243-2.388c-.764-1.316-1.533-2.629-2.321-3.933a9.278,9.278,0,0,1,8.461,3.211c3.052,3.418,2.386,7.96-.332,11.359a.883.883,0,0,0,.149,1.1c8.143,7.618,16.835,14.655,25.346,21.882a91.311,91.311,0,0,1,9.881,9.117c1.155,1.316,1.406,1.553,1.215,3.462M480.5,604.375q-1.107-1.065-2.241-2.106.459-.435.915-.871,1.1,1.086,2.193,2.168-.435.4-.867.809m.889,5.449c-1.535,1.054-2.476.571-4.148.829-1.615.251-2.136,1.092-2.171,2.6-.03,1.277.34,2.253-.35,3.442a19.183,19.183,0,0,1-2.921,3.247c-1.173,1.209-2.378,2.39-3.589,3.563-.774.75-1.555,1.5-2.333,2.243-.881.845-.867,1.114-2.168.945-2.159-.276-4.645-3.347-6.1-4.89-.905-.955-2.436-2.2-2.171-3.6.247-1.283,2.816-3.442,3.758-4.482,2.056-2.265,4.939-5.824,8.207-6.091,1.639-.133,3.371-.078,3.977-1.861.461-1.247-.006-2.364.306-3.558a4.675,4.675,0,0,1,1.424-2c3.285,2.732,6.357,5.671,9.346,8.7a7.987,7.987,0,0,1-1.064.913m-19.955-28.086c-.41.084-.251-.087,0,0m34.048,3.989c1.9-1.829,5.506-4.13,6.355-6.616.217-.638-.082-2.014.081-2.319.356-.668,2.177-1.38,2.792-1.734,1-.575,2.012-1.136,3.019-1.7,1.342-.752,1.358-.944,2.446.1.861.827,1.372,1.086,1.106,2.172a12.317,12.317,0,0,1-1.621,2.826,10.7,10.7,0,0,1-1.692,2.617c-.791.662-1.873.523-2.865.718-2.786.549-4.719,3.609-6.634,5.482q-4.668,4.559-9.41,9.05c-.821-.68-1.635-1.366-2.452-2.048q4.436-4.276,8.875-8.547m13.166,27.527c-5.856-5.651-12.2-10.824-18.511-16.041q5.555-5.277,11.028-10.633c.825-.813,1.641-1.756,2.533-2.5,1.283-1.08,1.939-.9,3.5-1.189a3.419,3.419,0,0,0,1.378-.38c1.684-1.07,2.931-4.309,3.82-5.983.869-1.638.786-2.016-.575-3.408s-2-2.426-3.784-1.515c-2.054,1.046-5.309,2.329-6.86,4.013a2.537,2.537,0,0,0-.606,1.137c0,.4-.008.8-.016,1.2a4.712,4.712,0,0,1-1.736,2.651c-.7.8-1.569,1.5-2.338,2.233q-5.489,5.256-10.949,10.537c-2.949-2.482-5.858-5-8.676-7.616,2.673-3.754,3.086-8.592.139-12.337-3.074-3.911-7.276-5.073-12.094-4.136a.906.906,0,0,0-.567,1.336c.923,1.484,1.8,2.993,2.677,4.5a16.158,16.158,0,0,0,.909,1.567,2.1,2.1,0,0,1,.334.734,24.715,24.715,0,0,1-1.817,4.494q-1.358-.063-2.716-.129a8.135,8.135,0,0,0-2.1-.1c-.03.01-.046.01-.072.018-1.428-2.13-2.724-4.359-4.065-6.538a.986.986,0,0,0-1.489-.183c-3.953,3.388-4.029,9.624-.8,13.524,3.721,4.5,9.2,4.973,14.492,3.5q4.245,4.206,8.5,8.4-.477.456-.956.909c-1.136-1.02-2.289-2.026-3.48-2.993a1,1,0,0,0-1.34,0,10.7,10.7,0,0,0-2.265,2.6c-.754,1.424-.044,2.859-.593,4.347-.185.539-3.766.583-4.59.955a16.273,16.273,0,0,0-3.742,2.832,48.793,48.793,0,0,0-4.371,4.5c-1.014,1.171-2.738,2.706-3.434,4.083-1.024,2.028,1.275,3.732,2.607,5.168,1.768,1.911,4.289,4.87,6.678,5.973,2.613,1.207,4.444-1.688,6.079-3.263a69.684,69.684,0,0,0,7.2-7.447,4.618,4.618,0,0,0,1.127-2.5c.209-1.915-.682-2.72,1.951-3.074a8.288,8.288,0,0,0,5.369-2.963.9.9,0,0,0,0-1.285q-1.448-1.475-2.925-2.921.428-.4.853-.8,5.344,5.283,10.686,10.569,2.888,2.845,5.785,5.683c1.937,1.891,3.84,4.235,6.439,5.256a6.086,6.086,0,0,0,8.282-4.142c1.01-3.567-2.537-6.377-4.9-8.656" transform="translate(0 0)"/><path class="c" d="M482.26,596.572a1.773,1.773,0,0,1-1.869.443,1.389,1.389,0,0,1-.531-1.941,1.423,1.423,0,0,1,2.018-.473c.67.527,1.134,1.288.382,1.971m.3-3.188a2.853,2.853,0,0,0-3.776.813.764.764,0,0,0-.151.189.637.637,0,0,0-.121.284,2.716,2.716,0,0,0,1.062,3.464,3.263,3.263,0,0,0,4.033-.966c1.068-1.34.209-2.9-1.048-3.784" transform="translate(25.676 24.255)"/></g></g></svg>