<svg xmlns="http://www.w3.org/2000/svg" xmlns:xlink="http://www.w3.org/1999/xlink" width="96" height="77" viewBox="0 0 96 77"><defs><style>.a{fill:none;}.b{clip-path:url(#a);}.c{fill:#494949;}</style><clipPath id="a"><rect class="a" width="96" height="77" transform="translate(18332 3684)"/></clipPath></defs><g class="b" transform="translate(-18332 -3684)"><g transform="translate(18347.443 3672.324)"><g transform="translate(0 20)"><g transform="translate(0 0)"><path class="c" d="M63.084,47.191V31.18L47.857,26.1V47.191H45.681V23.263h-26.1V47.191H17.4V34.139H15.227V26.526H10.877V20H8.7v6.526H4.351v7.614H2.175V47.191H0V77.645H19.578v2.175h26.1V77.645H65.259V47.191ZM6.526,28.7h6.526v5.438H6.526ZM4.351,36.315H15.227V47.191H4.351ZM19.578,75.47H2.175v-26.1h17.4ZM34.8,77.645H30.454V66.769H34.8Zm8.7,0H36.98V64.594h-8.7V77.645H21.753V25.438H43.506Zm6.526-48.522,10.877,3.625V47.191H58.733V34.139H56.558V47.191H54.383V34.139H52.207V47.191H50.032ZM56.558,75.47H52.207V71.12h4.351Zm6.526,0H58.733V68.944h-8.7V75.47H45.681v-26.1h17.4Z" transform="translate(0 -20)"/></g></g><g transform="translate(4.557 51.505)"><g transform="translate(0 0)"><rect class="c" width="13" height="2" transform="translate(0 0.17)"/></g></g><g transform="translate(4.557 56.023)"><g transform="translate(0 0)"><rect class="c" width="13" height="2" transform="translate(0 -0.347)"/></g></g><g transform="translate(4.557 60.54)"><g transform="translate(0 0)"><rect class="c" width="13" height="2" transform="translate(0 0.136)"/></g></g><g transform="translate(4.557 64.154)"><g transform="translate(0 0)"><rect class="c" width="13" height="3" transform="translate(0 -0.478)"/></g></g><g transform="translate(25.016 29.789)"><path class="c" d="M184,92v6.526h6.526V92Zm4.351,4.351h-2.175V94.175h2.175Z" transform="translate(-184 -92)"/></g><g transform="translate(33.717 29.789)"><path class="c" d="M248,92v6.526h6.526V92Zm4.351,4.351h-2.175V94.175h2.175Z" transform="translate(-248 -92)"/></g><g transform="translate(25.016 38.49)"><path class="c" d="M184,156v6.526h6.526V156Zm4.351,4.351h-2.175v-2.175h2.175Z" transform="translate(-184 -156)"/></g><g transform="translate(33.717 38.49)"><path class="c" d="M248,156v6.526h6.526V156Zm4.351,4.351h-2.175v-2.175h2.175Z" transform="translate(-248 -156)"/></g><g transform="translate(25.016 47.191)"><path class="c" d="M184,220v6.526h6.526V220Zm4.351,4.351h-2.175v-2.175h2.175Z" transform="translate(-184 -220)"/></g><g transform="translate(33.717 47.191)"><path class="c" d="M248,220v6.526h6.526V220Zm4.351,4.351h-2.175v-2.175h2.175Z" transform="translate(-248 -220)"/></g><g transform="translate(25.016 55.892)"><path class="c" d="M184,284v6.526h6.526V284Zm4.351,4.351h-2.175v-2.175h2.175Z" transform="translate(-184 -284)"/></g><g transform="translate(33.717 55.892)"><path class="c" d="M248,284v6.526h6.526V284Zm4.351,4.351h-2.175v-2.175h2.175Z" transform="translate(-248 -284)"/></g><g transform="translate(47.922 51.505)"><g transform="translate(0 0)"><rect class="c" width="2" height="2" transform="translate(-0.365 0.17)"/></g></g><g transform="translate(52.439 51.505)"><g transform="translate(0 0)"><rect class="c" width="3" height="2" transform="translate(0.117 0.17)"/></g></g><g transform="translate(58.764 51.505)"><g transform="translate(0 0)"><rect class="c" width="2" height="2" transform="translate(-0.207 0.17)"/></g></g><g transform="translate(47.922 56.023)"><g transform="translate(0 0)"><rect class="c" width="2" height="2" transform="translate(-0.365 -0.347)"/></g></g><g transform="translate(52.439 56.023)"><g transform="translate(0 0)"><rect class="c" width="3" height="2" transform="translate(0.117 -0.347)"/></g></g><g transform="translate(58.764 56.023)"><g transform="translate(0 0)"><rect class="c" width="2" height="2" transform="translate(-0.207 -0.347)"/></g></g><g transform="translate(47.922 60.54)"><g transform="translate(0 0)"><rect class="c" width="2" height="2" transform="translate(-0.365 0.136)"/></g></g><g transform="translate(52.439 60.54)"><g transform="translate(0 0)"><rect class="c" width="3" height="2" transform="translate(0.117 0.136)"/></g></g><g transform="translate(58.764 60.54)"><g transform="translate(0 0)"><rect class="c" width="2" height="2" transform="translate(-0.207 0.136)"/></g></g><g transform="translate(47.922 64.154)"><g transform="translate(0 0)"><rect class="c" width="2" height="3" transform="translate(-0.365 -0.478)"/></g></g><g transform="translate(52.439 64.154)"><g transform="translate(0 0)"><rect class="c" width="3" height="3" transform="translate(0.117 -0.478)"/></g></g><g transform="translate(58.764 64.154)"><g transform="translate(0 0)"><rect class="c" width="2" height="3" transform="translate(-0.207 -0.478)"/></g></g></g></g></svg>