<svg xmlns="http://www.w3.org/2000/svg" width="48.749" height="48.643" viewBox="0 0 48.749 48.643"><defs><style>.a{fill:#ffb221;}</style></defs><g transform="translate(-207.253 -324.448)"><g transform="translate(-39 -11.617)"><path class="a" d="M246.253,384.709V384.3c.1-.071.272-.125.3-.217q1.475-5.3,2.928-10.61a3.237,3.237,0,0,0-.3-2.472,22.131,22.131,0,0,1-2.521-9.407c-.009-.322.048-.684-.4-.784,0-.54.356-3.086.469-3.82a24.243,24.243,0,1,1,13.725,24.967,3.277,3.277,0,0,0-2.485-.235C254.079,382.795,250.159,383.726,246.253,384.709Zm6.113-5.981a34.857,34.857,0,0,0,5.811-1.392,3.708,3.708,0,0,1,3.035.356,19.144,19.144,0,0,0,13.319,2.1,19.819,19.819,0,0,0,15.879-23.463A18.92,18.92,0,0,0,276.619,341.1c-7.433-2.259-14.211-.552-19.8,4.858A19.063,19.063,0,0,0,251,363.034a21.765,21.765,0,0,0,3.291,8.559Z"/><path class="a" d="M282.742,376.478a16.541,16.541,0,0,0,9.659,7.087c1.465-.712,2.007-2.063,3.29-2.941a33.482,33.482,0,0,1,6.541,2.557c.319,2.985-1.6,5.119-4.906,5.464a11.325,11.325,0,0,1-3.871-.238,26.283,26.283,0,0,1-16.347-11.793,5.634,5.634,0,0,1-.7-5.749c1.345-2.8,2.7-3.636,5.717-3.05,1.309,1.652,1.96,3.684,2.831,5.477C284.541,374.562,283.331,375.225,282.742,376.478Z" transform="translate(-18.403 -17.792)"/></g></g></svg>