<svg xmlns="http://www.w3.org/2000/svg" width="39.156" height="27.532" viewBox="0 0 39.156 27.532"><defs><style>.a{fill:#fff;}</style></defs><path class="a" d="M53.271,68.308a4.92,4.92,0,0,0-3.462-3.484C46.755,64,34.511,64,34.511,64s-12.244,0-15.3.824a4.92,4.92,0,0,0-3.462,3.484c-.818,3.073-.818,9.486-.818,9.486s0,6.412.818,9.486a4.847,4.847,0,0,0,3.462,3.429c3.054.824,15.3.824,15.3.824s12.244,0,15.3-.824a4.847,4.847,0,0,0,3.462-3.429c.818-3.073.818-9.486.818-9.486S54.089,71.381,53.271,68.308ZM30.506,83.616V71.972L40.74,77.794,30.506,83.616Z" transform="translate(-14.933 -64)"/></svg>