<svg xmlns="http://www.w3.org/2000/svg" xmlns:xlink="http://www.w3.org/1999/xlink" width="96" height="77" viewBox="0 0 96 77"><defs><style>.a{fill:none;stroke:#fff;}.b{clip-path:url(#a);}.c{fill:#494949;}</style><clipPath id="a"><rect class="a" width="96" height="77" transform="translate(18700 3701)"/></clipPath></defs><g class="b" transform="translate(-18700 -3701)"><g transform="translate(18577.373 3139.382)"><path class="c" d="M174.161,597.887c-5.992,4.757-14.625,4.961-20.275-.475-5.717-5.5-5.319-14.272.12-19.828,5.471-6.185,14.784-5.708,20.976-1.03,7.6,5.746,6.216,15.745-.821,21.333m4.476,5.609a7.153,7.153,0,0,0-2.178,1.62c-1.237-1.328-2.344-2.781-3.45-4.217a19.1,19.1,0,0,0,2.487-1.74c1.093,1.412,2.045,2.929,3.141,4.338m7,5.685a108.523,108.523,0,0,1,8.483,11.474c.921,1.54,1.647,2.775.873,4.441a4.65,4.65,0,0,1-2.747,2.352c-.044.015-.085.022-.129.037.107-.176.2-.357.32-.525a.715.715,0,0,0-.074-.978.7.7,0,0,0-.976.078,13.432,13.432,0,0,0-.867,1.429,2.955,2.955,0,0,1-.806-.431q.51-1.606,1.178-3.16c.353-.817-.893-1.424-1.246-.6-.381.884-.712,1.784-1.021,2.69-.207-.253-.407-.523-.6-.793q.618-1.578,1.239-3.15c.324-.827-.921-1.433-1.246-.6q-.477,1.209-.95,2.42c-.19-.268-.383-.533-.575-.8a21.512,21.512,0,0,1,1.021-3.347c.329-.821-.915-1.431-1.248-.6a24.344,24.344,0,0,0-.838,2.483q-.474-.643-.95-1.291a26.242,26.242,0,0,1,1.246-3.09.693.693,0,0,0-1.248-.6c-.368.767-.682,1.555-.976,2.352-.176-.242-.349-.486-.523-.727q.593-1.5,1.187-3c.325-.826-.919-1.435-1.248-.6l-.887,2.25c-.168-.242-.333-.492-.5-.736a.7.7,0,0,0,.07-.213,16.253,16.253,0,0,1,1.089-3.809c.346-.819-.9-1.425-1.248-.6a17.907,17.907,0,0,0-.969,2.984c-.194-.313-.383-.63-.569-.947a16.516,16.516,0,0,1,1.557-3.594c.447-.767-.8-1.365-1.248-.6a17.324,17.324,0,0,0-1.222,2.6c-.172-.3-.346-.608-.514-.926a17.283,17.283,0,0,1,1.315-2.711c.457-.764-.791-1.361-1.248-.6a17.129,17.129,0,0,0-.826,1.555,3.132,3.132,0,0,1,.887-3.568c2.759-2.426,5.493,1.518,7.039,3.457m-12.321-35.863c-6.675-3.592-15.5-2.823-20.712,3.067-4.489,4.583-6.257,11.948-3.335,17.842a16.794,16.794,0,0,0,16.2,9.117,17.877,17.877,0,0,0,5.878-1.59,61.516,61.516,0,0,0,4.13,5c-.664,2.252,1.335,5.071,2.357,6.92,2.243,4.056,5.2,7.667,7.862,11.441,1.266,1.7,2.971,4.522,5.388,4.6,1.867.057,5.2-2.03,5.966-3.737,1.095-2.422-.736-5.43-2.047-7.336a140.746,140.746,0,0,0-8.573-11.4c-1.548-1.819-3.213-4.415-5.868-4.291-1.322-1.607-2.4-3.395-3.7-5.025a18.027,18.027,0,0,0,4.43-7c2.5-7.433-1.353-14.044-7.978-17.613"/><path class="c" d="M175.756,586c-.057,3.382-2.431,6.1-5.055,7.948-4.683,3.3-11.909,3.938-16.411-.078-5.2-4.643-3.274-13.43,1.8-17.372,4.705-3.378,11.012-2.426,15.327,1.254,2.309,1.973,4.393,5.092,4.339,8.248m-20.442-10.65c-5.447,4.234-7.741,13.362-2.7,18.8,4.816,5.2,13.377,4.809,18.864.943,6.092-4.289,7.394-11.262,2.274-16.988-4.622-5.171-12.663-6.9-18.436-2.757" transform="translate(1.678 1.6)"/><path class="c" d="M154.092,580.326a11.081,11.081,0,0,0-.518,4.179,8.133,8.133,0,0,0,.536,2.341,7.067,7.067,0,0,1,.324.69c.189.686.372,1.928-.673.364a8.642,8.642,0,0,1-.677-6.887c.118-.375,1.215-3.008,1.629-2.287a10.209,10.209,0,0,1-.621,1.6m-1.575-1.5a10.129,10.129,0,0,0,.1,9.849c.566.849,1.573,2.049,2.746,1.618a1.759,1.759,0,0,0,.895-2.206c-.218-.782-.773-1.437-1.024-2.215a7.776,7.776,0,0,1-.211-3.4c.179-1.354,1.135-2.653,1.211-3.959a1.7,1.7,0,0,0-1.267-1.736c-1.139-.2-1.984,1.22-2.448,2.05" transform="translate(2.928 4.759)"/><path class="c" d="M156.187,576.755c-.018-.039-.013-.03,0,0m-.006.309a.537.537,0,0,1-.4.422.6.6,0,0,1-.61-.9c.161-.209.3-.322.521-.253a.975.975,0,0,1,.5.444.14.14,0,0,1,.013.041.987.987,0,0,1-.03.246M154.04,575.8a.2.2,0,0,0-.015.028.711.711,0,0,0-.083.122,2.006,2.006,0,0,0,1.218,2.857,1.946,1.946,0,0,0,2.428-1.932,2.056,2.056,0,0,0-1.23-1.753,1.8,1.8,0,0,0-2.319.679" transform="translate(4.986 3.211)"/></g></g></svg>